<?xml version="1.0" standalone="no"?>
<!DOCTYPE svg PUBLIC "-//W3C//DTD SVG 20010904//EN"
 "https://www.w3.org/TR/2001/REC-SVG-20010904/DTD/svg10.dtd">
<svg version="1.0" xmlns="https://www.w3.org/2000/svg"
 width="3200.000000pt" height="3200.000000pt" viewBox="0 0 3200.000000 3200.000000"
 preserveAspectRatio="xMidYMid meet">
<metadata>
Created by potrace 1.11, written by Peter Selinger 2001-2013
</metadata>
<g transform="translate(0.000000,3200.000000) scale(0.100000,-0.100000)"
fill="#000000" stroke="none">
<path d="M10842 25589 c-336 -45 -668 -206 -895 -433 -509 -509 -745 -1495
-552 -2303 50 -209 157 -499 261 -704 l35 -70 -128 -153 c-1374 -1646 -2224
-3688 -2407 -5786 -37 -418 -48 -1026 -26 -1405 118 -2033 837 -3830 2105
-5265 168 -190 511 -531 705 -701 1079 -945 2269 -1555 3795 -1944 860 -220
1631 -339 2635 -407 299 -21 1384 -17 1690 5 1074 79 1932 240 2790 526 2161
720 3530 2090 3926 3931 52 243 123 732 108 749 -2 2 -52 -19 -111 -47 -330
-156 -800 -308 -1215 -391 -340 -69 -546 -91 -909 -98 -371 -7 -519 7 -791 74
l-108 26 0 47 c0 120 49 524 91 748 l21 113 62 67 c126 138 240 305 335 491
59 116 135 299 162 390 7 23 19 45 26 48 55 21 1080 -239 1756 -446 70 -21
127 -34 127 -29 0 18 -277 292 -375 371 -331 267 -719 451 -1230 582 l-170 44
4 98 c2 54 4 99 5 100 1 1 40 6 86 12 242 29 773 51 1238 51 236 0 333 3 330
11 -11 33 -343 199 -513 257 -288 98 -516 132 -906 132 l-247 0 -6 23 c-12 47
-3 82 95 353 l101 279 77 80 c265 277 471 639 596 1052 179 587 185 1230 17
1728 -54 159 -27 393 73 646 21 52 53 121 73 154 76 132 116 335 116 600 0
376 -82 807 -251 1320 -112 343 -318 786 -515 1113 l-20 33 39 -7 39 -6 188
399 c258 544 334 747 406 1073 80 365 87 665 25 976 -137 680 -596 1079 -1356
1178 -332 44 -782 24 -1133 -50 -637 -134 -1289 -491 -1772 -969 -61 -60 -133
-136 -160 -167 l-50 -57 -69 18 c-39 10 -124 40 -190 66 -186 73 -479 170
-708 235 -1410 400 -2944 396 -4352 -11 l-140 -40 -170 168 c-565 560 -1094
877 -1750 1048 -231 61 -353 77 -610 80 -126 2 -263 -1 -303 -6z m518 -884
c218 -41 485 -135 695 -244 470 -244 943 -679 1440 -1326 213 -277 625 -864
737 -1050 26 -44 48 -73 48 -64 0 9 -20 239 -45 510 -24 272 -46 514 -47 539
-3 44 -3 45 45 67 180 87 658 180 1156 227 434 41 663 50 1321 51 695 0 817
-6 1250 -61 768 -97 1487 -298 2018 -565 135 -68 151 -74 136 -51 -61 94 -376
595 -380 606 -9 24 163 216 321 359 530 478 1055 691 1760 714 479 15 749 -87
869 -330 79 -161 100 -416 56 -667 -29 -169 -127 -483 -199 -640 l-20 -45 7
70 c12 121 8 395 -7 455 -58 233 -197 331 -407 287 -270 -57 -579 -365 -842
-840 l-60 -108 137 -187 c526 -718 937 -1390 1147 -1878 107 -249 233 -686
286 -989 18 -104 22 -169 23 -325 l0 -195 -56 -115 c-158 -323 -238 -676 -226
-995 6 -155 21 -237 73 -398 56 -175 77 -313 77 -522 0 -120 -6 -217 -17 -290
-77 -501 -298 -946 -583 -1176 -80 -64 -201 -129 -240 -129 -12 0 -237 52
-499 115 -262 63 -478 115 -479 115 -2 0 35 -38 81 -85 273 -277 581 -789 698
-1161 143 -459 35 -1060 -264 -1474 -44 -62 -47 -70 -54 -149 -4 -46 -18 -149
-31 -230 -84 -492 -246 -910 -473 -1221 -65 -88 -163 -202 -169 -196 -2 2 5
50 16 107 34 183 45 325 45 594 -1 327 -35 697 -66 717 -7 4 -26 8 -42 8 -58
0 -284 52 -418 96 -242 79 -588 232 -588 259 0 8 7 46 15 85 49 234 176 468
354 654 36 37 125 113 197 167 72 54 153 122 180 151 137 144 224 309 315 593
117 366 153 438 254 514 30 23 55 43 55 45 0 2 -97 -29 -215 -70 -791 -271
-1446 -337 -2110 -213 -226 42 -508 123 -678 195 l-79 33 7 -42 c21 -123 92
-316 157 -424 57 -96 192 -228 358 -352 344 -257 671 -653 806 -977 104 -251
42 -375 -177 -357 -90 8 -332 -13 -498 -42 -266 -47 -509 -120 -991 -298 -366
-135 -608 -198 -832 -217 -394 -33 -675 108 -824 413 l-29 58 25 20 c41 33
298 156 405 195 144 52 342 100 545 134 283 46 767 100 1050 116 150 9 139 13
-130 48 -740 98 -1139 117 -1466 67 -149 -22 -318 -62 -417 -98 -37 -13 -71
-22 -76 -18 -16 9 -31 102 -31 183 1 173 66 244 290 316 131 43 306 79 520
108 142 19 208 22 480 22 226 0 365 -5 493 -18 98 -10 181 -16 183 -13 7 7
-283 119 -455 176 -177 59 -392 113 -536 136 -224 36 -704 37 -902 2 -50 -9
-73 -10 -73 -3 0 18 70 148 106 198 122 166 305 256 539 265 188 8 352 -35
730 -189 94 -38 193 -78 220 -88 l50 -20 -40 36 c-140 126 -443 337 -587 410
-132 66 -307 105 -577 130 l-73 6 163 165 164 165 -70 -5 c-388 -32 -871 -371
-1085 -762 -136 -250 -203 -556 -204 -927 l0 -207 -51 45 c-226 200 -670 493
-1175 774 -485 270 -749 464 -967 710 -293 330 -430 676 -489 1233 -29 279
-11 698 41 922 7 33 13 61 11 62 -5 6 -234 -195 -335 -296 -593 -586 -939
-1308 -1033 -2156 -17 -159 -17 -689 0 -855 115 -1080 588 -2201 1367 -3235
1267 -1683 3134 -2868 4995 -3169 85 -14 166 -27 180 -29 92 -15 -320 -1 -700
23 -3527 229 -6009 1483 -7417 3750 -237 382 -483 873 -664 1326 -269 675
-465 1470 -548 2219 -177 1597 131 3150 901 4543 546 989 1294 1851 2324 2679
241 194 354 419 341 683 -9 191 -74 344 -260 609 -369 528 -603 702 -808 603
-63 -31 -128 -96 -155 -158 -88 -199 -122 -615 -94 -1153 6 -107 8 -196 6
-198 -6 -7 -96 174 -142 284 -192 463 -249 917 -163 1308 110 501 346 778 709
834 86 13 284 6 390 -14z"/>
<path d="M15195 19399 c-301 -34 -585 -257 -746 -583 -21 -44 -39 -85 -39 -91
0 -6 28 -25 63 -42 235 -116 600 -347 822 -520 185 -144 249 -187 359 -239
194 -92 404 -134 696 -141 208 -5 346 6 493 41 67 16 50 32 141 -132 174 -318
406 -597 604 -730 80 -53 206 -111 217 -100 11 11 -139 640 -220 923 -99 348
-211 645 -296 788 -80 135 -202 225 -534 392 -471 238 -975 401 -1340 435
-120 11 -119 11 -220 -1z m778 -800 l227 -33 36 -63 c44 -79 129 -167 186
-193 84 -38 260 -14 396 54 l47 23 110 -37 110 -38 -85 -84 c-70 -68 -104 -93
-180 -131 -129 -63 -206 -81 -360 -81 -114 0 -132 2 -211 30 -204 73 -378 247
-500 501 -45 93 -45 96 -21 89 9 -2 119 -19 245 -37z"/>
<path d="M21378 19270 c-289 -34 -526 -108 -818 -256 -252 -127 -437 -265
-456 -338 -8 -35 24 -228 86 -506 63 -283 292 -1200 300 -1200 3 0 34 129 69
288 34 158 72 326 82 373 l20 86 157 5 c355 12 495 85 704 368 194 263 377
413 574 471 l44 13 0 61 c-1 193 -105 402 -260 518 -144 109 -286 142 -502
117z m153 -562 c-109 -321 -310 -488 -586 -488 -145 0 -291 52 -384 136 l-46
41 80 40 80 40 60 -19 c81 -25 201 -34 249 -18 70 23 139 101 177 200 l17 45
178 51 c99 29 184 52 191 53 8 1 2 -28 -16 -81z"/>
</g>
</svg>
