<?xml version="1.0" standalone="no"?>
<!DOCTYPE svg PUBLIC "-//W3C//DTD SVG 20010904//EN"
 "http://www.w3.org/TR/2001/REC-SVG-20010904/DTD/svg10.dtd">
<svg version="1.0" xmlns="http://www.w3.org/2000/svg"
 width="512.000000pt" height="512.000000pt" viewBox="0 0 512.000000 512.000000"
 preserveAspectRatio="xMidYMid meet">
<metadata>
Created by potrace 1.14, written by Peter Selinger 2001-2017
</metadata>
<g transform="translate(0.000000,512.000000) scale(0.100000,-0.100000)"
fill="#000000" stroke="none">
<path d="M381 5104 c-178 -48 -317 -191 -366 -374 -22 -84 -22 -4234 0 -4328
46 -196 198 -346 392 -387 101 -22 4204 -22 4305 -1 196 42 352 197 393 393
22 105 22 4228 0 4322 -43 183 -201 338 -385 380 -30 7 -742 10 -2165 10
-1819 0 -2128 -2 -2174 -15z m1212 -475 c181 -60 349 -217 551 -516 38 -57 71
-101 73 -99 2 1 -1 45 -7 97 -17 160 -16 164 28 177 144 43 609 68 818 43 192
-23 369 -69 497 -130 31 -15 57 -26 57 -24 0 1 -20 34 -45 73 -25 39 -45 75
-45 80 0 18 119 125 182 163 99 60 183 82 313 82 93 0 116 -3 145 -20 68 -40
88 -134 55 -259 -23 -87 -33 -99 -33 -40 -1 96 -35 133 -108 119 -71 -13 -227
-200 -199 -239 6 -7 57 -82 113 -167 126 -187 194 -322 228 -454 31 -123 29
-199 -10 -305 -34 -91 -38 -196 -13 -279 51 -164 -25 -411 -146 -476 -34 -18
-35 -18 -140 8 -59 15 -112 27 -118 27 -6 0 6 -19 28 -42 48 -53 104 -145 133
-217 45 -115 33 -251 -30 -354 -17 -27 -30 -55 -30 -63 0 -36 -34 -173 -57
-230 -13 -35 -40 -84 -59 -111 l-34 -48 6 105 c3 58 2 131 -3 164 l-8 58 -74
19 c-71 18 -181 62 -181 73 0 3 10 31 22 63 17 47 39 75 112 148 89 87 93 93
121 178 17 49 38 97 48 107 9 11 17 21 17 24 0 2 -31 -7 -70 -20 -203 -68
-421 -72 -603 -9 -27 9 -51 14 -54 12 -2 -3 1 -25 9 -49 13 -43 37 -71 172
-196 90 -84 165 -217 137 -245 -6 -6 -54 -15 -105 -18 -76 -6 -125 -18 -262
-64 -180 -61 -254 -74 -321 -56 -41 11 -103 68 -103 95 0 7 21 23 48 34 96 41
166 55 387 78 64 7 67 8 35 15 -19 4 -94 13 -165 20 -126 12 -189 8 -307 -17
-26 -6 -28 -4 -28 25 0 17 9 40 19 50 39 39 202 66 351 58 l105 -6 -45 20
c-100 45 -190 64 -312 64 -123 0 -123 0 -86 46 23 28 80 51 128 51 44 -1 139
-28 205 -59 28 -13 27 -11 -10 23 -55 49 -131 92 -179 99 -81 13 -82 13 -47
49 17 18 31 35 31 39 0 13 -66 -6 -123 -36 -120 -63 -186 -171 -195 -318 l-5
-89 -46 35 c-54 41 -146 99 -286 180 -121 71 -210 156 -249 239 -47 99 -67
259 -47 379 4 26 6 47 4 47 -15 0 -95 -77 -145 -139 -135 -168 -198 -370 -185
-595 21 -359 208 -729 528 -1047 250 -248 541 -418 864 -505 l90 -24 -100 6
c-654 39 -1212 262 -1541 617 -241 260 -407 605 -480 997 -22 117 -30 413 -15
537 58 472 294 895 687 1230 66 56 127 115 136 131 44 74 30 150 -46 256 -102
142 -174 174 -223 100 -14 -22 -18 -56 -23 -173 l-5 -146 -23 60 c-37 92 -55
192 -47 258 12 110 58 201 116 230 48 23 146 22 222 -4z"/>
<path d="M2375 3374 c-58 -32 -125 -108 -125 -143 0 -5 29 -26 65 -46 36 -20
95 -59 131 -87 107 -81 140 -93 277 -94 l117 -1 31 -49 c52 -83 167 -189 185
-171 6 6 -60 261 -86 329 -33 89 -58 118 -138 161 -178 96 -384 141 -457 101z"/>
<path d="M3839 3350 c-54 -14 -142 -55 -194 -90 -34 -23 -45 -37 -45 -57 0
-28 78 -360 90 -382 5 -9 15 17 27 69 l18 84 40 9 c106 21 113 26 171 98 37
46 71 77 100 92 28 13 44 28 44 39 0 32 -26 82 -59 113 -27 25 -40 29 -94 32
-34 1 -78 -2 -98 -7z"/>
</g>
</svg>
