<svg width="49" height="10" viewBox="0 0 49 10" fill="none" xmlns="http://www.w3.org/2000/svg">
<path d="M47.8767 6.32322C48.4898 6.06048 47.8329 5.71016 47.614 5.31605C47.9643 5.49121 47.8767 5.00952 48.2708 5.05331C48.0519 4.00235 47.0447 3.38929 45.3807 3.17034C45.3807 3.08276 45.4683 3.03897 45.4683 2.9076C44.286 3.17034 42.4906 1.76906 41.2207 2.29454C41.3082 1.68148 40.6952 2.51349 40.8266 1.90043C36.36 1.41874 31.762 1.11221 27.9523 1.156C27.9961 1.28737 27.9523 1.37495 27.821 1.41874C26.5073 0.937054 24.274 1.24358 22.0407 1.41874C21.7342 1.41874 21.4276 1.41874 21.1649 1.41874C20.5956 1.41874 21.1211 1.63769 21.3838 1.55011C21.8655 1.63769 22.6537 1.37495 22.9165 1.68148C22.1283 1.68148 21.2963 1.68148 20.508 1.68148C14.465 2.33833 8.99129 2.55728 3.38618 3.91477C3.51755 3.91477 3.60513 3.95856 3.60513 4.04614C3.42997 4.39646 2.55417 4.00235 2.37901 4.30888C2.4228 4.48404 2.51038 4.30888 2.37901 4.30888C2.20385 4.48404 1.89732 4.52783 1.72216 4.70299C1.94111 4.74678 2.46659 4.52783 2.46659 4.83436C2.02869 4.74678 1.76595 4.87815 1.45942 4.96573C1.41563 5.22847 1.72216 5.14089 1.72216 5.31605C1.32805 5.31605 0.89015 5.31605 0.452251 5.31605C0.233301 5.535 0.627411 5.71016 0.320881 5.9729C0.539831 6.32322 0.233301 6.71732 0.71499 7.06764C0.539831 7.15522 0.408461 7.28659 0.320881 7.46175C0.583621 7.81207 0.75878 8.51271 0.583621 8.86303C9.60434 8.33755 19.5884 6.23564 27.602 6.58595C27.7334 6.4108 28.1275 6.45458 28.4778 6.45458C28.2589 6.23564 27.602 6.4108 27.602 5.9729C27.7334 5.9729 27.821 5.92911 27.821 5.84153C27.1641 5.84153 27.6896 5.31605 27.821 5.84153C27.9961 5.84153 27.9523 6.06048 27.9523 6.19184C28.1275 6.19184 28.3026 6.19184 28.4778 6.19184C28.4778 6.10427 28.6092 6.06048 28.6092 5.9729C28.2589 5.92911 28.3026 5.535 28.6968 5.57879C28.7405 5.75395 28.653 5.84153 28.6092 5.9729C28.6968 5.9729 28.6968 6.10427 28.6968 6.19184C29.0909 6.10427 29.0909 6.10427 29.485 6.19184C29.4412 6.06048 29.485 5.9729 29.6163 5.9729C29.6163 5.88532 29.6163 5.79774 29.6163 5.71016C29.5288 5.79774 28.9157 5.9729 28.8281 5.71016C29.0471 5.66637 29.3974 5.535 29.6163 5.71016C29.7477 5.71016 29.8353 5.66637 29.8353 5.57879C29.7039 5.535 29.5725 5.40363 29.6163 5.18468C30.1418 5.27226 29.485 4.96573 29.8353 4.96573C30.4046 4.96573 30.3608 5.05331 30.8425 4.96573C30.8425 4.92194 30.8425 4.87815 30.8425 4.83436C29.8353 4.79057 29.5725 4.6592 29.3536 5.18468C29.3536 5.00952 29.0033 5.14089 28.9595 4.96573C29.1784 4.87815 28.9595 4.79057 28.9595 4.57162C29.3536 4.48404 30.0542 4.74678 30.2294 4.44025C30.0542 4.35267 29.5725 4.57162 29.6163 4.30888C30.2294 4.08993 29.5288 4.08993 29.6163 3.82719C30.317 3.7834 29.8353 4.30888 30.2294 4.44025C30.6235 4.35267 30.4483 4.17751 30.6235 4.04614C31.0176 4.00235 31.1928 4.13372 31.4993 4.17751C31.4993 4.08993 31.4993 3.95856 31.6307 3.91477C31.5869 4.04614 31.6307 4.17751 31.4993 4.17751C31.5869 4.61541 31.2366 4.39646 31.1052 4.30888C31.1052 4.39646 31.0176 4.44025 30.8425 4.44025C30.7549 5.00952 31.1928 4.26509 31.2366 4.70299C31.1928 4.87815 30.9738 4.83436 30.8425 4.96573C30.8425 5.05331 31.0176 5.05331 31.1052 5.05331C31.1928 4.74678 31.7183 5.35984 31.762 4.83436C31.4993 4.87815 31.3679 4.79057 31.3679 4.57162C31.981 4.61541 31.5869 3.87098 31.981 4.57162C31.981 3.65203 33.2071 4.04614 32.8568 4.44025C32.8568 4.52783 32.8568 4.61541 32.8568 4.70299C33.4699 4.61541 33.1195 4.2213 33.5136 4.04614C33.8202 4.26509 33.7764 3.87098 34.2581 3.91477C34.0829 3.56445 34.9149 3.60824 34.9149 3.82719C34.8711 3.95856 34.9149 4.17751 34.7836 4.17751C34.696 4.08993 34.696 3.60824 34.2581 3.91477C34.2581 4.00235 34.2581 4.08993 34.2581 4.17751C34.3457 4.17751 34.3894 4.30888 34.2581 4.30888C34.2581 4.44025 34.4332 4.39646 34.5208 4.44025C34.4332 4.2213 35.1339 4.2213 35.0025 4.44025C34.8711 4.44025 34.696 4.44025 34.5208 4.44025C34.5208 4.52783 34.5208 4.61541 34.5208 4.70299C34.8711 4.6592 34.8273 4.79057 35.1339 4.70299C34.8711 4.52783 35.7469 4.57162 35.1339 4.30888C35.6593 4.26509 35.528 4.26509 36.0097 4.30888C35.7907 4.52783 36.0535 4.79057 36.4038 4.83436C35.8345 4.04614 37.1482 4.08993 37.4109 3.56445C37.192 3.73961 36.8417 3.38929 36.5351 3.30171C36.8417 3.30171 37.1044 3.30171 37.4109 3.30171C37.4109 3.38929 37.4109 3.47687 37.4109 3.56445C37.5861 3.87098 38.2867 3.47687 38.2867 3.69582C38.1116 3.7834 38.3305 4.30888 37.9364 4.17751C37.8051 3.60824 37.1482 4.04614 36.7979 4.44025C36.9293 4.44025 37.0606 4.44025 37.1482 4.44025C37.1482 4.30888 37.192 4.2213 37.2796 4.17751C37.4109 4.6592 37.8051 4.17751 37.9364 4.44025C37.6737 4.79057 37.8488 5.05331 37.4109 4.83436C37.2796 5.18468 37.7175 5.05331 37.9364 5.05331C37.9802 4.83436 37.9802 4.52783 38.2867 4.57162C38.4181 4.83436 38.6371 4.83436 38.9436 4.44025C39.0312 4.52783 39.2939 4.52783 39.2939 4.70299C39.1188 4.74678 39.2063 5.00952 39.1625 5.18468C39.688 5.27226 39.7756 4.79057 39.4253 4.70299C40.1259 4.52783 40.8703 4.57162 40.4325 5.31605C40.9141 5.40363 40.6514 4.79057 40.9579 4.70299C41.3082 4.74678 41.7461 5.31605 41.9651 5.05331C41.7024 4.87815 42.0965 4.70299 41.7024 4.57162C42.0527 4.39646 42.7533 4.74678 43.1036 4.30888C42.8409 4.61541 43.1036 4.44025 43.235 4.70299C43.0598 5.05331 41.8775 4.30888 42.2278 4.96573C42.3154 4.87815 42.4468 4.79057 42.4468 4.96573C42.4468 5.05331 42.3154 5.05331 42.3154 5.18468C42.7095 5.31605 42.6657 5.00952 42.9723 5.05331C42.9285 5.22847 42.7533 5.27226 42.7095 5.44742C42.9285 5.31605 43.3226 5.40363 43.454 5.18468C43.4102 5.18468 43.3226 5.0971 43.454 5.05331C43.454 5.0971 43.454 5.14089 43.454 5.18468C43.6729 5.14089 43.7167 5.31605 43.7167 5.44742C43.8919 5.44742 43.9356 5.49121 43.9794 5.57879C43.8919 5.66637 43.6291 5.66637 43.5853 5.84153C43.8919 5.88532 44.5487 6.14806 44.5925 5.71016C44.3735 5.75395 44.3735 5.62258 44.3735 5.44742C44.5487 5.40363 44.5925 5.57879 44.7239 5.57879C44.7677 5.49121 44.7239 5.31605 44.8552 5.31605C44.8114 5.40363 44.8552 5.57879 44.7239 5.57879C44.7239 5.62258 44.7239 5.66637 44.7239 5.71016C44.8552 5.79774 45.0742 5.79774 45.118 5.9729C45.2493 5.9729 45.2931 5.75395 45.3807 5.9729C45.3369 6.06048 45.2493 6.10427 45.118 6.06048C45.118 6.10427 45.118 6.14806 45.118 6.19184C45.6872 6.4108 45.9938 6.49838 46.2565 5.9729C46.1689 5.92911 46.0814 5.92911 46.1251 5.84153C46.0376 5.79774 45.8624 5.84153 45.8624 5.71016C45.95 5.71016 46.1251 5.71016 46.1251 5.84153C46.2127 5.84153 46.2565 5.84153 46.2565 5.9729C46.4317 5.79774 46.6068 5.88532 46.7382 6.06048C46.6068 6.06048 46.5192 6.10427 46.5192 6.19184C46.6068 6.32322 46.8258 6.27942 46.8696 6.45458C46.9571 6.62974 47.0447 6.45458 46.8696 6.45458C46.7382 6.45458 46.6068 6.45458 46.5192 6.45458C46.3003 6.93627 47.0447 6.49838 46.8696 6.98006C46.782 6.89248 46.6506 6.84869 46.5192 6.84869C46.5192 7.02385 46.5192 7.15522 46.5192 7.33038C46.9134 7.50554 46.6068 6.93627 47.0009 7.06764C47.0009 6.89248 47.0885 6.76111 47.2637 6.71732C47.2637 6.8049 47.2637 6.98006 47.395 6.98006C47.3513 6.8049 47.5702 6.89248 47.395 6.98006C47.395 7.19901 48.3146 7.46175 47.614 7.59312C47.614 7.76828 47.614 7.94344 47.614 8.1186C47.9205 8.07481 47.7016 8.5565 47.7454 8.73166C47.6578 8.73166 47.5702 8.73166 47.5264 8.73166C47.7454 9.30093 47.7892 8.5565 48.1395 8.60029C47.9643 7.94344 47.7892 7.46175 48.1395 6.98006C48.0081 6.89248 47.9205 6.84869 47.8767 6.71732C47.7892 6.71732 47.7454 6.67353 47.7454 6.58595C47.5264 6.58595 47.4388 6.49838 47.395 6.32322C47.2637 6.32322 47.1323 6.32322 47.1323 6.19184C47.0447 6.19184 46.8696 6.19184 46.8696 6.06048C46.9571 6.10427 47.1323 6.10427 47.1323 6.19184C47.2199 6.19184 47.3075 6.19184 47.395 6.19184C47.395 6.14806 47.395 6.10427 47.395 6.06048C47.3075 5.88532 46.9134 6.06048 46.8696 5.84153C47.1323 5.84153 47.1323 5.71016 47.0009 5.57879C46.8696 5.57879 46.9134 5.40363 47.0009 5.57879C47.4388 5.71016 47.614 6.06048 47.8767 6.32322ZM24.7994 1.41874C24.5367 1.68148 23.7485 1.46253 23.3106 1.55011C23.5295 1.24358 24.3616 1.50632 24.7994 1.41874ZM25.3249 1.41874C25.2811 1.55011 25.0622 1.50632 24.9308 1.55011C24.9746 1.37495 25.1498 1.41874 25.3249 1.41874ZM25.6752 1.55011C25.6315 1.50632 25.7628 1.63769 25.6752 1.55011V1.55011ZM26.6824 1.41874C26.6824 1.68148 26.1569 1.46253 25.938 1.55011C25.938 1.24358 26.4635 1.50632 26.6824 1.41874ZM27.602 1.41874C27.5582 1.68148 27.0327 1.46253 26.8138 1.55011C26.8576 1.24358 27.3393 1.50632 27.602 1.41874ZM28.4778 1.41874C28.434 1.55011 28.2151 1.50632 28.0837 1.55011C28.1275 1.37495 28.3026 1.41874 28.4778 1.41874ZM29.3536 1.41874C29.3536 1.68148 28.9157 1.46253 28.6968 1.55011C28.6968 1.28737 29.1784 1.46253 29.3536 1.41874ZM30.2294 1.41874C30.2294 1.55011 30.0542 1.50632 29.9667 1.55011C29.9667 1.41874 30.1418 1.46253 30.2294 1.41874ZM30.7549 1.41874C30.7111 1.55011 30.5797 1.50632 30.4921 1.55011C30.4921 1.41874 30.6235 1.46253 30.7549 1.41874ZM31.762 1.41874C31.7183 1.55011 31.4993 1.50632 31.3679 1.55011C31.3679 1.37495 31.5869 1.41874 31.762 1.41874ZM32.6378 1.55011C32.7692 2.0318 32.7692 1.02463 32.6378 1.55011V1.55011ZM32.9882 1.68148C32.9444 1.5939 33.0757 1.76906 32.9882 1.68148V1.68148ZM28.6968 1.81285C28.653 1.72527 28.7843 1.85664 28.6968 1.81285V1.81285ZM22.0407 1.90043C21.9969 1.85664 22.1283 1.98801 22.0407 1.90043V1.90043ZM36.6665 1.90043C36.6227 1.85664 36.7541 1.98801 36.6665 1.90043V1.90043ZM37.2796 1.90043C37.2358 1.85664 37.3672 1.98801 37.2796 1.90043V1.90043ZM19.7636 2.0318C19.7198 1.98801 19.8512 2.11938 19.7636 2.0318V2.0318ZM35.9221 2.0318C35.8345 1.98801 35.9659 2.11938 35.9221 2.0318V2.0318ZM17.4865 2.16317C17.4427 2.11938 17.5741 2.25075 17.4865 2.16317V2.16317ZM18.231 2.0318C18.231 2.20696 18.012 2.16317 17.8806 2.16317C17.8806 2.0318 18.0996 2.07559 18.231 2.0318ZM18.4937 2.16317C18.4499 2.11938 18.5813 2.25075 18.4937 2.16317V2.16317ZM18.8878 2.16317C18.844 2.11938 18.9754 2.25075 18.8878 2.16317V2.16317ZM36.9293 2.0318C36.9293 2.16317 36.7541 2.16317 36.6665 2.16317C36.6665 2.0318 36.7979 2.07559 36.9293 2.0318ZM16.8735 2.16317C16.8735 2.29454 16.6983 2.25075 16.6107 2.29454C16.6107 2.16317 16.7421 2.20696 16.8735 2.16317ZM17.2238 2.29454C17.18 2.25075 17.3114 2.38212 17.2238 2.29454V2.29454ZM21.1649 2.29454C21.2963 2.77623 21.2963 1.81285 21.1649 2.29454V2.29454ZM15.9977 2.42591C15.9101 2.38212 16.0415 2.51349 15.9977 2.42591V2.42591ZM22.1721 2.42591C22.0845 2.38212 22.2596 2.51349 22.1721 2.42591V2.42591ZM22.7851 2.42591C22.7413 2.38212 22.8727 2.51349 22.7851 2.42591V2.42591ZM23.0479 2.42591C23.0041 2.38212 23.1354 2.51349 23.0479 2.42591V2.42591ZM14.7278 2.55728C14.684 2.51349 14.8153 2.64486 14.7278 2.55728V2.55728ZM19.5009 2.55728C19.4571 2.51349 19.5884 2.64486 19.5009 2.55728V2.55728ZM20.6394 2.42591C20.6394 2.55728 20.508 2.51349 20.3767 2.55728C20.3767 2.42591 20.5518 2.4697 20.6394 2.42591ZM35.528 2.55728C35.4842 2.51349 35.6156 2.64486 35.528 2.55728V2.55728ZM36.7979 2.55728C36.7541 2.51349 36.8855 2.64486 36.7979 2.55728V2.55728ZM37.1482 2.55728C37.1044 2.51349 37.2358 2.64486 37.1482 2.55728V2.55728ZM40.6952 2.55728C40.6514 2.51349 40.7828 2.64486 40.6952 2.55728V2.55728ZM23.9236 2.82002C23.9674 2.60107 24.7557 2.29454 24.6681 2.82002C24.4491 2.82002 24.1864 2.82002 23.9236 2.82002ZM25.3249 2.68865C25.2373 2.95139 24.7119 2.73244 25.0622 2.55728C25.1498 2.55728 25.1936 2.68865 25.3249 2.68865ZM25.8066 2.55728C25.8066 2.68865 25.5877 2.64486 25.4563 2.68865C25.4563 2.51349 25.6752 2.55728 25.8066 2.55728ZM26.3321 2.82002C26.3321 2.68865 26.2883 2.68865 26.2007 2.68865C26.1569 2.42591 26.77 2.4697 26.551 2.82002C26.5073 2.82002 26.4197 2.82002 26.3321 2.82002ZM27.9523 2.55728C27.8647 2.95139 27.602 2.73244 27.3393 2.68865C27.2955 2.38212 27.7772 2.60107 27.9523 2.55728ZM28.4778 2.82002C28.5216 2.73244 28.0837 2.64486 28.0837 2.68865C28.0399 2.4697 28.7843 2.51349 28.4778 2.82002ZM29.0909 2.82002C28.5216 2.82002 29.0471 2.29454 29.0909 2.82002C29.1784 2.82002 29.2222 2.82002 29.2222 2.9076C29.485 2.9076 29.7039 2.9076 29.9667 2.9076C29.8353 3.21413 29.3536 3.21413 29.2222 2.9076C29.1347 2.9076 29.0909 2.9076 29.0909 2.82002ZM29.7039 2.55728C29.7039 2.82002 29.3974 2.82002 29.2222 2.68865C29.266 2.51349 29.5288 2.55728 29.7039 2.55728ZM30.2294 2.82002C30.2294 2.73244 30.2294 2.64486 30.2294 2.55728C30.4046 2.55728 30.5797 2.55728 30.7549 2.55728C30.8425 2.9076 30.4483 2.77623 30.2294 2.82002ZM41.2207 2.68865C41.1331 2.60107 41.2645 2.77623 41.2207 2.68865V2.68865ZM41.8337 2.68865C41.9651 3.17034 41.9651 2.16317 41.8337 2.68865V2.68865ZM15.0781 2.68865C15.0781 2.77623 14.9467 2.77623 14.8591 2.82002C14.8591 2.68865 14.9905 2.68865 15.0781 2.68865ZM16.4794 2.82002C16.4794 2.73244 16.5669 2.64486 16.6107 2.82002C16.6545 2.82002 16.6983 2.82002 16.7421 2.82002C16.7421 2.64486 16.9173 2.73244 16.7421 2.82002C16.7421 2.86381 16.6545 2.95139 16.6107 2.82002C16.5669 2.82002 16.5232 2.82002 16.4794 2.82002C16.4794 2.95139 16.3042 2.86381 16.4794 2.82002ZM21.3838 2.9076C21.4276 2.60107 21.8217 2.68865 22.1721 2.68865C22.2596 3.12655 21.6466 2.86381 21.3838 2.9076ZM22.391 2.9076C22.3034 2.4697 22.9165 2.73244 23.1792 2.68865C23.0479 3.08276 22.7851 2.68865 22.391 2.9076ZM29.8353 2.82002C29.7915 2.73244 29.9229 2.86381 29.8353 2.82002V2.82002ZM31.3679 2.9076C31.3241 2.82002 31.2804 2.77623 31.1052 2.82002C31.2366 2.42591 31.9372 2.82002 31.3679 2.9076C31.3679 2.99518 31.3679 3.08276 31.3679 3.17034C31.2366 3.69582 31.762 3.21413 31.3679 3.17034C31.2366 3.17034 31.1928 2.95139 31.3679 2.9076ZM32.5065 3.03897C32.2437 2.68865 32.1562 2.95139 31.762 2.82002C31.8934 2.64486 33.1633 2.4697 33.1195 2.9076C32.813 2.86381 32.6816 2.77623 32.5065 3.03897ZM34.1267 3.03897C34.1705 2.73244 33.4261 3.17034 33.645 2.68865C33.9515 2.73244 34.1267 2.86381 34.5208 2.82002C34.477 2.99518 34.2581 2.95139 34.1267 3.03897C34.0391 3.25792 33.864 3.43308 33.645 3.56445C33.645 3.73961 33.9515 3.65203 34.1267 3.69582C33.9078 4.00235 32.7692 3.73961 33.645 3.56445C33.5574 3.30171 33.9953 3.17034 33.5136 3.17034C33.4699 2.9076 33.9515 3.12655 34.1267 3.03897ZM38.2867 2.82002C38.1554 2.82002 38.243 2.60107 38.2867 2.82002C38.3743 2.99518 38.4619 2.77623 38.2867 2.82002ZM42.4468 2.82002C42.403 2.73244 42.5344 2.86381 42.4468 2.82002V2.82002ZM15.3408 2.9076C15.297 2.86381 15.4284 2.99518 15.3408 2.9076V2.9076ZM19.2381 2.9076C18.2747 2.99518 19.895 2.86381 19.2381 2.9076V2.9076ZM20.508 2.9076C20.4642 3.12655 20.4205 2.9076 20.2453 2.9076C20.2891 2.77623 20.508 2.82002 20.508 2.9076ZM20.6394 2.9076C21.0335 2.4697 21.0773 3.30171 20.6394 2.9076V2.9076ZM26.9452 3.17034C26.2445 3.3455 27.2517 2.55728 27.602 2.9076C27.6458 3.25792 26.9014 2.82002 26.9452 3.17034C27.1203 3.17034 27.0327 3.3455 26.9452 3.17034ZM35.7907 3.03897C35.2214 2.99518 35.1777 3.03897 34.9149 2.9076C34.9149 2.73244 35.9221 2.64486 35.7907 3.03897ZM17.8806 3.17034C17.8806 3.08276 17.8806 2.99518 17.8806 2.9076C17.9682 2.9076 18.0558 2.9076 18.1434 2.9076C18.1434 2.99518 18.1434 3.08276 18.1434 3.17034C18.0558 3.17034 17.9682 3.17034 17.8806 3.17034ZM18.3623 3.03897C18.4061 2.68865 18.8878 3.17034 18.3623 3.03897C18.1872 3.12655 18.4061 3.21413 18.3623 3.03897ZM19.6322 3.03897C19.5884 2.99518 19.7198 3.12655 19.6322 3.03897V3.03897ZM19.895 3.03897C19.8512 2.99518 19.9826 3.12655 19.895 3.03897V3.03897ZM23.3982 3.03897C23.3544 2.99518 23.4857 3.12655 23.3982 3.03897V3.03897ZM24.9308 3.03897C24.9308 2.9076 25.106 2.99518 24.9308 3.03897C24.7557 3.12655 24.9308 3.21413 24.9308 3.03897ZM25.5439 2.9076C25.5439 3.03897 25.4125 3.03897 25.3249 3.03897C25.3249 2.95139 25.4563 2.95139 25.5439 2.9076ZM26.551 2.9076C26.551 3.08276 26.3321 3.03897 26.2007 3.03897C26.2007 2.9076 26.4197 2.95139 26.551 2.9076ZM28.9595 2.9076C28.9595 3.03897 28.8281 3.03897 28.6968 3.03897C28.7405 2.95139 28.8719 2.95139 28.9595 2.9076ZM30.6235 3.17034C30.4483 3.17034 30.317 3.12655 30.3608 2.9076C30.4483 2.9076 30.5359 2.9076 30.6235 2.9076C30.6235 2.99518 30.6235 3.08276 30.6235 3.17034C30.8862 3.25792 30.8862 3.38929 30.7549 3.56445C31.5869 3.47687 31.8058 3.69582 30.9738 3.82719C30.7987 3.87098 31.0176 3.95856 30.9738 3.82719C30.9738 3.52066 30.4483 3.73961 30.2294 3.69582C30.2732 3.43308 30.7987 3.65203 30.6235 3.17034ZM30.8425 3.03897C30.7987 2.99518 30.93 3.12655 30.8425 3.03897V3.03897ZM35.9221 3.17034C36.36 2.60107 36.9293 3.12655 35.9221 3.17034C35.9221 3.30171 35.7907 3.3455 35.7907 3.43308C35.8345 3.91477 36.3162 3.38929 35.7907 3.43308C35.6156 3.43308 35.6593 3.12655 35.9221 3.17034ZM37.0606 3.17034C37.0606 3.08276 37.0606 2.99518 37.0606 2.9076C37.1044 2.9076 37.192 2.9076 37.2796 2.9076C37.2796 2.99518 37.2796 3.08276 37.2796 3.17034C37.192 3.17034 37.1044 3.17034 37.0606 3.17034ZM37.8051 3.17034C37.5861 3.17034 37.3672 3.21413 37.4109 2.9076C37.5861 2.99518 37.7175 3.08276 37.8051 3.17034C37.8488 3.17034 37.8926 3.17034 37.9364 3.17034C37.8926 2.95139 38.5057 2.99518 38.2867 3.30171C38.1992 3.30171 38.1116 3.30171 38.0678 3.30171C38.024 3.21413 38.024 3.17034 37.9364 3.17034C37.9364 3.38929 37.7613 3.47687 37.8051 3.17034ZM43.9794 3.03897C43.8043 3.08276 43.8919 2.86381 43.9794 3.03897C44.067 3.25792 44.1108 3.03897 43.9794 3.03897ZM15.8663 3.30171C16.129 2.95139 16.8735 3.08276 17.4865 3.03897C17.18 3.43308 16.7859 3.21413 15.8663 3.30171ZM21.6466 3.30171C21.6466 3.21413 21.6466 3.12655 21.6466 3.03897C21.7779 3.03897 21.9093 3.03897 22.0407 3.03897C21.9969 3.21413 21.8217 3.25792 21.7779 3.43308C21.6904 3.43308 21.6466 3.38929 21.6466 3.30171ZM22.9165 3.03897C22.9165 3.17034 22.7413 3.17034 22.6537 3.17034C22.6537 3.03897 22.8289 3.08276 22.9165 3.03897ZM23.0479 3.17034C23.0041 3.12655 23.1354 3.25792 23.0479 3.17034V3.17034ZM24.1864 3.30171C24.1426 3.60824 23.7047 3.30171 23.7923 3.03897C23.9236 3.03897 24.055 3.03897 24.1864 3.03897C24.1864 3.08276 24.1864 3.12655 24.1864 3.17034C24.2302 3.17034 24.3178 3.30171 24.1864 3.30171ZM24.4491 3.17034C24.3616 3.12655 24.4929 3.25792 24.4491 3.17034V3.17034ZM27.821 3.17034C27.9961 3.69582 27.9961 2.68865 27.821 3.17034V3.17034ZM31.8496 3.17034C31.7183 3.17034 31.8058 2.99518 31.8496 3.17034C32.1124 3.47687 32.4189 3.08276 32.6378 3.30171C32.5941 3.56445 32.1124 3.3455 31.8496 3.43308C31.8496 3.56445 31.981 3.56445 31.981 3.69582C32.1562 3.65203 32.2437 3.52066 32.5065 3.56445C32.4189 3.73961 32.2437 3.7834 31.981 3.82719C31.981 3.7834 31.981 3.73961 31.981 3.69582C31.5431 3.7834 31.762 3.25792 31.8496 3.17034ZM32.8568 3.03897C32.8568 3.17034 32.7254 3.17034 32.6378 3.17034C32.6378 3.03897 32.7692 3.08276 32.8568 3.03897ZM32.9882 3.17034C32.9444 3.12655 33.0757 3.25792 32.9882 3.17034V3.17034ZM39.4253 3.56445C39.4253 3.47687 39.4253 3.38929 39.4253 3.30171C39.2501 3.3455 39.2063 3.47687 39.075 3.30171C39.1188 3.12655 39.3377 3.08276 39.5567 3.03897C39.5567 3.38929 39.7756 3.30171 39.5567 3.56445C39.6442 3.73961 39.7318 3.56445 39.5567 3.56445C39.5129 3.56445 39.4691 3.56445 39.4253 3.56445C39.4691 3.7834 38.7246 3.7834 38.9436 3.43308C39.1188 3.47687 39.1625 3.60824 39.4253 3.56445ZM15.0781 3.43308C15.0781 3.3455 15.0781 3.25792 15.0781 3.17034C15.2532 3.17034 15.4284 3.17034 15.6036 3.17034C15.7349 3.56445 15.297 3.38929 15.0781 3.43308ZM19.0192 3.30171C18.9316 3.25792 19.1068 3.38929 19.0192 3.30171V3.30171ZM19.5009 3.30171C19.3695 3.30171 19.4133 3.12655 19.5009 3.30171C19.5884 3.47687 19.676 3.30171 19.5009 3.30171ZM20.3767 3.30171C20.3329 3.25792 20.4642 3.38929 20.3767 3.30171V3.30171ZM20.6394 3.30171C20.5956 3.25792 20.727 3.38929 20.6394 3.30171V3.30171ZM26.3321 3.30171C26.2883 3.25792 26.4197 3.38929 26.3321 3.30171V3.30171ZM28.6092 3.30171C28.5216 3.25792 28.653 3.38929 28.6092 3.30171V3.30171ZM28.9595 3.30171C28.9157 3.25792 29.0471 3.38929 28.9595 3.30171V3.30171ZM29.2222 3.30171C29.1784 3.25792 29.3098 3.38929 29.2222 3.30171V3.30171ZM34.3894 3.30171C34.3457 3.25792 34.477 3.38929 34.3894 3.30171V3.30171ZM34.6522 3.56445C34.7398 3.38929 34.7398 3.08276 35.1339 3.17034C34.9587 3.25792 34.9587 3.56445 34.6522 3.56445ZM35.2652 3.30171C35.2214 3.25792 35.3528 3.38929 35.2652 3.30171V3.30171ZM40.0821 3.30171C39.5567 3.43308 40.0383 2.9076 40.0821 3.30171C40.2573 3.30171 40.3449 3.3455 40.4325 3.43308C40.4325 3.60824 40.1697 3.52066 40.0821 3.43308C40.0821 3.38929 40.0821 3.3455 40.0821 3.30171ZM43.235 3.30171C43.1474 3.25792 43.3226 3.38929 43.235 3.30171V3.30171ZM14.8591 3.30171C14.8591 3.43308 14.684 3.38929 14.5964 3.43308C14.5964 3.30171 14.7278 3.3455 14.8591 3.30171ZM18.3623 3.43308C18.3185 3.38929 18.4499 3.52066 18.3623 3.43308V3.43308ZM22.0407 3.43308C21.9969 3.38929 22.1283 3.52066 22.0407 3.43308V3.43308ZM22.6537 3.43308C22.61 3.38929 22.7413 3.52066 22.6537 3.43308V3.43308ZM23.1792 3.30171C23.1792 3.43308 23.0041 3.38929 22.9165 3.43308C22.9165 3.30171 23.0479 3.3455 23.1792 3.30171ZM23.5295 3.43308C23.4857 3.38929 23.6171 3.52066 23.5295 3.43308V3.43308ZM24.9308 3.43308C24.887 3.38929 25.0184 3.52066 24.9308 3.43308V3.43308ZM30.9738 3.43308C30.93 3.38929 31.0614 3.52066 30.9738 3.43308V3.43308ZM41.4396 4.30888C41.1769 4.30888 41.0893 4.08993 40.6952 4.17751C40.6952 3.91477 41.2207 4.13372 41.4396 4.04614C41.4396 3.7834 40.9141 4.04614 40.8266 3.82719C40.8703 3.65203 41.0017 3.56445 40.9579 3.30171C41.2645 3.56445 42.0527 3.47687 42.2278 3.56445C42.184 3.95856 41.7899 3.65203 41.4396 3.69582C41.7024 3.95856 41.7024 4.00235 41.4396 4.30888C41.6148 4.30888 41.5272 4.48404 41.4396 4.30888ZM45.2493 3.43308C45.2056 3.38929 45.3369 3.52066 45.2493 3.43308V3.43308ZM16.7421 3.43308C16.7421 3.56445 16.5669 3.52066 16.4794 3.56445C16.4794 3.43308 16.6545 3.47687 16.7421 3.43308ZM20.0263 3.69582C19.895 3.65203 19.895 3.56445 19.7636 3.56445C19.8512 3.25792 20.3767 3.47687 20.0263 3.69582ZM20.9021 3.43308C20.9021 3.56445 20.727 3.52066 20.6394 3.56445C20.6394 3.43308 20.8146 3.47687 20.9021 3.43308ZM26.551 3.82719C26.2883 3.82719 26.2007 3.60824 25.8066 3.69582C26.0694 3.47687 26.3759 3.47687 26.6824 3.56445C26.6824 3.69582 26.5948 3.69582 26.551 3.82719C27.0765 3.69582 26.5948 4.17751 26.551 3.82719ZM27.4706 3.56445C27.5144 3.7834 26.9014 3.73961 27.0765 3.43308C27.2955 3.38929 27.2955 3.56445 27.4706 3.56445ZM28.4778 3.91477C28.434 3.7834 28.3026 3.73961 28.2151 3.69582C28.5216 3.38929 28.653 3.52066 29.0909 3.56445C29.0909 3.73961 28.7843 3.65203 28.6092 3.69582C28.6092 3.7834 28.6968 3.82719 28.8281 3.82719C28.8281 3.95856 28.653 3.95856 28.4778 3.91477C28.5216 4.39646 27.3831 4.26509 27.602 3.82719C27.7772 4.00235 28.2151 4.2213 28.4778 3.91477ZM34.2581 3.43308C34.2581 3.56445 34.1267 3.52066 33.9953 3.56445C33.9953 3.43308 34.1705 3.47687 34.2581 3.43308ZM40.6952 3.56445C40.6514 3.52066 40.7828 3.65203 40.6952 3.56445V3.56445ZM17.8806 3.69582C17.8368 3.65203 17.9682 3.7834 17.8806 3.69582V3.69582ZM18.231 3.69582C18.1872 3.65203 18.3185 3.7834 18.231 3.69582V3.69582ZM23.0479 3.69582C23.0479 3.30171 23.5733 3.7834 23.0479 3.69582C22.5224 3.56445 23.0041 4.04614 23.0479 3.69582ZM23.5295 3.69582C23.9236 3.21413 23.9674 4.04614 23.5295 3.69582V3.69582ZM24.4491 3.56445C24.4053 3.69582 24.274 3.65203 24.1864 3.69582C24.1864 3.56445 24.3178 3.56445 24.4491 3.56445ZM25.0622 3.56445C25.0622 3.69582 24.887 3.65203 24.7994 3.69582C24.7994 3.56445 24.9746 3.56445 25.0622 3.56445ZM25.1936 3.69582C25.1498 3.65203 25.2811 3.7834 25.1936 3.69582V3.69582ZM25.4563 3.69582C25.3687 3.65203 25.5001 3.7834 25.4563 3.69582V3.69582ZM27.9523 3.56445C27.9523 3.69582 27.7334 3.65203 27.602 3.69582C27.602 3.52066 27.821 3.56445 27.9523 3.56445ZM29.8353 3.56445C29.8791 3.82719 29.3974 3.60824 29.2222 3.69582C29.1784 3.38929 29.6601 3.60824 29.8353 3.56445ZM32.8568 3.69582C32.3751 3.7834 32.8568 3.30171 32.8568 3.69582C33.0757 4.13372 33.2509 3.25792 32.8568 3.69582ZM36.7979 3.69582C36.7541 3.65203 36.8855 3.7834 36.7979 3.69582V3.69582ZM40.0821 3.56445C40.0821 3.69582 39.907 3.65203 39.8194 3.69582C39.8194 3.56445 39.9508 3.56445 40.0821 3.56445ZM42.3154 3.82719C42.3154 3.47687 43.1036 3.56445 43.1036 3.91477C42.7971 3.95856 42.7095 3.73961 42.3154 3.82719ZM17.0048 3.69582C17.0048 3.82719 16.8297 3.7834 16.7421 3.82719C16.7421 3.69582 16.8735 3.69582 17.0048 3.69582ZM17.7493 3.69582C17.7493 3.82719 17.5741 3.7834 17.4865 3.82719C17.4865 3.69582 17.6617 3.69582 17.7493 3.69582ZM20.508 3.82719C20.4642 3.73961 20.5956 3.87098 20.508 3.82719V3.82719ZM21.6466 3.69582C21.6466 3.82719 21.5152 3.7834 21.3838 3.82719C21.3838 3.69582 21.559 3.69582 21.6466 3.69582ZM22.0407 3.82719C21.9969 3.73961 22.1283 3.87098 22.0407 3.82719V3.82719ZM35.1339 3.82719C35.309 4.30888 35.309 3.30171 35.1339 3.82719V3.82719ZM40.3011 3.82719C40.2573 3.73961 40.3887 3.87098 40.3011 3.82719V3.82719ZM4.26197 3.91477C4.21818 3.87098 4.34955 4.00235 4.26197 3.91477V3.91477ZM16.0853 3.91477C16.0415 3.87098 16.1728 4.00235 16.0853 3.91477V3.91477ZM19.2381 3.91477C19.1943 3.87098 19.3257 4.00235 19.2381 3.91477V3.91477ZM20.7708 3.91477C20.727 3.87098 20.8584 4.00235 20.7708 3.91477V3.91477ZM26.0694 3.91477C26.0256 3.87098 26.1569 4.00235 26.0694 3.91477V3.91477ZM27.3393 3.91477C27.2517 4.13372 27.2079 3.91477 27.0765 3.91477C27.1203 3.7834 27.3393 3.82719 27.3393 3.91477ZM27.9523 3.91477C27.9085 3.87098 28.0399 4.00235 27.9523 3.91477V3.91477ZM30.2294 3.91477C30.1856 3.87098 30.317 4.00235 30.2294 3.91477V3.91477ZM36.5351 3.91477C36.1848 4.13372 36.0097 3.91477 35.3966 3.91477C35.528 3.69582 36.36 3.7834 36.5351 3.91477ZM39.2939 3.82719C39.2939 3.91477 39.1625 3.91477 39.075 3.91477C39.075 3.82719 39.2063 3.82719 39.2939 3.82719ZM39.2939 4.17751C39.3815 4.08993 39.4253 4.00235 39.4253 3.82719C39.8632 3.82719 39.4253 4.13372 39.688 4.17751C39.688 4.30888 39.5129 4.26509 39.4253 4.30888C39.4691 4.2213 39.3815 4.17751 39.2939 4.17751ZM40.4325 4.04614C40.2135 4.04614 39.8194 4.17751 39.9508 3.82719C40.1697 3.82719 40.3449 3.87098 40.4325 4.04614C40.6076 4.04614 40.52 4.26509 40.4325 4.04614ZM43.454 3.82719C43.454 3.91477 43.3226 3.91477 43.235 3.91477C43.235 3.82719 43.3664 3.82719 43.454 3.82719ZM44.4611 4.04614C44.4611 4.2213 43.6729 4.13372 43.7167 3.82719C43.8919 4.00235 44.3298 3.87098 44.4611 4.04614ZM17.8806 4.04614C17.8368 4.00235 17.9682 4.13372 17.8806 4.04614V4.04614ZM18.4937 3.91477C18.4937 4.04614 18.3623 4.04614 18.231 4.04614C18.231 3.95856 18.4061 3.95856 18.4937 3.91477ZM22.3034 4.04614C22.2596 3.91477 22.4786 4.00235 22.3034 4.04614C21.6904 3.91477 22.4348 4.6592 22.3034 4.04614ZM23.1792 4.04614C22.4786 4.17751 23.0041 3.69582 23.1792 4.04614C23.223 4.04614 23.3106 4.17751 23.1792 4.17751C23.1792 4.26509 23.2668 4.35267 23.3982 4.30888C23.3982 4.44025 23.3106 4.48404 23.3106 4.57162C23.5295 4.6592 23.7047 4.70299 23.7923 4.57162C24.1426 4.74678 23.5733 5.0971 23.3982 5.18468C23.223 5.27226 23.442 5.35984 23.3982 5.18468C23.3982 5.05331 23.3982 4.96573 23.3982 4.83436C23.1792 4.87815 22.6537 4.6592 22.7851 5.05331C22.9165 5.44742 23.442 4.92194 22.7851 5.05331C22.61 5.05331 22.6537 4.83436 22.5224 4.83436C22.5224 4.44025 23.3106 4.92194 23.3106 4.57162C23.1354 4.61541 22.8727 4.2213 23.1792 4.17751C23.1792 4.13372 23.1792 4.08993 23.1792 4.04614ZM23.7923 4.44025C23.2668 4.30888 24.2302 4.08993 23.7923 4.04614C23.8361 3.69582 24.1864 4.04614 24.055 4.30888C23.9236 4.30888 23.8361 4.35267 23.7923 4.44025ZM24.3178 4.04614C24.1864 4.79057 24.3616 3.56445 24.3178 4.04614V4.04614ZM24.7994 4.04614C24.7994 3.91477 24.9746 4.00235 24.7994 4.04614C24.6243 4.13372 24.7994 4.2213 24.7994 4.04614ZM25.0622 4.30888C25.0622 3.69582 25.4125 4.17751 25.938 4.04614C25.9818 4.17751 25.938 4.30888 26.0694 4.30888C25.8504 4.6592 25.3687 3.87098 25.0622 4.30888C25.0622 4.48404 24.887 4.39646 25.0622 4.30888ZM42.2278 4.17751C42.3154 3.73961 42.5344 4.17751 42.9723 4.04614C43.0161 4.17751 42.4468 4.52783 42.2278 4.17751ZM45.5997 4.04614C45.5559 4.00235 45.6872 4.13372 45.5997 4.04614V4.04614ZM47.2637 4.04614C47.2199 4.00235 47.3513 4.13372 47.2637 4.04614V4.04614ZM19.3695 4.17751C19.3695 4.04614 19.5884 4.08993 19.3695 4.17751C19.3695 4.26509 19.3695 4.35267 19.2381 4.30888C19.063 4.39646 19.2819 4.48404 19.2381 4.30888C19.2819 4.2213 19.2819 4.17751 19.3695 4.17751ZM20.508 4.17751C20.3767 4.2213 20.4205 4.00235 20.508 4.17751C20.6832 4.2213 20.727 4.35267 20.9021 4.17751C20.9021 4.04614 21.0773 4.08993 20.9021 4.17751C21.0335 4.61541 20.508 4.39646 20.2453 4.44025C20.2891 4.26509 20.508 4.30888 20.508 4.17751ZM26.4635 4.17751C26.2883 4.2213 26.3759 4.00235 26.4635 4.17751C26.5073 4.17751 26.5948 4.30888 26.4635 4.30888C25.938 4.17751 26.4197 4.70299 26.4635 4.30888C26.4635 4.26509 26.4635 4.2213 26.4635 4.17751ZM26.8138 4.17751C26.77 4.13372 26.9014 4.26509 26.8138 4.17751V4.17751ZM28.8281 4.30888C28.8281 4.2213 28.7405 4.17751 28.6092 4.17751C28.8719 3.82719 29.5288 4.2213 28.8281 4.30888C28.8719 4.48404 28.653 4.39646 28.8281 4.30888ZM35.0025 4.17751C34.9587 4.13372 35.0901 4.26509 35.0025 4.17751V4.17751ZM38.4181 4.17751C38.3743 4.13372 38.5057 4.26509 38.4181 4.17751V4.17751ZM38.6809 4.17751C39.1625 4.52783 39.2501 3.73961 38.6809 4.17751V4.17751ZM44.9866 4.30888C44.8114 4.30888 44.6801 4.26509 44.7239 4.04614C44.8114 4.04614 44.899 4.04614 44.9866 4.04614C44.9866 4.13372 44.9866 4.2213 44.9866 4.30888C45.2931 4.04614 45.2931 4.35267 45.118 4.57162C45.2056 4.61541 45.3807 4.57162 45.3807 4.70299C45.5997 4.74678 46.1251 4.52783 45.9938 4.96573C46.1251 4.96573 46.1689 5.18468 45.9938 5.18468C45.5997 5.22847 46.1251 5.71016 45.9938 5.18468C45.9938 5.0971 45.9938 5.00952 45.9938 4.96573C45.9062 4.96573 45.8186 4.96573 45.731 4.96573C45.731 5.0971 45.6872 5.22847 45.4683 5.18468C45.4683 5.0971 45.4683 5.00952 45.4683 4.96573C45.5559 4.96573 45.6435 4.96573 45.731 4.96573C45.731 4.79057 45.5559 4.79057 45.3807 4.83436C45.3807 4.79057 45.3807 4.74678 45.3807 4.70299C45.2493 4.6592 45.118 4.70299 45.118 4.57162C45.0304 4.52783 44.9428 4.44025 44.9866 4.30888ZM18.231 4.44025C18.231 4.61541 17.9244 4.57162 17.7493 4.57162C17.7493 4.48404 17.7493 4.39646 17.7493 4.30888C17.8368 4.30888 17.8806 4.30888 17.8806 4.17751C18.0558 4.17751 17.9682 4.52783 18.231 4.44025C18.4499 4.35267 18.231 4.30888 18.231 4.44025ZM18.8878 4.44025C18.3185 4.48404 18.844 3.95856 18.8878 4.44025C18.9754 4.61541 19.0192 4.44025 18.8878 4.44025ZM20.7708 5.05331C20.3767 4.74678 21.3838 4.74678 21.2963 4.30888C21.4714 3.91477 21.4714 5.05331 21.2963 5.05331C21.1649 5.05331 21.1649 4.92194 21.1649 4.83436C21.0335 4.92194 20.8146 4.87815 20.7708 5.05331ZM21.7779 4.30888C21.7342 4.26509 21.8655 4.39646 21.7779 4.30888V4.30888ZM29.3536 4.30888C29.3536 4.17751 29.5288 4.2213 29.3536 4.30888C29.1784 4.39646 29.3536 4.48404 29.3536 4.30888ZM39.8194 4.30888C39.9946 4.74678 40.1259 3.82719 39.8194 4.30888V4.30888ZM41.9651 4.17751C41.9651 4.30888 41.7899 4.26509 41.7024 4.30888C41.7024 4.17751 41.8775 4.2213 41.9651 4.17751ZM43.5853 4.17751C43.5853 4.30888 43.454 4.26509 43.3664 4.30888C43.3664 4.17751 43.4977 4.2213 43.5853 4.17751ZM17.4865 4.44025C17.4427 4.39646 17.5741 4.52783 17.4865 4.44025V4.44025ZM20.0263 4.44025C19.9826 4.39646 20.1139 4.52783 20.0263 4.44025V4.44025ZM27.3393 4.30888C27.3393 4.44025 27.1641 4.39646 27.0765 4.44025C27.0765 4.30888 27.2517 4.35267 27.3393 4.30888ZM28.3464 4.44025C28.3026 4.39646 28.434 4.52783 28.3464 4.44025V4.44025ZM40.4325 4.30888C40.4325 4.44025 40.3011 4.39646 40.2135 4.44025C40.2135 4.30888 40.3449 4.35267 40.4325 4.30888ZM40.8266 4.44025C40.9579 4.92194 40.9579 3.95856 40.8266 4.44025V4.44025ZM45.731 4.30888C45.731 4.44025 45.5121 4.44025 45.3807 4.44025C45.3807 4.30888 45.5997 4.35267 45.731 4.30888ZM41.3082 4.44025C41.3082 4.57162 41.1769 4.52783 41.0893 4.57162C41.0893 4.44025 41.2207 4.48404 41.3082 4.44025ZM43.7167 4.57162C43.5853 4.57162 43.6291 4.39646 43.7167 4.57162C44.0232 4.57162 44.1108 4.30888 44.2422 4.70299C44.286 4.87815 44.3735 4.6592 44.2422 4.70299C44.0232 4.6592 43.7605 4.74678 43.7167 4.57162ZM44.7239 4.44025C44.7239 4.57162 44.5049 4.52783 44.3735 4.57162C44.3735 4.44025 44.5925 4.44025 44.7239 4.44025ZM46.1251 4.57162C45.95 4.57162 46.0376 4.39646 46.1251 4.57162C46.1251 4.96573 46.6506 4.44025 46.1251 4.57162ZM16.4794 4.70299C16.4356 4.6592 16.5669 4.79057 16.4794 4.70299V4.70299ZM16.8735 4.70299C16.8297 4.6592 16.9611 4.79057 16.8735 4.70299V4.70299ZM17.2238 4.70299C17.18 4.6592 17.3114 4.79057 17.2238 4.70299V4.70299ZM20.1577 4.83436C20.1577 4.70299 20.0701 4.70299 20.0263 4.70299C20.2015 4.2213 20.2015 4.96573 20.508 4.83436C20.4205 5.22847 20.1139 5.05331 20.0263 5.18468C19.5884 5.05331 20.1577 4.96573 20.1577 4.83436ZM20.3767 4.70299C20.3329 4.6592 20.4642 4.79057 20.3767 4.70299V4.70299ZM25.5439 4.96573C25.5439 4.83436 25.0184 4.61541 25.0622 4.83436C24.5805 4.48404 25.5439 4.57162 25.8066 4.57162C25.8066 4.74678 25.8066 4.92194 25.8066 5.05331C25.6752 5.05331 25.6752 4.96573 25.5439 4.96573C25.5877 5.05331 25.5877 5.18468 25.6752 5.18468C25.6752 5.35984 25.4563 5.31605 25.4563 5.44742C25.1498 5.40363 25.4563 4.96573 25.5439 4.96573ZM26.551 5.44742C26.4197 4.92194 26.3759 5.05331 25.938 4.57162C26.3759 4.57162 26.77 4.57162 27.2079 4.57162C27.2955 5.00952 26.77 4.79057 26.6824 4.70299C26.6386 4.96573 26.8576 4.92194 27.0765 4.96573C26.9014 5.14089 26.5948 5.0971 26.551 5.44742ZM27.821 5.18468C27.821 4.96573 27.9523 4.92194 28.2151 4.96573C28.1275 4.6592 27.4268 4.96573 27.3393 4.70299C27.5144 4.52783 28.7405 4.35267 28.6968 4.83436C28.653 4.83436 28.5654 4.83436 28.4778 4.83436C28.4778 4.96573 28.653 4.96573 28.8281 4.96573C28.9157 5.22847 28.4778 5.62258 28.3464 5.31605C28.2151 5.31605 28.0837 5.31605 27.9523 5.31605C27.9523 5.44742 28.0399 5.49121 28.0837 5.57879C27.9523 6.10427 28.4778 5.57879 28.0837 5.57879C27.821 5.57879 27.6896 5.49121 27.6896 5.18468C27.7334 5.18468 27.7772 5.18468 27.821 5.18468ZM18.6251 4.83436C18.5813 4.74678 18.7126 4.92194 18.6251 4.83436V4.83436ZM21.5152 4.96573C21.559 4.57162 22.0407 4.70299 22.391 4.70299C22.2158 4.87815 21.9093 4.96573 21.5152 4.96573ZM24.6681 4.70299C23.8799 4.52783 24.4053 5.0971 24.6681 4.70299V4.70299ZM46.8696 4.70299C46.8696 4.83436 46.7382 4.79057 46.6068 4.83436C46.6068 4.70299 46.782 4.70299 46.8696 4.70299ZM17.3552 4.96573C17.3114 4.87815 17.4427 5.00952 17.3552 4.96573V4.96573ZM43.9794 4.83436C43.9356 4.96573 43.7605 4.92194 43.5853 4.96573C43.6291 4.79057 43.8481 4.83436 43.9794 4.83436ZM18.4937 5.05331C18.4499 5.00952 18.5813 5.14089 18.4937 5.05331V5.05331ZM19.3695 4.96573C19.3695 5.0971 19.1505 5.05331 19.0192 5.05331C19.0192 4.92194 19.2381 4.96573 19.3695 4.96573ZM19.6322 5.05331C19.5884 5.00952 19.7198 5.14089 19.6322 5.05331V5.05331ZM24.4491 5.05331C24.3616 5.00952 24.4929 5.14089 24.4491 5.05331V5.05331ZM25.1936 4.96573C25.1936 5.05331 25.0184 5.05331 24.9308 5.05331C24.9308 4.96573 25.106 4.96573 25.1936 4.96573ZM44.4611 5.05331C44.4173 5.00952 44.5487 5.14089 44.4611 5.05331V5.05331ZM46.5192 5.05331C46.4317 5.00952 46.563 5.14089 46.5192 5.05331V5.05331ZM17.2238 5.05331C17.2238 5.18468 17.0924 5.18468 17.0048 5.18468C17.0048 5.05331 17.1362 5.0971 17.2238 5.05331ZM17.4865 5.18468C17.4427 5.14089 17.5741 5.27226 17.4865 5.18468V5.18468ZM17.8806 5.18468C17.8368 5.14089 17.9682 5.27226 17.8806 5.18468V5.18468ZM21.9093 5.18468C21.8655 5.14089 21.9969 5.27226 21.9093 5.18468V5.18468ZM45.3807 5.18468C44.8552 4.74678 45.0742 5.62258 45.3807 5.18468V5.18468ZM47.614 5.05331C47.614 5.18468 47.4826 5.18468 47.395 5.18468C47.395 5.05331 47.5264 5.0971 47.614 5.05331ZM23.5295 5.71016C23.223 5.57879 23.6609 5.14089 23.9236 5.18468C23.8799 5.44742 23.5733 5.44742 23.5295 5.71016ZM24.4491 5.31605C23.9236 5.44742 24.4053 4.96573 24.4491 5.31605C24.6243 5.75395 24.8432 4.92194 24.4491 5.31605ZM25.0622 5.31605C25.0184 5.49121 24.9308 5.31605 24.7994 5.31605C24.8432 5.18468 25.0622 5.18468 25.0622 5.31605ZM26.0694 5.31605C26.0256 5.27226 26.1569 5.40363 26.0694 5.31605V5.31605ZM27.602 5.18468C26.77 5.05331 27.2955 5.57879 27.602 5.18468V5.18468ZM28.9595 5.31605C29.1347 5.75395 29.266 4.83436 28.9595 5.31605V5.31605ZM20.9021 5.57879C20.8584 5.84153 20.2891 5.62258 20.3767 5.31605C20.727 5.22847 20.6394 5.57879 20.9021 5.57879ZM21.3838 5.44742C21.34 5.40363 21.4714 5.535 21.3838 5.44742V5.44742ZM21.7779 5.44742C21.7342 5.40363 21.8655 5.535 21.7779 5.44742V5.44742ZM22.391 5.44742C22.3472 5.40363 22.4786 5.535 22.391 5.44742V5.44742ZM22.6537 5.44742C22.61 5.40363 22.7413 5.535 22.6537 5.44742V5.44742ZM22.9165 5.44742C22.8727 5.40363 23.0041 5.535 22.9165 5.44742V5.44742ZM26.8138 5.44742C26.77 5.40363 26.9014 5.535 26.8138 5.44742V5.44742ZM46.5192 5.44742C46.4317 5.40363 46.563 5.535 46.5192 5.44742V5.44742ZM20.1577 5.44742C20.1577 5.57879 19.9826 5.535 19.895 5.57879C19.895 5.44742 20.0263 5.49121 20.1577 5.44742ZM45.4683 5.57879C44.9866 5.71016 45.4683 5.18468 45.4683 5.57879C45.3807 6.10427 45.8624 5.57879 45.4683 5.57879ZM18.231 5.71016C18.1872 5.66637 18.3185 5.79774 18.231 5.71016V5.71016ZM21.3838 5.71016C21.34 5.66637 21.4714 5.79774 21.3838 5.71016V5.71016ZM24.7994 5.71016C24.7557 5.66637 24.887 5.79774 24.7994 5.71016V5.71016ZM26.2007 5.71016C26.3759 6.10427 26.5073 5.22847 26.2007 5.71016V5.71016ZM44.9866 5.71016C44.9428 5.66637 45.0742 5.79774 44.9866 5.71016V5.71016ZM46.6068 5.71016C45.95 5.84153 46.4755 5.31605 46.6068 5.71016C46.6944 5.88532 46.782 5.71016 46.6068 5.71016ZM22.9165 5.84153C23.0479 6.32322 23.0479 5.31605 22.9165 5.84153V5.84153ZM23.7923 5.84153C23.7485 5.75395 23.8799 5.92911 23.7923 5.84153V5.84153ZM25.0622 5.84153C25.2373 6.23564 25.3687 5.31605 25.0622 5.84153V5.84153ZM26.9452 5.71016C26.9452 5.84153 26.8138 5.79774 26.6824 5.84153C26.6824 5.71016 26.8576 5.71016 26.9452 5.71016ZM44.1108 5.84153C44.067 5.75395 44.1984 5.92911 44.1108 5.84153V5.84153ZM20.508 5.9729C20.4642 5.88532 20.5956 6.01669 20.508 5.9729V5.9729ZM21.0335 5.9729C20.9897 5.88532 21.1211 6.01669 21.0335 5.9729V5.9729ZM24.4491 5.9729C24.6243 6.367 24.7557 5.44742 24.4491 5.9729V5.9729ZM19.0192 5.9729C19.0192 6.06048 18.844 6.06048 18.7564 6.06048C18.7564 5.9729 18.8878 5.9729 19.0192 5.9729ZM25.3249 6.19184C25.4125 6.01669 25.5877 5.9729 25.8066 5.9729C25.7628 6.23564 25.5877 6.4108 25.3249 6.45458C25.3687 6.367 25.4563 6.23564 25.3249 6.19184ZM26.0694 6.32322C26.1569 6.19184 26.3759 6.19184 26.3321 5.9729C26.4635 6.01669 26.4635 6.23564 26.6824 6.19184C26.7262 6.49838 26.2445 6.27942 26.0694 6.32322ZM27.0765 6.06048C26.4197 6.23564 26.9452 5.71016 27.0765 6.06048C27.4706 6.19184 27.5582 6.4108 26.9452 6.32322C26.9452 6.19184 27.0327 6.19184 27.0765 6.06048ZM28.0837 6.06048C28.0399 6.01669 28.1713 6.14806 28.0837 6.06048V6.06048ZM45.8624 6.06048C45.8186 6.01669 45.95 6.14806 45.8624 6.06048V6.06048ZM45.4683 6.19184C45.4245 6.14806 45.5559 6.27942 45.4683 6.19184V6.19184ZM23.6609 6.32322C23.6609 6.19184 23.8361 6.23564 23.6609 6.32322C23.4857 6.4108 23.7047 6.49838 23.6609 6.32322ZM24.9308 6.32322C24.887 6.27942 25.0184 6.4108 24.9308 6.32322V6.32322ZM24.4491 6.45458C24.3616 6.4108 24.4929 6.54216 24.4491 6.45458V6.45458ZM21.0335 6.58595C20.9897 6.54216 21.1211 6.67353 21.0335 6.58595V6.58595ZM47.614 6.98006C47.5702 6.89248 47.7016 7.02385 47.614 6.98006V6.98006ZM47.8767 8.46892C47.8329 8.42513 47.9643 8.5565 47.8767 8.46892V8.46892ZM20.6394 1.55011C20.5956 1.50632 20.727 1.63769 20.6394 1.55011V1.55011ZM18.6251 1.68148C18.5813 1.5939 18.7126 1.76906 18.6251 1.68148V1.68148ZM19.5009 1.68148C19.5884 1.63769 19.7636 1.68148 19.7636 1.55011C19.676 1.55011 19.5009 1.55011 19.5009 1.68148ZM20.508 1.68148C20.3767 1.68148 20.4205 1.46253 20.508 1.68148V1.68148ZM17.8806 1.81285C17.8368 1.72527 17.9682 1.85664 17.8806 1.81285V1.81285ZM16.0853 1.90043C16.0415 1.85664 16.1728 1.98801 16.0853 1.90043V1.90043ZM14.8591 2.0318C14.7716 1.98801 14.9467 2.11938 14.8591 2.0318V2.0318ZM13.3265 2.16317C13.4141 2.16317 13.5892 2.16317 13.5892 2.0318C13.5016 2.07559 13.3265 2.0318 13.3265 2.16317ZM13.7206 2.16317C13.6768 2.11938 13.8082 2.25075 13.7206 2.16317V2.16317ZM13.9395 2.16317C13.8958 2.11938 14.0271 2.25075 13.9395 2.16317V2.16317ZM12.4507 2.29454C12.5383 2.25075 12.7134 2.29454 12.7134 2.16317C12.5821 2.20696 12.4507 2.16317 12.4507 2.29454ZM11.3122 2.42591C11.2684 2.38212 11.3997 2.51349 11.3122 2.42591V2.42591ZM9.56055 2.55728C9.51676 2.38212 9.73571 2.4697 9.56055 2.55728V2.55728ZM9.91087 2.55728C10.0422 2.51349 10.1736 2.55728 10.1736 2.42591C10.086 2.4697 9.91087 2.42591 9.91087 2.55728ZM10.4364 2.55728C10.3926 2.51349 10.5239 2.64486 10.4364 2.55728V2.55728ZM9.56055 2.55728C9.03508 2.42591 9.51676 2.9076 9.56055 2.55728V2.55728ZM24.1864 3.17034C24.1864 3.21413 24.1864 3.25792 24.1864 3.30171C24.0988 3.30171 24.0112 3.21413 24.1864 3.17034ZM41.4396 3.69582C41.4396 3.52066 41.0893 3.52066 41.0893 3.69582C41.1769 3.91477 41.3082 3.69582 41.4396 3.69582ZM3.12344 3.91477C3.07965 3.87098 3.21102 4.00235 3.12344 3.91477V3.91477ZM31.1052 4.30888C30.9738 4.30888 31.0176 4.13372 31.1052 4.30888V4.30888ZM34.2581 4.17751C33.645 4.04614 33.9953 5.00952 34.2581 4.57162C34.1267 4.52783 34.1267 4.30888 34.2581 4.30888C34.2581 4.26509 34.2581 4.2213 34.2581 4.17751ZM30.7549 4.44025C30.7549 4.44025 30.7987 4.44025 30.8425 4.44025C30.8425 4.30888 30.7549 4.35267 30.7549 4.44025ZM32.7692 4.44025C32.6378 4.52783 32.4189 4.61541 32.3751 4.44025C32.4627 4.48404 32.5065 4.39646 32.5065 4.30888C32.2437 4.26509 32.2437 4.48404 32.2437 4.70299C32.4627 4.6592 32.9006 4.83436 32.7692 4.44025ZM32.7692 4.44025C32.813 4.44025 32.8568 4.44025 32.8568 4.44025C32.8568 4.30888 32.7692 4.35267 32.7692 4.44025ZM33.5136 4.44025C33.6012 4.44025 33.645 4.44025 33.645 4.57162C33.5574 4.61541 33.3823 4.57162 33.3823 4.70299C33.5136 4.70299 33.645 4.70299 33.7764 4.70299C33.9078 4.44025 33.5574 4.08993 33.5136 4.44025ZM36.5351 4.44025C36.4914 4.39646 36.6227 4.52783 36.5351 4.44025V4.44025ZM30.7549 4.44025C30.6673 4.44025 30.5797 4.44025 30.4921 4.44025C30.4921 4.61541 30.7111 4.57162 30.7549 4.44025ZM37.1482 4.44025C36.7541 4.83436 37.6299 4.6592 37.1482 4.44025V4.44025ZM36.7979 4.70299C36.7541 4.6592 36.8855 4.79057 36.7979 4.70299V4.70299ZM28.4778 4.83436C28.4778 4.79057 28.4778 4.74678 28.4778 4.70299C28.3026 4.70299 28.3902 4.83436 28.4778 4.83436ZM35.3966 4.83436C35.528 4.79057 35.7469 4.83436 35.7907 4.70299C35.6156 4.70299 35.4404 4.6592 35.3966 4.83436ZM32.2437 5.18468C32.3751 4.92194 31.9372 4.61541 31.8496 4.96573C32.0248 5.00952 32.0686 5.18468 32.2437 5.18468ZM32.3751 4.96573C32.5503 4.52783 32.6816 5.44742 32.3751 4.96573V4.96573ZM36.5351 4.96573C36.6227 4.92194 36.7979 4.92194 36.7979 4.83436C36.7103 4.83436 36.5351 4.83436 36.5351 4.96573ZM1.1091 5.05331C1.19668 5.05331 1.32805 5.05331 1.32805 4.96573C1.24047 4.96573 1.1091 4.96573 1.1091 5.05331ZM32.9882 5.05331C32.9444 5.00952 33.0757 5.14089 32.9882 5.05331V5.05331ZM33.2509 5.05331C33.2071 5.00952 33.3385 5.14089 33.2509 5.05331V5.05331ZM33.9078 5.05331C33.8202 5.00952 33.9515 5.14089 33.9078 5.05331V5.05331ZM34.1267 5.05331C34.0829 5.00952 34.2143 5.14089 34.1267 5.05331V5.05331ZM38.6809 4.96573C37.8926 4.79057 38.4181 5.31605 38.6809 4.96573V4.96573ZM38.9436 5.05331C38.8998 5.00952 39.0312 5.14089 38.9436 5.05331V5.05331ZM40.3011 5.05331C40.2573 5.00952 40.3887 5.14089 40.3011 5.05331V5.05331ZM42.2278 4.96573C42.0089 5.00952 42.2278 5.0971 42.2278 4.96573V4.96573ZM0.233301 5.18468C0.408461 5.62258 0.539831 4.70299 0.233301 5.18468V5.18468ZM28.4778 5.18468C28.434 5.05331 28.653 5.14089 28.4778 5.18468V5.18468ZM31.1052 5.18468C31.149 5.18468 31.1928 5.18468 31.2366 5.18468C31.2804 5.0971 31.1928 5.0971 31.1052 5.05331C31.1052 5.0971 31.1052 5.14089 31.1052 5.18468ZM35.1339 5.18468C35.0901 5.14089 35.2214 5.27226 35.1339 5.18468V5.18468ZM35.528 5.18468C35.4842 5.14089 35.6156 5.27226 35.528 5.18468V5.18468ZM36.4038 5.18468C35.8783 5.31605 36.4038 4.83436 36.4038 5.18468V5.18468ZM39.8194 5.18468C39.6442 5.22847 39.7318 5.00952 39.8194 5.18468V5.18468ZM41.2207 5.18468C41.1331 5.14089 41.2645 5.27226 41.2207 5.18468V5.18468ZM27.821 5.18468C27.821 5.31605 27.8647 5.31605 27.9523 5.31605C27.9961 5.22847 27.9085 5.18468 27.821 5.18468ZM28.3464 5.31605C28.434 5.35984 28.4778 5.27226 28.4778 5.18468C28.3464 5.18468 28.3464 5.22847 28.3464 5.31605ZM30.2294 5.44742C30.098 5.40363 30.1418 5.18468 29.9667 5.18468C29.7915 5.35984 29.8791 5.57879 30.2294 5.57879C30.2294 5.535 30.2294 5.49121 30.2294 5.44742ZM30.3608 5.31605C30.4921 4.92194 31.0176 5.44742 30.3608 5.31605V5.31605ZM31.1052 5.18468C30.93 5.27226 31.1052 5.35984 31.1052 5.18468V5.18468ZM31.2366 5.18468C31.3679 5.62258 30.8425 5.35984 30.8425 5.71016C31.2366 5.79774 31.0176 5.88532 30.9738 6.19184C31.762 5.9729 31.5431 6.32322 31.981 6.58595C32.0248 6.367 31.8496 6.32322 31.8496 6.06048C32.0248 6.10427 32.1124 6.06048 32.1124 5.9729C32.0248 5.92911 31.8934 5.92911 31.8496 5.84153C31.981 5.84153 32.1124 5.84153 32.1124 5.9729C32.2437 5.88532 32.3313 5.84153 32.3751 5.71016C32.2875 5.66637 32.1124 5.71016 32.1124 5.57879C32.1999 5.62258 32.3751 5.57879 32.3751 5.71016C32.5065 5.66637 32.5941 5.57879 32.6378 5.44742C32.3313 5.535 32.4627 5.22847 32.2437 5.18468C32.1124 5.40363 31.981 5.66637 31.762 5.44742C31.7183 5.535 31.6307 5.57879 31.4993 5.57879C31.4993 5.75395 31.7183 5.79774 31.762 5.9729C31.5431 5.92911 31.3679 5.9729 31.2366 6.06048C31.1928 5.79774 31.2804 5.62258 31.4993 5.57879C31.4993 5.535 31.4993 5.49121 31.4993 5.44742C31.4117 5.44742 31.3679 5.35984 31.4993 5.31605C31.4993 5.18468 31.3241 5.22847 31.2366 5.18468ZM31.762 5.44742C31.762 5.14089 31.6307 5.31605 31.4993 5.31605C31.4993 5.35984 31.4993 5.40363 31.4993 5.44742C31.5869 5.44742 31.6745 5.44742 31.762 5.44742ZM32.6378 5.31605C32.5941 5.27226 32.7254 5.40363 32.6378 5.31605V5.31605ZM36.4038 5.18468C36.4476 5.57879 36.9293 5.0971 36.4038 5.18468V5.18468ZM36.9293 5.31605C37.1482 5.31605 37.192 5.44742 37.4109 5.44742C37.6299 5.0971 36.8855 5.0971 36.9293 5.31605ZM38.2867 5.31605C38.1554 5.31605 38.243 5.14089 38.2867 5.31605V5.31605ZM39.8194 5.18468C39.907 5.35984 39.9508 5.18468 39.8194 5.18468V5.18468ZM42.3154 5.18468C41.8337 5.0971 42.3154 5.57879 42.3154 5.18468V5.18468ZM30.2294 5.44742C30.317 5.49121 30.3608 5.40363 30.3608 5.31605C30.2294 5.31605 30.2294 5.35984 30.2294 5.44742ZM33.1195 5.31605C33.1195 5.49121 32.9006 5.62258 33.1195 5.71016C33.1633 5.535 33.3385 5.40363 33.1195 5.31605ZM33.645 5.44742C33.6012 5.40363 33.7326 5.535 33.645 5.44742V5.44742ZM34.3894 5.44742C34.3894 5.31605 34.5646 5.35984 34.3894 5.44742V5.44742ZM36.0097 5.44742C35.8783 5.44742 35.9659 5.27226 36.0097 5.44742V5.44742ZM37.6737 5.44742C37.6299 5.40363 37.7613 5.535 37.6737 5.44742V5.44742ZM37.9364 5.44742C37.8488 5.40363 38.024 5.535 37.9364 5.44742V5.44742ZM38.2867 5.31605C38.3743 5.49121 38.4619 5.31605 38.2867 5.31605V5.31605ZM38.6809 5.31605C38.4619 5.62258 39.1188 5.71016 39.075 5.44742C38.8998 5.44742 38.8998 5.27226 38.6809 5.31605ZM41.2207 5.44742C41.352 5.44742 41.571 5.49121 41.571 5.31605C41.4396 5.35984 41.2207 5.31605 41.2207 5.44742ZM41.9651 5.44742C41.571 5.84153 41.7461 5.00952 41.9651 5.44742V5.44742ZM34.2581 5.57879C34.3019 5.57879 34.3457 5.57879 34.3894 5.57879C34.3894 5.535 34.3894 5.49121 34.3894 5.44742C34.3019 5.44742 34.2581 5.49121 34.2581 5.57879ZM34.7836 5.57879C34.696 5.535 34.8711 5.66637 34.7836 5.57879V5.57879ZM35.3966 5.71016C35.2652 5.18468 35.7907 5.66637 35.3966 5.71016V5.71016ZM36.0097 5.44742C36.0972 5.62258 36.1848 5.44742 36.0097 5.44742V5.44742ZM36.2724 5.57879C36.36 5.535 36.5351 5.57879 36.5351 5.44742C36.4476 5.49121 36.2724 5.44742 36.2724 5.57879ZM36.9293 5.57879C36.8417 5.535 37.0168 5.66637 36.9293 5.57879V5.57879ZM41.9651 5.44742C42.0527 5.62258 42.0965 5.44742 41.9651 5.44742V5.44742ZM42.3154 5.57879C42.2716 5.535 42.403 5.66637 42.3154 5.57879V5.57879ZM43.7167 5.44742C43.5415 5.535 43.7167 5.62258 43.7167 5.44742V5.44742ZM30.2294 5.71016C30.5359 5.71016 30.4483 5.535 30.2294 5.57879C30.2294 5.62258 30.2294 5.66637 30.2294 5.71016ZM33.3823 5.57879C33.2509 5.75395 33.2509 5.88532 33.5136 5.9729C33.5136 5.79774 33.5574 5.66637 33.645 5.57879C33.5574 5.57879 33.4699 5.57879 33.3823 5.57879ZM34.2581 5.57879C34.0391 5.57879 33.9515 5.66637 33.9078 5.84153C34.0829 5.84153 34.2143 5.75395 34.2581 5.57879ZM34.3894 5.57879C34.4332 5.79774 34.2581 5.79774 34.2581 5.9729C34.477 5.92911 34.7398 6.01669 34.7836 5.84153C34.6522 5.84153 34.6522 5.66637 34.6522 5.57879C34.5646 5.57879 34.477 5.57879 34.3894 5.57879ZM40.9579 5.57879C40.739 5.92911 41.4834 5.92911 41.4396 5.71016C41.2207 5.71016 41.1769 5.57879 40.9579 5.57879ZM42.5782 5.71016C42.5344 5.66637 42.6657 5.79774 42.5782 5.71016V5.71016ZM43.1036 5.71016C43.235 6.19184 43.235 5.18468 43.1036 5.71016V5.71016ZM30.2294 5.71016C29.7039 5.57879 30.1856 6.06048 30.2294 5.71016V5.71016ZM35.3966 5.71016C34.8711 5.57879 35.3966 6.06048 35.3966 5.71016V5.71016ZM38.5495 5.84153C38.6809 5.79774 38.8998 5.84153 38.9436 5.71016C38.7684 5.71016 38.5933 5.66637 38.5495 5.84153ZM39.075 5.84153C39.1625 5.79774 39.2939 5.84153 39.2939 5.71016C39.2063 5.71016 39.075 5.71016 39.075 5.84153ZM39.4253 5.84153C39.3815 5.75395 39.5129 5.92911 39.4253 5.84153V5.84153ZM40.6952 5.84153C40.6514 5.75395 40.7828 5.92911 40.6952 5.84153V5.84153ZM35.528 5.9729C35.4842 5.88532 35.6156 6.01669 35.528 5.9729V5.9729ZM36.2724 5.9729C36.141 5.9729 36.1848 5.75395 36.2724 5.9729V5.9729ZM39.8194 5.9729C39.7756 5.88532 39.907 6.01669 39.8194 5.9729V5.9729ZM40.3011 5.9729C40.2573 5.88532 40.3887 6.01669 40.3011 5.9729V5.9729ZM41.7024 5.9729C41.9213 5.92911 42.0965 5.9729 42.2278 6.06048C42.403 5.71016 41.6586 5.71016 41.7024 5.9729ZM42.8409 5.9729C42.2278 5.62258 42.5344 6.367 42.8409 5.9729V5.9729ZM0.320881 5.9729C0.145721 6.01669 0.364671 6.10427 0.320881 5.9729V5.9729ZM29.6163 5.9729C29.6601 6.49838 30.317 5.84153 29.6163 5.9729V5.9729ZM30.2294 6.06048C30.1856 6.01669 30.317 6.14806 30.2294 6.06048V6.06048ZM30.6235 6.06048C30.7549 6.58595 30.7549 5.57879 30.6235 6.06048V6.06048ZM36.2724 5.9729C36.36 6.14806 36.4476 5.92911 36.2724 5.9729V5.9729ZM36.6665 6.06048C36.6227 6.01669 36.7541 6.14806 36.6665 6.06048V6.06048ZM40.5638 6.06048C40.52 6.01669 40.6514 6.14806 40.5638 6.06048V6.06048ZM41.0893 6.06048C41.2207 6.06048 41.2645 6.27942 41.3082 6.06048C41.3082 5.9729 41.0893 5.92911 41.0893 6.06048ZM42.9723 6.06048C42.9285 6.01669 43.0598 6.14806 42.9723 6.06048V6.06048ZM44.5925 6.06048C44.5487 6.01669 44.6801 6.14806 44.5925 6.06048V6.06048ZM44.9866 6.06048C45.0304 6.06048 45.0742 6.06048 45.118 6.06048C45.118 6.01669 45.118 6.01669 45.118 5.9729C44.9866 5.92911 44.9866 6.01669 44.9866 6.06048ZM32.8568 6.19184C33.032 6.19184 33.2509 6.23564 33.2509 6.06048C33.1195 6.10427 32.9006 6.06048 32.8568 6.19184ZM33.3823 6.19184C33.3385 6.14806 33.4699 6.27942 33.3823 6.19184V6.19184ZM33.7764 6.19184C33.6888 6.14806 33.864 6.27942 33.7764 6.19184V6.19184ZM37.6737 6.19184C37.6299 6.14806 37.7613 6.27942 37.6737 6.19184V6.19184ZM44.9866 6.06048C44.8114 6.14806 44.9866 6.23564 44.9866 6.06048V6.06048ZM32.5065 6.32322C32.6378 6.84869 32.6378 5.84153 32.5065 6.32322V6.32322ZM34.3894 6.32322C34.3457 6.27942 34.477 6.4108 34.3894 6.32322V6.32322ZM34.7836 6.32322C34.696 6.27942 34.8711 6.4108 34.7836 6.32322V6.32322ZM35.1339 6.32322C35.2652 6.32322 35.3966 6.32322 35.3966 6.19184C35.309 6.23564 35.1339 6.19184 35.1339 6.32322ZM35.7907 6.32322C35.6156 6.32322 35.7031 6.14806 35.7907 6.32322V6.32322ZM38.2867 6.32322C38.4181 6.32322 38.5495 6.32322 38.5495 6.19184C38.4619 6.23564 38.2867 6.19184 38.2867 6.32322ZM39.2939 6.32322C39.4253 6.32322 39.5567 6.32322 39.5567 6.19184C39.4691 6.23564 39.2939 6.19184 39.2939 6.32322ZM40.6952 6.32322C40.6514 6.27942 40.7828 6.4108 40.6952 6.32322V6.32322ZM42.2278 6.32322C42.1403 6.27942 42.2716 6.4108 42.2278 6.32322V6.32322ZM42.8409 6.32322C42.7095 6.32322 42.7533 6.14806 42.8409 6.32322V6.32322ZM42.8409 6.32322C42.7533 6.54216 43.454 6.54216 43.3664 6.32322C43.1036 6.10427 43.1912 6.32322 42.8409 6.32322ZM46.5192 6.19184C46.3003 6.19184 46.1689 6.27942 46.1251 6.45458C46.2127 6.49838 46.2565 6.58595 46.3879 6.58595C46.3441 6.367 46.4755 6.367 46.5192 6.19184ZM47.395 6.32322C47.4826 6.32322 47.5702 6.32322 47.614 6.32322C47.614 6.19184 47.4826 6.23564 47.395 6.19184C47.395 6.23564 47.395 6.27942 47.395 6.32322ZM28.4778 6.45458C28.4778 6.49838 28.4778 6.54216 28.4778 6.58595C28.7843 6.58595 29.0909 6.58595 29.0909 6.32322C28.7843 6.27942 28.6092 6.367 28.4778 6.45458ZM29.8353 6.45458C29.8353 6.32322 30.0542 6.367 29.8353 6.45458V6.45458ZM30.4921 6.45458C30.4483 6.4108 30.5797 6.54216 30.4921 6.45458V6.45458ZM35.7907 6.32322C35.8345 6.49838 35.9221 6.32322 35.7907 6.32322V6.32322ZM40.4325 6.45458C40.3887 6.4108 40.52 6.54216 40.4325 6.45458V6.45458ZM40.9579 6.45458C40.9141 6.4108 41.0455 6.54216 40.9579 6.45458V6.45458ZM44.3735 6.45458C44.4611 6.4108 44.5925 6.45458 44.5925 6.32322C44.5049 6.367 44.3735 6.32322 44.3735 6.45458ZM45.118 6.45458C44.5925 6.01669 44.8114 6.84869 45.118 6.45458V6.45458ZM47.614 6.32322C47.6578 6.45458 47.7454 6.45458 47.7454 6.58595C47.8329 6.58595 47.9205 6.58595 47.8767 6.71732C48.0519 6.71732 48.0957 6.67353 48.1395 6.58595C48.0081 6.54216 47.9205 6.45458 47.8767 6.32322C47.7892 6.32322 47.7016 6.32322 47.614 6.32322ZM29.2222 6.58595C29.3098 6.54216 29.485 6.58595 29.485 6.45458C29.3536 6.49838 29.2222 6.45458 29.2222 6.58595ZM29.8353 6.45458C29.6601 6.54216 29.8791 6.62974 29.8353 6.45458V6.45458ZM30.8425 6.58595C30.7987 6.54216 30.93 6.67353 30.8425 6.58595V6.58595ZM32.7692 6.58595C32.6816 6.54216 32.813 6.67353 32.7692 6.58595V6.58595ZM32.9882 6.58595C32.9444 6.54216 33.0757 6.67353 32.9882 6.58595V6.58595ZM37.6737 6.58595C37.6299 6.54216 37.7613 6.67353 37.6737 6.58595V6.58595ZM42.2278 6.58595C42.184 6.4108 42.403 6.49838 42.2278 6.58595V6.58595ZM44.1108 6.45458C43.2788 6.32322 43.8043 6.84869 44.1108 6.45458V6.45458ZM45.2493 6.58595C45.4245 6.14806 45.5559 7.06764 45.2493 6.58595V6.58595ZM46.1251 6.45458C45.95 6.54216 46.1251 6.62974 46.1251 6.45458V6.45458ZM38.6809 6.71732C38.6371 6.67353 38.7684 6.8049 38.6809 6.71732V6.71732ZM42.2278 6.58595C42.0089 6.67353 42.2278 6.71732 42.2278 6.58595V6.58595ZM42.8409 6.71732C42.7971 6.67353 42.9285 6.8049 42.8409 6.71732V6.71732ZM44.8552 6.84869C44.9428 6.8049 45.118 6.84869 45.118 6.71732C45.0304 6.71732 44.8552 6.71732 44.8552 6.84869ZM45.731 6.84869C45.95 6.84869 46.1251 6.84869 46.2565 6.98006C46.4317 6.62974 45.6872 6.62974 45.731 6.84869ZM45.4683 6.98006C45.4245 6.89248 45.5559 7.02385 45.4683 6.98006V6.98006ZM43.8481 7.06764C43.9356 7.06764 44.1108 7.06764 44.1108 6.98006C44.0232 6.98006 43.8481 6.98006 43.8481 7.06764ZM44.7239 7.06764C44.5925 7.11143 44.6363 6.89248 44.7239 7.06764V7.06764ZM44.7239 7.06764C44.9428 7.54933 45.118 6.67353 44.7239 7.06764V7.06764ZM45.9938 7.19901C46.0814 7.19901 46.2565 7.19901 46.2565 7.06764C46.1689 7.11143 45.9938 7.11143 45.9938 7.19901ZM47.0009 7.06764C47.0009 7.11143 47.0009 7.15522 47.0009 7.19901C47.0885 7.28659 47.2199 7.33038 47.395 7.33038C47.3075 7.19901 47.2199 7.06764 47.0009 7.06764ZM43.1036 7.33038C43.0598 7.28659 43.1912 7.41796 43.1036 7.33038V7.33038ZM45.118 7.33038C45.0742 7.28659 45.2056 7.41796 45.118 7.33038V7.33038ZM45.5997 7.33038C45.5559 7.28659 45.6872 7.41796 45.5997 7.33038V7.33038ZM43.9794 7.46175C43.9356 7.41796 44.067 7.54933 43.9794 7.46175V7.46175ZM45.8624 7.46175C45.9938 7.94344 45.9938 6.98006 45.8624 7.46175V7.46175ZM46.8696 7.46175C46.8258 7.41796 46.9571 7.54933 46.8696 7.46175V7.46175ZM47.395 7.33038C47.3513 7.46175 47.2637 7.46175 47.2637 7.59312C47.4388 7.72449 47.4388 7.63691 47.614 7.59312C47.6578 7.37417 47.5264 7.37417 47.395 7.33038ZM44.5925 7.72449C44.5487 7.6807 44.6801 7.81207 44.5925 7.72449V7.72449ZM44.8552 7.72449C44.9428 7.6807 45.118 7.72449 45.118 7.59312C45.0304 7.63691 44.8552 7.59312 44.8552 7.72449ZM45.3807 7.85586C45.2931 7.81207 45.4245 7.94344 45.3807 7.85586V7.85586ZM46.7382 7.85586C46.6068 7.85586 46.6944 7.6807 46.7382 7.85586V7.85586ZM46.7382 7.85586C46.782 8.20618 47.2637 7.72449 46.7382 7.85586V7.85586ZM46.1251 8.1186C46.2565 8.60029 46.2565 7.59312 46.1251 8.1186V8.1186ZM47.1323 8.33755C46.8696 8.29376 46.7382 8.07481 46.5192 7.98723C46.4755 8.38134 46.8258 8.42513 47.1323 8.46892C47.1323 8.42513 47.1323 8.38134 47.1323 8.33755ZM47.395 8.1186C46.8696 8.20618 47.3513 7.72449 47.395 8.1186V8.1186ZM47.395 8.20618C47.4826 8.20618 47.614 8.20618 47.614 8.1186C47.5702 8.1186 47.4826 8.1186 47.395 8.1186C47.395 8.1186 47.395 8.16239 47.395 8.20618ZM47.1323 8.33755C47.2199 8.33755 47.2637 8.46892 47.1323 8.46892C47.2199 8.60029 47.3513 8.68787 47.5264 8.73166C47.5702 8.46892 47.4388 8.38134 47.395 8.20618C47.2199 8.20618 47.1761 8.24997 47.1323 8.33755Z" fill="url(#paint0_linear_3115_3717)"/>
<defs>
<linearGradient id="paint0_linear_3115_3717" x1="25.4819" y1="12.8566" x2="38.0717" y2="34.1397" gradientUnits="userSpaceOnUse">
<stop stop-color="#F0047F"/>
<stop offset="1" stop-color="#FC814A"/>
</linearGradient>
</defs>
</svg>
