<svg xmlns="http://www.w3.org/2000/svg" width="936" height="817" fill="none"><path fill="#000" fill-opacity=".48" d="M311.168 21c-1-1 2 2 0 0Zm29 20c-27-41-87 25-110 41 0 2 0 3-2 3 0-2 0-4 2-3-76 44-149 117-216 181 12-1 0 7 0 12 11 2 15-18 21-12-2 8-12 7-12 18 2 7 12 7 12 17-16 18-35 46-32 66 6-3 24 9 26 26 0-4-1-8 3-9 8 7 6 19 17 9-4 19 16 14 23 23 2 0 3 2 0 3 1 2 3 3 3 6 12-4 14 0 23 5-21 28-46 50-61 84 7 3-4 14 6 17 0-5 2-7 6-8-2 7-4 10 3 14 1-10 15-1 14 3 3-1 3-3 6-3v9c20 0 21 9 29 17-1-10 7 0 14-6 0 4 1 8-3 9 2 5 6 0 9 0 0 4-1 8 3 8 48 9 90-32 124-57h-6c-1 3-5 7-6 3 1-3 3-4 6-3 0-3 5-4 6 0 37-20 64-51 103-69 3-5 5-9 12-9 0-3 3-4 6-6-1-3 4-2 0 0-1 4-1 7-6 6-3 4-4 9-12 9-13 15-31 26-43 43 4 0 6-1 9-3 0-2 0-3 3-3 0-2 0-3 3-3 0-2 0-3 2-3 1-2 3-3 6-3 0-3 4-1 0 0 0 3-2 4-6 3 0 2 0 4-2 3-1 2-1 4-3 3 0 2-1 4-3 3-1 3 0 8-3 9 0 1-2 3-3 0-3 0-4 3-6 5 2 5 4 0 0 0h-5c-1 2-1 4-3 3-1 2-1 4-3 3 7 4 4 8-3 12v3h6c0-4 3-5 5-6 1-2 1-4 3-3 0-2 1-4 3-3 0-3 4-2 0 0 0 2 0 3-3 3 0 2 0 3-3 3 0 3 0 7-5 6-1 3-4 4-6 5v6h6c0-2 0-3 3-3 0-2 0-3 2-3 1-1 1-3 3-3 0-1 1-3 3-2 0-2 1-4 3-3 3-5 4-9 12-9 0-2 0-3 2-3 1-2 1-3 3-3 0-1 1-3 3-3 0-1 1-3 3-2 1-4 3-5 6-6 2-4 4-9 11-9 1-2 1-3 3-3 3-4 5-9 12-8-3 4-5 9-12 8 0 2 0 4-3 3-2 4-4 9-11 9 0 3-1 7-6 6 0 1 0 3-3 2 0 2 0 4-3 3 0 2 0 4-3 3 0 2 0 4-2 3-3 4-5 9-12 9 0 1 0 3-3 3 0 1 0 3-3 2 0 2 0 4-3 3 0 2 0 4-2 3-1 2-1 4-3 3-4 5-6 11-15 12-1 12-13 13-17 23 3 0 4 5 0 5v-5c-3 1-18 12-6 11 0-3 4-2 0 0 0 3-3 5-6 6 0 2 0 3-2 3-1 2-1 3-3 3v5h5c1-1 1-3 3-2 1-3 0-6 3-6 0-2 1-4 3-3 0-2 1-4 3-3 0-2 0-3 3-3 0-2 0-3 3-3 0-1 0-3 3-3 0-1 0-3 2-2 1-2 1-4 3-3 1-2 1-4 3-3 0-2 1-4 3-3 0-2 1-4 3-3 0-2 0-3 3-3 0-2 0-3 3-3 0-2 0-3 3-3 0-1 0-3 3-3 0-1 0-3 2-2 1-2 1-4 3-3 0-4 4-2 0 0 0 1 0 3-3 3 0 1 0 3-2 2-1 2-1 4-3 3-1 2-1 4-3 3 0 2-1 4-3 3 0 2-1 4-3 3 0 2 0 3-3 3 0 2 0 3-3 3 0 1 0 3-3 3 0 1 0 3-3 3 0 1 0 3-2 2-1 2-1 4-3 3 0 2-1 4-3 3 0 2-1 4-3 3 0 2 0 3-3 3 0 2 0 3-3 3 0 2 0 5-3 6 0 1 0 3-3 2 0 4-3 5-5 6 0 2-1 4-3 3 0 2-1 3-3 3 0 2-1 3-3 3 0 2 0 3-3 3 0 1 0 3-3 3-4 1 1 3 0 0 0-2 1-4 3-3 0-2 1-4 3-3 0-2 0-4 3-3 0-2 0-3 3-3 0-2 0-3 3-3v-6c-3 0-4-5 0-5 0-2 0-4 3-3 0-2 0-4 2-3 0-5-6-2-8 0 0 2-1 3-3 3 0 2-1 3-3 3 0 1 0 3-3 3 0 8-6 10-11 14-1 2-1 3-3 3 0 2-1 3-3 3 0 1-1 3-3 3 0 4-1 6-3 8 2 4 4 0 0 0-3 0-3 3-6 3 0 2 0 4-3 3 0 3-3 4-5 6 0 1-1 3-3 3-4 1 0 3 0 0 0-2 0-4 3-3 0-4 1-7 5-6 1-2 1-3 3-3 0-7 5-9 9-11 0-2 0-4 3-3 0-2 0-4 3-3 0-2 0-4 3-3 0-9 6-11 11-14 0-2 1-4 3-3 0-2 0-4 3-3 0-2 0-4 3-3-1-6 3-6 3-12-3 0-4 3-6 3 0 2-1 4-3 3 0 2 0 4-3 3 0 2 0 3-3 3 0 2 0 3-3 3 0 2 0 3-2 3 0 1-3 3-3 0h-3c0 1-1 3-3 3 0 1-1 3-3 2 0 4 5 7 0 9 0 2 0 3-3 3 0 2 0 3-3 3-4 2 1 3 0 0 0-2 1-4 3-3 0-2 1-3 3-3-1-2-2-3-6-3 0 2 0 4-3 3 0 2 0 3-3 3 0 2 0 3-2 3-1 2-1 3-3 3v5c1 0 3 3 0 3 0 2-3 4-3 0h-3c0 2 0 4-3 3 0 2 0 4-3 3 0 2 0 4-3 3 0 4-1 6-3 9 2 4 4-1 0 0-2 0-3 2-5 3 0 1-1 3-3 2 0 2-1 4-3 3 0 5-2 8-6 9 0 2 0 3-3 3 0 2 0 3-3 3 0 1 0 3-2 3 0 2 2 3 5 2 0-1 1-3 3-2 0-4 4-2 0 0 0 1 0 3-3 2 0 4-3 5-5 6-1-4-4-4-3-8-4 1-6 3-6 8 1 0 3 3 0 3 0 2-1 3-3 3 0 5-2 7-6 9 0 1 0 3-3 2 1 5-2 8-5 9 0 7-5 9-9 12 0 1 0 3-3 3 0 4-2 7-6 8 0 2 0 4-3 3 0 2-2 3-2 0-5 1-5 5-9 6-1 5-1 12-9 11 3-4 3-10 9-11 6-19 23-27 29-46-13 7-16 24-29 31-2 8-6 14-12 18-1 6-1 13-11 11-3 18-17 26-23 41 14-3-4 10 6 11 2-4 2-11 8-11 3 9 2 7-3 14 7-2 16-4 18 6 5-2 21 8 28 14 4 7 9-5 12 3 3 1 2 6 6 6 0-5 2-8 5-9-2 17 18 3 9 17 10-4 11 1 23 0 88-53 147-135 231-193 1-6 10-17 14-11-4 5-6 11-14 11-4 9-13 13-15 23 10-5 14-15 23-20 0-1 1-3 3-3 0-1 1-3 3-2 0-2 0-4 3-3 0-2 0-4 3-3 6-14 14-9 26-18v-5c-3-1-6 0-6-3 4 0 4-4 9-3 0-2 0-3 2-3 1-2 1-3 3-3 0-2 1-3 3-3 0-1 2-3 3 0 2 4 4 0 0 0h-3c0 2 0 4-3 3 0 2 0 4-3 3 0 2 0 3-2 3 0 3-3 3-3 6 3 1 6 3 8 5-4 2-5 4-8 0-10 6-8 24-23 24-4 4-3 12-12 11 0 2 0 3-3 3-4 10-5 11-11 14 0 2-1 4-3 3 0 2-1 4-3 3 0 2-1 3-3 3 0 2 0 3-3 3 0 2 0 3-3 3 0 1 0 3-3 3 0 1 0 3-2 2-5 2 0 4 0 0 0-1 0-3 2-2v-3c-2-1-5 0-5-3 3 0 3-3 5-3 2-4 5-7 6-12-29 20-44 52-69 75-5 5-9 22-17 15 0 10-2 17-9 20 0 2 0 3-3 3 1 7-4 9-11 8 3 12-5 13-9 18 2 4 4-1 0 0-11 26-39 41-32 77 3-9 8-4 6 6 24 3 33 12 52 26 4-3 6-2 6 3 5 0 6-4 11-3 3 9 3 9 0 17h9c0-3 1-6 6-5 3 0 4 3 5 5 40-3 66-21 90-40 20-19 44-34 63-55-3 1-2-4 0 0 3-2 3-6 9-5 0-2 2-4 3 0 2-2 4-3 8-3 2 4 4 7 6 11h3c1-2 0-5 3-6-1 3 0 6-3 6v9c12 4 13-10 20-3-5 3-8 8 3 9 9 1-7-9 3-9 10 8 21-2 34 0-2 9 10 4 9 12h3c0-2 2-4 3 0 7-8 4 5 11 5 0-3 4-2 0 0 2 5 6 1 9 0 0 8 5 6 0 12 5-1 5 2 6 6 15-5 21 5 34 5-4 0-8 0-8 3 10 2 15 8 23 12 6-1 9 2 8 8 20-6 46-6 55-8 4 10 6 14 14 11 0 7 1 11 6 12 0-2 2-4 3 0 9-3 5 6 6 11 6 2 4-5 8-5-4 14 32 8 26 23 16-2 6 4 15 8 24-2 48-6 63-17-4-1 0-3 0-6-5-3-10 9-11 0 4-5 12-7 17-11v8c7 1 12-1 14-5-4-8-8 5-11-3 4-3 10-3 11-9-9 2-10-3-17-3-3 6-19 14-23 9 5-6 13-8 23-9 1-3 6-2 6-6h-9c-4 2 0 4 0 0 0-3 8-3 9 0 8-3 19-4 23-11-4-1-3-6-6-9 10 3 15-7 17 3-5 0-9 2-11 6 12-1 19-7 29-12-10-6 9-8 8-14-25 3-43 13-60 23 2 4 3 0 0 0-16 5-8 11-20 9 1 4 3-1 0 0-7 2-12 6-21 5-4 2 1 4 0 0 3-5 11-4 12-11-7-3-12 10-14 3 19-9 23-19 40-26 0-2 0-4 3-3v-6c-2-1-6 0-6-3 4-1 5-4 12-3 3-7 17-4 20-11-9-4-15 8-18 0h-2c-1 2-1 3-3 3-1 1-1 3-3 3-4 1 0 3 0 0 0-2 0-4 3-3 0-2 0-4 3-3 0-2 0-4 2-3 2-9 8-4 15-3 3-8 11-11 17-17-11-6-14 3-23 6v-6c-2-1-3-3-6-3 1 6-2 8-3 11 2 0 4 3 0 3-4 2 1 4 0 0v-3h-5c-1 2-1 4-3 3-3 5-5 9-12 9v-3c-1 0-3-2 0-3 1-7 8-9 15-11 1-4 5-5 5-9-1 0-3-2 0-3 2-2 3-5 6-6 1 7 8-3 12-2 1-4 3-6 8-6 4-9 11-14 20-17 2-4 4-6 9-6 1-7 7-6 15-6 5-4 12-7 20-9 1-3 3-6 8-5-1 3-3 5-8 5 0 3 5 2 5 6 10-4 15-12 23-17 3 0 3 3 3 6 8.002 2 6.002-6 12.002-6 0-10 14-7 14-17-18-8-25-37-46.002-32-4-20-32-26-49-38-4 17-39 10-29 32-6 1-15 13-20 6-5-1-6 3-11 3 0 1-3 3-3 0-4 0-4 3-9 3 0-3 3-4 3-6-4 0-6 1-9 3-2 5-7 7-14 8 2-5 8-7 14-8 0-8 6-8 12-9 1-8 8-10 14-11 9-18 35-17 41-38 13 5 23-15 29-20-1-3 4-2 0 0-1 3 0 5 2 6 7-9 22-23 32-20 8-10 30.002-18 40.002-15 1-2 0-6 3-6 0 3 0 6-3 6 0 3-3 3-2 6 11-1 12-13 23-14 0 5-4 6-3 11 3-1 4-5 8-6 0-1 3-3 3 0 7-6 14-11 17-20-29-22-47-44-74.002-63-5 2 0 3 0 0-1-3-3-3-3-6-26 1-44 10-61 20 12-1 15-3 23 0 1-3 1-7 6-6 0-1 2-3 3 0h-3c0 4-1 7-6 6-25 21-65 27-89 49 14-2 21-12 35-14 0-3 2-4 5-3 4-5 10-7 18-9 0-2 10-9 11-3-4 1-5 4-11 3-3 6-9 9-18 9 0 2-2 3-5 3-1 8-13 5-15 11 10-3 3 10 0 12 0-8-5-6 0-12-10 1-13 9-23 9 0 5-9 2-9 9 3 0 6 0 6 2 2 0 6 0 6-2-3 0-2-5 0 0 5 0 6-4 12-3 0-3 5-4 5 0h-5c-7 10-24 10-29 23-2 4-6 5-12 5 0 3-2 4-6 3-6 7-13 14-25 15 1 8-10 18-15 11-9-2-5 6-3 9-31 20-70 55-92 52-3 8-6 12-14 8-22 29-57 41-84 58 6-11-6-6 0-14-2-1-3-3-3-6h6c0-4 4-2 0 0 0 3-2 3-3 6h6c1-5 5-5 6-9-2 0-4-2 0-3 0-2 2-3 5-3 1-2 1-3 3-3 1-3 4-6 9-5 2-6 8-8 14-9 2-4 4-6 9-6 0-2 0-3 3-3v-3h-6c-4 2 0 4 0 0 1-2 3-3 6-2 4-2 0-12 6-12 0-3 2-3 3-6-1-16 32-37 48-37 6-5 6-16 18-15v-5c-2 0-4-3 0-3 0-2 0-4 3-3-1 2-1 3-3 3v3c21-1 9-18 26-21 73-60 158-108 230-169-9 4-8-1-14-6-12-15-29-23-41-38h-5c-1 2-1 4-3 3-4 2 0 4 0 0 0-2 0-3 3-3-2-2-3-4-3-8-5-1-6 3-12 3 4-5 4-8 0-12h-8c-5 2 0 4 0 0-1-3-4-2-6-3-4 2 0 4 0 0-6-6 1-5 3-11-3-1-6 0-6-3 2 0 6 0 6 3 10-3 9-21 11-23 3 2 6 5 9 8-5 0-8 2-9 6 7-1 13-3 15-9-4 1-2-4 0 0 12-5 22-14 31-23-10 1-9 5-14-3-1 3-3 4-6 3 0 2 0 4-3 3-3 4-5 9-8 12-6-5 0-12 8-12 0-2 1-3 3-3 4-7 11-12 20-14-1-8 6-7 12-9 0-1 0-3 3-3 0-3 4-3 8-2 0-4 5-2 0 0-1 6-4 6-8 2 0 2-1 4-3 3 2 10-10 4-12 9 3 9-9 4-8 11 3 1 8 0 8 3h6c17-19 38-35 61.002-49-6-24-30.002-32-44.002-49-9 2-4-6-3-8-12-2-17-10-25-15-2 6-17 9-18 0-14 7-25 17-37 26 3 0 2 4 3 6-18 4-33 11-46 20 4 0 8 0 8 3-11-2-16 18-23 12-12 17-35 24-52 37 0 2-3 3-3 6 2 0 4 2 0 3s1 3 0 0v-3c-11-2-9 10-14 14-29 11-64 37-92 52 2 4 3 0 0 0-6 6-17 8-23 14 2 5 3 0 0 0-52 30-89 56-144 90 1 0 3 2 0 3 0 1-2 3-3 0-24 22-56 36-78 60 2 4 4 0 0 0-20 3-23 25-43 29v6c2 4 4-1 0 0-19 7-31 23-49 31 0 2 0 4-3 3 2 9-7 8-11 12 0 1-1 3-3 3-4 1 0 3 0 0 0-2 0-4 3-3-1-8 8-7 11-12 0-2 1-3 3-3 8-15 27-26 40-43-1 0-3-2 0-3v3c6 0 4-8 12-6 21-20 38-44 66-57 6-9 14-17 26-20 20-25 52-42 72-58 0-2 1-3 3-3 1-3 4-6 9-6 0-2 3-2 5-2 1-2 1-4 3-3 1-3 3-4 6-3 1-4 4-6 9-6 0-3 3-2 5-3 1-7 12-4 12-11h-6c0 2-2 3-6 2 0 2 0 4-2 3-5 2 0 4 0 0 0-1 0-3 2-3 1-2 3-3 6-2 6-14 24-14 32-26-2 0-3-3 0-3 0-4 4-2 0 0v3c9 2 4-10 11-9 85-74 195-122 265-210 0-7-25-15-11-17v-3c-10-3-6-8-15 0 2-11-6-13-11-18 1 8-16-4-6-5v-3c-12-7-22-14-34-26-15-1-21 7-35 6-1 2-3 2-3 5 2 4 4 0 0 0-28 4-61 21-89 35 4 0 3 7-3 6v3c12-1 0 4 0 8h9c0-2 2-3 5-3 1-3 5-3 9-3 1-5 5-6 12-5 0-3 2-4 5-3 0-4 4-2 0 0 0 2-2 3-5 3-2 3-7 5-12 5 0 4-5 4-9 3 0 3-2 4-5 3-5 5-11 9-21 9-46 24-94 48-141 72-1 9-15 5-17 14 2 0 3 3 0 3-4 2 0 4 0 0v-3c-18 5-27 19-46 23-1 4-4 6-9 6 0 2 0 3-3 3v3c2 4 4-1 0 0-3 0-2 5-5 6-5 1 0 3 0 0-1-3-3-4-6-3 0 1-1 3-3 3v2c2 0 3 3 0 3v3h6c0-2 2-3 6-3 1-3 3-6 8-5 1-3 3-4 6-3 1-3 2-4 6-3 1-4 3-6 8-6 2-4 4-6 9-6 1-2 2-3 6-3 0-1 2-3 3 0 2 0 5 0 5-3-6 0 1-7 6-5 1-3 3-4 6-3 0-2 0-4 3-3 0-2 2-3 6-3 0-2 2-3 5-3 1-2 3-3 6-3 0-3 4-1 0 0-1 3-2 4-6 3v3c6 6 11-4 15-9-2 0-4-2 0-2 0-3 2-4 5-3 1-5 5-7 12-6 1-4 5-5 6-9-4 1-2-4 0 0 12 2 11-10 20-11 1-4 4-6 9-6 0-2 2-3 5-3 1-2 3-3 6-3 1-2 2-3 6-3 0-1 2-3 3 0 9 0 12 6 17-3-3 1-2-4 0 0 3 0 8 1 9-2-2 0-4-3 0-3 0-2 2-4 3 0 2 0 3 2 5 3 0-3 3-4 3-6-1 0-3-3 0-3v3c11-5 1 12 9 11 0-2 2-3 6-3-2-7 10-2 11-8-5-3-12-3-6-9-3 0-1-4 0 0h9c1-2 2-3 6-3 5-4 10-8 20-8 1-6 11-3 11-9-2-1-5 0-5-3 2 1 5 0 5 3 3 1 6 0 6 3-6 2-8 7-17 6-2 3-3 6-6 8-2-8-7 4-14 0-1 3-3 4-6 3-1 7 8 3 9 9-10 1-13 8-23 8-1 3-3 4-6 3-36 24-67 33-92 52-5 2 0 4 0 0-1-2-3-3-6-3-5 6-4 14-15 9-2 6-7 8-14 9-4 7-12 9-20 11-6 4 4 7-3 9-7-8-4 5-11 6 0 1-3 3-3 0h-6c-1 2-3 3-6 2-2 6-8 8-14 9-1 3 0 8-3 9-6-9-11 8-20 5 0 3-3 4-3 6 2 4 3 0 0 0-6 0-7 3-12 3 0 3-2 3-3 6 2 4 4 0 0 0h-5c-1 2-1 3-3 3v3c2 4 3-1 0 0-5 6-16 16-23 11 1 7-9 3-9 9 2 4 4-1 0 0-11-3-6 14-14 6-7 10-21 14-29 23-4 1 0 3 0 0-1-3-3-4-6-3 0 1 0 3-3 3-1 3-3 5-8 5 0 3-3 4-3 6 1 4 3 0 0 0h-6c-1 10-6 15-17 12-7 4 3 7-3 8h-12c0 4 4 4 3 9-4 0-6-1-8-3-8 17-22 18-35 23 0 2 0 3-3 3-1 4-4 6-9 6 0 1 0 3-2 3-3 4-5 9-12 8-4 2 0 4 0 0 3-4 4-9 12-8 0-2 0-4 2-3 2-4 4-6 9-6 0-2 1-4 3-3 11-12 22-24 37-32 11-11 22-20 38-26 0-1 0-3 3-2 0-3 2-4 5-3-7-4 4-14 6-6 4 0 4-4 9-3 3-7 9-10 17-11v-3c-1 0-3-3 0-3 0-4 4-2 0 0v3h6c0-2 0-4 3-3 0-3-3-4-3-6-2-1-6 0-6-3h6c0-2 0-3 3-3 0-2 2-3 6-3 1-3 3-6 8-5 3-5 5-10 12-9 0-2 2-3 5-3 1-2 3-3 6-3 0-2 1-3 3-3v-3c-1 0-3-2 0-2 0-2 1-4 3-3 1-4 4-6 9-6 1-4 3-6 8-6 1-2 3-3 6-3v-3c-2 0-3-2 0-2 0-2 0-4 3-3 2-4 6-6 11-6 1-2 1-4 3-3 1-4 4-6 9-6 18-15 39-28 63-37 9-12 29-14 38-26-4-1-8 0-9-3 22-14 50-29 61-37 0 2 0 5 2 5 1-2 6-14 9-5 4-1 7-6 9 0h3c-1-4 4-2 0 0v2c11 0 16-8 28-8-1-8 11-3 12-9-3 0-8 1-9-3 5 0 8-2 9-5-2-1-6-1-6-3h6c0-3 2-4 3-6-13 5-29 8-38 17 5 1 8-4 9 0 0 4-8 4-9 0-10-2-11 6-20 6 0 2-2 3-6 3-4 2 1 3 0 0 1-2 3-4 6-3 11-12 25-23 35-29-6-3-13-14-20-23-2 0-4 0-3-3-2 0-4-2 0-3-1-8-22-6-12-17-5 0-6 4-11 3 1-4 5-5 5-9-8 1-9 0-5-5-7-1-9-6-15 0-3-12-13-16-20-24-14 2-22 21-34 15 0 7-4 9-12 9 0 2-3 2-6 2-5 4-12 7-20 9 0 2-2 3-3 0-3 0-5 1-5 3 4 1 0 3-3 3-2 4-7 5-12 6-54 27-125 71-178 100-6 7-15 11-23 15-1 2-3 3-6 3-6 3-9 10-18 11 0 2 0 4-2 3-1 2-3 3-6 3-4 2 0 3 0 0 0-2 2-3 6-3 0-2 0-3 2-3v-3c-14-2-14 13-25 20 0-3-1-5-3-5-1 7-10 20-18 11 8-11 41-23 29-34-1 10-6 12-14 8 0 2-1 4-3 3 0 4-1 7-6 6 0 3-1 7-6 6 1 8-8 7-11 11v-6h-3c0 2 0 4-3 3v3c2 0 3 3 0 3 0 2 0 3-3 3-4 2 1 3 0 0v-3c-2-1-5 0-6-3 4 0 4-4 9-3 0-1 1-3 3-3 0-1 0-3 3-2 0-4 3-5 6-6 0-3 2-4 3-6-2 0-4-2 0-3 0-2 0-3 2-3 3-4 5-9 12-8 0-2 2-4 3 0 2 0 3 0 3 3h3c6-9 10-19 23-21 0-4 4-5 5-8h-5c-1 1-1 3-3 3-4 1 0 3 0 0 0-2 0-4 3-3 0-3 2-4 5-3 0-2 3-3 3 0 4 0 7 1 9 3 0-2 0-4 3-3-1-4 4-2 0 0 0 2-1 3-3 3-3 6-7 10-17 8v6c22-1 24-23 43-29 1-2 2-5 6-5 11-5 16-15 25-21 1-1 1-3 3-2 0-4 5-2 0 0 0 1 0 3-3 2 2 9-7 8-8 15 24-12 44-29 55-55-11-14-22-28-38-37 7-2 2-14-3-6-4 2 1 3 0 0 1-11-2-1-8-3-1-4 11-9 2-12 0 7-7 7-8 0Zm-72 26c0-3 4-1 0 0 0 2-1 4-3 3-1 3-2 4-6 3-2 4-4 9-11 9 0 2-1 3-3 3-1 3-4 6-9 5 0 2 0 4-3 3 0 2 0 4-3 3-4 2 1 4 0 0 1-2 1-3 3-3 0-1 1-3 3-3 1-3 4-5 9-5 0-2 0-4 3-3 2-4 4-9 11-9 1-2 3-3 6-3 0-1 0-3 3-3Zm279 6c-1-1 2 2 0 0Zm-11 6c-2-1 2 2 0 0Zm-20 14c-1-3 4-1 0 0-12-2-1 9 0 0Zm-18 3c-1-1 2 2 0 0Zm-8 3c-1-3 4-2 0 0-5 2 0 4 0 0Zm2 6c-1-8 11-3 12-9 9 5-7 8-12 9-2 7-13 8-17 14h9c0-2 2-3 6-3 0-8 12 3 0 0-1 3-3 4-6 3-17 13-36 24-58 32-7 8-17 14-29 17 0 2-2 4-5 3-2 4-4 6-9 6-10 10-24 16-37 23 9-11 22-18 37-23 1-4 4-6 9-6 0-2 2-3 5-3 6-10 18-13 29-17 12-15 36-18 49-32-10 3-18 7-26 12-9-3 3-6 3-9-3 0-2-4 0 0 14-5 25-13 40-17Zm-288-3c-1-1 2 2 0 0Zm18 0c-1-4 4-2 0 0 0 2-1 3-3 3-4 2 0 3 0 0 0-2 0-4 3-3Zm553 6c0-9 12 2 0 0-12-3-1 8 0 0Zm-568 5c0-3 5-1 0 0 0 2 0 4-3 3 0 3-2 4-5 3 0 2-1 4-3 3 0 2-1 4-3 3 0 2 0 3-3 3-12-3-1 8 0 0 0-2 1-4 3-3 0-2 0-3 3-3 0-2 0-3 3-3 0-2 2-3 5-3 1-1 1-3 3-3Zm257 0c-2-1 2 2 0 0Zm34 0c-1-1 2 2 0 0Zm257 3c3-8 15 3 0 0-12-2-1 9 0 0Zm20 0c3-8 15 3 0 0-4 5-10 8-18 9 3-6 9-9 18-9Zm-596 6c-1-3 4-2 0 0-5 2 0 4 0 0Zm558 0c4-9 16 3 0 0-4 2 1 4 0 0Zm-26 6c1-9 12 3 0 0-4 2 1 3 0 0Zm18 0c-2-1 2 2 0 0Zm23-3c0 3-4 2-6 3 0-3 3-2 6-3Zm-329 9c7 6 13-2 18-6 4 11-20 19-32 23 1-10 15-6 14-17Zm-259 0c-1-2 2 2 0 0Zm15 3c-1-4 4-2 0 0-2 3-4 5-9 5 0 2-1 4-3 3 0 2 0 4-3 3-4 2 0 4 0 0 0-2 1-3 3-3 0-2 0-3 3-3 1-3 4-6 9-5Zm440 23c9-16 14-17 29-23-8 9-17 17-29 23 0 3-4 1 0 0Zm64-21c0-8 12 3 0 0-12-2-1 9 0 0Zm23 0c-2-1 1 2 0 0Zm-147 3c-1-1 2 2 0 0Zm60 0c4 10 7-11 0 0Zm-438 3c0-3 5-2 0 0 0 2 0 4-2 3-5 2 0 4 0 0 0-2 0-3 2-3Zm502 3c-1-3 4-2 0 0-12-3-1 9 0 0Zm-78 9c-5-2-1-6 0-9 5 2 0 5 0 9Zm-285-6c0 3-4 2-6 3 0-3 3-2 6-3Zm83 3c-1-1 2 2 0 0Zm87 0c-2-1 1 2 0 0Zm54 0c-1-1 2 2 0 0Zm130-3c2 2-11 8-9 3 1-1 6-6 9-3Zm-92 9c-1-13 11-1 0 0 0 6-3 9-9 8 0 4-5 3-6 6 2 4 4 0 0 0-12 2 3-14 6-6 0-6 2-9 9-8Zm-274 0c4 9 7-12 0 0Zm69 5c11 0 11-10 23-8-8 10-21 15-34 20-2 6-8 8-15 8 1 10-14 5-14 15 12-1-1 12-9 9-1 3-3 5-8 5-2 4-4 6-9 6-1 4-4 6-9 6 0 2-2 3-5 3-5 1 0 3 0 0s2-4 5-3c2-4 4-6 9-6 1-4 4-6 9-6 1-3 3-6 8-5 1-6 10-2 9-9-20 7-37 18-52 32 12-2 0 10-6 8 0 2-2 4-5 3-1 2-3 3-6 3-4 2 0 3 0 0 0-2 2-3 6-3 0-2 2-3 5-3 1-4 5-5 6-8-12 5-25 9-32 20 3-1 6 0 6-3 8 1 0 9-6 6 0 1 0 3-2 2-2 4-4 6-9 6-1 4-4 6-9 6 0 5-5 7-11 6 0 1-1 3-3 3-1 3-4 6-9 5-4 2 1 4 0 0 1-3 4-6 9-5 0-2 0-4 3-3 2-4 6-6 11-6 1-4 4-6 9-6 1-3 4-6 9-6 0-1 0-3 2-2v-3c-15 2-19 15-34 17-4 2 0 3 0 0 4-15 25-13 29-29 13 0 25-6 34-17-3 0-2-4 0 0 24-12 44-25 61-38-4 1-2-4 0 0h8c3-5 6-10 15-8 1-7 9-7 11-12-1-4-3 1 0 0Zm162-8c-1 2-4 2-6 3 0-3 3-3 6-3Zm72 3c-1-4 4-2 0 0-5 1 0 3 0 0Zm-464 2c0-3 4-1 0 0-4 2 0 4 0 0Zm14 0c0-3 4-1 0 0 0 2 0 4-3 3-4 2 1 4 0 0 1-1 1-3 3-3Zm441 3c0-1 2-3 3 0-3 14 13-3 0 0h-3c-1 3-3 4-6 3 0 2 0 4-3 3 0 2 0 3-3 3-4 2 1 3 0 0 1-2 1-3 3-3 0-2 1-3 3-3 1-2 3-3 6-3Zm127 0c-2-1 2 2 0 0Zm-366 6c-1-1 2 2 0 0Zm190 6c1-12 13 0 0 0-4 2 0 3 0 0Zm107-3c-2-1 1 2 0 0Zm11 0c-1-1 2 2 0 0Zm-527 3c-1-1 2 2 0 0Zm539-3c-1 3-4 2-6 3 0-3 3-2 6-3Zm-335 6c-1-2 2 2 0 0Zm234 0c-1-4 4-2 0 0-4 1 0 3 0 0Zm-199 11c4-6 9-10 17-11-3 6-8 10-17 11-2 6-8 8-14 9-2 6-8 8-15 9 0 2-2 3-3 5 2 4 4 0 0 0-10 2-14 11-26 12-1 3-3 6-8 6v2c11 0 1 3 3 9-4-1-5-3-6-6h-6c1 7-8 3-8 9 1 4 3 0 0 0h-6c0 3-3 3-3 6 13 5-7 15-15 17-19 21-43 38-69 52 4 0 3 7-3 6-4 1 1 3 0 0 0-3 3-4 3-6-7 2-13 6-17 11h6c0-3 4-1 0 0-1 4-4 6-9 6-4 2 0 4 0 0 0-3 3-3 3-6-9 3-27 12-23 18-6-1-15 9-20 5-4-10 20-13 26-23-2 0-4 0-3-3-13 0 5-12 11-11 2-4 4-6 9-6 0-3 2-3 3-6-2 0-3-2 0-2 0-4 4-2 0 0v2h6c0-2 2-3 5-2 1-2 1-4 3-3 1-3 3-4 6-3 2-10 17-6 15-20 13 9 32-20 51-23 2-6 8-8 15-9 2-6 7-8 14-9 1-3 4-6 9-5 1-4 4-6 8-6 8-8 18-14 29-17 2-6 8-8 15-9 2-6 7-8 14-9Zm179-8c-2-2 1 1 0 0Zm77 0c0-4 5-2 0 0-4 1 1 3 0 0Zm179 2c-1-1 2 2 0 0Zm-279 3c-1-3 4-1 0 0-5 2 0 4 0 0Zm14 0c-1-1 2 2 0 0Zm-66 3c-1-1 2 2 0 0Zm43 3c-1-1 2 2 0 0Zm274 3c0-3 2-3 2-6 4 0 3 5 6 6 0 3-2 3-3 6h-5v-3c-4 0-4 4-9 3v3c2 4 3-1 0 0h-3c0 1 0 3-3 3 1 4 4 4 0 8-4 0-4-8 0-8 0-2 1-4 3-3 0-2 0-4 3-3 1-4 4-6 9-6Zm-119 0c-1-1 2 2 0 0Zm162 0c-1-1 2 2 0 0Zm-599 3c-2-1 2 2 0 0Zm149 0c-1-1 2 2 0 0Zm81-3c0 3-3 2-6 3 0-3 4-2 6-3Zm340 3c-1-1 2 2 0 0Zm-703 3c-1-1 2 2 0 0Zm401 0c-2-1 1 2 0 0Zm322 0c4 9 7-11 0 0Zm-455 6c-1-2 2 1 0 0Zm285 0c-1-2 2 1 0 0Zm-213 2c-1-1 2 2 0 0Zm43 3c1-11 13 1 0 0 0 2 0 4-3 3-4 2 1 4 0 0 1-2 1-3 3-3Zm153-3c0-3 4-1 0 0 0 4-1 7-6 6-4 2 0 4 0 0 1-3 3-4 6-6Zm181-2c0 2-3 2-5 2 0-2 3-2 5-2Zm-52 5c-1-1 2 2 0 0Zm-414 3c-1-1 2 2 0 0Zm75 9c-5-2-1-5 0-9 5 2 0 5 0 9Zm193-6c4 10 7-11 0 0Zm103 0c0-3 5-4 6 0 2 4 4 0 0 0h-6c-5 8-13 14-23 17-1 4-3 6-8 6v3c1 4 3 0 0 0-4 0-4 4-9 3-12-3-1 8 0 0 1-4 4-6 9-6 1-4 3-6 8-6 5-8 13-14 23-17Zm41-3c0 3-4 2-6 3 0-3 3-2 6-3Zm-291 6c-1-1 2 2 0 0Zm31 0c-1-1 2 2 0 0Zm130 0c0-4 4-2 0 0s0 3 0 0Zm-432 3c-1-1 2 2 0 0Zm550 0c1-9 12 3 0 0v3c2 0 3 2 0 3-4 1 0 3 0 0v-3h-6c-4 1 1 3 0 0 1-3 3-4 6-3Zm-291 6c1-12 13 0 0 0-4 1 0 3 0 0Zm262-3c-1-2 2 2 0 0Zm-124 3c1-9 12 2 0 0-4 1 1 3 0 0Zm35 0c-1-2 2 1 0 0Zm-251 2c-1-1 2 2 0 0Zm58 0c-1-1 2 2 0 0Zm297 0c-7 10 9-7 0 0Zm-285 3c-1-3 4-1 0 0-13 0-1 12 0 0Zm135 3c-3-12 9 0 0 0-4 2 0 4 0 0Zm135-3c-1-1 2 2 0 0Zm-242 6c2-3 4-6 9-6-1 4-4 6-9 6Zm-40 3c-1-1 2 2 0 0Zm26 0c-1-1 2 2 0 0Zm127 0c-2-1 2 2 0 0Zm135 0c4 9 7-11 0 0Zm-544 6c-1-13 11-1 0 0-4 1 0 3 0 0Zm319-3c-1-1 2 2 0 0Zm401 0c-1-1 2 2 0 0Zm-697 3c0-9 12 2 0 0-4 1 0 3 0 0Zm224 0c-1-2 2 2 0 0Zm150 0c0-4 4-2 0 0-4 1 0 3 0 0Zm-392 3c0-4 5-2 0 0-4 1 1 3 0 0Zm98 0c-1-2 2 1 0 0Zm139 0c-2-2 2 1 0 0Zm282 0c-1-2 2 1 0 0Zm9 0c-2-2 1 1 0 0Zm48 0c-1-2 2 1 0 0Zm-601 8c2-4 4-9 11-8-2 4-4 9-11 8-1 2-1 4-3 3 0 2-1 4-3 3 0 2-1 3-3 3 0 2-1 3-3 3 0 1 0 3-3 3 0 1 0 3-3 3v2c-2 12 9 1 0 0h-3c0 2 0 4-2 3-1 2-1 4-3 3-1 2-1 4-3 3-4 2 0 4 0 0 0-2 0-3 3-3 0-2 0-3 3-3 0-1 0-3 2-3 1-1 1-3 3-2 0-2 1-4 3-3 0-2 1-4 3-3 0-2 0-4 3-3 0-2 0-4 3-3 0-2 0-3 3-3 0-2 0-3 3-3Zm213-6c-2-1 2 2 0 0Zm190 3c1-3 3-6 8-5-1 3-3 5-8 5 0 2-1 4-3 3 1 8-11 3-12 9 2 4 4 0 0 0-8-4 5-10 12-9 0-2 0-3 3-3Zm103-3c-1-1 2 2 0 0Zm-342 3c-1-1 2 2 0 0Zm374 6c-7-9 5-5 6-9 9 3-3 8-6 9 0 4-4 2 0 0Zm-253-6c0 3-4 3-6 3 0-3 3-2 6-3Zm213 3c-1-1 2 2 0 0Zm23 0c-1-1 2 2 0 0Zm161 0c-1-1 2 2 0 0Zm-371 3c-2-1 1 2 0 0Zm132 0c-7 10 10-7 0 0Zm-173 3c-1-1 2 2 0 0Zm193 0c-1-1 2 2 0 0Zm26 0c0-3 4-2 0 0 0 2 0 3-3 3 0 2-2 3-5 3-1 1-1 3-3 3-2 3-4 6-9 5 0 2 0 4-3 3-13 0-1 12 0 0 0-1 1-3 3-3 1-3 4-6 9-5 0-2 0-4 3-3 0-3 2-4 5-3 0-2 1-4 3-3Zm225 0c-1-3 4-2 0 0s0 3 0 0Zm-412 3c-1-1 2 2 0 0Zm-446 3c-1-4 4-2 0 0 0 2 0 5 2 6 0 1 0 3-2 2h-6v-5c3 0 3-3 6-3Zm440 0c-1-1 2 2 0 0Zm380 0c-1-1 2 2 0 0Zm-305 3c4 9 7-12 0 0Zm311 5c1-11 13 1 0 0-1 3-2 4-6 3-4 2 1 4 0 0 1-2 3-3 6-3Zm-320 0c-1-1 2 2 0 0Zm130 0c-1-1 2 2 0 0Zm20 0c-1-1 2 2 0 0Zm-276 3c-1-1 2 2 0 0Zm109 0c-1-1 2 2 0 0Zm12 0c-2-1 2 2 0 0Zm83 0c-1-1 2 2 0 0Zm-92 6c0-4 8-9 6 0 2 4 3 0 0 0h-6v3c2 4 4 0 0 0-2 0-3-2 0-3Zm86-3c-1-1 2 2 0 0Zm87 0c-1-1 2 2 0 0Zm-6 3c-1-1 2 2 0 0Zm20 0c-1-1 2 2 0 0Zm-518 3c-1-1 2 2 0 0Zm409 0c0-9 12 3 0 0 0 2-1 3-3 3-4 2 0 3 0 0 0-2 0-4 3-3Zm26 0c-1-4 4-2 0 0 0 2-1 3-3 3 0 2-1 3-3 3-1 3-4 6-9 5 0 2 0 4-3 3 0 3-2 4-5 3-1 3-4 5-6 6-1 4-4 6-9 6 0 1 0 3-3 3-4 1 1 3 0 0 1-2 1-4 3-3 1-4 4-6 9-6-1-8 1-10 6-6 0-2 2-3 5-3 1-1 1-3 3-3 1-3 4-5 9-5 0-2 0-4 3-3 0-2 0-4 3-3Zm89 0c-1-1 2 2 0 0Zm-518 3c-1-4 4-2 0 0-5 2 0 3 0 0Zm639 0c-1-1 2 2 0 0Zm-323 0c0 3-3 2-5 3 0-3 3-3 5-3Zm190 0c0 3-3 2-5 3 0-3 3-3 5-3Zm-135 6c1-9 12 2 0 0 0 2-2 3-3 5 11-2 4 8-3 6 0 2 0 3-3 3-4 2 1 3 0 0 1-2 1-3 3-3 0-3 3-3 3-6h-6c-4 2 1 4 0 0 2-3 4-6 9-5Zm-69 8c-3-17 17 0 0 0-4 2 0 4 0 0Zm161-8c0 2-3 2-5 2 0-2 3-2 5-2Zm182 0c0 2-4 2-6 2 0-2 3-2 6-2Zm-349 5c0-3 4-1 0 0v9c-9-2-13 2-20 3 0 2 0 3-3 3-4 1 0 3 0 0 0-2 1-4 3-3 6-12 14-4 20-12Zm90 0c-1-3 4-1 0 0-12-2-1 9 0 0Zm100 3c-2-12 9 0 0 0-4 2 1 4 0 0Zm-659 0c-1-3 4-2 0 0s0 4 0 0Zm803 0c1-8 12 3 0 0-4 2 1 4 0 0Zm118-3c0 3-3 3-5 3 0-3 3-2 5-3Zm-483 9c-2-1 1 2 0 0Zm86 0c1-9 12 3 0 0 0 2 0 3-3 3-2 7-9 8-11 14 1 0 3 3 0 3-1 2-1 4-3 3 0 2-1 3-3 3-4 2 0 3 0 0 0-2 0-4 3-3 0-2 0-3 3-3v-3h-6c-3 4-5 9-12 9 0 2 0 3-3 3-4 2 1 3 0 0 1-2 1-4 3-3 3-4 5-9 12-9 5-6 8-13 17-14 0-2 1-4 3-3Zm23 0c0-4 4-2 0 0-1 4-4 6-9 6 0 1 0 3-3 3-11-3 0 8 0 0 1-2 1-4 3-3 2-4 4-6 9-6Zm69 0c0-4 4-2 0 0 0 2 0 3-3 3-1 3-3 6-8 6-5 1 0 3 0 0 1-4 3-6 8-6 0-2 1-4 3-3Zm26 6c1-4 4-6 9-6-2 3-4 6-9 6Zm245 5c3-6 5-14 17-11v9c-6-12-7 3-17 2 0 4-4 2 0 0Zm-406-8c0 3-4 2-6 3 0-3 4-3 6-3Zm360 3c-1-2 2 2 0 0Zm43 0c0-4 4-2 0 0-1 3-4 6-9 5 0 3-2 4-5 3v3c3 0 8 1 8-3 9 4-3 10-8 9-5 2 0 3 0 0v-6h-3c-2 4-4 6-9 6-4 2 0 3 0 0 1-4 4-6 9-6 0-2 0-3 3-3 0-2 2-3 5-3 1-3 4-5 9-5Zm-360 3c-1-2 2 1 0 0Zm95 0c-1-2 2 1 0 0Zm-66 2c-1-1 2 2 0 0Zm-424 3c0-3 5-1 0 0-4 2 1 4 0 0Zm300 3c1-3 4-6 9-6-2 4-4 6-9 6Zm32-3c4 10 7-11 0 0Zm57 0c-1-1 2 2 0 0Zm271 0c-1-1 2 2 0 0Zm-196 3c-1-1 2 2 0 0Zm164 0c-1-1 2 2 0 0Zm-340 12c2-5 5-8 6-12 6 1 1 14-6 12Zm72-9c-1-1 2 2 0 0Zm55 0c0-3 4-2 0 0 0 2 0 4-3 3 0 2 0 3-3 3-4 2 1 3 0 0 1-2 1-4 3-3 0-2 1-3 3-3Zm225 0c-1-1 2 2 0 0Zm-248 0c0 3-3 2-6 3 0-3 4-2 6-3Zm75 3c0-3 4-2 0 0 0 2 0 3-3 3-4 2 0 3 0 0 0-2 1-4 3-3Zm253 0c-1-1 2 2 0 0Zm-699 3c-7 10 9-7 0 0Zm57 0c4 9 7-11 0 0Zm236 0c-1-1 2 2 0 0Zm401 0c-1-4 4-2 0 0v3h5c0-4 5-2 0 0v3c3 0 4 2 6 3 0-2 1-4 3-3 1-9 12 2 0 0 0 1 0 3-3 3 0 2-2 3-3 5h-5c0-3 3-4 2-8h-5c-1 3-1 6-6 5 0 3-2 4-3 6-3 12 9 1 0 0-10 2-3-8 3-6 0-3 2-3 3-5-11 2-4-8 3-6Zm-444 3c-1-1 2 2 0 0Zm9 0c4 9 7-11 0 0Zm66 0c0-4 4-2 0 0-3 4-4 9-12 8 0 2 0 4-2 3-5 2 0 4 0 0 0-1 0-3 2-3 3-4 5-9 12-8Zm104 0c-1-4 4-2 0 0-5 2 0 3 0 0Zm305 0c3 11 3-12 0 0Zm-544 3c-2-2 2 2 0 0Zm57-3c0 3-3 2-6 3 1-3 4-3 6-3Zm32 6c1-4 4-6 9-6-2 3-4 6-9 6-1 2-3 3-6 2 0 2 0 4-3 3 0 3-2 4-5 3-1 2-3 3-6 3-1 3-3 5-6 6-1 2-2 3-6 3 0 2-2 3-6 3 0 2-2 3-5 2 0 2-1 4-3 3-1 4-4 6-9 6 0 2-2 3-6 3-2 4-4 9-11 9-4 1 0 3 0 0 2-5 4-10 11-9 1-2 3-3 6-3 1-4 4-6 9-6 0-1 0-3 3-3 0-2 2-3 5-2 1-3 3-4 6-3 1-3 3-4 6-3 0-4 1-7 6-6 0-2 2-3 6-3 0-2 2-3 5-3 0-1 1-3 3-3 1-2 3-3 6-2Zm66-3c0-4 4-2 0 0 0 1 0 3-3 3 0 1 0 3-3 2 0 2 0 4-2 3-13 0-1 12 0 0 0-1 0-3 2-3 1-1 1-3 3-2 0-2 1-4 3-3Zm89 0c-1-2 2 2 0 0Zm288-3c0 3-3 2-5 3 0-3 3-3 5-3Zm-720 6c-1-2 2 1 0 0Zm248 8c-7-2-1-14 6-11 2 7-6 5-6 11Zm81-8c-1-2 2 1 0 0Zm26-3c0 2-4 2-6 3 0-3 3-3 6-3Zm11 8c2-5 8-7 15-8-2 5-8 7-15 8 0 2 0 4-3 3 0 2 0 4-3 3-3 5-6 11-14 12 4-5 6-12 14-12 1-2 1-3 3-3 0-2 1-3 3-3Zm49-3c-1-1 2 2 0 0Zm176 0c0-3 4-1 0 0-4 2 0 4 0 0Zm75 0c-1-1 2 2 0 0Zm8 0c0-3 5-1 0 0 0 2 0 4-3 3-4 2 1 4 0 0 1-1 1-3 3-3Zm-697 3c-1-1 2 2 0 0Zm12 0c0-3 4-2 0 0s0 4 0 0Zm331 0c4 10 7-11 0 0Zm23 0c-1-1 2 2 0 0Zm-386 3c1-8 12 3 0 0 0 2 0 4-3 3-4 2 1 4 0 0 1-2 1-3 3-3Zm274 3c1-4 4-6 8-6-1 4-3 6-8 6Zm176-3c-2-1 1 2 0 0Zm34-3c0 3-3 2-6 3 0-3 4-2 6-3Zm274 3c-2-1 2 2 0 0Zm-401 3c0-3 5-2 0 0 0 2 0 3-3 3 0 2 0 3-2 3-4 5-6 11-15 11 0 2 0 4-3 3-1 4-3 6-8 6 0 2-1 3-3 3 0 2-1 3-3 3 0 1-1 3-3 3-1 2-2 3-6 2 0 2 0 4-3 3 0 2 0 4-2 3-2 4-4 6-9 6 0 2-1 3-3 3 0 2 0 3-3 3 0 1 0 3-3 3-1 3-3 6-8 5-1 2-1 4-3 3-4 2 0 4 0 0 0-1 0-3 3-3 1-3 3-6 8-5 0-2 1-4 3-3 0-2 1-4 3-3 0-2 0-4 3-3 1-4 4-6 9-6 0-2 0-3 2-3 1-1 1-3 3-3 1-2 3-3 6-2 0-2 0-4 3-3 0-2 0-4 3-3 0-2 0-4 3-3 1-4 3-6 8-6 0-2 1-3 3-3 4-5 6-11 15-11 0-2 0-4 2-3 1-2 1-4 3-3Zm-103 3c-1-4 4-2 0 0-5 2 0 3 0 0Zm14 0c-7 10 10-7 0 0Zm14 0c-1-1 2 2 0 0Zm58 0c0-4 4-2 0 0 0 2 0 3-3 3 0 2 0 3-3 3 0 1 0 3-3 3-4 1 1 3 0 0 1-2 1-4 3-3 0-2 1-4 3-3 0-2 1-4 3-3Zm363 0c0-2 2-3 3 0-3 13 13-3 0 0h-3c0 3-4 2 0 0Zm20 3c-3 9-6-3-9-3 3-10 6 3 9 3Zm26-3c0-4 4-2 0 0s0 3 0 0Zm-731 3c-2-1 1 2 0 0Zm259 0c-1-4 4-2 0 0 0 2-1 3-3 3-4 1 0 3 0 0 0-2 0-4 3-3Zm397 3c-1-2 2 2 0 0Zm15-3c-1 3-4 2-6 3 0-3 3-3 6-3Zm5 3c-1-2 2 2 0 0Zm-547 3c-1-2 2 1 0 0Zm550 2c-1-1 2 2 0 0Zm9 3c1-11 13 1 0 0-13 0-1 12 0 0Zm-412-3c0 3-4 3-6 3 0-3 4-2 6-3Zm86 3c0-3 5-1 0 0 0 2 0 4-2 3-1 2-1 4-3 3-3 4-5 9-12 9 3-5 4-9 12-9 0-2 0-3 3-3 0-2 0-3 2-3Zm-60 3c-1-1 2 2 0 0Zm26 0c-1-1 2 2 0 0Zm8 0c-1-1 2 2 0 0Zm64 0c4 10 7-11 0 0Zm262 0c-1-1 2 2 0 0Zm52 0c-1-1 2 2 0 0Zm-496 3c-1-1 2 2 0 0Zm438 0c0-3 4-2 0 0s0 4 0 0Zm12 0c-2-1 2 2 0 0Zm-452 6c-9-1 2-12 0 0h2c1-2 3-4 6-3 0-4 4-2 0 0 0 2-2 3-6 3 0 1-2 3-2 0Zm43 0c-1-1 2 2 0 0Zm11 0c1-9 12 3 0 0 0 2 0 3-3 3 0 1 0 3-3 3 0 1 0 3-2 2-1 2-1 4-3 3-1 3-3 4-6 3 0 2 0 4-3 3 0 2 0 4-3 3 0 2 0 3-3 3 0 2-2 3-5 3-1 1-1 3-3 3 0 1-1 3-3 3-4 1 0 3 0 0 0-2 0-4 3-3 0-2 0-4 3-3 0-3 2-4 5-3 0-2 1-4 3-3 0-2 1-3 3-3 0-2 1-3 3-3 1-2 2-3 6-3 0-1 0-3 3-3 0-1 0-3 2-2 1-2 1-4 3-3 1-2 1-4 3-3Zm-78 3c-1-2 2 2 0 0Zm55 0c-1-2 2 2 0 0Zm75 0c-1-2 2 2 0 0Zm66 0c-1-2 2 2 0 0Zm303 3v-6h5v6h-5Zm-484-3c0 3-4 2-6 3 0-3 4-3 6-3Zm101 3c-1-4 4-2 0 0 0 1-1 3-3 2-4 2 0 4 0 0 0-1 0-3 3-2Zm207 0c1-9 12 2 0 0-4 1 0 3 0 0Zm-274 2c-7 10 10-6 0 0Zm303 0c-1-1 2 2 0 0Zm92 0c-1-1 2 2 0 0Zm-446 3c0-8 12 3 0 0-1 2-1 4-3 3v3c1 4 3 0 0 0-2 0-4-2 0-3 0-2 0-3 3-3Zm26 3c1-3 3-6 8-6-1 4-4 6-8 6-3 5-6 10-15 9 0 2 0 3-3 3-12-3 0 8 0 0 0-2 1-4 3-3 4-3 7-8 15-9Zm290-3c-1-1 2 2 0 0Zm199 0c-1-1 2 2 0 0Zm-432 3c-1-1 2 2 0 0Zm58 0c0-8 12 3 0 0 0 2-1 4-3 3 0 2-1 4-3 3-3 4-4 9-12 9 0 1 0 3-2 3-1 1-1 3-3 2-2 4-4 6-9 6 0 2 0 4-3 3 0 2 0 3-3 3 0 2 0 3-3 3-1 3-3 6-8 6-4 1 0 3 0 0 1-4 3-6 8-6 1-2 1-4 3-3 0-2 1-4 3-3 0-2 1-3 3-3 1-3 4-6 9-6 0-1 0-3 3-2 0-2 0-4 2-3 3-5 5-10 12-9 0-2 0-3 3-3 0-2 0-3 3-3Zm270-3c0 3-3 3-5 3 0-3 3-2 5-3Zm38 3c-1-1 2 2 0 0Zm83 0c0-3 5-2 0 0 0 2-2 4-5 3-1 2-1 4-3 3-4 2 0 3 0 0 0-2 0-3 3-3 0-2 2-3 5-3Zm-544 3c-15 3-3-9 0 0 2 0 3 2 0 3-1 4-4 6-9 6 0 1 0 3-2 3v3c1 4 3-1 0 0-4 0-3 5-6 5 0 2-1 4-3 3 0 2-2 3-3 0-2 0-3-2 0-3 0-1 0-3 3-3 1-3 4-6 9-5 0-2 0-4 2-3 2-4 4-6 9-6v-3Zm43 6c3-5 6-10 15-9-5 4-7 9-15 9-4 6-9 10-17 11-1 4-4 6-9 6-4 7-11 12-20 15-4 1 0 3 0 0 0-5-2-8-6-9-2 5-5 10-14 9 4-4 7-9 14-9 4-6 10-10 18-12-1-3 4-1 0 0-1 6-8 6-9 12 4 7 10-8 17-6 2-3 4-6 9-6 4-5 6-12 17-11Zm150-6c-1-1 2 2 0 0Zm219 0c0-3 4-2 0 0 0 2-1 4-3 3 0 2 0 3-3 3-1 3-4 6-8 6-5 5-8 13-18 14-1 6-8 6-8 12 1 4 3-1 0 0-4 0-4 3-9 2-1 4-4 6-9 6 0 4-1 7-5 6-1 3-4 4-6 6-1 3-4 6-9 5 0 2 0 4-3 3-3 5-6 12-14 12 0 2-1 3-3 3-4 5-6 11-14 11-1 2-1 4-3 3-3 4-5 9-12 9 3-4 5-9 12-9 0-2 0-3 3-3 3-5 6-11 14-11 0-2 0-4 3-3 4-5 6-11 14-12 0-1 1-3 3-3 1-3 4-5 9-5 0-4 1-7 6-6v-6h5c1-3 4-6 9-6 3-7 9-12 17-14 3-8 9-12 18-14 1-4 3-6 8-6 0-2 1-4 3-3 0-2 0-3 3-3Zm-334 3c3 11 3-11 0 0Zm233 6c0-4 1-7 3-9 4 1 2 6 0 9h-3c0 1-2 3-3 0-4 3-8 4-11 8-9-2 10-16 11-8h3Zm190-6c-1-1 2 2 0 0Zm12 0c-1-3 4-2 0 0 0 2-1 3-3 3-4 2 0 3 0 0 0-2 0-4 3-3Zm-769 6c-1-1 2 2 0 0Zm308 0c0-4 4-2 0 0 0 1-1 3-3 3 0 1 0 3-3 3-4 1 0 3 0 0 0-2 1-4 3-3 0-2 0-4 3-3Zm360 0c0-4 4-2 0 0s0 3 0 0Zm104 0c-2-1 1 2 0 0Zm11 0c0-4 4-2 0 0s0 3 0 0Zm-26 3c0-4 4-2 0 0-4 1 0 3 0 0Zm38 0c-2-2 2 2 0 0Zm11 0c-1-2 2 2 0 0Zm-737 3c0-4 4-2 0 0-4 1 0 3 0 0Zm153 2c1-3 6-5 11-5-1 5-5 6-11 5Zm34-2c-1 4-2-1-6 0 1-4 6-3 6 0Zm429 0c-1-2 2 1 0 0Zm-26 2c-1-1 2 2 0 0Zm20 0c0-3 5-1 0 0v6h3c0-2 1-3 3-3 0-1 3-3 3 0 2 4 4 0 0 0h-3c0 2 0 4-3 3 0 2-2 3-3 0h-5c-2 4-4 6-9 6 0 2 0 3-3 3 0 2-2 3-6 3-4 1 1 3 0 0 1-3 3-4 6-3 0-2 1-4 3-3 1-4 4-6 9-6 0-3 3-4 5-6Zm70 0c-1-3 4-1 0 0-1 2-1 4-3 3-2 4-4 6-9 6-1 4-4 6-9 6-2 4-4 9-11 8-4 2 0 4 0 0 2-4 4-9 11-8 2-4 4-6 9-6 1-4 4-6 9-6 0-1 0-3 3-3Zm40-2c0 2-4 2-6 2 0-2 4-2 6-2Zm9 2c-1-3 4-1 0 0-13 0-1 12 0 0Zm11 0c-1-1 2 2 0 0Zm26 0c0-3 4-1 0 0-4 2 0 4 0 0Zm-288 6h-9c1-3 4-6 9-6v6c4 0 3 7-3 6-1 4-4 6-9 6-4 1 1 3 0 0 2-4 4-6 9-6 0-3 2-4 3-6Zm9-3c-1-3 4-2 0 0-5 2 0 4 0 0Zm210 0c0-8 12 3 0 0 0 2-1 4-3 3-4 2 0 4 0 0 0-2 0-3 3-3Zm-464 3c0-3 4-2 0 0-12-3 0 9 0 0Zm449 0c-1-1 2 2 0 0Zm26 0c0-3 5-2 0 0 0 2-2 3-5 3-1 2-1 3-3 3-1 4-4 6-9 6-2 4-4 9-11 8-2 4-4 6-9 6-3 4-4 9-12 9-4 1 1 3 0 0 3-5 5-9 12-9 1-4 4-6 9-6 2-4 4-9 11-8 1-4 4-6 9-6 0-2 0-4 3-3 0-2 2-3 5-3Zm23 0c0-3 5-2 0 0-4 2 1 4 0 0Zm26 0c-1-1 2 2 0 0Zm-498 3c0-3 4-2 0 0 0 2 0 3-3 3-4 2 0 3 0 0 0-2 1-4 3-3Zm-121 3c-1-1 2 2 0 0Zm12 0c-2-1 2 2 0 0Zm314 0c-2-1 1 2 0 0Zm221 0c0-4 5-2 0 0 0 2 0 3-3 3-12-3 0 8 0 0 1-2 1-4 3-3Zm64 0c-1-4 4-2 0 0-5 2 0 3 0 0Zm-594 3c0-4 5-2 0 0-4 2 1 3 0 0Zm67 0c-1-4 4-2 0 0-5 2 0 3 0 0Zm219 14c19 1 6-16 20-17-2 9-5 16-9 23h-6c0 2 0 3-3 3 0 1-2 3-2 0-8-2-6 6-12 6v5c-57 33-105 74-158 110 0 1-3 3-3 0-4 0-4 3-9 3-4 6-7 14-17 14-3 4-5 9-12 9 0 1 0 3-3 3v2c2 5 4 0 0 0-5 0-3 8-11 6 0 2-1 4-3 3 0 2 0 4-3 3-2 4-4 9-11 9-1 1-1 3-3 3-8 16-28 22-38 37 0 3-4 3-8 3v3c1 4 3-1 0 0h-3c0 3-4 4 0 5-1 4-3 5-6 6 0 2-2 3-3 0h-6c0 2 0 4-3 3 0 2 0 4-2 3-12 1 0 13 0 0 0-2 0-3 2-3v-3c-1 0-3 0-2-3h-3c-4 2 0 4 0 0 0-1 0-3 3-3-1-3 4-1 0 0v3c1 1 3 1 2 3h3c0-3 3-3 3-6-1 0-3-2 0-2 0-2 1-4 3-3 0-2 2-4 3 0h6c0-2 0-4 3-3 0-4 0-7 5-6 1-4 5-5 6-9-8-4 1-15 9-14 2 10-12 4-9 14 13-6 21-17 32-25h3c0-2 0-4 3-3 2-5 4-10 11-9 0-2 1-3 3-3 0-2 0-3 3-3 2-4 4-9 11-8 1-2 1-4 3-3 3-5 5-9 12-9 2-7 10-9 14-14h3c1-4 4-6 9-6 5-12 20-14 26-26h-6c0 2-1 3-3 3-1 2-2 3-6 3 0 1 0 3-3 3-5 7-11 15-23 17-4 2 1 3 0 0 7-12 10-11 23-17 1-2 1-4 3-3 1-3 3-4 6-3 0-2 0-4 3-3 29-33 68-56 109-78 0-5 3-6 6-3 10-15 30-20 43-31 10 5-7 5-5 11Zm129-14c-1-1 2 2 0 0Zm101 0c0-4 4-2 0 0 0 2-1 3-3 3v3c5-1 7 3 0 2-4 2 0 4 0 0v-2c-2 0-3-3 0-3 0-2 0-4 3-3Zm37 0c0-4 5-2 0 0-4 2 1 3 0 0Zm12 0c0-4 4-2 0 0s0 3 0 0Zm-752 3c-1-2 2 2 0 0Zm-20 3c0-4 4-2 0 0-4 1 0 3 0 0Zm179 0c-2-2 1 1 0 0Zm11 0c0-4 4-2 0 0v2h6c0-3 4-1 0 0-1 3-3 4-6 3 0 2 0 4-3 3 0 2-2 4-6 3 0 2 0 3-2 3v3c2 0 3 2 2 6 4 0 7-2 9-3 0-5 8-10 6 0 2 4 3-1 0 0h-6v8c4 0 4-3 9-3-6 9-19 22-29 18 0-5 8-2 9-6-2 0-4 0-3-3-2 0-4-2 0-3 0-3 3-4 5-6v-2c-2-1-3-3-2-6-5 0-8-3 0-3 0-2 0-3 2-3 1-2 3-3 6-3 0-2 1-3 3-3v-3c-1 0-3-2 0-2Zm101 5c2-4 4-9 11-8-2 4-4 9-11 8Zm357-5c-1-2 2 1 0 0Zm104 0c-7 9 9-7 0 0Zm11 0c0-4 4-2 0 0-4 1 1 3 0 0Zm26 0c0-4 4-2 0 0-1 3-4 5-8 5 1-3 3-6 8-5Zm-616 2c-1-1 2 2 0 0Zm-110 3c-1-1 2 2 0 0Zm147 0c0-3 4-1 0 0v3c2 0 4 1 3 3h6v-3c-2 0-3-2 0-3 1-4 6-2 9 0-1-3 4-1 0 0-2 4-4 6-9 6-1 6-14 15-12 0h-5c-5 2 0 4 0 0 1-4 3-6 8-6Zm363 0c-1-1 2 2 0 0Zm167 3c1-11 13 1 0 0-4 2 0 4 0 0Zm29-3c-1-1 2 2 0 0Zm-438 3c0-3 4-2 0 0 0 2 0 4-3 3 0 2 0 3-3 3 0 2 0 3-2 3-1 2-3 3-6 3 0 1-1 3-3 3 0 1 0 3-3 2-4 2 0 4 0 0 0-1 1-3 3-2 0-2 0-4 3-3 0-3 2-4 6-3 0-2 0-4 2-3 1-2 1-3 3-3 1-2 1-3 3-3Zm43 0c-1-1 2 2 0 0Zm242 0c-1-1 2 2 0 0Zm21 0c-1-3 4-2 0 0-1 2-1 4-3 3 0 4-8 10-6 0h-6c0 2 0 3-3 3 0 2 0 3-3 3 0 2 0 3-3 3-2 4-4 9-11 8 0 2 0 4-3 3 0 2 0 4-3 3-4 2 0 4 0 0 0-2 1-3 3-3 0-2 1-3 3-3 2-4 4-9 11-8 1-2 1-4 3-3 1-2 1-4 3-3 0-2 1-3 3-3 0-3 5-4 6 0h6c0-2 0-3 3-3Zm72 0c-12 3-1-8 0 0 4 0 7 3 0 3-1 2-1 3-3 3-1 2-1 3-3 3-4 2 0 3 0 0 0-2 0-4 3-3 0-2 0-3 3-3v-3Zm66 0c-1-1 2 2 0 0Zm-498 9c0-12 12 0 0 0-5 2 0 3 0 0Zm408-3c0-4 5-2 0 0-4 2 1 3 0 0Zm12 0c0-4 4-2 0 0 0 2 0 3-3 3v3c2 0 3 2 0 3 0 1-2 3-3 0h-6c0 1 0 3-2 2-1 2-1 4-3 3-1 4-4 6-9 6 1-4 4-6 9-6 0-1 0-3 3-3 0-1 0-3 2-2 2-4 4-6 9-6 0-2 1-4 3-3Zm46 0c0-4 4-2 0 0 0 2 0 3-3 3-4 2 0 3 0 0 0-2 1-4 3-3Zm26 0c0-4 4-2 0 0s0 3 0 0Zm-567 6c-2-2 2 2 0 0Zm550 5c2-4 4-9 11-8-2 4-4 9-11 8-3 5-5 10-12 9-2 4-4 9-11 9-5 2 0 3 0 0 2-4 4-9 11-9 3-4 5-9 12-9Zm-594-2c-1-2 2 1 0 0Zm585 0c-1-2 2 1 0 0Zm-43 5c1-11 13 1 0 0 0 2-1 4-3 3-4 2 0 4 0 0 0-2 0-3 3-3Zm-720 0c0-3 4-1 0 0 0 2-1 4-3 3-4 2 0 4 0 0 0-2 0-3 3-3Zm170 0c-1-3 4-1 0 0 0 2-1 4-3 3v3c2 4 3 0 0 0-2 0-3-2 0-3 0-2 0-3 3-3Zm389 0c-2-1 1 2 0 0Zm126 0c0-3 5-1 0 0 0 2 0 4-3 3 0 2 0 4-2 3-12-3-1 9 0 0 0-2 0-3 2-3 1-2 1-3 3-3Zm-509 3c-1-3 4-2 0 0-5 2 0 4 0 0Zm115 0c-1-3 4-2 0 0s0 4 0 0Zm31 0c0-3 5-2 0 0 0 2 0 4-2 3-1 2-1 4-3 3 0 2-1 3-3 3-1 3-4 6-9 6 1-4 4-6 9-6 0-2 0-4 3-3 0-2 0-3 3-3 0-2 0-3 2-3Zm-135 6c0-3 4-2 0 0-1 2-2 3-6 3 0 2 0 3-3 3-4 2 1 3 0 0 1-2 1-4 3-3 1-2 3-3 6-3Zm369 0c-1-1 2 2 0 0Zm34 0c-1-1 2 2 0 0Zm130 0c-1-1 2 2 0 0Zm-565 3c0-4 5-2 0 0-4 2 1 3 0 0Zm136 0c-1-1 2 2 0 0Zm63 0c-7 10 10-7 0 0Zm328 0c-7 10 10-7 0 0Zm23 0c0-4 5-2 0 0 0 2 0 3-2 3-12-3-1 8 0 0 0-2 0-4 2-3Zm-126 6c-1-2 2 2 0 0Zm-444 3c-1-2 2 1 0 0Zm208 0c-2-2 1 1 0 0Zm184-3c0 2-4 2-6 3 0-3 4-3 6-3Zm69 3c-7 9 10-7 0 0Zm144 0c0-4 4-2 0 0-4 4-6 11-14 11-3 4-5 9-12 9 0 1 0 3-3 3-4 1 1 3 0 0 0-2 1-4 3-3 3-5 4-9 12-9 3-5 6-11 14-11Zm-564 2c4 10 7-11 0 0Zm121 3c-1-12 11-1 0 0-1 3-3 4-6 3 0 2-1 4-3 3 0 2-1 3-3 3 0 2 0 3-3 3-13-1-1 11 0 0 0-2 1-4 3-3 0-2 0-4 3-3 0-2 0-3 3-3 0-2 2-3 6-3Zm-142 6c2-4 4-6 9-6-1 4-4 6-9 6Zm314-3c0-3 5-2 0 0 0 2-2 3-5 3-1 2-1 3-3 3-5 2 0 3 0 0 0-2 0-4 3-3 0-2 2-3 5-3Zm179 3c-1-1 2 2 0 0Zm-43 3c-2-1 2 2 0 0Zm-104 3c0-4 4-2 0 0s0 3 0 0Zm55 0c-1-1 2 2 0 0Zm89 3c2-4 6-6 12-6-1 5-5 6-12 6Zm23 0c0-4 4-2 0 0 0 1 0 3-3 3-4 1 0 3 0 0 0-2 1-4 3-3Zm-550 3c-1-2 2 1 0 0Zm420 0c1-9 12 2 0 0 0 1 0 3-2 2-5 2 0 4 0 0 0-1 0-3 2-2Zm-267 2c-1-3 4-1 0 0-1 2-1 4-3 3 0 2-1 4-3 3-4 2 0 4 0 0 0-2 0-3 3-3 0-1 0-3 3-3Zm43 0c-1-1 2 2 0 0Zm178 0c0-3 5-1 0 0-4 2 1 4 0 0Zm-63 12c-1-8 11-2 9-12 8 5-2 13-9 12-1 4-4 6-9 6 1 5-4 5-5 8 4 1 3 8-3 6 0 2-1 4-3 3-4 2 0 3 0 0 0-2 0-3 3-3v-3c-12 1 2-12 8-11 2-4 4-6 9-6Zm158-9c-1-1 2 2 0 0Zm-60 3c-7 10 10-7 0 0Zm43 0c0-3 4-2 0 0 0 2 0 4-3 3-4 2 1 4 0 0 0-2 1-3 3-3Zm-331 3c-1-1 2 2 0 0Zm239 3c1-11 13 0 0 0-4 2 0 3 0 0Zm101-3c-1-1 2 2 0 0Zm109 6c3-4 5-9 12-9-3 4-5 9-12 9 0 3-4 2 0 0Zm-461-3c0-4 5-2 0 0 0 2 0 3-2 3-1 2-1 3-3 3-1 1-1 3-3 3-4 1 0 3 0 0 0-2 0-4 3-3 0-2 0-4 3-3 0-2 0-4 2-3Zm26 3c1-9 12 3 0 0-2 5-6 9-11 11 0 2-1 4-3 3-7 8-12 18-23 20-12 20-27 35-43 49 0 2-1 4-3 3 0 2-1 4-3 3 0 2-1 4-3 3 0 2 0 3-3 3-4 2 0 3 0 0 0-2 1-4 3-3 0-2 0-3 3-3 0-2 0-3 3-3 0-2 0-3 3-3 5-16 22-21 28-37-3 0-1-4 0 0 6-3 9-7 12-12h3c7-7 11-17 23-20 0-2 0-3 3-3 0-7 4-11 11-11Zm254 8c2-4 4-9 11-8-2 4-4 9-11 8 0 2-1 4-3 3-3 5-4 9-12 9 0 2 0 3-3 3 0 2 0 3-2 3-5 2 0 3 0 0 0-2 0-4 2-3 1-2 1-4 3-3 3-4 5-9 12-9 0-1 0-3 3-3Zm49-5c-1-2 2 2 0 0Zm164 0c0-4 4-2 0 0-4 1 0 3 0 0Zm-254 5c0-12 12 0 0 0-1 4-3 6-8 6 0 2-1 4-3 3 0 2-1 4-3 3 0 2 0 3-3 3 0 2 0 3-3 3-3 5-6 11-14 11 0 2-1 4-3 3 0 2 0 4-3 3 0 2 0 3-3 3 0 2 0 3-3 3-9 10-17 23-31 29 0 1-1 3-3 2 0 2-1 4-3 3 0 2-1 4-3 3-1 3-3 5-6 6-2 5-6 9-11 12 0 1-1 3-3 2 0 2-1 4-3 3-4 2 0 4 0 0 0-1 0-3 3-3 0-1 0-3 3-2 0-8 4-12 11-12 1-4 1-7 6-6 0-2 0-3 3-3 0-1 0-3 3-3 0-1 0-3 3-2 9-11 17-24 31-29 1-2 1-4 3-3 0-2 1-4 3-3 0-2 1-3 3-3 0-2 0-3 3-3 4-5 6-11 14-11 0-2 1-4 3-3 0-2 1-4 3-3 0-2 0-3 3-3 0-2 0-3 3-3 1-3 4-6 8-6Zm170-2c-1-2 2 1 0 0Zm44 2c-1-3 4-1 0 0-5 2 0 4 0 0Zm181 0c-1-1 2 2 0 0Zm-651 6c-1-1 2 2 0 0Zm271 0c-1-1 2 2 0 0Zm52 0c-1-3 4-2 0 0-5 2 0 4 0 0Zm-133 3c-1-1 2 2 0 0Zm-127 3c0-3 5-2 0 0 0 2 0 3-2 3-1 2-1 3-3 3 0 1-1 3-3 3 0 1-1 3-3 3-4 1 0 3 0 0 0-2 0-4 3-3 0-2 0-4 3-3 0-2 0-4 3-3 0-2 0-4 2-3Zm392 0c0-3 4-2 0 0-1 4-4 6-8 6-5 2 0 3 0 0 1-4 3-6 8-6Zm35 0c-1-1 2 2 0 0Zm-303 6c-3-1-7-1-5-6h5v6c4-1 2 4 0 0Zm-161 0c-1-1 2 2 0 0Zm354 0c4 11 4-12 0 0Zm-394 3c-1-2 2 2 0 0Zm190 0c-1-4 4-2 0 0-2 6-10 7-12 14 4 0 7-1 9-3 0-3 4-2 0 0 2 8-6 6-9 9 0 2 0 3-3 3-4 1 1 3 0 0 1-2 1-4 3-3v-6c-10 1-11 10-20 12-3 4-3 7 3 8 1-2 0-6 3-6 0-3 4-1 0 0-1 3 0 6-3 6-1 5-5 7-12 6-4 2 1 3 0 0 3-5 0-16 9-14 8-12 19-20 32-26Zm152 0c-1-2 2 2 0 0Zm70 0c-1-4 4-2 0 0-5 1 0 3 0 0Zm-95 3c-2-2 1 1 0 0Zm8 0c-1-2 2 1 0 0Zm311-3c0 2-3 2-6 3 1-3 4-3 6-3Zm-625 5c-1-1 2 2 0 0Zm185 0c-2-1 1 2 0 0Zm80 3c1-3 4-6 9-5-1 3-4 5-9 5 0 2 0 4-3 3 0 2 0 4-3 3 0 2 0 3-2 3-1 2-1 3-3 3 0 2-1 3-3 3 0 1-1 3-3 3 0 1-1 3-3 2-4 2 0 4 0 0 0-1 0-3 3-2 0-2 0-4 3-3 0-2 0-4 3-3 0-2 0-4 3-3 0-2 0-4 2-3 1-2 1-3 3-3 0-2 1-3 3-3Zm43 0c0-3 5-2 0 0-4 2 1 4 0 0Zm78 3c1-11 13 1 0 0 0 2 0 4-3 3 0 2 0 3-3 3-4 2 1 3 0 0 1-2 1-4 3-3 0-2 1-3 3-3Zm-368 0c-2-1 1 2 0 0Zm25 3c0-13 12-1 0 0 0 2 0 3-2 3-5 2 0 3 0 0 0-2 0-4 2-3Zm294-3c-1-1 2 2 0 0Zm-37 9c-5-2-1-5 0-9 5 2 0 5 0 9Zm311-6c-1-1 2 2 0 0Zm-426 3c-2-1 1 2 0 0Zm409 0c-2-1 1 2 0 0Zm-291 6c-2-2 2 2 0 0Zm54 0c4 11 4-12 0 0Zm-69 3c0-4 4-2 0 0 0 3-3 4-6 5 0 2 0 4-2 3-1 2-1 4-3 3-4 2 0 4 0 0 0-2 0-3 3-3 0-2 0-3 2-3 1-3 1-7 6-5Zm-187 5c0-3 4-1 0 0-13 0-1 12 0 0Zm262 0c0-3 4-1 0 0-1 3-2 4-6 3 0 2 0 4-3 3 0 2 0 3-2 3-1 2-1 3-3 3-12-3-1 8 0 0 0-2 0-4 3-3 0-2 0-3 2-3 1-2 1-3 3-3 1-2 3-3 6-3Zm78 0c0-3 4-1 0 0-4 2 0 4 0 0Zm-205 3c0-3 5-2 0 0 0 2 0 4-2 3-1 2-1 3-3 3-1 2-1 3-3 3-4 2 0 3 0 0 0-2 0-4 3-3 0-2 0-3 3-3 0-2 0-3 2-3Zm55 0c-1-1 2 2 0 0Zm15 0c-2-1 1 2 0 0Zm-335 3c-1-1 2 2 0 0Zm21 0c-1-3 4-2 0 0-1 2-1 3-3 3 0 2-1 3-3 3 0 2-1 3-3 3-4 1 0 3 0 0 0-2 0-4 3-3 0-2 0-4 3-3 0-2 0-3 3-3Zm270 3c0-4 5-2 0 0 0 2 0 3-3 3 0 2 0 3-2 3-5 1 0 3 0 0 0-2 0-4 2-3 1-2 1-4 3-3Zm314 0c0-4 4-2 0 0s1 3 0 0Zm98 0c-1-1 2 2 0 0Zm-587 3c-2-1 2 2 0 0Zm83 0c-3 0-2-4 0 0s4 0 0 0Zm98 0c3 11 3-12 0 0Zm158 0c-1-1 2 2 0 0Zm-414 3c-1-2 2 2 0 0Zm69 0c-1-2 2 2 0 0Zm201-3c0 3-3 2-5 3 0-3 3-3 5-3Zm12 3c-1-2 2 2 0 0Zm63 0c-1-2 2 2 0 0Zm332 0c-2-2 1 2 0 0Zm-571 14c1-7 10-5 9-14 8 4-1 16-9 14 0 2 0 4-3 3-12-1 0 11 0 0 1-2 1-3 3-3Zm144-11c0-4 5-2 0 0 0 3-1 6-5 5-2 4-4 6-9 6 1-4 4-6 9-6 0-3 3-4 5-5Zm-184 2c0-3 4-1 0 0-4 2 0 4 0 0Zm141 0c0-3 4-1 0 0-1 3-2 4-6 3 0 8-4 12-11 12 2-5 6-9 11-12 1-2 3-3 6-3Zm29 0c0-3 4-1 0 0 0 2-1 4-3 3 0 2 0 4-3 3-4 2 0 4 0 0 0-2 1-3 3-3 0-1 0-3 3-3Zm34 3c2-3 4-6 9-5-1 3-4 5-9 5Zm133-3c0-3 4-1 0 0-4 2 0 4 0 0Zm-458 3c0-3 4-1 0 0-4 2 0 4 0 0Zm236 0c0-3 4-1 0 0 0 2 0 4-3 3 0 2 0 4-3 3 0 2 0 4-2 3-5 2 0 3 0 0 0-2 0-3 2-3 1-2 1-3 3-3 0-2 1-3 3-3Zm124-3c14-2-14 19 0 3v-3Zm17 3c0-3 5-1 0 0 0 2 0 4-3 3-4 2 1 4 0 0 1-2 1-3 3-3Zm-273 3c-1-1 2 2 0 0Zm-92 3c-2-1 1 2 0 0Zm308 0c-1-1 2 2 0 0Zm-101 3c0-3 4-2 0 0s0 3 0 0Zm83 0c-1-1 2 2 0 0Zm193 0c0-3 5-2 0 0-4 2 1 3 0 0Zm190 0c-1-1 2 2 0 0Zm-734 3c-1-1 2 2 0 0Zm415 0c-1-4 4-2 0 0-1 3-4 6-9 6 1-4 4-6 9-6Zm11 0c-1-1 2 2 0 0Zm-66 3c0-4 4-2 0 0s0 3 0 0Zm-216 3c-1-2 2 2 0 0Zm35 0c-2-2 2 2 0 0Zm106 3c1-12 13 0 0 0 0 1 0 3-3 2-1 9-6 14-14 15 0 2-1 3-3 3 0 1 0 3-3 3 0 1 0 3-3 2 0 2 0 4-3 3 0 8-4 11-11 12 0 2-1 3-3 3-2 7-4 13-12 14 1-8 7-11 12-14 0-2 0-4 3-3 1-6 8-6 9-12h2c1-1 1-3 3-3 0-1 1-3 3-2 0-2 1-4 3-3 0-2 0-4 3-3 2-7 9-8 11-15h3c0-1 1-3 3-2Zm43-3c0-4 5-2 0 0-4 1 1 3 0 0Zm395 0c-7 9 10-7 0 0Zm-588 3c-3 0-1-5 0 0 2 4 4-1 0 0Zm121 0c0-4 5-2 0 0-4 1 1 3 0 0Zm9 0c0-4 4-2 0 0 0 1 0 3-3 2 0 2 0 4-3 3 0 2 0 4-3 3 0 2 0 4-2 3-1 2-1 3-3 3-1 2-1 3-3 3-4 2 0 3 0 0 0-2 0-4 3-3 0-2 0-4 3-3 0-2 0-3 2-3 1-2 1-3 3-3 0-1 1-3 3-3 0-1 1-3 3-2Zm351 2c2-3 4-6 9-5-1 3-4 6-9 5Zm118-2c0-4 5-2 0 0 0 1 0 3-2 2-1 3-3 4-6 3-3 4-4 9-12 9 0 2 0 3-3 3 0 2-2 3-5 3 0 1-1 3-3 3-4 1 0 3 0 0 0-2 0-4 3-3 0-3 2-4 5-3 1-2 1-4 3-3 3-4 5-9 12-9 0-2 2-3 6-3 0-1 0-3 2-2Zm12-3c0 2-4 2-6 3 0-3 4-3 6-3Zm-729 5c-1-1 2 2 0 0Zm337-2c0 2-3 2-5 2 0-2 3-2 5-2Zm46 2c-1-1 2 2 0 0Zm12 0c-7 10 10-7 0 0Zm302 0c0-3 5-1 0 0 0 3-2 4-5 3-5 2 0 4 0 0 0-2 2-3 5-3Zm-679 3c-1-3 4-2 0 0-1 2-1 4-3 3 0 5-2 8-6 9 0 2 0 3-3 3-4 1 0 3 0 0 0-2 1-4 3-3 0-4 1-7 3-9h3c0-2 0-3 3-3Zm256 0c-1-1 2 2 0 0Zm20 0c-1-1 2 2 0 0Zm-320 9c0-4 2-6 3-9 5 1 2 7 0 9h-3c0 2 0 3-2 3-1 2-1 5-3 6-2 4-5 7-9 8 1 7-4 9-9 12 0 1 0 3-2 3 0 7-5 9-9 11 0 2-1 4-3 3 0 2 0 3-3 3 0 5-2 7-6 9-4 1 1 3 0 0 0-4 2-7 3-9h3c0-2 1-4 3-3 0-2 0-3 3-3-2-8 6-6 6-11h3c0-2 0-4 2-3-2-8 6-6 6-12h3c0-6 2-9 9-8 0-3 0-6 3-6 0-2 0-4 2-3Zm142-6c-2 4-3 0-6 0 1-3 6-3 6 0Zm28 0c-1-1 2 2 0 0Zm23 0c0-3 5-2 0 0-4 2 1 4 0 0Zm64 0c-1-3 4-2 0 0s0 4 0 0Zm230 0c-1-1 2 2 0 0Zm-86 3c-1-1 2 2 0 0Zm-234 3c-1-1 2 2 0 0Zm153 0c-1-1 2 2 0 0Zm-204 3c-2-1 2 2 0 0Zm123 0c0-4 5-2 0 0 0 2 0 3-2 3-1 1-1 3-3 3 0 1-1 3-3 2 1 9-8 8-9 15-8-4 5-12 9-15 0-1 0-3 3-2 0-2 0-4 3-3 0-2 0-4 2-3Zm9 0c0-4 4-2 0 0 0 2 0 3-3 3 0 1 0 3-3 3 0 3-1 6-5 5-9 1 2 12 0 0 0-3 3-4 5-5 1-2 1-4 3-3 0-2 1-4 3-3Zm20 0c0-4 4-2 0 0 0 2 0 3-3 3-4 1 1 3 0 0 1-2 1-4 3-3Zm127 0c-1-1 2 2 0 0Zm-86 0c0 3-4 2-6 3 0-3 3-3 6-3Zm34 3c0-4 4-2 0 0-4 1 0 3 0 0Zm-49 3c-1-2 2 1 0 0Zm17 0c0-4 5-2 0 0 0 1 0 3-2 2-1 2-1 4-3 3 0 2-1 4-3 3 0 2-1 4-3 3-1 3-3 5-6 6 0 2 0 3-3 3 0 1 0 3-3 3 0 1 0 3-2 2-9 1 2 12 0 0 0-1 0-3 2-2 1-2 1-4 3-3 0-2 1-4 3-3 1-4 1-7 6-6 0-2 0-3 3-3 0-2 0-3 3-3 0-1 0-3 3-3 0-1 0-3 2-2Zm-152 2c-4 1-2-4 0 0 2 5 3 0 0 0Zm224 0c-1-1 2 2 0 0Zm52 0c0-3 5-1 0 0-4 2 1 4 0 0Zm-412 3c0-3 5-1 0 0 0 2 0 4-2 3-1 2-1 4-3 3-4 2 0 4 0 0 0-2 0-3 3-3 0-2 0-3 2-3Zm90 6c-5-2-1-5 0-9 5 3 0 6 0 9Zm184-6c0-3 4-1 0 0-4 2 0 4 0 0Zm406 0c0-3 4-1 0 0-3 7-9 11-17 12 0 2-1 3-3 3 0 1 0 3-3 3-1 2-2 3-6 2 0 2 0 4-3 3-1 4-3 6-8 6 0 2-1 4-3 3 0 2 0 3-3 3-1 2-2 3-6 3-4 2 1 3 0 0 1-3 3-4 6-3 0-2 1-4 3-3 0-2 0-3 3-3 1-4 4-6 8-6 1-1 1-3 3-3 1-2 3-3 6-2 0-2 1-4 3-3 0-2 0-4 3-3 4-6 9-10 17-12Zm-538 3c-2-1 1 2 0 0Zm146 0c0-3 5-2 0 0-4 2 1 4 0 0Zm372 0c0-3 4-2 0 0 0 2 0 4-3 3-15 12-27 29-49 35-1 7-7 9-14 11 0 2-1 4-3 3-1 4-4 6-9 6-4 4-3 13-14 11-1 4-4 6-9 6 0 2 0 3-3 3 0 2 0 3-3 3-1 3-3 6-8 6 0 1-1 3-3 2-3 5-4 10-12 9 0 2 0 4-2 3-1 2-1 3-3 3-12-3-1 8 0 0 0-2 0-4 3-3 0-2 0-3 2-3 3-4 5-9 12-9 0-1 0-3 3-2 1-4 4-6 8-6 1-2 1-4 3-3 0-2 1-3 3-3 1-4 4-6 9-6 4-5 6-11 14-11 1-4 4-6 9-6 0-2 0-3 3-3 3-5 6-11 14-11 16-12 29-27 49-35 0-2 1-3 3-3Zm-444 3c-1-1 2 2 0 0Zm-267 3c-1-4 4-2 0 0-5 2 0 3 0 0Zm175 0c-1-1 2 2 0 0Zm98 3c-1-1 2 2 0 0Zm41 0c-2-1 1 2 0 0Zm164 0c-1-1 2 2 0 0Zm-444 8c0-6 3-9 9-8-3 3-1 10-9 8Zm-40-2c0-4 4-2 0 0-4 1 0 3 0 0Zm173 0c-2-2 2 1 0 0Zm75 0c-1-4 4-2 0 0-1 1-1 3-3 2 0 2-1 4-3 3v6c2 4 3 0 0 0s-4 2-6 3v3c2 4 4 0 0 0-5 1-7-3 0-3 0-4 1-6 3-9h3c0-1 0-3 3-3 0-1 0-3 3-2Zm5 0c5 9 7-12 0 0Zm84 0c-1-2 2 1 0 0Zm426 0c0-4 4-2 0 0-4 1 0 3 0 0Zm-547 2c0-3 4-1 0 0 0 5-2 8-6 9 0 2 0 4-3 3 0 2 0 3-3 3 0 2 0 3-3 3 1 5-2 7-5 8 0 2-1 4-3 3 0 2-1 4-3 3-4 2 0 4 0 0 0-2 0-3 3-3 0-1 0-3 3-3 0-4 1-6 3-8h2c1-2 1-4 3-3 1-2 1-4 3-3 0-2 1-3 3-3 0-4 1-6 3-9h3Zm-40 3c-2-1 1 2 0 0Zm132 0c-1-1 2 2 0 0Zm-317 3c-1-1 2 2 0 0Zm265 0c-1-1 2 2 0 0Zm104 3c-1-1 2 2 0 0Zm138 0c3 11 3-11 0 0Zm-380 3c-1-1 2 2 0 0Zm150 3c-1-4 4-2 0 0 0 2-1 3-3 3 0 1-1 3-3 3-4 1 0 3 0 0 0-2 0-4 3-3 0-2 0-4 3-3Zm29 0c-2-1 1 2 0 0Zm198 0c-3 0-2-4 0 0h9c-4 3-7 8-15 9 0 1 0 3-2 2-1 2-1 4-3 3 0 2-1 4-3 3v3c2 4 3 0 0 0-2 0-3-2 0-3 0-2 0-3 3-3 0-1 0-3 3-3 0-1 0-3 2-2 1-5 5-5 6-9Zm-383 3c0-4 4-2 0 0 0 1 0 3-3 3 0 1 0 3-3 3v5c7-6 7 1 3 6-2-1-3-2-3-6-9 2-4-5 0-5 1-2 1-4 3-3 0-2 1-4 3-3Zm38-3c0 3-4 2-6 3 0-3 3-2 6-3Zm-133 6c0-4 4-2 0 0-4 1 0 3 0 0Zm9 0c-1-4 4-2 0 0 0 1-1 3-3 3-4 1 0 3 0 0 0-2 0-4 3-3Zm201 0c0-4 5-2 0 0 0 1 0 3-2 3-5 1 0 3 0 0 0-2 0-4 2-3Zm18 0c-2-2 2 2 0 0Zm46 0c-1-2 2 2 0 0Zm-173 5c-3-12 9 0 0 0-4 2 0 4 0 0Zm20-2c0-4 4-2 0 0-9 0 3 11 0 0Zm533 5c1-4 5-5 6-8 7 1 0 11-6 8-1 3-3 4-6 3 0 2 0 4-3 3-4 2 1 4 0 0 0-2 1-3 3-3 1-2 3-3 6-3Zm-115-3c-1-1 2 2 0 0Zm178 0c0-3 4-1 0 0 0 3-2 4-5 3-2 4-4 6-9 6 1-4 4-6 9-6 0-2 2-3 5-3Zm-757 6v-6c2 2 5 3 8 3-1 6-4 6-8 3Zm14-3c-1-1 2 2 0 0Zm265 0c0-3 4-2 0 0 0 2 0 4-3 3-11 1 1 13 0 0 0-2 1-3 3-3Zm452 0c1-8 12 3 0 0 0 3-2 4-5 3-3 6-9 9-18 9 0 2-2 3-5 3-1 1-1 3-3 3-2 3-4 5-9 5-3 8-13-2-6-5h3c0-4 4-2 0 0 1 2 0 5 3 5 1-3 4-6 9-5 0-2 0-4 3-3 0-3 2-4 5-3 4-5 10-8 18-9 0-2 2-3 5-3Zm-219 3c0-3 5-2 0 0-4 2 1 4 0 0Zm-394 3c0-3 4-2 0 0v3c2 4 3 0 0 0h-3c-4 2 0 3 0 0 0-2 0-4 3-3Zm121 0c-1-1 2 2 0 0Zm6 0c-2-1 2 2 0 0Zm57 0c0-3 4-2 0 0s1 4 0 0Zm254 0c-2-1 2 2 0 0Zm-429 3c-4 0-2-4 0 0 1 4 3 0 0 0Zm23 0c-2-1 1 2 0 0Zm-162 3c-1-1 2 2 0 0Zm219 0c-7 9 10-7 0 0Zm104 0c3 11 3-12 0 0Zm184 0c-1-1 2 2 0 0Zm202 0c-1-1 2 2 0 0Zm31 0c-1-1 2 2 0 0Zm-434 3c3 11 3-12 0 0Zm386-3c-1 3-4 2-6 3 0-3 3-3 6-3Zm-703 6c3 11 3-12 0 0Zm17 0c-1-2 2 1 0 0Zm112 0c-1-2 2 1 0 0Zm32 0c0-4 4-2 0 0-4 1 0 3 0 0Zm-20 2c-1-1 2 2 0 0Zm6 0c-2-1 2 2 0 0Zm17 3c-1-1 2 2 0 0Zm-153 3c-1-1 2 2 0 0Zm208 0c-1-3 4-2 0 0-5 2 0 4 0 0Zm463 0c0-3 5-2 0 0-4 2 1 4 0 0Zm41 0c-2-1 2 2 0 0Zm-738 3c-1-1 2 2 0 0Zm23 3c-1-1 2 2 0 0Zm116 0c-2-1 2 2 0 0Zm121-3c0 3-4 2-6 3 0-3 3-2 6-3Zm458 6c-11-5 9-9 0 0h5c0-4 4-2 0 0-1 3-3 6-8 6 0-3 2-4 3-6Zm14-3c-1-1 2 2 0 0Zm17 0c4 11 4-11 0 0Zm-616 3c0-4 4-2 0 0 0 2-1 3-3 3-4 1 0 3 0 0 0-2 0-4 3-3Zm26 0c-1-1 2 2 0 0Zm129 0c-7 9 10-7 0 0Zm-66 3c-1-2 2 2 0 0Zm29 0c-1-2 2 2 0 0Zm311 0c-7 9 10-7 0 0Zm138 0c0-4 4-2 0 0-12-1-1 11 0 0Zm-682 3c-2-2 2 1 0 0Zm708 5c0-5 10-2 9-8 8 2-2 11-9 8 0 4-4 2 0 0Zm-737 0c3 12 3-11 0 0Zm26 0c-1-3 4-1 0 0-1 3 0 6-3 6-4 2 0 4 0 0 1-2 0-6 3-6Zm201 0c0-3 5-1 0 0 1 5-2 8-5 9-12 1 0 13 0 0 0-4 1-6 3-9h2Zm95 0c-1-1 2 2 0 0Zm389 0c-1-1 2 2 0 0Zm-461 6c0-3 5-2 0 0 0 2 0 4-2 3-9 1 2 12 0 0 0-2 0-3 2-3Zm35 0c-1-1 2 2 0 0Zm35 0c-2-1 1 2 0 0Zm5 0c-1-1 2 2 0 0Zm185 0c-2-1 2 2 0 0Zm28 0c-1-1 2 2 0 0Zm165 0c-2-1 1 2 0 0Zm23 3c-9 9-5-10 0 0-4 13 13-3 0 0Zm11 0c-1-1 2 2 0 0Zm-720 6c-1-1 2 2 0 0Zm268 0c-1-1 2 2 0 0Zm216 6c2-7 7-11 17-9-4 4-10 7-17 9-1 8-12-3 0 0Zm210-6c-1-1 2 2 0 0Zm0 6c3-5 8-7 12-3-1 4-7 2-12 3v2c5 0 7 4 0 3 0 2 0 4-3 3 0 2 0 4-3 3 0 4-4 5-5 9-7-2 0-12 5-9 1-2 1-3 3-3v-3h-5c-5 2 0 4 0 0 0-2 2-3 5-3 1-1 1-3 3-2Zm-498 0c0-4 4-2 0 0-9 0 3 11 0 0Zm26 0c0-4 4-2 0 0-4 1 0 3 0 0Zm115 0c0-4 4-2 0 0 0 1 0 3-3 2 7 4-5 9 3 12 0-4 4-2 0 0v3c4-1 7-1 6-6 8 7-8 15-15 17 0 4-3 5-5 6-12 14-25 26-41 35-12-1 0 11 0 0 1-4 5-5 6-9-1 0-3-2 0-3 0-2 1-3 3-3 0-2 0-3 3-3 13-16 20-21 29-43h3c0-2 0-3 2-3 1-2 3-3 6-3 0-1 1-3 3-2Zm303 0c-2-2 1 1 0 0Zm-646 2c-1-1 2 2 0 0Zm260 0c-1-3 4-1 0 0-5 2 0 4 0 0Zm267 0c1-8 12 3 0 0-12-2 0 9 0 0Zm153 3c0-3 4-2 0 0s0 4 0 0Zm-458 3c0-3 4-2 0 0 0 5-2 8-6 9-4 2 1 3 0 0 0-4 2-7 3-9h3Zm294 0c-1-1 2 2 0 0Zm121 0c-1-1 2 2 0 0Zm-383 3c0-3 4-2 0 0s0 4 0 0Zm363 0c-1-1 2 2 0 0Zm54 0c-1-1 2 2 0 0Zm-164 3c1-9 12 3 0 0s0 9 0 0Zm164 3c4 11 4-12 0 0Zm-483 3c-2-2 1 2 0 0Zm463 3c1-4 4-6 9-6-1 3-4 6-9 6 0 8-12-3 0 0Zm141 0c1-12 13 0 0 0-4 1 1 3 0 0Zm-547 0c0-4 4-2 0 0-8 0 3 12 0 0Zm435 0c0-4 4-2 0 0-2 5-8 7-14 8 2-6 7-7 14-8Zm-469 2c-1-3 4-1 0 0-1 2-1 4-3 3-1 3 0 6-3 6-4 2 0 4 0 0 1-2 0-6 3-6 0-1 0-3 3-3Zm144 0c-1-3 4-1 0 0-5 2 0 4 0 0Zm305 0c-1-1 2 2 0 0Zm-478 3c0-3 4-1 0 0-4 2 0 4 0 0Zm415 0c-1-3 4-1 0 0-5 2 0 4 0 0Zm-242 6c-2-1 2 2 0 0Zm276 0c-1-1 2 2 0 0Zm-455 3c-7 10 10-7 0 0Zm213 0c-1-1 2 2 0 0Zm199 0c-1-1 2 2 0 0Zm55-3c0 3-4 2-6 3 0-3 3-2 6-3Zm14 3c-1-1 2 2 0 0Zm101 3c1-4 4-6 8-6-1 4-3 6-8 6-4 5-6 11-15 11 0 2 0 4-2 3-1 2-1 4-3 3 0 2-1 4-3 3 0 2-1 3-3 3 0 2-1 3-3 3 0 1 0 3-3 3 0 1 0 3-3 3 0 1 0 3-3 2 0 2 0 4-2 3-5 2 0 4 0 0 0-1 0-3 2-3 1-1 1-3 3-2 0-2 1-4 3-3 0-2 1-4 3-3 0-2 0-4 3-3 0-2 0-4 3-3 0-2 0-3 3-3 0-2 0-3 3-3 0-2 0-3 2-3 4-5 6-11 15-11Zm-406 0c-1-4 4-2 0 0 0 2-1 3-3 3 6 6-1 5-3 11-7-1-2-13 3-11 0-2 0-4 3-3Zm26 3c-13 0-1-12 0 0h5c0-4 5-2 0 0-4 5-7 13-17 14 0 2 0 4-3 3 0 2 0 3-3 3 0 2 0 3-2 3-6 6-10 15-21 17-2 4-4 9-11 9 0 1-1 3-3 3-4 1 0 3 0 0 0-2 0-4 3-3 2-5 4-9 11-9 6-7 10-15 21-17 0-2 0-4 2-3 1-2 1-4 3-3 0-2 1-3 3-3 2-7 10-8 12-14Zm-147 0c-1-4 4-2 0 0-4 1 0 3 0 0Zm409 0c-1-2 2 2 0 0Zm8 0c-1-2 2 2 0 0Zm-452 3c-1-2 2 1 0 0Zm406 5c-1-1 2 2 0 0Zm-437 3c-2-1 1 2 0 0Zm57 0c-1-1 2 2 0 0Zm115 3c4 11 4-11 0 0Zm389 0c0-3 4-2 0 0s0 4 0 0Zm-296 0c-1 3-4 2-6 3 0-3 3-2 6-3Zm-98 6c-2-1 1 2 0 0Zm429 0c-1-1 2 2 0 0Zm-159 3c-7 9 10-7 0 0Zm147 0c-1-1 2 2 0 0Zm-435 3c-1-2 2 2 0 0Zm461 0c3 11 3-12 0 0Zm-449 3c-1-2 2 1 0 0Zm440 2c-1-1 2 2 0 0Zm-463 3c-1-1 2 2 0 0Zm472 3c0 3-3 2-6 3 0-3 4-2 6-3Zm-32 6c0-4 5-2 0 0-4 2 1 3 0 0Zm21 0c0 3-4 2-6 3 0-3 3-2 6-3Zm-476 9c-1-2 2 1 0 0Zm542 2c0 3-4 3-6 3 0-3 4-2 6-3Zm-72 3c0 3-4 3-6 3 0-3 4-2 6-3Zm-582 12c-1-1 2 2 0 0Zm625 0c0 3-3 2-6 3 0-3 4-3 6-3Zm-11 6c-2-2 1 1 0 0Zm-55 2c3 12 3-11 0 0Zm29 41c-2-1 1 2 0 0Zm-568-913c4 11 4-12 0 0Zm-6 6c-1-2 2 1 0 0Zm64 2c0-8 12 3 0 0Zm268 9c-2-1 2 2 0 0Zm-55 12c-1-2 2 2 0 0Zm-3 3c-3 0-2-5 0 0Zm-6 2c-3 1-1-4 0 0Zm-322 9c-1-3 4-2 0 0Zm299 0h3c0-3-3-2-3 0Zm-299 0c-4 2 0 4 0 0Zm291 6c-4 0-2-4 0 0Zm-311 8c5 1 7-2 8-5-5 0-7 2-8 5Zm299-2c-3 0-2-5 0 0Zm-302 5c2 1 2-1 3-3-3 0-3 2-3 3Zm-3 3c2 1 3-1 3-3-3 0-3 1-3 3Zm458 0c2 0 3 1 3 3 5-2 1-7-3-6v3Zm-464 3c3 1 5-1 6-3-4 0-5 1-6 3Zm-3 3c3 0 3-1 3-3-2 0-3 1-3 3Zm0 0c-4 2 0 3 0 0Zm-14 11c-1-3 4-1 0 0Zm688-2c2 4 4-1 0 0Zm-691 5c2 1 3-1 3-3-3 0-3 2-3 3Zm-6 3c3 1 5 0 6-3-3 0-5 1-6 3Zm-3 3c3 1 3-1 3-3-2 0-3 1-3 3Zm-3 3c3 1 3-1 3-3-2 0-2 1-3 3Zm-2 3c2 0 2-1 2-3-2-1-2 1-2 3Zm0 0c-5 0-8 2-9 6 5 0 7-3 9-6Zm-12 9c2 0 3-2 3-3-3-1-3 1-3 3Zm-3 2c3 1 3-1 3-2-2-1-3 1-3 2Zm752-2c2 4 3-1 0 0Zm-755 5c3 1 3-1 3-3-2 0-3 2-3 3Zm0 0c-5 0-7 2-8 6 5 0 7-2 8-6Zm-11 9c2 0 2-1 3-3-3-1-3 1-3 3Zm-3 3c2 0 3-1 3-3-3-1-3 1-3 3Zm-3 3c2 0 3-1 3-3-3-1-3 1-3 3Zm219-3c-3 1-14 9-6 11 0-5 8-3 6-11Zm-219 3c-4 1 0 3 0 0Zm-14 11c5 3 12-7 5-8-1 3-5 4-5 8Zm216-8c1 4 3-1 0 0Zm322 0h-3c1 3 3 1 3 0Zm9 0c-3 0-2 3-3 5 3 1 5 0 6-3-2 0-4 0-3-2Zm-337 8c3 0 1-3 0-3v3Zm334-3c-11 1-19 5-23 12 8-4 19-4 23-12Zm-547 6c2 1 2-1 3-3-3 0-3 1-3 3Zm210 0c2 1 3-1 3-3-3 0-3 1-3 3Zm-213 3c2 0 3-1 3-3-3 0-3 1-3 3Zm210 0c2 0 3-1 3-3-3 0-3 1-3 3Zm317 3c-5 1-6-2-6-6-3 6-8 9-11 14 7-1 13-4 17-8Zm-530 0c2 0 3-1 3-3-3-1-3 1-3 3Zm213-3c-4 2 0 3 0 0Zm383 3h3c-1-3-3-2-3 0Zm-599 3c2 0 3-1 3-3-3-1-3 1-3 3Zm184 0c2 0 4-1 3-3h-3v3Zm-187 3c3 0 3-2 3-3-2-1-3 1-3 3Zm565 0c2 0 2-2 3-3h-3v3Zm-571 2c4 1 6 0 6-2-3-1-5 0-6 2Zm222 0c0-3 4-1 0 0Zm357-2c0 2 4 2 6 2 0-2-3-2-6-2Zm-581 5c2 1 2-1 2-3-2 0-2 2-2 3Zm216 0c-4 1-2-4 0 0Zm5 0c3 1 3-1 3-3-2 0-3 2-3 3Zm18 0c-4 1-2-4 0 0Zm288-3c-13 3-24 5-29 15 11-3 21-8 29-15Zm-530 6c2 1 2-1 3-3-3 0-3 1-3 3Zm219-3c0 4 5 3 5 0h-5Zm328 0c0 4 3 2 3 0h-3Zm26 6c-14 3 3-13 0 0Zm-576 0c2 1 2-1 3-3-3 0-3 1-3 3Zm544-3c2 4 4 0 0 0Zm35 3c-1-3 4-2 0 0Zm-582 3c2 1 3-1 3-3-3 0-3 1-3 3Zm199-3c-4 1-3 5-3 9 6-2 6-5 3-9Zm342 0c2 4 4 0 0 0Zm32 3c-4-5-12-2-14 3 3 4 10 1 14-3Zm6-3c0 3 3 2 3 0h-3Zm-582 6c2 0 3-1 3-3-3-1-3 1-3 3Zm210 0c0-4 4-2 0 0Zm329 0c3-1 1-3 0-3v3Zm193 0c3-1 1-3 0-3v3Zm-735 3c3 0 3-1 3-3-2-1-3 1-3 3Zm199 0c-12 2-1-9 0 0Zm11 0c3 0 3-1 3-3-2-1-2 1-3 3Zm15 0h6c-1-4-6-3-6 0Zm317-3c-3-1-3 1-3 3 2 0 2-1 3-3Zm11 3c-3 0-2-4 0 0Zm-556 3c3 0 3-2 3-3-2-1-3 1-3 3Zm202-3c0 3 3 1 3 0h-3Zm8 3c3 0 3-2 3-3-2-1-2 1-3 3Zm18-3c-4 0-2 3 0 3v-3Zm308 0c-1 2 1 2 3 3 0-3-1-3-3-3Zm20 3h6c0-3-4-3-6-3v3Zm-556 0c-11 2-16 12-23 20 12-3 16-13 23-20Zm176 0c-1 2 1 2 3 3v-3h-3Zm34 0c-4 1 1 3 0 0Zm6 3c0-4 4-2 0 0Zm323 0c3-1 1-3 0-3v3Zm17-3c-4 1 0 3 0 0Zm6 0c0 8 12-3 0 0Zm-383 5c2 1 3-1 3-2h-3v2Zm34 0c3 1 3-1 3-2-2-1-2 1-3 2Zm326-2c-4 1 0 3 0 0Zm331 2c2 0 6 0 6-2-2 0-6 0-6 2Zm-694 3h3v-3c-3 0-3 2-3 3Zm34 0c3 1 3-1 3-3-2 0-2 2-3 3Zm340 0c-7-1-10-4-14 3 4 5 12 2 14-3Zm0 0c0-3 5-2 0 0Zm-386 3c4 0 2-3 0-3v3Zm12-3c-3 1-2 3 0 3v-3Zm348 3c0-3 5-2 0 0Zm-362 3c2 1 2-1 2-3h-2v3Zm362-3c-5 0-7 2-8 6h6c0-2 2-3 2-6Zm6 3c-1-1 2 2 0 0Zm-360 3v-3c-3 1-1 3 0 3Zm340 0c1 2 3 3 3 6h6c-1-3-3-3-3-6h-6Zm12 0c1 4 3 0 0 0Zm5 3c3-1 6 0 6-3-2 1-6 0-6 3Zm-553 3c3 0 3-1 3-3-2-1-3 1-3 3Zm185-3c0 7 2 3 5 3 0-3-3-3-5-3Zm345 3h3c0-4-3-2-3 0Zm-533 3c3 0 3-2 3-3-2-1-2 1-3 3Zm527 0c3-1 6-1 6-3h-6v3Zm9-3c4 3 1 4 0 8h6c1-3 6-2 6-5-3-1-6-1-6-3h-6Zm12 3c3-1 1-3 0-3v3Zm-550 2c2 1 2-1 2-2-2-1-2 1-2 2Zm184 0c3 0 1-2 0-2v2Zm340 0c3 1 5 0 5-2h-5v2Zm417 0c1-8 12 3 0 0Zm-944 3c2 1 2-1 3-3-3 0-3 2-3 3Zm282 0c0-1 0-3 3-3 0 3-1 3-3 3Zm-285 3c2 1 3-1 3-3-3 0-3 1-3 3Zm535 6c4-4 2-5 0-9-2 5-9 6-11 12 5 0 6-3 11-3Zm9-9h-3c1 4 3 2 3 0Zm320 0c-8 0-17-1-17 6 5-3 14-1 17-6Zm-867 6c2 1 3-1 3-3-3 0-3 1-3 3Zm184 0h3v-3c-2 0-3 1-3 3Zm-187 3c2 0 3-1 3-3-3 0-3 1-3 3Zm516-3c-1 3-4 2-6 3 0 2-1 3-3 3v3c9 1 12-4 14-9h-5Zm331 3c3 0 5-1 6-3-4 0-6 1-6 3Zm-850 3c3 0 3-1 3-3-2-1-3 1-3 3Zm844 0c3 0 5-1 6-3-4-1-5 1-6 3Zm-847 3c3 0 3-1 3-3-2-1-3 1-3 3Zm536-3c-5 0-8 2-9 6h6c1-3 3-3 3-6Zm311 0c-15-3-3 9 0 0Zm-850 6c3 0 3-2 3-3-2-1-2 1-3 3Zm277-3c-1 9-12 9-15 17h-5c0-2-1-3-3-3 2-5 10-5 11-11 6 0 7-4 12-3Zm233 0c0 2-3 3-3 5 5 1 8-2 9-5h-6Zm326 3c-1-4 4-2 0 0Zm-838 2c2 1 2-1 2-2-2-1-2 1-2 2Zm527 0c3 1 5 0 5-2-3-1-5 0-5 2Zm305 0c3 1 5 0 6-2-4-1-6 0-6 2Zm-832 0c-5 2 0 4 0 0Zm527 0c-5 2 0 4 0 0Zm299 3c3 1 5 0 6-3-4 0-5 1-6 3Zm-328 3c2 1 2-1 3-3h-3v3Zm14 0c-3 1-2-4 0 0Zm6 3c0-2 3-3 3-6-5 0-5 3-9 3v3h6Zm308-6c-12-2-1 9 0 0Zm-334 3c-1 3-3 3-3 6 2 0 3 2 0 3 0 3 2 3 3 6-4-1-6 1-9 3 1 2 3 3 6 2 1-2 3-3 6-2 1-6 8-6 11-9 0-2-2-3-2-6-4 3-6 3-6-3h-6Zm12 3c-1-3 4-2 0 0Zm311 0c-2-1 1 2 0 0Zm17 0c3 1 5-1 6-3-4 0-6 1-6 3Zm-582 3c0-3 4-2 0 0Zm262-3c-4 2 0 4 0 0Zm320 0c-10 0-15 4-20 9 9 0 15-4 20-9Zm-585 6h3v-3c-2-1-3 1-3 3Zm9 0c2 0 3-1 3-3-3-1-3 1-3 3Zm227 0h6v-3h-6v3Zm317 0c0-4 4-2 0 0Zm-553 0c-17 6-28 19-46 26-1 2-2 3-6 3v3c14 7 38-21 55-29-2 0-3-1-3-3Zm3 3c3 0 5-1 6-3h-6v3Zm233-3h-3c1 3 3 1 3 0Zm317 0c-4 2 0 3 0 0Zm-325 6c3-1 1-3 0-3v3Zm331 0c3 0 5-1 6-3-4-1-5 0-6 3Zm17 0c0-4 4-2 0 0Zm-354 3c3 0 5-1 6-3h-6v3Zm14 0c-3 0-1-5 0 0Zm18 0h3c-1-4-3-2-3 0Zm299 0c3 0 5-1 6-3-3-1-5 0-6 3Zm-337 2c4 1 5 0 6-2h-6v2Zm314 0c-1-1 2 2 0 0Zm23-2c-9-1-15 2-17 8 7-1 13-4 17-8Zm9 2c-1-3 4-1 0 0Zm-349 3c3 1 3-1 3-3-2 0-3 2-3 3Zm15 6c1-4 5-5 5-9-8 3-20 3-20 15h3c2-4 6-6 12-6Zm334-9c-12-2-1 9 0 0Zm-354 3c-1 3-4 2-6 3 0 3-3 4-3 6 2 0 3 0 3 3h6c1-4 4-7 5-12h-5Zm311 3c-1-3 4-2 0 0Zm31 0c-1-1 2 2 0 0Zm-360 0c0 2-3 3-3 6h6c0-3 2-4 3-6h-6Zm329 0c-12-3-1 9 0 0Zm11 3c3 0 5-1 6-3-3 0-5 1-6 3Zm15 0c-2-1 1 2 0 0Zm-38 3c-1-1 2 2 0 0Zm23-3c-13 2-22 6-29 14 12-3 21-8 29-14Zm-348 3c-1 2-3 3-3 6h6c0-3 2-4 2-6h-5Zm11 0c0 2-3 3-3 6 2 0 4 0 3 3h6v-3c-2 0-3-3 0-3v-3h-6Zm308 3c0-4 5-2 0 0Zm32 0c-1-1 2 2 0 0Zm-334 3h3v-3h-3v3Zm9 0c3 0 5-1 5-3h-5v3Zm293-3c-12-3 0 8 0 0Zm-328 3c1 2-1 2-3 3v2h6c0-2 2-3 3-5h-6Zm12 3c3 0 2 5 5 5 0-3 3-3 3-5-2-1-3-1-3-3h-5v3Zm17-3c0 2-1 2-3 3v2h6c0-2 3-2 3-5h-6Zm288 3c-1-2 2 1 0 0Zm31 0c-1-2 2 1 0 0Zm-576 0h3c-1 15-15 16-26 23 1-3-1-3-2-3 0-3 2-3 2-6 5 0 8-2 9-6 5 0 8-2 9-6 2 0 5 0 5-2Zm240 0c-3 1-5 3-9 2-1 3-3 4-6 3 0 2 0 4-3 3v3h6c0-2 2-3 3 0 1 0 3 2 0 3 0 3-2 3-3 6h6c0-2 0-4 3-3 0-3 2-4 3-6-2 0-4-2 0-3v-8Zm331 2c-1-1 2 2 0 0Zm-317 0c-4 2 0 4 0 0Zm297 3c3 1 5 0 5-3-3 0-5 1-5 3Zm14 0c-1-1 2 2 0 0Zm-320 3c4 0 2-3 0-3v3Zm285 0c-1-1 2 2 0 0Zm15 0c3 1 5 0 6-3-4 0-6 1-6 3Zm-305 3h5v-3h-5v3Zm299 0c3 1 5-1 6-3-4 0-5 1-6 3Zm14 0c-1-1 2 2 0 0Zm26 0c-3 0-1-4 0 0Zm-363 0c0 3-3 2-5 3-3 4-5 9-12 9-1 3-4 5-3 11h3c0-3 4-2 0 0v3c6 1 7-3 12-3 0-7 11-4 11-11h-6c0 2-2 3-5 2 0 2-1 4-3 3 0 2-2 4-3 0h3c0-1 0-3 3-3 0-2 0-5 3-5 0-2 2-4 2 0h6v-3c-1 0-3-3 0-3v-3h-6Zm12 0c-1 3 1 3 3 3v-3h-3Zm311 0c-4 2 0 4 0 0Zm-317 6c4-1 2-3 0-3v3Zm294 0c-1-1 2 2 0 0Zm14 0c-1-1 2 2 0 0Zm35 0c0-4 4-2 0 0Zm-40 6c0-3 3-3 3-6-5 0-8 2-9 6h6Zm14-3c-1-2 2 2 0 0Zm26-3c-4 2 0 3 0 0Zm-590 3c-5 0-8 2-9 5 2 1 3 1 3 3 2-2 8-1 8-5-1-1-3-1-2-3Zm239 0c-1 2 1 2 2 3v-3h-2Zm8 3c2-1 6 0 6-3h-6v3Zm331 0c1-9 12 2 0 0Zm-34 0c-11 2-19 8-26 14 5 0 6 2 3 6h6c-1-4-1-8 2-9 3-6 14-4 15-11Zm6 2c7 1 5-3 0-2v2Zm28-2c-4 1 1 3 0 0Zm-60 5c4 10 7-11 0 0Zm32-3c-5 2 0 4 0 0Zm-334 6c3 0 1-3 0-3v3Zm293 3c1-11 13 1 0 0Zm55-3c-1-1 2 2 0 0Zm-354 3h6v-3h-6v3Zm-3 3c2 0 3 0 3-3h-3v3Zm9-3c0 2 2 3 2 6 3-1 6 0 6-3-2 0-3 0-3-3h-5Zm293 0c-12-3 0 9 0 0Zm20 0c2 4 4 0 0 0Zm12 3c-1-1 2 2 0 0Zm-29 3c2-1 6 0 6-3-3 0-5 1-6 3Zm35 0c0-9 12 3 0 0Zm-329 0c-4-1-5 3-8 3 0 1-1 3-3 3v3h6c1-4 5-5 5-9Zm277 3c2-1 6 0 6-3-3 1-6 0-6 3Zm17-3c-9 0-10 9-20 9-7 10-24 12-32 23h6c1-3 3-4 6-3 0-3 3-3 6-3 0-2 2-3 3 0 3 0 5-1 5-3-6 0 1-8 6-6 0-2 0-3 3-3 1-2 2-3 6-3-1-3 4-1 0 0v3c4 0 6-1 8-3v-8c3 0 3-1 3-3Zm20 3c-1-1 2 2 0 0Zm15-3c-4 2 0 3 0 0Zm-55 9v-6c-5 0-7 2-9 6h9Zm23-3h6v-3c-4-1-5 0-6 3Zm12 0c3-1 1-3 0-3v3Zm11 0c0-4 4-2 0 0Zm153 0c0-2 0-4 3-3v3h-3Zm-176 0c-3 0-2 3 0 3v-3Zm6 3h6v-3h-6v3Zm11 0c4 0 5-1 6-3-3-1-5 0-6 3Zm-331 2c3 1 5 0 6-2h-6v2Zm280 0c1 0 3 0 2-2-2-1-2 1-2 2Zm34 0h6v-2h-6v2Zm12-2c0 2-4 2-6 2-1 4-4 6-9 6v3c11 0 17-5 20-11h-5Zm-329 5c3 1 3-1 3-3-2 0-3 2-3 3Zm277 0c3 1 5 0 6-3-4 0-6 1-6 3Zm34-3c0 4 1 6 3 6 0-3 3-3 3-6h-6Zm-316 6c3 1 5 0 5-3-3 0-5 1-5 3Zm276 0c3 1 5 0 6-3-4 0-5 1-6 3Zm26 0h6v-3h-6v3Zm-302 0c-5 2 0 4 0 0Zm276 0c-5-1-5 3-9 3 1 7 10 1 9-3Zm23 3c2 0 3 0 3-3h-3v3Zm9 0h5c0-3-3-2-5-3v3Zm-317 3c3-1 1-3 0-3v3Zm308-3c-3 1-2 3 0 3v-3Zm6 3c2 0 3-1 3-3-3-1-3 1-3 3Zm8 0c4 0 6-1 6-3h-6v3Zm-331 0c-3 0-1 3 0 3v-3Zm9 0c-4 2 0 3 0 0Zm308 3c3 0 5-1 6-3h-6v3Zm12 0c2 0 2-1 2-3-2-1-2 1-2 3Zm-329 3h3c1-3-1-3-3-3v3Zm303-3c0 3 3 1 3 0h-3Zm14 0c-4 2 0 3 0 0Zm9 3c2 0 2-1 3-3-3-1-3 1-3 3Zm-668 3c-2-2 1 1 0 0Zm336 0h6v-3h-6v3Zm303 0c3-1 1-3 0-3v3Zm11 0c-1-2 2 1 0 0Zm12 0c3 0 5-1 6-3-4-1-5 0-6 3Zm-331 0c0 2-1 2-3 2v3h6c0-3 2-3 2-5h-5Zm296 0c-14 5-27 12-37 23 9-3 6-3 11 2 4-3 2-4 0-8 3-2 5-3 9-3 0-3 4-2 6-3 1-3 4-6 8-6 1-2 3-3 3-5Zm6 2c3 1 5 0 6-2h-6v2Zm12 0c-2-1 2 2 0 0Zm11 0c3 1 5 0 6-2-3-1-5 0-6 2Zm-651 3c-1-1 2 2 0 0Zm628-3c-4 2 0 4 0 0Zm17 3c4 1 6 0 6-3-3 0-5 1-6 3Zm-325 3c2 0 3 0 3-3-3 0-3 1-3 3Zm299 0c4 0 2-3 0-3v3Zm26-3c-4 2 1 4 0 0Zm-325 3c-3 1-2 3 0 3v-3Zm299 0c-3 1-1 3 0 3v-3Zm6 3c0-3 4-2 0 0Zm6 3c5 0 7-2 9-6-5 0-8 2-9 6Zm-320 0c-1-1 2 2 0 0Zm300-3c2 4 3 0 0 0Zm8 3h6v-3h-6v3Zm-14 3c3-1 2-3 0-3v3Zm14-3c-4 2 1 3 0 0Zm6 0c0 2-3 3-3 6 5 0 8-2 9-6h-6Zm-20 3c-4 2 0 3 0 0Zm6 6c-4 0-2-5 0 0Zm6 0c3 0 5-1 5-3-3-1-5 0-5 3Zm-323 2c-1-1 2 2 0 0Zm317-2c0 7-11 4-12 11 9-1 15-5 18-11h-6Zm-23 5c-1-1 2 2 0 0Zm-303 0c0 3 2 3 3 3 1-2-1-2-3-3Zm288 6c2 4 4 0 0 0Zm21 3c3 0 5-1 5-3-3 0-5 1-5 3Zm-539 0c-3 1-2 3 0 3v-3Zm513 3c3-1 1-3 0-3v3Zm26-3c-5 0-8 2-9 6 5 0 7-2 9-6Zm-26 3c-5 2 0 3 0 0Zm-9 6c3-1 2-3 0-3v3Zm20 0c3 0 5-1 6-3-3-1-5 0-6 3Zm-26 3c4 0 5-1 6-3h-6v3Zm26-3c-5-1-7 2-8 5 4 1 7-2 8-5Zm-29 3c1 3 3 1 3 0h-3Zm-478 5c-1-1 2 2 0 0Zm225 0h3c0-2-1-2-3-3v3Zm248 0c3 0 1-3 0-3v3Zm23 0c2 1 2-1 3-3-3 0-3 2-3 3Zm-274 3h3v-3h-3v3Zm248 0c2 1 2-1 3-3-3 0-3 1-3 3Zm14 3c1-11 13 1 0 0Zm12-6c-5 2 0 4 0 0Zm-32 6c3 0 5-1 6-3h-6v3Zm-3 0c1 3 3 2 3 0h-3Zm23 0c-5 0-7 2-9 6 5 0 8-2 9-6Zm395 6c-1-4 4-2 0 0Zm-404 0c-4 0-7 2-8 6 5 0 7-3 8-6Zm-14 8c3 1 5 0 6-2-4-1-5 0-6 2Zm-3 3c3 1 3-1 3-3-2 0-3 2-3 3Zm-233 3c3 0 2-3 0-3v3Zm227 0c4 1 6 0 6-3-3 0-5 1-6 3Zm-239 3c1-2 1-3 3-3v3h-3Zm239-3c-12-3 0 9 0 0Zm47 0c-1 8-14 4-12 15-2-1-3-3-6-3 3-7 9-11 18-12Zm-283 3c1 3 3 2 3 0h-3Zm285 3h3c0-3-3-2-3 0Zm-60 3c2-1 6 0 6-3-3 1-6 0-6 3Zm58 0h2v-3c-2-1-2 1-2 3Zm-64 3c0-4 4-2 0 0Zm-6 3c4 0 6-1 6-3-3-1-5 0-6 3Zm52-3c-5 0-7 2-8 5 5 1 7-2 8-5Zm216 3c0-2 1-4 3-3v3h-3Zm-268 0c-4 1 1 3 0 0Zm-242 2v9c5 0 8-2 9-6-2-1-5-3-9-3Zm286 0c-6 0-6 4-12 3 0 3-3 3-6 3v6h3c2-6 14-4 15-12Zm-58 6c-1-1 2 2 0 0Zm-233 3h3c0-2-2-3-3-3v3Zm3 3c2 1 2-1 2-3h-2v3Zm221 0c1-9 12 3 0 0Zm-3 3c3 0 3-1 3-3-2-1-2 1-3 3Zm47 0h5v-3c-3 0-5 1-5 3Zm8 0c3-1 2-3 0-3v3Zm-239 0c-5-1-5 2-6 6 3-2 6-3 6-6Zm179 3c3 0 5-1 5-3-3-1-5 0-5 3Zm52-3c-4 3-11 3-12 9 6 0 12 2 12-9Zm5 0c1 3 3 1 3 0h-3Zm-233 6h3c-1-4-3-2-3 0Zm176-3c-4 2 0 3 0 0Zm17 3h3v-3c-3-1-3 1-3 3Zm-202 0c-12 3-18 14-26 23h6c0-2 1-4 3-3 0-2 1-4 3-3 1-3 3-5 6-6 0-2 0-3 3-3 0-1 0-3 3-3 0-2 2-2 2-5Zm176 0c2 4 4-1 0 0Zm43 5c0-3 4-1 0 0Zm-3 3c3 1 3-1 3-3-2 0-2 2-3 3Zm-5 3c3 1 5 0 5-3-3 0-5 1-5 3Zm-49 3c-1-3 4-2 0 0Zm46 0c2 1 2-1 3-3-3 0-3 1-3 3Zm-49 3c2 0 3-1 3-3-3-1-3 1-3 3Zm43 0c3 0 5-1 6-3-4 0-5 1-6 3Zm-467 0c-4 2 1 3 0 0Zm251 0c1 2-1 3-3 3 0 2 0 3-3 3 0 8 5 5 0 11 4 0 7-1 9-3v-5c-2 0-3-3 0-3 0-4-1-5-3-6Zm173 0c-4 2 0 3 0 0Zm40 3c3 0 3-1 3-3-2-1-3 1-3 3Zm-49 3c3-1 2-3 0-3v3Zm43 0c4 0 5-1 6-3-3-1-5 0-6 3Zm-221 3c1-1 3-1 2-3-2-1-2 1-2 3Zm175 0c3 0 3-2 3-3-2-1-3 1-3 3Zm43 0c3 0 3-2 3-3-2-1-2 1-3 3Zm-221 2c2 1 2-1 3-2-3-1-3 1-3 2Zm178-2c-4 1 1 3 0 0Zm38 2c3 1 5 0 5-2-3-1-5 0-5 2Zm-219 3c2 1 3-1 3-3-3 0-3 2-3 3Zm219-3c-4 2 0 4 0 0Zm-222 6c2 1 3-1 3-3-3 0-3 1-3 3Zm-3 3c3 1 3-1 3-3-2 0-3 1-3 3Zm213 0c0-3 4-2 0 0Zm455-3h-6v6c5 1 6-2 6-6Zm-671 6c3 0 3-1 3-3-2 0-3 1-3 3Zm17 0c0-4 5-2 0 0Zm12 0c2 0 3 0 3-3-3 0-3 1-3 3Zm184 0c3 0 3-1 3-3-2 0-3 1-3 3Zm450-3c-6 1-13 1-12 9 6-2 12-1 12-9Zm-666 6c3 0 3-1 3-3-2-1-3 1-3 3Zm18 0c2 0 2-1 2-3-2-1-2 1-2 3Zm14-3c-11 4-19 12-23 23 8-3 10-11 17-14 1-4 5-5 6-9Zm184 0c-7-1-9 4-11 9 7 0 9-5 11-9Zm6 3c-1-1 2 2 0 0Zm-412 0c-8 0 3 12 0 0Zm187 3c3 0 3-1 3-3-2-1-2 1-3 3Zm18 0c2 0 2-1 3-3-3-1-3 1-3 3Zm152 0c0-4 5-2 0 0Zm-170 0c-4-1-5 2-5 5 2-1 5-2 5-5Zm18 0c-4 1 0 3 0 0Zm152 0c-4 1 1 3 0 0Zm478 3c1-9 12 2 0 0Zm-440 0c-5-1-8 2-9 5 5 0 8-2 9-5Zm438 2c-6-5-9 1-12 6 5 0 10-2 12-6Zm0 0c2 1 2-1 2-2-2-1-2 1-2 2Zm-654 3c2 1 3-1 3-3-3 0-3 2-3 3Zm17 0c0-3 4-1 0 0Zm153 0c-1-1 2 2 0 0Zm-173 3c2 1 3-1 3-3-3 0-3 1-3 3Zm17 0c3 1 3-1 3-3-2 0-3 1-3 3Zm190 0c3 1 3-1 3-3-2 0-3 1-3 3Zm38 0c1 0 3 0 3-3-3 0-3 1-3 3Zm-248 3c2 1 3-1 3-3-3 0-3 1-3 3Zm12 0h2c0-3-2-1-2 0Zm5 0c3 1 3-1 3-3-2 0-3 1-3 3Zm193-3c-5 0-7 2-8 6 5 0 7-2 8-6Zm429 3c1-9 12 3 0 0Zm-642 3c3 1 3-1 3-3-2 0-3 1-3 3Zm12 0h3v-3c-3 0-3 1-3 3Zm5 0c3 1 3-1 3-3h-3v3Zm625-3c-12 0 0 11 0 0Zm-645 6c3 0 3-1 3-3-2-1-3 1-3 3Zm12 0h3v-3c-3-1-3 1-3 3Zm6 0c2 0 2-1 2-3h-2v3Zm14-3c-6-1-9 2-9 9 4-2 7-5 9-9Zm-153 6c-3 0-1-4 0 0Zm121-3c-2 1-5 2-5 6 4 1 5-3 5-6Zm9 3h3v-3c-3-1-3 1-3 3Zm6 0c2 0 2-1 3-3h-3v3Zm613 0c2-1 6 0 6-3-2 1-6 0-6 3Zm-622 3c2 0 3-2 3-3-3-1-3 1-3 3Zm6-3c0 3 3 1 3 0h-3Zm-17 3h-3c-1 8-11 6-15 11 5 1-1 4 0 9 7-6 16-10 18-20Zm11 0c-8 2-3 4-3 11h3c0-2 0-3 3-3-2-2-3-4-3-8Zm12 3c3 0 5-1 5-3-3-1-5 0-5 3Zm601 0c3-1 6-1 6-3-2 0-5 0-6 3Zm-604 2c2 1 2-1 3-2-3-1-3 1-3 2Zm596 0c3 0 4 5 6 0 0-3-5-3-6 0Zm-729 3c-1-1 2 2 0 0Zm271-3c2 5 3 0 0 0Zm-256 6c-1-3 4-2 0 0Zm103 0c-4-8-11 4-8 12h3c0-2 0-4 2-3 1-2 1-4 3-3v-3c-1 0-3-2 0-3Zm602 0c1-8 12 3 0 0Zm-705 0c-5 2 0 4 0 0Zm103 3h3v-3h-3v3Zm602-3c-4 2 0 4 0 0Zm29 0c-5 1-10 2-12 6h9c1-2 3-3 3-6Zm-35 3c-5-3-12 7-5 9 0-4 4-5 5-9Zm-414 6h3c0-3-2-3-3-3v3Zm437-3c-4 0-7 2-8 6 5 0 7-3 8-6Zm-645 6c3 0 3-1 3-3-2-1-2 1-3 3Zm12 0h3c-1-4-3-2-3 0Zm590 3c5 0 8-3 9-6-5 0-8 2-9 6Zm-602-3c-21 18-41 37-54 63 6-1 5-8 11-9 0-7 5-9 9-11 0-2 0-4 3-3 0-2 0-3 3-3 0-2 0-3 2-3 5-16 22-19 26-34Zm9 3h3v-3c-3-1-3 1-3 3Zm622 0c3 0 5-1 6-3-4-1-5 0-6 3Zm-625 2h3v-2c-2-1-3 1-3 2Zm593 0c3 1 3-1 3-2-2-1-2 1-3 2Zm26 0c4 1 5 0 6-2-3-1-5 0-6 2Zm15 0c3 1 5 0 5-2-3-1-5 0-5 2Zm-637 3c2 0 4 0 3-3-2 0-3 2-3 3Zm596-3c-8 0-14 3-17 9 7-1 13-4 17-9Zm21 3c3 1 5 0 5-3-3 0-5 1-5 3Zm14 0c2 0 3 3 0 3 0 2 0 4-3 3 2 9 6-3 12 0 0-5-3-5-3-9-4 0-5 1-6 3Zm17-3c-4 2 1 4 0 0Zm-651 6h3v-3c-2 0-2 1-3 3Zm620-3c-5 0-8 2-9 6h6c0-2 3-3 3-6Zm14 0c-8 0-9 7-17 6 0 3-3 3-3 6 1 0 3 2 0 3 0 1-1 3-3 3 1 2 2 3 6 2 0-2 2-3 5-2-1-5 12-7 3-9 0-3 4-2 6-3 0-2 1-3 3-3v-3Zm207.002 0c0 7 4 5 3 0h-3Zm-844.002 6h3v-3c-2 0-2 1-3 3Zm-2 3h2v-3c-2 0-2 1-2 3Zm616-3c-7-1-11 1-12 6 6-1 10-2 12-6Zm219.002 3c2 0 3-1 3-3-3 0-3 1-3 3Zm-838.002 3h3v-3c-3-1-3 1-3 3Zm579 0c0-9 12 3 0 0Zm242.002-3c-3 1-6 2-6 6 5 1 5-3 6-6Zm17 0c-4 2 0 3 0 0Zm-841.002 6h3v-3c-3-1-3 1-3 3Zm582-3c-5 2 0 3 0 0Zm23 3c3 0 5-1 5-3-3-1-5 0-5 3Zm20-3c-6 0-10 2-12 6h9c0-2 0-4 3-3v-3Zm26 3c0-3-4-3-6-3 0 3 3 2 6 3Zm-651 0c-4 1 0 3 0 0Zm576 0c-5 0-8 2-9 5 5 1 8-2 9-5Zm23 3c3 0 5-1 6-3-4-1-5 0-6 3Zm216.002 0c2 0 3-2 3-3-3-1-3 1-3 3Zm-216.002 0c-5-1-8 2-9 5 5 0 8-2 9-5Zm14 0c-6 1-12 3-14 8 1 0 3 3 0 3-1 2-3 3-6 3-1 2-2 3-6 3-4 2 1 3 0 0v-3c-5 0-7 2-8 6 1 0 3 2 0 3v3c8 0 9-7 17-6 1-3 2-4 6-3-1-7 8-3 8-9-4 1-7-3 0-3 1-1 1-3 3-3v-2Zm20 2h6c0-2-3-2-6-2v2Zm153-2c2 4 4-1 0 0Zm26.002 2c2 1 3-1 3-2-3-1-3 1-3 2Zm-815.002 3c-3-8-8 4-12 3 0 2 0 4-2 3-1 2-1 4-3 3 0 2-1 3-3 3 0 7-5 9-9 11v6c3 0 4-2 6-3 0-1 0-3 3-3 0-1 0-3 3-2-1-8 4-10 8-12 0-2 1-3 3-3 0-2 1-3 3-3 0-2 1-3 3-3Zm3 0h3v-3c-3 0-3 2-3 3Zm556-3c-2 3-5 8 0 9 2-2 4-8 0-9Zm57 0c1 3-1 3-3 3v3c5 1 5-3 9-3 0-2-3-2-6-3Zm15 3h5v-3h-5v3Zm181.002 0c3 1 3-1 3-3-2 0-3 2-3 3Zm-225.002 3c4 1 6 0 6-3-3 0-5 1-6 3Zm44-3c-5 2 0 4 0 0Zm178.002 3c3 1 3-1 3-3-2 0-3 1-3 3Zm-227.002 3c3 1 5-1 5-3-3 0-5 1-5 3Zm14 0h6v-3c-3 0-5 1-6 3Zm26 0c-1-1 2 2 0 0Zm187.002-3c-12.002-3 0 9 0 0Zm-227.002 3c-5 0-8 2-9 6 5 0 8-2 9-6Zm8 3h6v-3c-3 0-5 1-6 3Zm26 0c0-3 4-2 0 0Zm-5 3c3 0 5-1 5-3-3 0-5 1-5 3Zm-386 9c5-6 6-12-3-6 0 1-1 3-3 3v3h6Zm342-6c4 0 5-1 6-3-3-1-5 0-6 3Zm38 0h6v-3h-6v3Zm164 0c-1-1 2 2 0 0Zm-207 3c3 0 5-1 5-3-3-1-5 0-5 3Zm14 0h6v-3c-4-1-5 0-6 3Zm23 0c3 0 5-1 6-3h-6v3Zm161 0c3-1 6 0 6-3-2 0-6 0-6 3Zm-198 0c-5-1-8 2-9 5h6c0-2 3-2 3-5Zm8 3h6v-3c-3-1-5 0-6 3Zm29-3h-3c1 3 3 1 3 0Zm-383 3c0 2-1 2-3 2 0 2 0 4-3 3v6h3c0-6 8-4 6-11h-3Zm354 0c-3 0-1 2 0 2v-2Zm6 0c0 2-4 2-6 2 0 3-3 3-3 6 5 1 6-3 12-3 0-2 3-3 3-5h-6Zm14 2c-1-1 2 2 0 0Zm-43 3c2 0 6 0 6-3-3 0-5 1-6 3Zm12-3c1 7-9 4-9 9 5-1 7 3 0 3-4 2 0 3 0 0v-3c-5 0-7 2-9 6 2 0 4 2 0 3v3c6 0 6-4 12-3 3-6 11-6 14-12-13 2 5-8-8-6Zm26 3c-1-3 4-2 0 0Zm11 0c0-3 4-2 0 0Zm-55 3c4 1 6 0 6-3-3 0-5 1-6 3Zm38 0c3 1 5 0 6-3h-6v3Zm-608 0c-3 1-6 4-6 9h3c0-2 1-4 3-3v-6Zm570 0c-5 0-7 2-8 6 5 0 7-2 8-6Zm38 0c-4 2 0 4 0 0Zm-619 3c-8 1-10 8-12 14 7-2 9-8 12-14Zm247 3h3v-3c-2-1-3 1-3 3Zm363 0c-1-1 2 2 0 0Zm12 0c4 9 7-11 0 0Zm184 0c0-4 4-2 0 0Zm-562 3c3 0 3-1 3-3-2-1-2 1-3 3Zm323 0c3 0 5-1 6-3-4-1-5 1-6 3Zm37 0c0-4 5-2 0 0Zm199 0c3 0 3-1 3-3-2-1-3 1-3 3Zm-800 3h2v-3c-2-1-2 1-2 3Zm241-3c-4 2 1 3 0 0Zm317 3c4 0 5-1 6-3-3-1-5 0-6 3Zm15 0h5v-3c-3-1-5 0-5 3Zm28-3c-3 0-1 3 0 3v-3Zm6 3c1-9 12 2 0 0Zm193-3c-4 2 0 3 0 0Zm-803 6h3v-3c-3-1-3 1-3 3Zm558 0c3 0 3-2 3-3-2-1-2 1-3 3Zm15 0c2 0 2-2 3-3-3-1-3 1-3 3Zm20 0c7 0 5-4 0-3v3Zm11-3c-2 9 6 4 6 0h-6Zm162 3c-1-2 2 1 0 0Zm29 0c-2-2 1 1 0 0Zm-237 0c-6-1-10 0-11 5 5 0 9-2 11-5Zm9 2c2 0 3 3 0 3v3c8 1 10-4 6-8-4-1-5 0-6 2Zm14-2c-4 1 1 3 0 0Zm12 0c-4 1 0 3 0 0Zm-608 5c3 1 3-1 3-3-2 0-3 2-3 3Zm254 0c-3-7-13 3-12 9h3c0-2 0-3 3-3 0-2 0-3 3-3 0-2 0-3 3-3Zm302 0c-3 1-2-4 0 0Zm20 0h6v-3c-3 0-5 1-6 3Zm23 0c-1-1 2 2 0 0Zm15 0c-2-1 2 2 0 0Zm164 0c-1-1 2 2 0 0Zm26 0c-1-1 2 2 0 0Zm-804 0c-9 0-10 8-11 15 6-2 8-9 11-15Zm556 0c0 6-9 2-9 9 7-1 13-3 15-9h-6Zm14 3c4 1 6 0 6-3-3 0-5 1-6 3Zm24 0c-1-3 4-2 0 0Zm175 0c-1-1 2 2 0 0Zm-763 3h3v-3c-3 0-3 1-3 3Zm564-3c-4 0-7 2-8 6h6c0-2 0-3 2-3v-3Zm12 0c-4 2 0 4 0 0Zm12 0c-5 2 0 4 0 0Zm-591 6h3v-3c-2 0-3 1-3 3Zm161-3c2 0 4 0 3 3-1 0-3 0-3-3Zm406 0c1 3-1 3-2 3v3h5c4-4 3-6-3-6Zm15 3c0-4 4-2 0 0Zm-585 3c2 0 4-1 3-3-2-1-3 1-3 3Zm236-3v6h3c0-2 1-4 3-3v-3h-6Zm311 0c-11 3-20 8-25 17 9-4 18-10 25-17Zm15 0c-7 1-13 3-15 9h6c0-4 4-2 0 0v2h6c1-2 2-3 6-2 0-3 2-4 3-6h-6c0 1-2 3-3 0h3v-3Zm17 3c3 0 5-1 6-3-3-1-5 1-6 3Zm-579 0c-4 2-9 4-8 11 2 0 3-2 5-3 1-1 1-3 3-2v-6Zm573 3c4 0 5-1 6-3h-6v3Zm-426 3c2-1 4-1 3-3h-3v3Zm423 0c3 0 3-2 3-3-2-1-2 1-3 3Zm12 0c0-4 4-2 0 0Zm-438 2c3 1 3-1 3-2h-3v2Zm403-2c-4-1-7 2-8 5h6c0-1 0-3 2-3v-2Zm18 2h5v-2h-5v2Zm17-2c-12-3-1 8 0 0Zm158 0v5c5 0 10-8 0-5Zm15 2c-1-3 4-1 0 0Zm-208 0c1 3-1 3-2 3v3c4 0 7-2 8-6h-6Zm12 3c3 1 5 0 6-3h-6v3Zm11-3c2 5 4 0 0 0Zm185 0c-6-1-7 6-3 6 0-2 0-3 3-3v-3Zm-763 3c-4 2-6 4-6 9 3 0 3-2 6-3v-6Zm155 3h3c-1-3-3-1-3 0Zm392-3c-5 0-8 2-9 6h6c0-2 0-3 3-3v-3Zm17 3c3 1 3-1 3-3-2 0-3 1-3 3Zm184-3c-8-2-5 8-14 6 0 4 4 4 3 9h3c0-8 11-4 11-12-2 1-2-1-3-3Zm15 0c0 3-1 3-3 3v3c6 2 13-8 3-6Zm-216 6c3 1 5-1 6-3h-6v3Zm17-3c-4 2 0 4 0 0Zm12 3c-2-1 1 2 0 0Zm-38 0c-5 0-6 4-11 3v3c2 1 5 0 5 3-1 0-3 0-2 3h5c1-3 3-3 3-6-1 0-3-2 0-3v-3Zm6 3c2 1 3-1 3-3h-3v3Zm23 0c4 10 7-11 0 0Zm193-3c-4 2 0 4 0 0Zm-769 6c2 0 3-1 3-3-3-1-3 1-3 3Zm547 0c3 0 5-1 6-3h-6v3Zm12 0c-2-1 2 2 0 0Zm5 3c5 0 8-2 9-6-5 0-7 2-9 6Zm196-3c0-4 4-2 0 0Zm-760 0c-4 1-6 4-6 9h3c0-2 1-4 3-3v-6Zm550 6c0-4 4-2 0 0Zm9 0c3 0 5-1 5-3-3-1-5 0-5 3Zm-23 3h3v-3c-3-1-3 1-3 3Zm8 0c4 0 5-1 6-3h-6v3Zm15-3c-5 1 0 3 0 0Zm-582 5c-4 1-2-4 0 0Zm14 0c2 0 4 0 3-2-2-1-3 1-3 2Zm539 0h6v-2h-6v2Zm9 0c3 1 5 0 5-2h-5v2Zm-548 0c-3 2-6 4-5 9h2c1-2 1-3 3-3v-6Zm545 3c2 1 2-1 3-3h-3v3Zm11 0h6c-1-3-6-3-6 0Zm-17 0c0 3-1 3-3 3v3h6c0-2 3-3 3-6h-6Zm17 0c-5 0-7 2-8 6 4 0 7-2 8-6Zm-20 6c-4 2 0 4 0 0Zm6 0c-1 2-3 3-3 6 5 0 7-2 9-6h-6Zm-15 6c4-1 2-3 0-3v3Zm-553 3c-3 0-1-5 0 0Zm553-3c-4 2 1 3 0 0Zm6 3c3 0 5-1 6-3-3-1-5 0-6 3Zm-14 3c-1-4 4-2 0 0Zm11 0c3 0 3-2 3-3-2-1-3 1-3 3Zm15 0c-2-2 2 1 0 0Zm-32 2h6v-2h-6v2Zm17-2h-6c1 3 6 2 6 0Zm-564 5c-1-1 2 2 0 0Zm233 0c-3 1-2-4 0 0Zm311 0c2 0 3 0 3-3-2 0-3 2-3 3Zm9-3c-1 4-5 5-6 9 5 1 5-3 9-3 0-3-1-5-3-6Zm-15 3c1 3-1 3-3 3 0 2-2 4-5 3v3c2 1 5 0 5 3 7 1 11-1 12-6h-6c-4 2 0 4 0 0 1-2 3-3 3-6h-6Zm-5 15c2 0 2-1 2-3-2-1-2 1-2 3Zm400.002-3c2 4 3 0 0 0Zm-403.002 6c2 0 2-2 3-3-3-1-3 1-3 3Zm-6 0c1 3 6 2 6 0h-6Zm394 2c3 1 3-1 3-2-2-1-2 1-3 2Zm0 0c-11 1 1 13 0 0Zm-31 12c-4 0-2-4 0 0Zm6 0c2 1 2-1 2-3-2 0-2 1-2 3Zm-689 3h3c0-3-3-2-3 0Zm666-3c-2 2-5 8 0 9-1-5 12-10 0-9Zm17 0c-2 10-14-3-12 14 10-1 13-8 18-14h-6Zm-683 3c-3 0-1 3 0 3v-3Zm651 3c0 2-3 3-3 6 6 1 7-6 3-6Zm-9 6c0 2-2 2-2 5 4 1 5-2 8-3v-2h-6Zm-141 5v-3h3v3h-3Zm147-3v6c4-1 3-6 0-6Zm12 3c1 0 3 3 0 3 0 2-1 4-3 3-1 2-3 3-3 6 8 0 11-7 14-12-2-2-7-4-8 0Zm8 0c3 1 3-1 3-3-2 0-2 2-3 3Zm-530 0c5 1 2 7 0 9-2-1-3-3-2-6 1 0 3 0 2-3Zm502 0c-5 2 0 4 0 0Zm17 3h3v-3c-3 0-3 1-3 3Zm-9 0c-6-2-13 8-6 9 1-4 6-5 6-9Zm9 0c-3 1-2 3 0 3v-3Zm-26 6c0-4 4-2 0 0Zm-493 0v3c4-1 2-3 0-3Zm490 3c3 0 3-1 3-3-2-1-3 1-3 3Zm-6 3c4 0 5-1 6-3h-6v3Zm12 0c-1-2 2 2 0 0Zm17 0c3 0 3-1 3-3-2-1-3 1-3 3Zm-867 3c-1-2 2 1 0 0Zm15-3c-5 1 0 3 0 0Zm334 3c-1-2 2 1 0 0Zm8 0c0-4 5-2 0 0Zm478 0c3 0 3-2 3-3-2-1-2 1-3 3Zm32-3c-7-1-9 4-11 8 7 1 9-4 11-8Zm-513 5c3 1 3-1 3-2-2-1-2 1-3 2Zm476-2c0 2 3 2 5 2v-2h-5Zm-481 5h5v-3c-3 0-5 1-5 3Zm486-3c0 3-2 3-2 6 5 2 6-5 2-6Zm12 3c-1-1 2 2 0 0Zm-498 0c-3 2-5 3-6 6h6v-6Zm507 0c-5 2 0 4 0 0Zm-44 6c4 0 2-3 0-3v3Zm21-3c-5 2 0 4 0 0Zm-790 3c-4 2 1 4 0 0Zm297 3c3 0 3-1 3-3-2 0-3 1-3 3Zm533 0c-1-1 2 2 0 0Zm-818 0c-4 2 0 3 0 0Zm282 3c3 0 3-1 3-3-2-1-3 1-3 3Zm484 0c0-4 4-2 0 0Zm23 0c0-4 4-2 0 0Zm-510 3c3 0 3-1 3-3-2-1-3 1-3 3Zm568 0c-7 9 9-7 0 0Zm11 0c-1-2 2 2 0 0Zm-579 0c-4 1 1 3 0 0Zm473 3c3-1 1-3 0-3v3Zm-386 0c0 3 3 1 3 0h-3Zm383 2h3v-2c-3-1-3 1-3 2Zm69 0c-1-1 2 2 0 0Zm17 0c2 0 6 0 6-2-2 0-6 0-6 2Zm-86 0c-4 1-2 3 0 3v-3Zm54 3c0-3 5-1 0 0Zm6 0c-1-1 2 2 0 0Zm-544 3c3 0 2-3 0-3v3Zm533 0c3 1 5 0 5-3-3 0-5 1-5 3Zm20 0c-1-1 2 2 0 0Zm23 0c-1-1 2 2 0 0Zm-812 3c-1-1 2 2 0 0Zm233 0c2 1 3-1 3-3h-3v3Zm121-3c-4 2 0 4 0 0Zm354 3c4 0 2-3 0-3v3Zm61-3c-12-3-1 9 0 0Zm34 3c-1-1 2 2 0 0Zm-573 3c3 1 3-1 3-3h-3v3Zm530-3c-6-1-11 1-11 6 5-1 9-2 11-6Zm-32 6c4-1 2-3 0-3v3Zm41-3c-6 0-10 2-12 6 7 1 11-1 12-6Zm46 3c-1-1 2 2 0 0Zm-35 3c-1-1 2 2 0 0Zm23 0c-1-1 2 2 0 0Zm35 0c-1-1 2 2 0 0Zm-89 3c2-1 5 0 5-3-2 0-5 0-5 3Zm20 0c-1-2 2 2 0 0Zm26 0c-2-2 2 2 0 0Zm-35 3c2-1 6-1 6-3-2 0-6 0-6 3Zm61 0c3-1 8 0 8-3-3 0-8-1-8 3Zm-395 0c-4 1 0 3 0 0Zm3 0c0 7 3 4 3 0h-3Zm322 2c1-8 12 3 0 0Zm61 0c0-3 4-1 0 0Zm-86 3c1 0 3 3 0 3v9c3 0 5-1 5-3-6 0 1-8 6-6 3-9-6-5-11-6v3Zm25-3c-12-2 0 9 0 0Zm61 0c-14 1-23 6-32 12 8 3 25-5 32-12Zm-92 6h6v-3c-4 0-6 1-6 3Zm46 0c0-3 4-2 0 0Zm52 3c8 1 14-1 17-6-7 1-14 2-17 6Zm-81-3c1 9 12-3 0 0Zm20 3c-1-1 2 2 0 0Zm9-3c-4 2 0 4 0 0Zm-17 6c-2-1 1 2 0 0Zm60 0c4 0 8 0 9-3-4 0-8 0-9 3Zm-363 3h3c-1-3-3-2-3 0Zm363-3c-12-3-1 9 0 0Zm-363 3c-4 2 0 3 0 0Zm3 0c1 3 3 1 3 0h-3Zm268 0c-1 2-3 3-3 6 5-1 10-2 12-6h-9Zm69 6c7 0 12-2 14-6-7-1-12 1-14 6Zm-55 0c-1-2 2 1 0 0Zm78 0c3 11 3-12 0 0Zm-86 2c-2-1 2 2 0 0Zm54 0c4 1 9 1 9-2-4-1-8-1-9 2Zm-60 3c-1-1 2 2 0 0Zm55 0c3 1 5 0 5-3-3 0-5 1-5 3Zm-64 3c-1-1 2 2 0 0Zm78-3c-3 6 7 13 9 6-4-1-5-5-9-6Zm9 3c-2-1 2 2 0 0Zm-15 6c-3-12 9-1 0 0Zm-515-3c1 4 3 0 0 0Zm507 3c-1-4 4-2 0 0Zm46 0c-2-1 2 2 0 0Zm-124 3c-1-1 2 2 0 0Zm78-3c-11-1-18 2-21 9 8 0 9-5 15-6 0 4-1 8 3 8 0-2 3-2 5-2 1-5-2-5-2-9Zm8 0c-4 2 1 3 0 0Zm26 3c2-1 6 0 6-3-2 1-6 0-6 3Zm-8 3c2-1 5 0 5-3-2 0-5 0-5 3Zm-291 0c-12-3-1 8 0 0Zm288 0c-6 0-10 2-12 5 7 1 11 0 12-5Zm-52 5h6c-1-3-6-2-6 0Zm17 0c-1-1 2 2 0 0Zm-23 3h6v-3c-4 0-5 1-6 3Zm12-3c-1 3-4 3-6 3 0 3-5 4-6 0-3 0-5 1-6 3 2 0 4 3 0 3v3c6-2 26-5 18-12Zm5 3c-1-1 2 2 0 0Zm23 0c0-3 5-1 0 0Zm-216 3c-1-1 2 2 0 0Zm216-3c-12-2 0 9 0 0Zm-46 3c-7 0-5 4 0 3v-3Zm35 3c-1-1 2 2 0 0Zm-628 0c-9 1 3 12 0 0Zm622 3c-1-1 2 2 0 0Zm-184 3c-1-1 2 2 0 0Zm175 0c3-1 6 0 6-3-2 1-5 0-6 3Zm-5 3c-1-4 4-2 0 0Zm-156 0c1 3 3 1 3 0h-3Zm150 3c3 0 5-1 6-3-4-1-5 0-6 3Zm-9 3c4 0 8 0 9-3-4-1-8-1-9 3Zm-556 2c-7 1-5-4-11 0 1 4 7 3 11 3v-3Zm32 0c-1-1 2 2 0 0Zm-32 3c1 8 9 5 12 0h-12Zm536 3c3 1 5 0 6-3-3 0-5 1-6 3Zm-104 6c-1-1 2 2 0 0Zm12 3c-1-1 2 2 0 0Z"/></svg>