<svg xmlns="http://www.w3.org/2000/svg" width="936" height="817" fill="none"><path fill="#fff" fill-opacity=".72" d="M311 21c-1-1 2 2 0 0Zm29 20c1 7 8 7 8 0 9 3-3 8-2 12 6 2 9-8 8 3-4 2 1 3 0 0 5-8 10 4 3 6 16 9 27 23 38 37-11 26-31 43-55 55 1-7 10-6 8-15 3 1 3-1 3-2 0-4 5-2 0 0-2-1-2 1-3 2-9 6-14 16-25 21-4 0-5 3-6 5-19 6-21 28-43 29v-6c10 2 14-2 17-8 2 0 3-1 3-3-1-4 4-2 0 0-3-1-3 1-3 3-2-2-5-3-9-3 0-3-3-2-3 0-3-1-5 0-5 3-3-1-3 1-3 3-4 1 0 3 0 0 2 0 2-2 3-3h5c-1 3-5 4-5 8-13 2-17 12-23 21h-3c0-3-1-3-3-3-1-4-3-2-3 0-7-1-9 4-12 8-2 0-2 1-2 3-4 1-2 3 0 3-1 2-3 3-3 6-3 1-6 2-6 6-3-1-3 1-3 2-2 0-3 2-3 3-5-1-5 3-9 3 1 3 4 2 6 3v3c-4 2 1 3 0 0 3 0 3-1 3-3 3 0 2-3 0-3v-3c3 1 3-1 3-3h3v6c3-4 12-3 11-11 5 1 6-3 6-6 5 1 6-2 6-6 2 1 3-1 3-3 8 4 13 2 14-8 12 11-21 23-29 34 8 9 17-4 18-11 2 0 3 2 3 5 11-7 11-22 25-20v3c-2 0-2 1-2 3-4 0-6 1-6 3-4 2 0 3 0 0 3 0 5-1 6-3 2 1 2-1 2-3 9-1 12-8 18-11 3 0 5-1 6-3 8-4 17-8 23-15 53-29 124-73 178-100 5-1 10-2 12-6 3 0 7-2 3-3 0-2 2-3 5-3 1 3 3 2 3 0 8-2 15-5 20-9 3 0 6 0 6-2 8 0 12-2 12-9 12 6 20-13 34-15 7 8 17 12 20 24 6-6 8-1 15 0-4 5-3 6 5 5 0 4-4 5-5 9 5 1 6-3 11-3-10 11 11 9 12 17-4 1-2 3 0 3-1 3 1 3 3 3 7 9 14 20 20 23-10 6-24 17-35 29-3-1-5 1-6 3-4 2 1 3 0 0 4 0 6-1 6-3 9 0 10-8 20-6 1 4 9 4 9 0-1-4-4 1-9 0 9-9 25-12 38-17-1 2-3 3-3 6h-6c0 2 4 2 6 3-1 3-4 5-9 5 1 4 6 3 9 3-1 6-13 1-12 9-12 0-17 8-28 8v-2c-1-4 4-2 0 0h-3c-2-6-5-1-9 0-3-9-8 3-9 5-2 0-2-3-2-5-11 8-39 23-61 37 1 3 5 2 9 3-9 12-29 14-38 26-24 9-45 22-63 37-5 0-8 2-9 6-2-1-2 1-3 3-5 0-9 2-11 6-3-1-3 1-3 3-3 0-2 2 0 2v3c-3 0-5 1-6 3-5 0-7 2-8 6-5 0-8 2-9 6-2-1-3 1-3 3-3 0-1 2 0 2v3c-2 0-3 1-3 3-3 0-5 1-6 3-3 0-5 1-5 3-7-1-9 4-12 9-5-1-7 2-8 5-4 0-6 1-6 3-3 0-3 1-3 3h-6c0 3 4 2 6 3 0 2 3 3 3 6-3-1-3 1-3 3h-6v-3c0-4 4-2 0 0-3 0-1 3 0 3v3c-8 1-14 4-17 11-5-1-5 3-9 3-2-8-13 2-6 6-3-1-5 0-5 3-3-1-3 1-3 2-16 6-27 15-38 26-15 8-26 20-37 32-2-1-3 1-3 3-5 0-7 2-9 6-2-1-2 1-2 3-8-1-9 4-12 8-4 2 0 4 0 0 7 1 9-4 12-8 2 0 2-2 2-3 5 0 8-2 9-6 3 0 3-1 3-3 13-5 27-6 35-23 2 2 4 3 8 3 1-5-3-5-3-9h12c6-1-4-4 3-8 11 3 16-2 17-12h6c1 4 3 0 0 0 0-2 3-3 3-6 5 0 7-2 8-5 3 0 3-2 3-3 3-1 5 0 6 3-4 1 0 3 0 0 8-9 22-13 29-23 8 8 3-9 14-6 2 4 4-1 0 0 0-6 10-2 9-9 7 5 18-5 23-11 2 4 3-1 0 0v-3c2 0 2-1 3-3h5c2 4 4 0 0 0 1-3 3-3 3-6 5 0 6-3 12-3 2 4 3 0 0 0 0-2 3-3 3-6 9 3 14-14 20-5 3-1 2-6 3-9 6-1 12-3 14-9 3 1 5 0 6-2h6c0 3 3 1 3 0 7-1 4-14 11-6 7-2-3-5 3-9 8-2 16-4 20-11 7-1 12-3 14-9 11 5 10-3 15-9 3 0 5 1 6 3-5 2 0 4 0 0 25-19 56-28 92-52 3 1 5 0 6-3 10 0 13-7 23-8-1-6-10-2-9-9 3 1 5 0 6-3 7 4 12-8 14 0 3-2 4-5 6-8 9 1 11-4 17-6 0-3-3-2-6-3 0-3-3-2-5-3 0 3 3 2 5 3 0 6-10 3-11 9-10 0-15 4-20 8-4 0-5 1-6 3h-9c-3 0-1-4 0 0-6 6 1 6 6 9-1 6-13 1-11 8-4 0-6 1-6 3-8 1 2-16-9-11v-3c-3 0-1 3 0 3 0 2-3 3-3 6-2-1-3-3-5-3-1-4-3-2-3 0-4 0-2 3 0 3-1 3-6 2-9 2-3 1-2-4 0 0-5 9-8 3-17 3-1-3-3-1-3 0-4 0-5 1-6 3-3 0-5 1-6 3-3 0-5 1-5 3-5 0-8 2-9 6-9 1-8 13-20 11-4 1-2-4 0 0-1 4-5 5-6 9-7-1-11 1-12 6-3-1-5 0-5 3-4 0-2 2 0 2-4 5-9 15-15 9v-3c4 1 5 0 6-3 0-3 4-1 0 0-3 0-5 1-6 3-3 0-5 1-5 3-4 0-6 1-6 3-3-1-3 1-3 3-3-1-5 0-6 3-5-2-12 5-6 5 0 3-3 3-5 3-1-3-3-1-3 0-4 0-5 1-6 3-5 0-7 2-9 6-5 0-7 2-8 6-4-1-5 0-6 3-3-1-5 0-6 3-5-1-7 2-8 5-4 0-6 1-6 3h-6v-3c3 0 2-3 0-3v-2c2 0 3-2 3-3 3-1 5 0 6 3-5 1 0 3 0 0 3-1 2-6 5-6 2 4 4-1 0 0v-3c3 0 3-1 3-3 5 0 8-2 9-6 19-4 28-18 46-23v3c-4 2 0 4 0 0 3 0 2-3 0-3 2-9 16-5 17-14 47-24 95-48 141-72 10 0 16-4 21-9 3 1 5 0 5-3 4 1 9 1 9-3 5 0 10-2 12-5 3 0 5-1 5-3 0-4 4-2 0 0-3-1-5 0-5 3-7-1-11 0-12 5-4 0-8 0-9 3-3 0-5 1-5 3h-9c0-4 12-9 0-8v-3c6 1 7-6 3-6 28-14 61-31 89-35 2 4 4 0 0 0 0-3 2-3 3-5 14 1 20-7 35-6 12 12 22 19 34 26v3c-10 1 7 13 6 5 5 5 13 7 11 18 9-8 5-3 15 0v3c-14 2 11 10 11 17-70 88-180 136-265 210-7-1-2 11-11 9v-3c0-4 4-2 0 0-3 0-2 3 0 3-8 12-26 12-32 26-3-1-5 0-6 2-2 0-2 2-2 3-5 2 0 4 0 0 2 1 2-1 2-3 4 1 6 0 6-2h6c0 7-11 4-12 11-2 1-5 0-5 3-5 0-8 2-9 6-3-1-5 0-6 3-2-1-2 1-3 3-2 0-5 0-5 2-5 0-8 3-9 6-2 0-3 1-3 3-20 16-52 33-72 58-12 3-20 11-26 20-28 13-45 37-66 57-8-2-6 6-12 6v-3c-3 1-1 3 0 3-13 17-32 28-40 43-2 0-3 1-3 3-3 5-12 4-11 12-3-1-3 1-3 3-4 1 0 3 0 0 2 0 3-2 3-3 4-4 13-3 11-12 3 1 3-1 3-3 18-8 30-24 49-31 2 4 4-1 0 0v-6c20-4 23-26 43-29 2 4 4 0 0 0 22-24 54-38 78-60 1 3 3 1 3 0 3-1 1-3 0-3 55-34 92-60 144-90 2 5 3 0 0 0 6-6 17-8 23-14 2 4 3 0 0 0 28-15 63-41 92-52 5-4 3-16 14-14v3c-4 1 1 3 0 0 4-1 2-3 0-3 0-3 3-4 3-6 17-13 40-20 52-37 7 6 12-14 23-12 0-3-4-3-8-3 13-9 28-16 46-20-1-2 0-6-3-6 12-9 23-19 37-26 1 9 16 6 18 0 8 5 13 13 25 15-1 2-6 10 3 8 14 17 38 25 44 49-23 14-44 30-61 49h-6c0-3-5-2-8-3-1-7 11-2 8-11 2-5 14 1 12-9 2 1 3-1 3-3 4 4 7 4 8-2 0-4 5-2 0 0-4-1-8-1-8 2-3 0-3 2-3 3-6 2-13 1-12 9-9 2-16 7-20 14-2 0-3 1-3 3-8 0-14 7-8 12 3-3 5-8 8-12 3 1 3-1 3-3 3 1 5 0 6-3 5 8 4 4 14 3-9 9-19 18-31 23-4 1-2-4 0 0-2 6-8 8-15 9 1-4 4-6 9-6-3-3-6-6-9-8-2 2-1 20-11 23 0-3-4-3-6-3 0 3 3 2 6 3-2 6-9 5-3 11-4 2 0 4 0 0 2 1 5 0 6 3-5 2 0 4 0 0h8c4 4 4 7 0 12 6 0 7-4 12-3 0 4 1 6 3 8-3 0-3 1-3 3-4 2 0 4 0 0 2 1 2-1 3-3h5c12 15 29 23 41 38 6 5 5 10 14 6-72 61-157 109-230 169-17 3-5 20-26 21v-3c2 0 2-1 3-3-3-1-3 1-3 3-4 0-2 3 0 3v5c-12-1-12 10-18 15-16 0-49 21-48 37-1 3-3 3-3 6-6 0-2 10-6 12-3-1-5 0-6 2-4 2 0 4 0 0h6v3c-3 0-3 1-3 3-5 0-7 2-9 6-6 1-12 3-14 9-5-1-8 2-9 5-2 0-2 1-3 3-3 0-5 1-5 3-4 1-2 3 0 3-1 4-5 4-6 9h-6c1-3 3-3 3-6 0-4 4-2 0 0h-6c0 3 1 5 3 6-6 8 6 3 0 14 27-17 62-29 84-58 8 4 11 0 14-8 22 3 61-32 92-52-2-3-6-11 3-9 5 7 16-3 15-11 12-1 19-8 25-15 4 1 6 0 6-3 6 0 10-1 12-5 5-13 22-13 29-23h5c0-4-5-3-5 0-6-1-7 3-12 3-3 0-2-5 0 0 0 2-4 2-6 2 0-2-3-2-6-2 0-7 9-4 9-9 10 0 13-8 23-9-5 6 0 4 0 12 3-2 10-15 0-12 2-6 14-3 15-11 3 0 5-1 5-3 9 0 15-3 18-9 6 1 7-2 11-3-1-6-11 1-11 3-8 2-14 4-18 9-3-1-5 0-5 3-14 2-21 12-35 14 24-22 64-28 89-49 5 1 6-2 6-6h3c-1-3-3-1-3 0-5-1-5 3-6 6-8-3-11-1-23 0 17-10 35-19 61-20 0 3 2 3 3 6-5 2 0 3 0 0 27 19 45 41 74 63-3 9-10 14-17 20 0-3-3-1-3 0-4 1-5 5-8 6-1-5 3-6 3-11-11 1-12 13-23 14-1-3 2-3 2-6 3 0 3-3 3-6-3 0-2 4-3 6-10-3-32 5-40 15-10-3-25 11-32 20-2-1-3-3-2-6-1-3 4-2 0 0-6 5-16 25-29 20-6 21-32 20-41 38-6 1-13 3-14 11-6 1-12 1-12 9-6 1-12 3-14 8 7-1 12-3 14-8 3-2 5-3 9-3 0 2-3 3-3 6 5 0 5-3 9-3 0 3 3 1 3 0 5 0 6-4 11-3 5 7 14-5 20-6-10-22 25-15 29-32 17 12 45 18 49 38 21-5 28 24 46 32 0 10-14 7-14 17-6 0-4 8-12 6 0-3 0-6-3-6-8 5-13 13-23 17 0-4-5-3-5-6 5 0 7-2 8-5-5-1-7 2-8 5-8 2-15 5-20 9-8 0-14-1-15 6-5 0-7 2-9 6-9 3-16 8-20 17-5 0-7 2-8 6-4-1-11 9-12 2-3 1-4 4-6 6-3 1-1 3 0 3 0 4-4 5-5 9-7 2-14 4-15 11-3 1-1 3 0 3v3c7 0 9-4 12-9 2 1 2-1 3-3h5v3c-4 2 1 4 0 0 4 0 2-3 0-3 1-3 4-5 3-11 3 0 4 2 6 3v6c9-3 12-12 23-6-6 6-14 9-17 17-7-1-13-6-15 3-2-1-2 1-2 3-3-1-3 1-3 3-3-1-3 1-3 3-4 1 0 3 0 0 2 0 2-2 3-3 2 0 2-1 3-3h2c3 8 9-4 18 0-3 7-17 4-20 11-7-1-8 2-12 3 0 3 4 2 6 3v6c-3-1-3 1-3 3-17 7-21 17-40 26 2 7 7-6 14-3-1 7-9 6-12 11-4 2 1 4 0 0 9 1 14-3 21-5 1 4 3-1 0 0 12 2 4-4 20-9 2 4 3 0 0 0 17-10 35-20 60-23 1 6-18 8-8 14-10 5-17 11-29 12 2-4 6-6 11-6-2-10-7 0-17-3 3 3 2 8 6 9-4 7-15 8-23 11-1-3-9-3-9 0-4 2 0 4 0 0h9c0 4-5 3-6 6-10 1-18 3-23 9 4 5 20-3 23-9 7 0 8 5 17 3-1 6-7 6-11 9 3 8 7-5 11 3-2 4-7 6-14 5v-8c-5 4-13 6-17 11 1 9 6-3 11 0 0 3-4 5 0 6-15 11-39 15-63 17-9-4 1-10-15-8 6-15-30-9-26-23-4 0-2 7-8 5-1-5 3-14-6-11-1-4-3-2-3 0-5-1-6-5-6-12-8 3-10-1-14-11-9 2-35 2-55 8 1-6-2-9-8-8-8-4-13-10-23-12 0-3 4-3 8-3-13 0-19-10-34-5-1-4-1-7-6-6 5-6 0-4 0-12-3 1-7 5-9 0 0-3 4-2 0 0-7 0-4-13-11-5-1-4-3-2-3 0h-3c1-8-11-3-9-12-13-2-24 8-34 0-10 0 6 10-3 9-11-1-8-6-3-9-7-7-8 7-20 3v-9c3 0 2-3 3-6-3 1-2 4-3 6h-3c-2-4-4-7-6-11-4 0-6 1-8 3-1-4-3-2-3 0-6-1-6 3-9 5-3 1-2-4 0 0-19 21-43 36-63 55-24 19-50 37-90 40-1-2-2-5-5-5-5-1-6 2-6 5h-9c3-8 3-8 0-17-5-1-6 3-11 3 0-5-2-6-6-3-19-14-28-23-52-26 2-10-3-15-6-6-7-36 21-51 32-77 2 4 4-1 0 0 4-5 12-6 9-18 7 1 12-1 11-8 3 0 3-1 3-3 7-3 9-10 9-20 8 7 12-10 17-15 25-23 40-55 69-75-1 5-4 8-6 12-2 0-2 3-5 3 0 3 3 2 5 3v3c-2-1-2 1-2 2-5 2 0 4 0 0 2 1 2-1 2-2 3 0 3-2 3-3 3 0 3-1 3-3 3 0 3-1 3-3 2 0 3-1 3-3 2 1 3-1 3-3 2 1 3-1 3-3 6-3 7-4 11-14 3 0 3-1 3-3 9 1 8-7 12-11 15 0 13-18 23-24 3 4 4 2 8 0-2-2-5-4-8-5 0-3 3-3 3-6 2 0 2-1 2-3 3 1 3-1 3-3 3 1 3-1 3-3h3c2 4 4 0 0 0-1-3-3-1-3 0-2 0-3 1-3 3-2 0-2 1-3 3-2 0-2 1-2 3-5-1-5 3-9 3 0 3 3 2 6 3v5c-12 9-20 4-26 18-3-1-3 1-3 3-3-1-3 1-3 3-2-1-3 1-3 2-2 0-3 2-3 3-9 5-13 15-23 20 2-10 11-14 15-23 8 0 10-6 14-11-4-6-13 5-14 11-84 58-143 140-231 193-12 1-13-4-23 0 9-14-11 0-9-17-3 1-5 4-5 9-4 0-3-5-6-6-3-8-8 4-12-3-7-6-23-16-28-14-2-10-11-8-18-6 5-7 6-5 3-14-6 0-6 7-8 11-10-1 8-14-6-11 6-15 20-23 23-41 10 2 10-5 11-11 6-4 10-10 12-18 13-7 16-24 29-31-6 19-23 27-29 46-6 1-6 7-9 11 8 1 8-6 9-11 4-1 4-5 9-6 0 3 2 2 2 0 3 1 3-1 3-3 4-1 6-4 6-8 3 0 3-2 3-3 4-3 9-5 9-12 3-1 6-4 5-9 3 1 3-1 3-2 4-2 6-4 6-9 2 0 3-1 3-3 3 0 1-3 0-3 0-5 2-7 6-8-1 4 2 4 3 8 2-1 5-2 5-6 3 1 3-1 3-2 0-4 4-2 0 0-2-1-3 1-3 2-3 1-5 0-5-2 2 0 2-2 2-3 3 0 3-1 3-3 3 0 3-1 3-3 4-1 6-4 6-9 2 1 3-1 3-3 2 1 3-1 3-2 2-1 3-3 5-3 2 4 4-1 0 0 2-3 3-5 3-9 3 1 3-1 3-3 3 1 3-1 3-3 3 1 3-1 3-3h3c0 4 3 2 3 0 3 0 1-3 0-3v-5c2 0 2-1 3-3 2 0 2-1 2-3 3 0 3-1 3-3 3 1 3-1 3-3 4 0 5 1 6 3-2 0-3 1-3 3-2-1-3 1-3 3-4 2 1 3 0 0 3 0 3-1 3-3 3 0 3-1 3-3 5-2 0-5 0-9 2 1 3-1 3-2 2 0 3-2 3-3h3c0 3 3 1 3 0 2 0 2-1 2-3 3 0 3-1 3-3 3 0 3-1 3-3 3 1 3-1 3-3 2 1 3-1 3-3 2 0 3-3 6-3 0 6-4 6-3 12-3-1-3 1-3 3-3-1-3 1-3 3-2-1-3 1-3 3-5 3-11 5-11 14-3-1-3 1-3 3-3-1-3 1-3 3-3-1-3 1-3 3-4 2-9 4-9 11-2 0-2 1-3 3-4-1-5 2-5 6-3-1-3 1-3 3-4 1 0 3 0 0 2 0 3-2 3-3 2-2 5-3 5-6 3 1 3-1 3-3 3 0 3-3 6-3 2 4 4 0 0 0 2-2 3-4 3-8 2 0 3-2 3-3 2 0 3-1 3-3 2 0 2-1 3-3 5-4 11-6 11-14 3 0 3-2 3-3 2 0 3-1 3-3 2 0 3-1 3-3 2-2 8-5 8 0-2-1-2 1-2 3-3-1-3 1-3 3-4 0-3 5 0 5v6c-3 0-3 1-3 3-3 0-3 1-3 3-3-1-3 1-3 3-2-1-3 1-3 3-2-1-3 1-3 3-4 1 1 3 0 0 3 0 3-2 3-3 3 0 3-1 3-3 2 0 3-1 3-3 2 0 3-1 3-3 2 1 3-1 3-3 2-1 5-2 5-6 3 1 3-1 3-2 3-1 3-4 3-6 3 0 3-1 3-3 3 0 3-1 3-3 2 1 3-1 3-3 2 1 3-1 3-3 2 1 2-1 3-3 2 1 2-1 2-2 3 0 3-2 3-3 3 0 3-2 3-3 3 0 3-1 3-3 3 0 3-1 3-3 2 1 3-1 3-3 2 1 3-1 3-3 2 1 2-1 3-3 2 1 2-1 3-3 2 1 2-1 2-2 3 0 3-2 3-3 0-4 4-2 0 0-2-1-2 1-3 3-2-1-2 1-2 2-3 0-3 2-3 3-3 0-3 1-3 3-3 0-3 1-3 3-3 0-3 1-3 3-2-1-3 1-3 3-2-1-3 1-3 3-2-1-2 1-3 3-2-1-2 1-3 3-2-1-2 1-2 2-3 0-3 2-3 3-3 0-3 1-3 3-3 0-3 1-3 3-2-1-3 1-3 3-2-1-3 1-3 3-3 0-2 3-3 6-2-1-2 1-3 2h-5v-5c2 0 2-1 3-3 2 0 2-1 2-3 3-1 6-3 6-6s4-2 0 0c-12 1 3-10 6-11v5c4 0 3-5 0-5 4-10 16-11 17-23 9-1 11-7 15-12 2 1 2-1 3-3 2 1 2-1 2-3 3 1 3-1 3-3 3 1 3-1 3-2 3 0 3-2 3-3 7 0 9-5 12-9 2 1 2-1 2-3 3 1 3-1 3-3 3 1 3-1 3-3 3 1 3-1 3-2 5 1 6-3 6-6 7 0 9-5 11-9 3 1 3-1 3-3 7 1 9-4 12-8-7-1-9 4-12 8-2 0-2 1-3 3-7 0-9 5-11 9-3 1-5 2-6 6-2-1-3 1-3 2-2 0-3 2-3 3-2 0-2 1-3 3-2 0-2 1-2 3-8 0-9 4-12 9-2-1-3 1-3 3-2-1-3 1-3 2-2 0-2 2-3 3-2 0-2 1-2 3-3 0-3 1-3 3h-6v-6c2-1 5-2 6-5 5 1 5-3 5-6 3 0 3-1 3-3 3 0 3-1 3-3 0-3 4-2 0 0-2-1-3 1-3 3-2-1-2 1-3 3-2 1-5 2-5 6h-6v-3c7-4 10-8 3-12 2 1 2-1 3-3 2 1 2-1 3-3h5c2 5 4 0 0 0 2-2 3-5 6-5 1 3 3 1 3 0 3-1 2-6 3-9 2 1 3-1 3-3 2 1 2-1 3-3 2 1 2-1 2-3 4 1 6 0 6-3s4-1 0 0c-3 0-5 1-6 3-2 0-2 1-2 3-3 0-3 1-3 3-3 0-3 1-3 3-3 2-5 3-9 3 12-17 30-28 43-43 8 0 9-5 12-9 5 1 5-2 6-6-1-3 4-2 0 0-3 2-6 3-6 6-7 0-9 4-12 9-39 18-66 49-103 69-1-4-6-3-6 0-3-1-5 0-6 3 1 4 5 0 6-3h6c-34 25-76 66-124 57-4 0-3-4-3-8-3 0-7 5-9 0 4-1 3-5 3-9-7 6-15-4-14 6-8-8-9-17-29-17v-9c-3 0-3 2-6 3 1-4-13-13-14-3-7-4-5-7-3-14-4 1-6 3-6 8-10-3 1-14-6-17 15-34 40-56 61-84-9-5-11-9-23-5 0-3-2-4-3-6 3-1 2-3 0-3-7-9-27-4-23-23-11 10-9-2-17-9-4 1-3 5-3 9-2-17-20-29-26-26-3-20 16-48 32-66 0-10-10-10-12-17 0-11 10-10 12-18-6-6-10 14-21 12 0-5 12-13 0-12 67-64 140-137 216-181-2-1-2 1-2 3 2 0 2-1 2-3 23-16 83-82 110-41Zm-72 26c-3 0-3 2-3 3-3 0-5 1-6 3-7 0-9 5-11 9-3-1-3 1-3 3-5 0-8 2-9 5-2 0-3 2-3 3-2 0-2 1-3 3-4 2 1 4 0 0 3 1 3-1 3-3 3 1 3-1 3-3 5 1 8-2 9-5 2 0 3-1 3-3 7 0 9-5 11-9 4 1 5 0 6-3 2 1 3-1 3-3 4-1 0-3 0 0Zm279 6c-1-1 2 2 0 0Zm-11 6c-2-1 2 2 0 0Zm-20 14c-12-2-1 9 0 0-1-3 4-1 0 0Zm-18 3c-1-1 2 2 0 0Zm-8 3c-5 2 0 4 0 0-1-3 4-2 0 0Zm2 6c-15 4-26 12-40 17-3 0-2-4 0 0 0 3-12 6-3 9 8-5 16-9 26-12-13 14-37 17-49 32-11 4-23 7-29 17-3 0-5 1-5 3-5 0-8 2-9 6-15 5-28 12-37 23 13-7 27-13 37-23 5 0 7-2 9-6 3 1 5-1 5-3 12-3 22-9 29-17 22-8 41-19 58-32 3 1 5 0 6-3 0-8 12 3 0 0-4 0-6 1-6 3h-9c4-6 15-7 17-14 5-1 21-4 12-9-1 6-13 1-12 9Zm-288-3c-1-1 2 2 0 0Zm18 0c-3-1-3 1-3 3-4 2 0 3 0 0 2 0 3-1 3-3 4-2-1-4 0 0Zm553 6c-12-3-1 8 0 0 0-9 12 2 0 0Zm-568 5c-2 0-2 2-3 3-3 0-5 1-5 3-3 0-3 1-3 3-3 0-3 1-3 3-2-1-3 1-3 3-12-3-1 8 0 0 3 0 3-1 3-3 2 1 3-1 3-3 2 1 3-1 3-3 3 1 5 0 5-3 3 1 3-1 3-3 5-1 0-3 0 0Zm257 0c-2-1 2 2 0 0Zm34 0c-1-1 2 2 0 0Zm257 3c-12-2-1 9 0 0 3-8 15 3 0 0Zm20 0c-9 0-15 3-18 9 8-1 14-4 18-9 15 3 3-8 0 0Zm-596 6c-5 2 0 4 0 0-1-3 4-2 0 0Zm558 0c-4 2 1 4 0 0 4-9 16 3 0 0Zm-26 6c-4 2 1 3 0 0 1-9 12 3 0 0Zm18 0c-2-1 2 2 0 0Zm23-3c-3 1-6 0-6 3 2-1 6 0 6-3Zm-329 9c1 11-13 7-14 17 12-4 36-12 32-23-5 4-11 12-18 6Zm-259 0c-1-2 2 2 0 0Zm15 3c-5-1-8 2-9 5-3 0-3 1-3 3-2 0-3 1-3 3-4 2 0 4 0 0 3 1 3-1 3-3 2 1 3-1 3-3 5 0 7-2 9-5 4-2-1-4 0 0Zm440 23c-4 1 0 3 0 0 12-6 21-14 29-23-15 6-20 7-29 23Zm64-21c-12-2-1 9 0 0 0-8 12 3 0 0Zm23 0c-2-1 1 2 0 0Zm-147 3c-1-1 2 2 0 0Zm60 0c4 10 7-11 0 0Zm-438 3c-2 0-2 1-2 3-5 2 0 4 0 0 2 1 2-1 2-3 5-2 0-3 0 0Zm502 3c-12-3-1 9 0 0-1-3 4-2 0 0Zm-78 9c0-4 5-7 0-9-1 3-5 7 0 9Zm-285-6c-3 1-6 0-6 3 2-1 6 0 6-3Zm83 3c-1-1 2 2 0 0Zm87 0c-2-1 1 2 0 0Zm54 0c-1-1 2 2 0 0Zm130-3c-3-3-8 2-9 3-2 5 11-1 9-3Zm-92 9c-7-1-9 2-9 8-3-8-18 8-6 6 2 4 4 0 0 0 1-3 6-2 6-6 6 1 9-2 9-8 11-1-1-13 0 0Zm-274 0c4 9 7-12 0 0Zm69 5c-3 1-1-4 0 0-2 5-10 5-11 12-9-2-12 3-15 8h-8c-4 1-2-4 0 0-17 13-37 26-61 38-3 0-2-4 0 0-9 11-21 17-34 17-4 16-25 14-29 29-4 2 0 3 0 0 15-2 19-15 34-17v3c-2-1-2 1-2 2-5 0-8 3-9 6-5 0-8 2-9 6-5 0-9 2-11 6-3-1-3 1-3 3-5-1-8 2-9 5-4 2 1 4 0 0 5 1 8-2 9-5 2 0 3-2 3-3 6 1 11-1 11-6 5 0 8-2 9-6 5 0 7-2 9-6 2 1 2-1 2-2 6 3 14-5 6-6 0 3-3 2-6 3 7-11 20-15 32-20-1 3-5 4-6 8-3 0-5 1-5 3-4 0-6 1-6 3-4 2 0 3 0 0 3 0 5-1 6-3 3 1 5-1 5-3 6 2 18-10 6-8 15-14 32-25 52-32 1 7-8 3-9 9-5-1-7 2-8 5-5 0-8 2-9 6-5 0-7 2-9 6-3-1-5 0-5 3-5 1 0 3 0 0 3 0 5-1 5-3 5 0 8-2 9-6 5 0 7-2 9-6 5 0 7-2 8-5 8 3 21-10 9-9 0-10 15-5 14-15 7 0 13-2 15-8 13-5 26-10 34-20-12-2-12 8-23 8Zm162-8c-3 0-6 0-6 3 2-1 5-1 6-3Zm72 3c-5 1 0 3 0 0-1-4 4-2 0 0Zm-464 2c-4 2 0 4 0 0 0-3 4-1 0 0Zm14 0c-2 0-2 2-3 3-4 2 1 4 0 0 3 1 3-1 3-3 4-1 0-3 0 0Zm441 3c-3 0-5 1-6 3-2 0-3 1-3 3-2 0-2 1-3 3-4 2 1 3 0 0 3 0 3-1 3-3 3 1 3-1 3-3 3 1 5 0 6-3h3c-3 14 13-3 0 0-1-3-3-1-3 0Zm127 0c-2-1 2 2 0 0Zm-366 6c-1-1 2 2 0 0Zm190 6c-4 2 0 3 0 0 1-12 13 0 0 0Zm107-3c-2-1 1 2 0 0Zm11 0c-1-1 2 2 0 0Zm-527 3c-1-1 2 2 0 0Zm539-3c-3 1-6 0-6 3 2-1 5 0 6-3Zm-335 6c-1-2 2 2 0 0Zm234 0c-4 1 0 3 0 0-1-4 4-2 0 0Zm-199 11c-7 1-12 3-14 9-7 1-13 3-15 9-11 3-21 9-29 17-4 0-7 2-8 6-5-1-8 2-9 5-7 1-12 3-14 9-7 1-13 3-15 9-19 3-38 32-51 23 2 14-13 10-15 20-3-1-5 0-6 3-2-1-2 1-3 3-3-1-5 0-5 2h-6v-2c0-4 4-2 0 0-3 0-2 2 0 2-1 3-3 3-3 6-5 0-7 2-9 6-6-1-24 11-11 11-1 3 1 3 3 3-6 10-30 13-26 23 5 4 14-6 20-5-4-6 14-15 23-18 0 3-3 3-3 6-4 2 0 4 0 0 5 0 8-2 9-6 0-3 4-1 0 0h-6c4-5 10-9 17-11 0 2-3 3-3 6-4 1 1 3 0 0 6 1 7-6 3-6 26-14 50-31 69-52 8-2 28-12 15-17 0-3 3-3 3-6h6c1 4 3 0 0 0 0-6 9-2 8-9h6c1 3 2 5 6 6-2-6 8-9-3-9v-2c5 0 7-3 8-6 12-1 16-10 26-12 2 4 4 0 0 0 1-2 3-3 3-5 7-1 13-3 15-9 6-1 12-3 14-9 9-1 14-5 17-11-8 1-13 5-17 11Zm179-8c-2-2 1 1 0 0Zm77 0c-4 1 1 3 0 0 0-4 5-2 0 0Zm179 2c-1-1 2 2 0 0Zm-279 3c-5 2 0 4 0 0-1-3 4-1 0 0Zm14 0c-1-1 2 2 0 0Zm-66 3c-1-1 2 2 0 0Zm43 3c-1-1 2 2 0 0Zm274 3c-5 0-8 2-9 6-3-1-3 1-3 3-2-1-3 1-3 3-4 0-4 8 0 8 4-4 1-4 0-8 3 0 3-2 3-3h3c2 4 3-1 0 0v-3c5 1 5-3 9-3v3h5c1-3 3-3 3-6-3-1-2-6-6-6 0 3-2 3-2 6Zm-119 0c-1-1 2 2 0 0Zm162 0c-1-1 2 2 0 0Zm-599 3c-2-1 2 2 0 0Zm149 0c-1-1 2 2 0 0Zm81-3c-2 1-6 0-6 3 3-1 6 0 6-3Zm340 3c-1-1 2 2 0 0Zm-703 3c-1-1 2 2 0 0Zm401 0c-2-1 1 2 0 0Zm322 0c4 9 7-11 0 0Zm-455 6c-1-2 2 1 0 0Zm285 0c-1-2 2 1 0 0Zm-213 2c-1-1 2 2 0 0Zm43 3c-2 0-2 1-3 3-4 2 1 4 0 0 3 1 3-1 3-3 13 1 1-11 0 0Zm153-3c-3 2-5 3-6 6-4 2 0 4 0 0 5 1 6-2 6-6 4-1 0-3 0 0Zm181-2c-2 0-5 0-5 2 2 0 5 0 5-2Zm-52 5c-1-1 2 2 0 0Zm-414 3c-1-1 2 2 0 0Zm75 9c0-4 5-7 0-9-1 4-5 7 0 9Zm193-6c4 10 7-11 0 0Zm103 0c-10 3-18 9-23 17-5 0-7 2-8 6-5 0-8 2-9 6-12-3-1 8 0 0 5 1 5-3 9-3 1 4 3 0 0 0v-3c5 0 7-2 8-6 10-3 18-9 23-17h6c2 4 4 0 0 0-1-4-6-3-6 0Zm41-3c-3 1-6 0-6 3 2-1 6 0 6-3Zm-291 6c-1-1 2 2 0 0Zm31 0c-1-1 2 2 0 0Zm130 0c-4 2 0 3 0 0 0-4 4-2 0 0Zm-432 3c-1-1 2 2 0 0Zm550 0c-3-1-5 0-6 3-4 1 1 3 0 0h6v3c-4 1 0 3 0 0 3-1 2-3 0-3v-3c12 3 1-9 0 0Zm-291 6c-4 1 0 3 0 0 1-12 13 0 0 0Zm262-3c-1-2 2 2 0 0Zm-124 3c-4 1 1 3 0 0 1-9 12 2 0 0Zm35 0c-1-2 2 1 0 0Zm-251 2c-1-1 2 2 0 0Zm58 0c-1-1 2 2 0 0Zm297 0c-7 10 9-7 0 0Zm-285 3c-13 0-1 12 0 0-1-3 4-1 0 0Zm135 3c-4 2 0 4 0 0-3-12 9 0 0 0Zm135-3c-1-1 2 2 0 0Zm-242 6c5 0 8-2 9-6-5 0-7 3-9 6Zm-40 3c-1-1 2 2 0 0Zm26 0c-1-1 2 2 0 0Zm127 0c-2-1 2 2 0 0Zm135 0c4 9 7-11 0 0Zm-544 6c-4 1 0 3 0 0-1-13 11-1 0 0Zm319-3c-1-1 2 2 0 0Zm401 0c-1-1 2 2 0 0Zm-697 3c-4 1 0 3 0 0 0-9 12 2 0 0Zm224 0c-1-2 2 2 0 0Zm150 0c-4 1 0 3 0 0 0-4 4-2 0 0Zm-392 3c-4 1 1 3 0 0 0-4 5-2 0 0Zm98 0c-1-2 2 1 0 0Zm139 0c-2-2 2 1 0 0Zm282 0c-1-2 2 1 0 0Zm9 0c-2-2 1 1 0 0Zm48 0c-1-2 2 1 0 0Zm-601 8c-3 0-3 1-3 3-3 0-3 1-3 3-3-1-3 1-3 3-3-1-3 1-3 3-2-1-3 1-3 3-2-1-3 1-3 3-2-1-2 1-3 2-2 0-2 2-2 3-3 0-3 1-3 3-3 0-3 1-3 3-4 2 0 4 0 0 2 1 2-1 3-3 2 1 2-1 3-3 2 1 2-1 2-3h3c-2 12 9 1 0 0v-2c3 0 3-2 3-3 3 0 3-2 3-3 2 0 3-1 3-3 2 0 3-1 3-3 2 1 3-1 3-3 2 1 2-1 3-3 7 1 9-4 11-8-7-1-9 4-11 8Zm213-6c-2-1 2 2 0 0Zm190 3c-3 0-3 1-3 3-7-1-20 5-12 9 2 4 4 0 0 0 1-6 13-1 12-9 2 1 3-1 3-3 5 0 7-2 8-5-5-1-7 2-8 5Zm103-3c-1-1 2 2 0 0Zm-342 3c-1-1 2 2 0 0Zm374 6c-4 2 0 4 0 0 3-1 15-6 6-9-1 4-13 0-6 9Zm-253-6c-3 1-6 0-6 3 2 0 6 0 6-3Zm213 3c-1-1 2 2 0 0Zm23 0c-1-1 2 2 0 0Zm161 0c-1-1 2 2 0 0Zm-371 3c-2-1 1 2 0 0Zm132 0c-7 10 10-7 0 0Zm-173 3c-1-1 2 2 0 0Zm193 0c-1-1 2 2 0 0Zm26 0c-2-1-3 1-3 3-3-1-5 0-5 3-3-1-3 1-3 3-5-1-8 2-9 5-2 0-3 2-3 3-13 0-1 12 0 0 3 1 3-1 3-3 5 1 7-2 9-5 2 0 2-2 3-3 3 0 5-1 5-3 3 0 3-1 3-3 4-2 0-3 0 0Zm225 0c-4 2 0 3 0 0-1-3 4-2 0 0Zm-412 3c-1-1 2 2 0 0Zm-446 3c-3 0-3 3-6 3v5h6c2 1 2-1 2-2-2-1-2-4-2-6 4-2-1-4 0 0Zm440 0c-1-1 2 2 0 0Zm380 0c-1-1 2 2 0 0Zm-305 3c4 9 7-12 0 0Zm311 5c-3 0-5 1-6 3-4 2 1 4 0 0 4 1 5 0 6-3 13 1 1-11 0 0Zm-320 0c-1-1 2 2 0 0Zm130 0c-1-1 2 2 0 0Zm20 0c-1-1 2 2 0 0Zm-276 3c-1-1 2 2 0 0Zm109 0c-1-1 2 2 0 0Zm12 0c-2-1 2 2 0 0Zm83 0c-1-1 2 2 0 0Zm-92 6c-3 1-2 3 0 3 2 4 4 0 0 0v-3h6c2 4 3 0 0 0 2-9-6-4-6 0Zm86-3c-1-1 2 2 0 0Zm87 0c-1-1 2 2 0 0Zm-6 3c-1-1 2 2 0 0Zm20 0c-1-1 2 2 0 0Zm-518 3c-1-1 2 2 0 0Zm409 0c-3-1-3 1-3 3-4 2 0 3 0 0 2 0 3-1 3-3 12 3 0-9 0 0Zm26 0c-3-1-3 1-3 3-3-1-3 1-3 3-5 0-8 2-9 5-2 0-2 2-3 3-3 0-5 1-5 3-5-4-7-2-6 6-5 0-8 2-9 6-2-1-2 1-3 3-4 1 1 3 0 0 3 0 3-2 3-3 5 0 8-2 9-6 2-1 5-3 6-6 3 1 5 0 5-3 3 1 3-1 3-3 5 1 8-2 9-5 2 0 3-1 3-3 2 0 3-1 3-3 4-2-1-4 0 0Zm89 0c-1-1 2 2 0 0Zm-518 3c-5 2 0 3 0 0-1-4 4-2 0 0Zm639 0c-1-1 2 2 0 0Zm-323 0c-2 0-5 0-5 3 2-1 5 0 5-3Zm190 0c-2 0-5 0-5 3 2-1 5 0 5-3Zm-135 6c-5-1-7 2-9 5-4 2 1 4 0 0h6c0 3-3 3-3 6-2 0-2 1-3 3-4 2 1 3 0 0 3 0 3-1 3-3 7 2 14-8 3-6 1-2 3-3 3-5 12 2 1-9 0 0Zm-69 8c-4 2 0 4 0 0-3-17 17 0 0 0Zm161-8c-2 0-5 0-5 2 2 0 5 0 5-2Zm182 0c-3 0-6 0-6 2 2 0 6 0 6-2Zm-349 5c-6 8-14 0-20 12-2-1-3 1-3 3-4 1 0 3 0 0 3 0 3-1 3-3 7-1 11-5 20-3v-9c4-1 0-3 0 0Zm90 0c-12-2-1 9 0 0-1-3 4-1 0 0Zm100 3c-4 2 1 4 0 0-2-12 9 0 0 0Zm-659 0c-4 2 0 4 0 0-1-3 4-2 0 0Zm803 0c-4 2 1 4 0 0 1-8 12 3 0 0Zm118-3c-2 1-5 0-5 3 2 0 5 0 5-3Zm-483 9c-2-1 1 2 0 0Zm86 0c-2-1-3 1-3 3-9 1-12 8-17 14-7 0-9 5-12 9-2-1-2 1-3 3-4 2 1 3 0 0 3 0 3-1 3-3 7 0 9-5 12-9h6v3c-3 0-3 1-3 3-3-1-3 1-3 3-4 2 0 3 0 0 2 0 3-1 3-3 2 1 2-1 3-3 3 0 1-3 0-3 2-6 9-7 11-14 3 0 3-1 3-3 12 3 1-9 0 0Zm23 0c-5 0-7 2-9 6-2-1-2 1-3 3-11-3 0 8 0 0 3 0 3-2 3-3 5 0 8-2 9-6 4-2 0-4 0 0Zm69 0c-2-1-3 1-3 3-5 0-7 2-8 6-5 1 0 3 0 0 5 0 7-3 8-6 3 0 3-1 3-3 4-2 0-4 0 0Zm26 6c5 0 7-3 9-6-5 0-8 2-9 6Zm245 5c-4 2 0 4 0 0 10 1 11-14 17-2v-9c-12-3-14 5-17 11Zm-406-8c-2 0-6 0-6 3 2-1 6 0 6-3Zm360 3c-1-2 2 2 0 0Zm43 0c-5 0-8 2-9 5-3 0-5 1-5 3-3 0-3 1-3 3-5 0-8 2-9 6-4 2 0 3 0 0 5 0 7-2 9-6h3v6c-5 2 0 3 0 0 5 1 17-5 8-9 0 4-5 3-8 3v-3c3 1 5 0 5-3 5 1 8-2 9-5 4-2 0-4 0 0Zm-360 3c-1-2 2 1 0 0Zm95 0c-1-2 2 1 0 0Zm-66 2c-1-1 2 2 0 0Zm-424 3c-4 2 1 4 0 0 0-3 5-1 0 0Zm300 3c5 0 7-2 9-6-5 0-8 3-9 6Zm32-3c4 10 7-11 0 0Zm57 0c-1-1 2 2 0 0Zm271 0c-1-1 2 2 0 0Zm-196 3c-1-1 2 2 0 0Zm164 0c-1-1 2 2 0 0Zm-340 12c7 2 12-11 6-12-1 4-4 7-6 12Zm72-9c-1-1 2 2 0 0Zm55 0c-2 0-3 1-3 3-2-1-2 1-3 3-4 2 1 3 0 0 3 0 3-1 3-3 3 1 3-1 3-3 4-2 0-3 0 0Zm225 0c-1-1 2 2 0 0Zm-248 0c-2 1-6 0-6 3 3-1 6 0 6-3Zm75 3c-2-1-3 1-3 3-4 2 0 3 0 0 3 0 3-1 3-3 4-2 0-3 0 0Zm253 0c-1-1 2 2 0 0Zm-699 3c-7 10 9-7 0 0Zm57 0c4 9 7-11 0 0Zm236 0c-1-1 2 2 0 0Zm401 0c-7-2-14 8-3 6-1 2-3 2-3 5-6-2-13 8-3 6-3 12 9 1 0 0 1-2 3-3 3-6 5 1 5-2 6-5h5c1 4-2 5-2 8h5c1-2 3-3 3-5 3 0 3-2 3-3 1-9 12 2 0 0-2-1-3 1-3 3-2-1-3-3-6-3v-3c0-4 5-2 0 0h-5v-3c4-2-1-4 0 0Zm-444 3c-1-1 2 2 0 0Zm9 0c4 9 7-11 0 0Zm66 0c-7-1-9 4-12 8-2 0-2 2-2 3-5 2 0 4 0 0 2 1 2-1 2-3 8 1 9-4 12-8 4-2 0-4 0 0Zm104 0c-5 2 0 3 0 0-1-4 4-2 0 0Zm305 0c3 11 3-12 0 0Zm-544 3c-2-2 2 2 0 0Zm57-3c-2 0-5 0-6 3 3-1 6 0 6-3Zm32 6c-3-1-5 0-6 2-2 0-3 2-3 3-3 0-5 1-5 3-4 0-6 1-6 3-5-1-6 2-6 6-3-1-5 0-6 3-3-1-5 0-6 3-3-1-5 0-5 2-3 0-3 2-3 3-5 0-8 2-9 6-3 0-5 1-6 3-7-1-9 4-11 9-4 1 0 3 0 0 7 0 9-5 11-9 4 0 6-1 6-3 5 0 8-2 9-6 2 1 3-1 3-3 3 1 5 0 5-2 4 0 6-1 6-3 4 0 5-1 6-3 3-1 5-3 6-6 3 0 5-1 6-3 3 1 5 0 5-3 3 1 3-1 3-3 3 1 5 0 6-2 5 0 7-3 9-6-5 0-8 2-9 6Zm66-3c-2-1-3 1-3 3-2-1-2 1-3 2-2 0-2 2-2 3-13 0-1 12 0 0 2 1 2-1 2-3 3 1 3-1 3-2 3 0 3-2 3-3 4-2 0-4 0 0Zm89 0c-1-2 2 2 0 0Zm288-3c-2 0-5 0-5 3 2-1 5 0 5-3Zm-720 6c-1-2 2 1 0 0Zm248 8c0-6 8-4 6-11-7-3-13 9-6 11Zm81-8c-1-2 2 1 0 0Zm26-3c-3 0-6 0-6 3 2-1 6-1 6-3Zm11 8c-2 0-3 1-3 3-2 0-2 1-3 3-8 0-10 7-14 12 8-1 11-7 14-12 3 1 3-1 3-3 3 1 3-1 3-3 7-1 13-3 15-8-7 1-13 3-15 8Zm49-3c-1-1 2 2 0 0Zm176 0c-4 2 0 4 0 0 0-3 4-1 0 0Zm75 0c-1-1 2 2 0 0Zm8 0c-2 0-2 2-3 3-4 2 1 4 0 0 3 1 3-1 3-3 5-1 0-3 0 0Zm-697 3c-1-1 2 2 0 0Zm12 0c-4 2 0 4 0 0 0-3 4-2 0 0Zm331 0c4 10 7-11 0 0Zm23 0c-1-1 2 2 0 0Zm-386 3c-2 0-2 1-3 3-4 2 1 4 0 0 3 1 3-1 3-3 12 3 1-8 0 0Zm274 3c5 0 7-2 8-6-4 0-7 2-8 6Zm176-3c-2-1 1 2 0 0Zm34-3c-2 1-6 0-6 3 3-1 6 0 6-3Zm274 3c-2-1 2 2 0 0Zm-401 3c-2-1-2 1-3 3-2-1-2 1-2 3-9 0-11 6-15 11-2 0-3 1-3 3-5 0-7 2-8 6-3-1-3 1-3 3-3-1-3 1-3 3-3-1-3 1-3 3-3-1-5 0-6 2-2 0-2 2-3 3-2 0-2 1-2 3-5 0-8 2-9 6-3-1-3 1-3 3-2-1-3 1-3 3-2-1-3 1-3 3-5-1-7 2-8 5-3 0-3 2-3 3-4 2 0 4 0 0 2 1 2-1 3-3 5 1 7-2 8-5 3 0 3-2 3-3 3 0 3-1 3-3 2 0 3-1 3-3 5 0 7-2 9-6 2 1 2-1 2-3 3 1 3-1 3-3 4 1 5 0 6-2 2 0 3-2 3-3 2 0 3-1 3-3 2 0 3-1 3-3 5 0 7-2 8-6 3 1 3-1 3-3 9 0 11-6 15-11 2 0 2-1 2-3 3 0 3-1 3-3 5-2 0-3 0 0Zm-103 3c-5 2 0 3 0 0-1-4 4-2 0 0Zm14 0c-7 10 10-7 0 0Zm14 0c-1-1 2 2 0 0Zm58 0c-2-1-3 1-3 3-2-1-3 1-3 3-2-1-2 1-3 3-4 1 1 3 0 0 3 0 3-2 3-3 3 0 3-1 3-3 3 0 3-1 3-3 4-2 0-4 0 0Zm363 0c-4 2 0 3 0 0h3c-3 13 13-3 0 0-1-3-3-2-3 0Zm20 3c-3 0-6-13-9-3 3 0 6 12 9 3Zm26-3c-4 2 0 3 0 0 0-4 4-2 0 0Zm-731 3c-2-1 1 2 0 0Zm259 0c-3-1-3 1-3 3-4 1 0 3 0 0 2 0 3-1 3-3 4-2-1-4 0 0Zm397 3c-1-2 2 2 0 0Zm15-3c-3 0-6 0-6 3 2-1 5 0 6-3Zm5 3c-1-2 2 2 0 0Zm-547 3c-1-2 2 1 0 0Zm550 2c-1-1 2 2 0 0Zm9 3c-13 0-1 12 0 0 1-11 13 1 0 0Zm-412-3c-2 1-6 0-6 3 2 0 6 0 6-3Zm86 3c-2 0-2 1-2 3-3 0-3 1-3 3-8 0-9 4-12 9 7 0 9-5 12-9 2 1 2-1 3-3 2 1 2-1 2-3 5-1 0-3 0 0Zm-60 3c-1-1 2 2 0 0Zm26 0c-1-1 2 2 0 0Zm8 0c-1-1 2 2 0 0Zm64 0c4 10 7-11 0 0Zm262 0c-1-1 2 2 0 0Zm52 0c-1-1 2 2 0 0Zm-496 3c-1-1 2 2 0 0Zm438 0c-4 2 0 4 0 0 0-3 4-2 0 0Zm12 0c-2-1 2 2 0 0Zm-452 6c0 3 2 1 2 0 4 0 6-1 6-3 0-4 4-2 0 0-3-1-5 1-6 3h-2c2-12-9-1 0 0Zm43 0c-1-1 2 2 0 0Zm11 0c-2-1-2 1-3 3-2-1-2 1-3 3-2-1-2 1-2 2-3 0-3 2-3 3-4 0-5 1-6 3-2 0-3 1-3 3-2 0-3 1-3 3-2-1-3 1-3 3-3-1-5 0-5 3-3-1-3 1-3 3-3-1-3 1-3 3-4 1 0 3 0 0 2 0 3-2 3-3 2 0 2-2 3-3 3 0 5-1 5-3 3 0 3-1 3-3 3 1 3-1 3-3 3 1 3-1 3-3 3 1 5 0 6-3 2 1 2-1 3-3 2 1 2-1 2-2 3 0 3-2 3-3 3 0 3-1 3-3 12 3 1-9 0 0Zm-78 3c-1-2 2 2 0 0Zm55 0c-1-2 2 2 0 0Zm75 0c-1-2 2 2 0 0Zm66 0c-1-2 2 2 0 0Zm303 3h5v-6h-5v6Zm-484-3c-2 0-6 0-6 3 2-1 6 0 6-3Zm101 3c-3-1-3 1-3 2-4 2 0 4 0 0 2 1 3-1 3-2 4-2-1-4 0 0Zm207 0c-4 1 0 3 0 0 1-9 12 2 0 0Zm-274 2c-7 10 10-6 0 0Zm303 0c-1-1 2 2 0 0Zm92 0c-1-1 2 2 0 0Zm-446 3c-3 0-3 1-3 3-4 1-2 3 0 3 1 4 3 0 0 0v-3c2 1 2-1 3-3 12 3 0-8 0 0Zm26 3c-8 1-11 6-15 9-2-1-3 1-3 3-12-3 0 8 0 0 3 0 3-1 3-3 9 1 12-4 15-9 4 0 7-2 8-6-5 0-7 3-8 6Zm290-3c-1-1 2 2 0 0Zm199 0c-1-1 2 2 0 0Zm-432 3c-1-1 2 2 0 0Zm58 0c-3 0-3 1-3 3-3 0-3 1-3 3-7-1-9 4-12 9-2-1-2 1-2 3-3-1-3 1-3 2-5 0-8 3-9 6-2 0-3 1-3 3-2-1-3 1-3 3-2-1-2 1-3 3-5 0-7 2-8 6-4 1 0 3 0 0 5 0 7-3 8-6 3 0 3-1 3-3 3 0 3-1 3-3 3 1 3-1 3-3 5 0 7-2 9-6 2 1 2-1 3-2 2 0 2-2 2-3 8 0 9-5 12-9 2 1 3-1 3-3 2 1 3-1 3-3 12 3 0-8 0 0Zm270-3c-2 1-5 0-5 3 2 0 5 0 5-3Zm38 3c-1-1 2 2 0 0Zm83 0c-3 0-5 1-5 3-3 0-3 1-3 3-4 2 0 3 0 0 2 1 2-1 3-3 3 1 5-1 5-3 5-2 0-3 0 0Zm-544 3v3c-5 0-7 2-9 6-2-1-2 1-2 3-5-1-8 2-9 5-3 0-3 2-3 3-3 1-2 3 0 3 1 3 3 2 3 0 2 1 3-1 3-3 3 0 2-5 6-5 1 4 3-1 0 0v-3c2 0 2-2 2-3 5 0 8-2 9-6 3-1 2-3 0-3-3-9-15 3 0 0Zm43 6c-11-1-13 6-17 11-5 0-7 3-9 6-7-2-13 13-17 6 1-6 8-6 9-12-1-3 4-1 0 0-8 2-14 6-18 12-7 0-10 5-14 9 9 1 12-4 14-9 4 1 6 4 6 9-4 1 0 3 0 0 9-3 16-8 20-15 5 0 8-2 9-6 8-1 13-5 17-11 8 0 10-5 15-9-9-1-12 4-15 9Zm150-6c-1-1 2 2 0 0Zm219 0c-3 0-3 1-3 3-2-1-3 1-3 3-5 0-7 2-8 6-9 2-15 6-18 14-8 2-14 7-17 14-5 0-8 3-9 6h-5v6c-5-1-6 2-6 6-5 0-8 2-9 5-2 0-3 2-3 3-8 1-10 7-14 12-3-1-3 1-3 3-8 0-11 6-14 11-3 0-3 1-3 3-7 0-9 5-12 9 7 0 9-5 12-9 2 1 2-1 3-3 8 0 10-6 14-11 2 0 3-1 3-3 8 0 11-7 14-12 3 1 3-1 3-3 5 1 8-2 9-5 2-2 5-3 6-6 4 1 5-2 5-6 5 0 8-2 9-6 5 1 5-2 9-2 1 4 3-1 0 0 0-6 7-6 8-12 10-1 13-9 18-14 4 0 7-3 8-6 3 0 3-1 3-3 2 1 3-1 3-3 4-2 0-3 0 0Zm-334 3c3 11 3-11 0 0Zm233 6h-3c-1-8-20 6-11 8 3-4 7-5 11-8 1 3 3 1 3 0h3c2-3 4-8 0-9-2 2-3 5-3 9Zm190-6c-1-1 2 2 0 0Zm12 0c-3-1-3 1-3 3-4 2 0 3 0 0 2 0 3-1 3-3 4-2-1-3 0 0Zm-769 6c-1-1 2 2 0 0Zm308 0c-3-1-3 1-3 3-2-1-3 1-3 3-4 1 0 3 0 0 3 0 3-2 3-3 2 0 3-2 3-3 4-2 0-4 0 0Zm360 0c-4 2 0 3 0 0 0-4 4-2 0 0Zm104 0c-2-1 1 2 0 0Zm11 0c-4 2 0 3 0 0 0-4 4-2 0 0Zm-26 3c-4 1 0 3 0 0 0-4 4-2 0 0Zm38 0c-2-2 2 2 0 0Zm11 0c-1-2 2 2 0 0Zm-737 3c-4 1 0 3 0 0 0-4 4-2 0 0Zm153 2c6 1 10 0 11-5-5 0-10 2-11 5Zm34-2c0-3-5-4-6 0 4-1 5 4 6 0Zm429 0c-1-2 2 1 0 0Zm-26 2c-1-1 2 2 0 0Zm20 0c-2 2-5 3-5 6-5 0-8 2-9 6-2-1-3 1-3 3-3-1-5 0-6 3-4 1 1 3 0 0 4 0 6-1 6-3 3 0 3-1 3-3 5 0 7-2 9-6h5c1 3 3 2 3 0 3 1 3-1 3-3h3c2 4 4 0 0 0 0-3-3-1-3 0-2 0-3 1-3 3h-3v-6c5-1 0-3 0 0Zm70 0c-3 0-3 2-3 3-5 0-8 2-9 6-5 0-7 2-9 6-7-1-9 4-11 8-4 2 0 4 0 0 7 1 9-4 11-8 5 0 8-2 9-6 5 0 7-2 9-6 2 1 2-1 3-3 4-1-1-3 0 0Zm40-2c-2 0-6 0-6 2 2 0 6 0 6-2Zm9 2c-13 0-1 12 0 0-1-3 4-1 0 0Zm11 0c-1-1 2 2 0 0Zm26 0c-4 2 0 4 0 0 0-3 4-1 0 0Zm-288 6c-1 2-3 3-3 6-5 0-7 2-9 6-4 1 1 3 0 0 5 0 8-2 9-6 6 1 7-6 3-6v-6c-5 0-8 3-9 6h9Zm9-3c-5 2 0 4 0 0-1-3 4-2 0 0Zm210 0c-3 0-3 1-3 3-4 2 0 4 0 0 2 1 3-1 3-3 12 3 0-8 0 0Zm-464 3c-12-3 0 9 0 0 0-3 4-2 0 0Zm449 0c-1-1 2 2 0 0Zm26 0c-3 0-5 1-5 3-3-1-3 1-3 3-5 0-8 2-9 6-7-1-9 4-11 8-5 0-8 2-9 6-7 0-9 4-12 9-4 1 1 3 0 0 8 0 9-5 12-9 5 0 7-2 9-6 7 1 9-4 11-8 5 0 8-2 9-6 2 0 2-1 3-3 3 0 5-1 5-3 5-2 0-3 0 0Zm23 0c-4 2 1 4 0 0 0-3 5-2 0 0Zm26 0c-1-1 2 2 0 0Zm-498 3c-2-1-3 1-3 3-4 2 0 3 0 0 3 0 3-1 3-3 4-2 0-3 0 0Zm-121 3c-1-1 2 2 0 0Zm12 0c-2-1 2 2 0 0Zm314 0c-2-1 1 2 0 0Zm221 0c-2-1-2 1-3 3-12-3 0 8 0 0 3 0 3-1 3-3 5-2 0-4 0 0Zm64 0c-5 2 0 3 0 0-1-4 4-2 0 0Zm-594 3c-4 2 1 3 0 0 0-4 5-2 0 0Zm67 0c-5 2 0 3 0 0-1-4 4-2 0 0Zm219 14c-2-6 15-6 5-11-13 11-33 16-43 31-3-3-6-2-6 3-41 22-80 45-109 78-3-1-3 1-3 3-3-1-5 0-6 3-2-1-2 1-3 3-13 6-16 5-23 17-4 2 1 3 0 0 12-2 18-10 23-17 3 0 3-2 3-3 4 0 5-1 6-3 2 0 3-1 3-3h6c-6 12-21 14-26 26-5 0-8 2-9 6h-3c-4 5-12 7-14 14-7 0-9 4-12 9-2-1-2 1-3 3-7-1-9 4-11 8-3 0-3 1-3 3-2 0-3 1-3 3-7-1-9 4-11 9-3-1-3 1-3 3h-3c-11 8-19 19-32 25-3-10 11-4 9-14-8-1-17 10-9 14-1 4-5 5-6 9-5-1-5 2-5 6-3-1-3 1-3 3h-6c-1-4-3-2-3 0-2-1-3 1-3 3-3 0-1 2 0 2 0 3-3 3-3 6h-3c1-2-1-2-2-3v-3c-1-3 4-1 0 0-3 0-3 2-3 3-4 2 0 4 0 0h3c-1 3 1 3 2 3v3c-2 0-2 1-2 3-12 1 0 13 0 0 2 1 2-1 2-3 3 1 3-1 3-3h6c1 3 3 2 3 0 3-1 5-2 6-6-4-1 0-2 0-5h3c1 4 3-1 0 0v-3c4 0 8 0 8-3 10-15 30-21 38-37 2 0 2-2 3-3 7 0 9-5 11-9 3 1 3-1 3-3 2 1 3-1 3-3 8 2 6-6 11-6 2 5 4 0 0 0v-2c3 0 3-2 3-3 7 0 9-5 12-9 10 0 13-8 17-14 5 0 5-3 9-3 0 3 3 1 3 0 53-36 101-77 158-110v-5c6 0 4-8 12-6 0 3 2 1 2 0 3 0 3-1 3-3h6c4-7 7-14 9-23-14 1-1 18-20 17Zm129-14c-1-1 2 2 0 0Zm101 0c-3-1-3 1-3 3-3 0-2 3 0 3v2c-4 2 0 4 0 0 7 1 5-3 0-2v-3c2 0 3-1 3-3 4-2 0-4 0 0Zm37 0c-4 2 1 3 0 0 0-4 5-2 0 0Zm12 0c-4 2 0 3 0 0 0-4 4-2 0 0Zm-752 3c-1-2 2 2 0 0Zm-20 3c-4 1 0 3 0 0 0-4 4-2 0 0Zm179 0c-2-2 1 1 0 0Zm11 0c-3 0-1 2 0 2v3c-2 0-3 1-3 3-3 0-5 1-6 3-2 0-2 1-2 3-8 0-5 3 0 3-1 3 0 5 2 6v2c-2 2-5 3-5 6-4 1-2 3 0 3-1 3 1 3 3 3-1 4-9 1-9 6 10 4 23-9 29-18-5 0-5 3-9 3v-8h6c2 4 3-1 0 0 2-10-6-5-6 0-2 1-5 3-9 3 1-4 0-6-2-6v-3c2 0 2-1 2-3 4 1 6-1 6-3 3 1 3-1 3-3 3 1 5 0 6-3 0-3 4-1 0 0h-6v-2c4-2 0-4 0 0Zm101 5c7 1 9-4 11-8-7-1-9 4-11 8Zm357-5c-1-2 2 1 0 0Zm104 0c-7 9 9-7 0 0Zm11 0c-4 1 1 3 0 0 0-4 4-2 0 0Zm26 0c-5-1-7 2-8 5 4 0 7-2 8-5 4-2 0-4 0 0Zm-616 2c-1-1 2 2 0 0Zm-110 3c-1-1 2 2 0 0Zm147 0c-5 0-7 2-8 6-5 2 0 4 0 0h5c-2 15 11 6 12 0 5 0 7-2 9-6-1-3 4-1 0 0-3-2-8-4-9 0-3 1-2 3 0 3v3h-6c1-2-1-3-3-3v-3c4-1 0-3 0 0Zm363 0c-1-1 2 2 0 0Zm167 3c-4 2 0 4 0 0 1-11 13 1 0 0Zm29-3c-1-1 2 2 0 0Zm-438 3c-2 0-2 1-3 3-2 0-2 1-3 3-2-1-2 1-2 3-4-1-6 0-6 3-3-1-3 1-3 3-2-1-3 1-3 2-4 2 0 4 0 0 3 1 3-1 3-2 2 0 3-2 3-3 3 0 5-1 6-3 2 0 2-1 2-3 3 0 3-1 3-3 3 1 3-1 3-3 4-2 0-3 0 0Zm43 0c-1-1 2 2 0 0Zm242 0c-1-1 2 2 0 0Zm21 0c-3 0-3 1-3 3h-6c-1-4-6-3-6 0-2 0-3 1-3 3-2-1-2 1-3 3-2-1-2 1-3 3-7-1-9 4-11 8-2 0-3 1-3 3-2 0-3 1-3 3-4 2 0 4 0 0 3 1 3-1 3-3 3 1 3-1 3-3 7 1 9-4 11-8 3 0 3-1 3-3 3 0 3-1 3-3 3 0 3-1 3-3h6c-2 10 6 4 6 0 2 1 2-1 3-3 4-2-1-3 0 0Zm72 0v3c-3 0-3 1-3 3-3-1-3 1-3 3-4 2 0 3 0 0 2 0 2-1 3-3 2 0 2-1 3-3 7 0 4-3 0-3-1-8-12 3 0 0Zm66 0c-1-1 2 2 0 0Zm-498 9c-5 2 0 3 0 0 0-12 12 0 0 0Zm408-3c-4 2 1 3 0 0 0-4 5-2 0 0Zm12 0c-2-1-3 1-3 3-5 0-7 2-9 6-2-1-2 1-2 2-3 0-3 2-3 3-5 0-8 2-9 6 5 0 8-2 9-6 2 1 2-1 3-3 2 1 2-1 2-2h6c1 3 3 1 3 0 3-1 2-3 0-3v-3c3 0 3-1 3-3 4-2 0-4 0 0Zm46 0c-2-1-3 1-3 3-4 2 0 3 0 0 3 0 3-1 3-3 4-2 0-4 0 0Zm26 0c-4 2 0 3 0 0 0-4 4-2 0 0Zm-567 6c-2-2 2 2 0 0Zm550 5c-7 0-9 5-12 9-7 0-9 5-11 9-5 2 0 3 0 0 7 0 9-5 11-9 7 1 9-4 12-9 7 1 9-4 11-8-7-1-9 4-11 8Zm-594-2c-1-2 2 1 0 0Zm585 0c-1-2 2 1 0 0Zm-43 5c-3 0-3 1-3 3-4 2 0 4 0 0 2 1 3-1 3-3 13 1 1-11 0 0Zm-720 0c-3 0-3 1-3 3-4 2 0 4 0 0 2 1 3-1 3-3 4-1 0-3 0 0Zm170 0c-3 0-3 1-3 3-3 1-2 3 0 3 2 4 3 0 0 0v-3c2 1 3-1 3-3 4-1-1-3 0 0Zm389 0c-2-1 1 2 0 0Zm126 0c-2 0-2 1-3 3-2 0-2 1-2 3-12-3-1 9 0 0 2 1 2-1 2-3 3 1 3-1 3-3 5-1 0-3 0 0Zm-509 3c-5 2 0 4 0 0-1-3 4-2 0 0Zm115 0c-4 2 0 4 0 0-1-3 4-2 0 0Zm31 0c-2 0-2 1-2 3-3 0-3 1-3 3-3-1-3 1-3 3-5 0-8 2-9 6 5 0 8-3 9-6 2 0 3-1 3-3 2 1 2-1 3-3 2 1 2-1 2-3 5-2 0-3 0 0Zm-135 6c-3 0-5 1-6 3-2-1-2 1-3 3-4 2 1 3 0 0 3 0 3-1 3-3 4 0 5-1 6-3 4-2 0-3 0 0Zm369 0c-1-1 2 2 0 0Zm34 0c-1-1 2 2 0 0Zm130 0c-1-1 2 2 0 0Zm-565 3c-4 2 1 3 0 0 0-4 5-2 0 0Zm136 0c-1-1 2 2 0 0Zm63 0c-7 10 10-7 0 0Zm328 0c-7 10 10-7 0 0Zm23 0c-2-1-2 1-2 3-12-3-1 8 0 0 2 0 2-1 2-3 5-2 0-4 0 0Zm-126 6c-1-2 2 2 0 0Zm-444 3c-1-2 2 1 0 0Zm208 0c-2-2 1 1 0 0Zm184-3c-2 0-6 0-6 3 2-1 6-1 6-3Zm69 3c-7 9 10-7 0 0Zm144 0c-8 0-11 6-14 11-8 0-9 4-12 9-2-1-3 1-3 3-4 1 1 3 0 0 3 0 3-2 3-3 7 0 9-5 12-9 8 0 10-7 14-11 4-2 0-4 0 0Zm-564 2c4 10 7-11 0 0Zm121 3c-4 0-6 1-6 3-3 0-3 1-3 3-3-1-3 1-3 3-2-1-3 1-3 3-13-1-1 11 0 0 3 0 3-1 3-3 2 0 3-1 3-3 2 1 3-1 3-3 3 1 5 0 6-3 11-1-1-12 0 0Zm-142 6c5 0 8-2 9-6-5 0-7 2-9 6Zm314-3c-3 0-5 1-5 3-3-1-3 1-3 3-5 2 0 3 0 0 2 0 2-1 3-3 3 0 5-1 5-3 5-2 0-3 0 0Zm179 3c-1-1 2 2 0 0Zm-43 3c-2-1 2 2 0 0Zm-104 3c-4 2 0 3 0 0 0-4 4-2 0 0Zm55 0c-1-1 2 2 0 0Zm89 3c7 0 11-1 12-6-6 0-10 2-12 6Zm23 0c-2-1-3 1-3 3-4 1 0 3 0 0 3 0 3-2 3-3 4-2 0-4 0 0Zm-550 3c-1-2 2 1 0 0Zm420 0c-2-1-2 1-2 2-5 2 0 4 0 0 2 1 2-1 2-2 12 2 1-9 0 0Zm-267 2c-3 0-3 2-3 3-3 0-3 1-3 3-4 2 0 4 0 0 2 1 3-1 3-3 2 1 2-1 3-3 4-1-1-3 0 0Zm43 0c-1-1 2 2 0 0Zm178 0c-4 2 1 4 0 0 0-3 5-1 0 0Zm-63 12c-5 0-7 2-9 6-6-1-20 12-8 11v3c-3 0-3 1-3 3-4 2 0 3 0 0 2 1 3-1 3-3 6 2 7-5 3-6 1-3 6-3 5-8 5 0 8-2 9-6 7 1 17-7 9-12 2 10-10 4-9 12Zm158-9c-1-1 2 2 0 0Zm-60 3c-7 10 10-7 0 0Zm43 0c-2 0-3 1-3 3-4 2 1 4 0 0 3 1 3-1 3-3 4-2 0-3 0 0Zm-331 3c-1-1 2 2 0 0Zm239 3c-4 2 0 3 0 0 1-11 13 0 0 0Zm101-3c-1-1 2 2 0 0Zm109 6c-4 2 0 3 0 0 7 0 9-5 12-9-7 0-9 5-12 9Zm-461-3c-2-1-2 1-2 3-3-1-3 1-3 3-3-1-3 1-3 3-4 1 0 3 0 0 2 0 2-2 3-3 2 0 2-1 3-3 2 0 2-1 2-3 5-2 0-4 0 0Zm26 3c-7 0-11 4-11 11-3 0-3 1-3 3-12 3-16 13-23 20h-3c-3 5-6 9-12 12-3 0-1-4 0 0-6 16-23 21-28 37-3 0-3 1-3 3-3 0-3 1-3 3-3 0-3 1-3 3-2-1-3 1-3 3-4 2 0 3 0 0 3 0 3-1 3-3 2 1 3-1 3-3 2 1 3-1 3-3 2 1 3-1 3-3 16-14 31-29 43-49 11-2 16-12 23-20 2 1 3-1 3-3 5-2 9-6 11-11 12 3 1-9 0 0Zm254 8c-3 0-3 2-3 3-7 0-9 5-12 9-2-1-2 1-3 3-2-1-2 1-2 3-5 2 0 3 0 0 2 0 2-1 2-3 3 0 3-1 3-3 8 0 9-4 12-9 2 1 3-1 3-3 7 1 9-4 11-8-7-1-9 4-11 8Zm49-5c-1-2 2 2 0 0Zm164 0c-4 1 0 3 0 0 0-4 4-2 0 0Zm-254 5c-4 0-7 3-8 6-3 0-3 1-3 3-3 0-3 1-3 3-2-1-3 1-3 3-2-1-3 1-3 3-8 0-10 6-14 11-3 0-3 1-3 3-2 0-3 1-3 3-2-1-3 1-3 3-2-1-2 1-3 3-14 5-22 18-31 29-3-1-3 1-3 2-3 0-3 2-3 3-3 0-3 1-3 3-5-1-5 2-6 6-7 0-11 4-11 12-3-1-3 1-3 2-3 0-3 2-3 3-4 2 0 4 0 0 2 1 3-1 3-3 2 1 3-1 3-2 5-3 9-7 11-12 3-1 5-3 6-6 2 1 3-1 3-3 2 1 3-1 3-3 2 1 3-1 3-2 14-6 22-19 31-29 3 0 3-1 3-3 3 0 3-1 3-3 3 1 3-1 3-3 2 1 3-1 3-3 8 0 11-6 14-11 3 0 3-1 3-3 3 0 3-1 3-3 2 1 3-1 3-3 2 1 3-1 3-3 5 0 7-2 8-6 12 0 0-12 0 0Zm170-2c-1-2 2 1 0 0Zm44 2c-5 2 0 4 0 0-1-3 4-1 0 0Zm181 0c-1-1 2 2 0 0Zm-651 6c-1-1 2 2 0 0Zm271 0c-1-1 2 2 0 0Zm52 0c-5 2 0 4 0 0-1-3 4-2 0 0Zm-133 3c-1-1 2 2 0 0Zm-127 3c-2-1-2 1-2 3-3-1-3 1-3 3-3-1-3 1-3 3-3-1-3 1-3 3-4 1 0 3 0 0 2 0 3-2 3-3 2 0 3-2 3-3 2 0 2-1 3-3 2 0 2-1 2-3 5-2 0-3 0 0Zm392 0c-5 0-7 2-8 6-5 2 0 3 0 0 4 0 7-2 8-6 4-2 0-3 0 0Zm35 0c-1-1 2 2 0 0Zm-303 6c2 4 4-1 0 0v-6h-5c-2 5 2 5 5 6Zm-161 0c-1-1 2 2 0 0Zm354 0c4 11 4-12 0 0Zm-394 3c-1-2 2 2 0 0Zm190 0c-13 6-24 14-32 26-9-2-6 9-9 14-4 2 1 3 0 0 7 1 11-1 12-6 3 0 2-3 3-6 0-3 4-1 0 0-3 0-2 4-3 6-6-1-6-4-3-8 9-2 10-11 20-12v6c-2-1-2 1-3 3-4 1 1 3 0 0 3 0 3-1 3-3 3-3 11-1 9-9 0-3 4-2 0 0-2 2-5 3-9 3 2-7 10-8 12-14 4-2-1-4 0 0Zm152 0c-1-2 2 2 0 0Zm70 0c-5 1 0 3 0 0-1-4 4-2 0 0Zm-95 3c-2-2 1 1 0 0Zm8 0c-1-2 2 1 0 0Zm311-3c-2 0-5 0-6 3 3-1 6-1 6-3Zm-625 5c-1-1 2 2 0 0Zm185 0c-2-1 1 2 0 0Zm80 3c-2 0-3 1-3 3-2 0-2 1-3 3-2-1-2 1-2 3-3-1-3 1-3 3-3-1-3 1-3 3-3-1-3 1-3 3-3-1-3 1-3 2-4 2 0 4 0 0 2 1 3-1 3-2 2 0 3-2 3-3 2 0 3-1 3-3 2 0 2-1 3-3 2 0 2-1 2-3 3 1 3-1 3-3 3 1 3-1 3-3 5 0 8-2 9-5-5-1-8 2-9 5Zm43 0c-4 2 1 4 0 0 0-3 5-2 0 0Zm78 3c-2 0-3 1-3 3-2-1-2 1-3 3-4 2 1 3 0 0 3 0 3-1 3-3 3 1 3-1 3-3 13 1 1-11 0 0Zm-368 0c-2-1 1 2 0 0Zm25 3c-2-1-2 1-2 3-5 2 0 3 0 0 2 0 2-1 2-3 12-1 0-13 0 0Zm294-3c-1-1 2 2 0 0Zm-37 9c0-4 5-7 0-9-1 4-5 7 0 9Zm311-6c-1-1 2 2 0 0Zm-426 3c-2-1 1 2 0 0Zm409 0c-2-1 1 2 0 0Zm-291 6c-2-2 2 2 0 0Zm54 0c4 11 4-12 0 0Zm-69 3c-5-2-5 2-6 5-2 0-2 1-2 3-3 0-3 1-3 3-4 2 0 4 0 0 2 1 2-1 3-3 2 1 2-1 2-3 3-1 6-2 6-5 4-2 0-4 0 0Zm-187 5c-13 0-1 12 0 0 0-3 4-1 0 0Zm262 0c-3 0-5 1-6 3-2 0-2 1-3 3-2 0-2 1-2 3-3-1-3 1-3 3-12-3-1 8 0 0 2 0 2-1 3-3 2 0 2-1 2-3 3 1 3-1 3-3 4 1 5 0 6-3 4-1 0-3 0 0Zm78 0c-4 2 0 4 0 0 0-3 4-1 0 0Zm-205 3c-2 0-2 1-2 3-3 0-3 1-3 3-3-1-3 1-3 3-4 2 0 3 0 0 2 0 2-1 3-3 2 0 2-1 3-3 2 1 2-1 2-3 5-2 0-3 0 0Zm55 0c-1-1 2 2 0 0Zm15 0c-2-1 1 2 0 0Zm-335 3c-1-1 2 2 0 0Zm21 0c-3 0-3 1-3 3-3-1-3 1-3 3-3-1-3 1-3 3-4 1 0 3 0 0 2 0 3-1 3-3 2 0 3-1 3-3 2 0 2-1 3-3 4-2-1-3 0 0Zm270 3c-2-1-2 1-3 3-2-1-2 1-2 3-5 1 0 3 0 0 2 0 2-1 2-3 3 0 3-1 3-3 5-2 0-4 0 0Zm314 0c-4 2 1 3 0 0 0-4 4-2 0 0Zm98 0c-1-1 2 2 0 0Zm-587 3c-2-1 2 2 0 0Zm83 0c2 4 4 0 0 0-3 0-2-4 0 0Zm98 0c3 11 3-12 0 0Zm158 0c-1-1 2 2 0 0Zm-414 3c-1-2 2 2 0 0Zm69 0c-1-2 2 2 0 0Zm201-3c-2 0-5 0-5 3 2-1 5 0 5-3Zm12 3c-1-2 2 2 0 0Zm63 0c-1-2 2 2 0 0Zm332 0c-2-2 1 2 0 0Zm-571 14c-2 0-2 1-3 3-12-1 0 11 0 0 3 1 3-1 3-3 8 2 17-10 9-14 1 9-8 7-9 14Zm144-11c-2 1-5 2-5 5-5 0-8 2-9 6 5 0 7-2 9-6 4 1 5-2 5-5 5-2 0-4 0 0Zm-184 2c-4 2 0 4 0 0 0-3 4-1 0 0Zm141 0c-3 0-5 1-6 3-5 3-9 7-11 12 7 0 11-4 11-12 4 1 5 0 6-3 4-1 0-3 0 0Zm29 0c-3 0-3 2-3 3-2 0-3 1-3 3-4 2 0 4 0 0 3 1 3-1 3-3 2 1 3-1 3-3 4-1 0-3 0 0Zm34 3c5 0 8-2 9-5-5-1-7 2-9 5Zm133-3c-4 2 0 4 0 0 0-3 4-1 0 0Zm-458 3c-4 2 0 4 0 0 0-3 4-1 0 0Zm236 0c-2 0-3 1-3 3-2 0-2 1-3 3-2 0-2 1-2 3-5 2 0 3 0 0 2 1 2-1 2-3 3 1 3-1 3-3 3 1 3-1 3-3 4-1 0-3 0 0Zm124-3v3c-14 16 14-5 0-3Zm17 3c-2 0-2 1-3 3-4 2 1 4 0 0 3 1 3-1 3-3 5-1 0-3 0 0Zm-273 3c-1-1 2 2 0 0Zm-92 3c-2-1 1 2 0 0Zm308 0c-1-1 2 2 0 0Zm-101 3c-4 2 0 3 0 0s4-2 0 0Zm83 0c-1-1 2 2 0 0Zm193 0c-4 2 1 3 0 0 0-3 5-2 0 0Zm190 0c-1-1 2 2 0 0Zm-734 3c-1-1 2 2 0 0Zm415 0c-5 0-8 2-9 6 5 0 8-3 9-6 4-2-1-4 0 0Zm11 0c-1-1 2 2 0 0Zm-66 3c-4 2 0 3 0 0 0-4 4-2 0 0Zm-216 3c-1-2 2 2 0 0Zm35 0c-2-2 2 2 0 0Zm106 3c-2-1-3 1-3 2h-3c-2 7-9 8-11 15-3-1-3 1-3 3-2-1-3 1-3 3-2-1-3 1-3 2-2 0-2 2-3 3h-2c-1 6-8 6-9 12-3-1-3 1-3 3-5 3-11 6-12 14 8-1 10-7 12-14 2 0 3-1 3-3 7-1 11-4 11-12 3 1 3-1 3-3 3 1 3-1 3-2 3 0 3-2 3-3 2 0 3-1 3-3 8-1 13-6 14-15 3 1 3-1 3-2 13 0 1-12 0 0Zm43-3c-4 1 1 3 0 0 0-4 5-2 0 0Zm395 0c-7 9 10-7 0 0Zm-588 3c2 4 4-1 0 0-3 0-1-5 0 0Zm121 0c-4 1 1 3 0 0 0-4 5-2 0 0Zm9 0c-2-1-3 1-3 2-2 0-3 2-3 3-2 0-2 1-3 3-2 0-2 1-2 3-3-1-3 1-3 3-3-1-3 1-3 3-4 2 0 3 0 0 2 0 2-1 3-3 2 0 2-1 3-3 2 1 2-1 2-3 3 1 3-1 3-3 3 1 3-1 3-3 3 1 3-1 3-2 4-2 0-4 0 0Zm351 2c5 1 8-2 9-5-5-1-7 2-9 5Zm118-2c-2-1-2 1-2 2-4 0-6 1-6 3-7 0-9 5-12 9-2-1-2 1-3 3-3-1-5 0-5 3-3-1-3 1-3 3-4 1 0 3 0 0 2 0 3-2 3-3 3 0 5-1 5-3 3 0 3-1 3-3 8 0 9-5 12-9 3 1 5 0 6-3 2 1 2-1 2-2 5-2 0-4 0 0Zm12-3c-2 0-6 0-6 3 2-1 6-1 6-3Zm-729 5c-1-1 2 2 0 0Zm337-2c-2 0-5 0-5 2 2 0 5 0 5-2Zm46 2c-1-1 2 2 0 0Zm12 0c-7 10 10-7 0 0Zm302 0c-3 0-5 1-5 3-5 2 0 4 0 0 3 1 5 0 5-3 5-1 0-3 0 0Zm-679 3c-3 0-3 1-3 3h-3c-2 2-3 5-3 9-2-1-3 1-3 3-4 1 0 3 0 0 3 0 3-1 3-3 4-1 6-4 6-9 2 1 2-1 3-3 4-2-1-3 0 0Zm256 0c-1-1 2 2 0 0Zm20 0c-1-1 2 2 0 0Zm-320 9c-2-1-2 1-2 3-3 0-3 3-3 6-7-1-9 2-9 8h-3c0 6-8 4-6 12-2-1-2 1-2 3h-3c0 5-8 3-6 11-3 0-3 1-3 3-2-1-3 1-3 3h-3c-1 2-3 5-3 9-4 1 1 3 0 0 4-2 6-4 6-9 3 0 3-1 3-3 2 1 3-1 3-3 4-2 9-4 9-11 2 0 2-2 2-3 5-3 10-5 9-12 4-1 7-4 9-8 2-1 2-4 3-6 2 0 2-1 2-3h3c2-2 5-8 0-9-1 3-3 5-3 9Zm142-6c0-3-5-3-6 0 3 0 4 4 6 0Zm28 0c-1-1 2 2 0 0Zm23 0c-4 2 1 4 0 0 0-3 5-2 0 0Zm64 0c-4 2 0 4 0 0-1-3 4-2 0 0Zm230 0c-1-1 2 2 0 0Zm-86 3c-1-1 2 2 0 0Zm-234 3c-1-1 2 2 0 0Zm153 0c-1-1 2 2 0 0Zm-204 3c-2-1 2 2 0 0Zm123 0c-2-1-2 1-2 3-3-1-3 1-3 3-3-1-3 1-3 2-4 3-17 11-9 15 1-7 10-6 9-15 2 1 3-1 3-2 2 0 2-2 3-3 2 0 2-1 2-3 5-2 0-4 0 0Zm9 0c-2-1-3 1-3 3-2-1-2 1-3 3-2 1-5 2-5 5-9 1 2 12 0 0 4 1 5-2 5-5 3 0 3-2 3-3 3 0 3-1 3-3 4-2 0-4 0 0Zm20 0c-2-1-2 1-3 3-4 1 1 3 0 0 3 0 3-1 3-3 4-2 0-4 0 0Zm127 0c-1-1 2 2 0 0Zm-86 0c-3 0-6 0-6 3 2-1 6 0 6-3Zm34 3c-4 1 0 3 0 0 0-4 4-2 0 0Zm-49 3c-1-2 2 1 0 0Zm17 0c-2-1-2 1-2 2-3 0-3 2-3 3-3 0-3 1-3 3-3 0-3 1-3 3-5-1-5 2-6 6-2-1-3 1-3 3-2-1-2 1-3 3-2-1-2 1-2 2-9 1 2 12 0 0 2 1 2-1 2-2 3 0 3-2 3-3 3 0 3-1 3-3 3-1 5-3 6-6 2 1 3-1 3-3 2 1 3-1 3-3 2 1 2-1 3-3 2 1 2-1 2-2 5-2 0-4 0 0Zm-152 2c2 5 3 0 0 0-4 1-2-4 0 0Zm224 0c-1-1 2 2 0 0Zm52 0c-4 2 1 4 0 0 0-3 5-1 0 0Zm-412 3c-2 0-2 1-2 3-3 0-3 1-3 3-4 2 0 4 0 0 2 1 2-1 3-3 2 1 2-1 2-3 5-1 0-3 0 0Zm90 6c0-3 5-6 0-9-1 4-5 7 0 9Zm184-6c-4 2 0 4 0 0 0-3 4-1 0 0Zm406 0c-8 2-13 6-17 12-3-1-3 1-3 3-2-1-3 1-3 3-3-1-5 0-6 2-2 0-2 2-3 3-4 0-7 2-8 6-3 0-3 1-3 3-2-1-3 1-3 3-3-1-5 0-6 3-4 2 1 3 0 0 4 0 5-1 6-3 3 0 3-1 3-3 2 1 3-1 3-3 5 0 7-2 8-6 3 1 3-1 3-3 4 1 5 0 6-2 3 0 3-2 3-3 2 0 3-1 3-3 8-1 14-5 17-12 4-1 0-3 0 0Zm-538 3c-2-1 1 2 0 0Zm146 0c-4 2 1 4 0 0 0-3 5-2 0 0Zm372 0c-2 0-3 1-3 3-20 8-33 23-49 35-8 0-11 6-14 11-3 0-3 1-3 3-5 0-8 2-9 6-8 0-10 6-14 11-5 0-8 2-9 6-2 0-3 1-3 3-2-1-2 1-3 3-4 0-7 2-8 6-3-1-3 1-3 2-7 0-9 5-12 9-2 0-2 1-2 3-3-1-3 1-3 3-12-3-1 8 0 0 2 0 2-1 3-3 2 1 2-1 2-3 8 1 9-4 12-9 2 1 3-1 3-2 5 0 7-3 8-6 3 0 3-1 3-3 3 0 3-1 3-3 5 0 8-2 9-6 11 2 10-7 14-11 5 0 8-2 9-6 2 1 3-1 3-3 7-2 13-4 14-11 22-6 34-23 49-35 3 1 3-1 3-3 4-2 0-3 0 0Zm-444 3c-1-1 2 2 0 0Zm-267 3c-5 2 0 3 0 0-1-4 4-2 0 0Zm175 0c-1-1 2 2 0 0Zm98 3c-1-1 2 2 0 0Zm41 0c-2-1 1 2 0 0Zm164 0c-1-1 2 2 0 0Zm-444 8c8 2 6-5 9-8-6-1-9 2-9 8Zm-40-2c-4 1 0 3 0 0 0-4 4-2 0 0Zm173 0c-2-2 2 1 0 0Zm75 0c-3-1-3 1-3 2-3 0-3 2-3 3h-3c-2 3-3 5-3 9-7 0-5 4 0 3 2 4 4 0 0 0v-3c2-1 3-3 6-3 2 4 3 0 0 0v-6c2 1 3-1 3-3 2 1 2-1 3-2 4-2-1-4 0 0Zm5 0c5 9 7-12 0 0Zm84 0c-1-2 2 1 0 0Zm426 0c-4 1 0 3 0 0 0-4 4-2 0 0Zm-547 2h-3c-2 3-3 5-3 9-2 0-3 1-3 3-2-1-2 1-3 3-2-1-2 1-3 3h-2c-2 2-3 4-3 8-3 0-3 2-3 3-3 0-3 1-3 3-4 2 0 4 0 0 2 1 3-1 3-3 2 1 3-1 3-3 3-1 6-3 5-8 3 0 3-1 3-3 3 0 3-1 3-3 3 1 3-1 3-3 4-1 6-4 6-9 4-1 0-3 0 0Zm-40 3c-2-1 1 2 0 0Zm132 0c-1-1 2 2 0 0Zm-317 3c-1-1 2 2 0 0Zm265 0c-1-1 2 2 0 0Zm104 3c-1-1 2 2 0 0Zm138 0c3 11 3-11 0 0Zm-380 3c-1-1 2 2 0 0Zm150 3c-3-1-3 1-3 3-3-1-3 1-3 3-4 1 0 3 0 0 2 0 3-2 3-3 2 0 3-1 3-3 4-2-1-4 0 0Zm29 0c-2-1 1 2 0 0Zm198 0c-1 4-5 4-6 9-2-1-2 1-2 2-3 0-3 2-3 3-3 0-3 1-3 3-3 1-2 3 0 3 2 4 3 0 0 0v-3c2 1 3-1 3-3 2 1 2-1 3-3 2 1 2-1 2-2 8-1 11-6 15-9h-9c-2-4-3 0 0 0Zm-383 3c-2-1-3 1-3 3-2-1-2 1-3 3-4 0-9 7 0 5 0 4 1 5 3 6 4-5 4-12-3-6v-5c3 0 3-2 3-3 3 0 3-2 3-3 4-2 0-4 0 0Zm38-3c-3 1-6 0-6 3 2-1 6 0 6-3Zm-133 6c-4 1 0 3 0 0 0-4 4-2 0 0Zm9 0c-3-1-3 1-3 3-4 1 0 3 0 0 2 0 3-2 3-3 4-2-1-4 0 0Zm201 0c-2-1-2 1-2 3-5 1 0 3 0 0 2 0 2-2 2-3 5-2 0-4 0 0Zm18 0c-2-2 2 2 0 0Zm46 0c-1-2 2 2 0 0Zm-173 5c-4 2 0 4 0 0-3-12 9 0 0 0Zm20-2c-9 0 3 11 0 0 0-4 4-2 0 0Zm533 5c-3 0-5 1-6 3-2 0-3 1-3 3-4 2 1 4 0 0 3 1 3-1 3-3 3 1 5 0 6-3 6 3 13-7 6-8-1 3-5 4-6 8Zm-115-3c-1-1 2 2 0 0Zm178 0c-3 0-5 1-5 3-5 0-8 2-9 6 5 0 7-2 9-6 3 1 5 0 5-3 4-1 0-3 0 0Zm-757 6c4 3 7 3 8-3-3 0-6-1-8-3v6Zm14-3c-1-1 2 2 0 0Zm265 0c-2 0-3 1-3 3-11 1 1 13 0 0 3 1 3-1 3-3 4-2 0-3 0 0Zm452 0c-3 0-5 1-5 3-8 1-14 4-18 9-3-1-5 0-5 3-3-1-3 1-3 3-5-1-8 2-9 5-3 0-2-3-3-5 0-4 4-2 0 0h-3c-7 3 3 13 6 5 5 0 7-2 9-5 2 0 2-2 3-3 3 0 5-1 5-3 9 0 15-3 18-9 3 1 5 0 5-3 12 3 1-8 0 0Zm-219 3c-4 2 1 4 0 0 0-3 5-2 0 0Zm-394 3c-3-1-3 1-3 3-4 2 0 3 0 0h3c2 4 3 0 0 0v-3c4-2 0-3 0 0Zm121 0c-1-1 2 2 0 0Zm6 0c-2-1 2 2 0 0Zm57 0c-4 2 1 4 0 0 0-3 4-2 0 0Zm254 0c-2-1 2 2 0 0Zm-429 3c1 4 3 0 0 0-4 0-2-4 0 0Zm23 0c-2-1 1 2 0 0Zm-162 3c-1-1 2 2 0 0Zm219 0c-7 9 10-7 0 0Zm104 0c3 11 3-12 0 0Zm184 0c-1-1 2 2 0 0Zm202 0c-1-1 2 2 0 0Zm31 0c-1-1 2 2 0 0Zm-434 3c3 11 3-12 0 0Zm386-3c-3 0-6 0-6 3 2-1 5 0 6-3Zm-703 6c3 11 3-12 0 0Zm17 0c-1-2 2 1 0 0Zm112 0c-1-2 2 1 0 0Zm32 0c-4 1 0 3 0 0 0-4 4-2 0 0Zm-20 2c-1-1 2 2 0 0Zm6 0c-2-1 2 2 0 0Zm17 3c-1-1 2 2 0 0Zm-153 3c-1-1 2 2 0 0Zm208 0c-5 2 0 4 0 0-1-3 4-2 0 0Zm463 0c-4 2 1 4 0 0 0-3 5-2 0 0Zm41 0c-2-1 2 2 0 0Zm-738 3c-1-1 2 2 0 0Zm23 3c-1-1 2 2 0 0Zm116 0c-2-1 2 2 0 0Zm121-3c-3 1-6 0-6 3 2-1 6 0 6-3Zm458 6c-1 2-3 3-3 6 5 0 7-3 8-6 0-4 4-2 0 0h-5c9-9-11-5 0 0Zm14-3c-1-1 2 2 0 0Zm17 0c4 11 4-11 0 0Zm-616 3c-3-1-3 1-3 3-4 1 0 3 0 0 2 0 3-1 3-3 4-2 0-4 0 0Zm26 0c-1-1 2 2 0 0Zm129 0c-7 9 10-7 0 0Zm-66 3c-1-2 2 2 0 0Zm29 0c-1-2 2 2 0 0Zm311 0c-7 9 10-7 0 0Zm138 0c-12-1-1 11 0 0 0-4 4-2 0 0Zm-682 3c-2-2 2 1 0 0Zm708 5c-4 2 0 4 0 0 7 3 17-6 9-8 1 6-9 3-9 8Zm-737 0c3 12 3-11 0 0Zm26 0c-3 0-2 4-3 6-4 2 0 4 0 0 3 0 2-3 3-6 4-1-1-3 0 0Zm201 0h-2c-2 3-3 5-3 9-12 1 0 13 0 0 3-1 6-4 5-9 5-1 0-3 0 0Zm95 0c-1-1 2 2 0 0Zm389 0c-1-1 2 2 0 0Zm-461 6c-2 0-2 1-2 3-9 1 2 12 0 0 2 1 2-1 2-3 5-2 0-3 0 0Zm35 0c-1-1 2 2 0 0Zm35 0c-2-1 1 2 0 0Zm5 0c-1-1 2 2 0 0Zm185 0c-2-1 2 2 0 0Zm28 0c-1-1 2 2 0 0Zm165 0c-2-1 1 2 0 0Zm23 3c-4 13 13-3 0 0-9 9-5-10 0 0Zm11 0c-1-1 2 2 0 0Zm-720 6c-1-1 2 2 0 0Zm268 0c-1-1 2 2 0 0Zm216 6c-12-3-1 8 0 0 7-2 13-5 17-9-10-2-15 2-17 9Zm210-6c-1-1 2 2 0 0Zm0 6c-2-1-2 1-3 2-3 0-5 1-5 3-5 2 0 4 0 0h5v3c-2 0-2 1-3 3-5-3-12 7-5 9 1-4 5-5 5-9 3 1 3-1 3-3 3 1 3-1 3-3 7 1 5-3 0-3v-2c5-1 11 1 12-3-4-4-9-2-12 3Zm-498 0c-9 0 3 11 0 0 0-4 4-2 0 0Zm26 0c-4 1 0 3 0 0 0-4 4-2 0 0Zm115 0c-2-1-3 1-3 2-3 0-5 1-6 3-2 0-2 1-2 3h-3c-9 22-16 27-29 43-3 0-3 1-3 3-2 0-3 1-3 3-3 1-1 3 0 3-1 4-5 5-6 9-12-1 0 11 0 0 16-9 29-21 41-35 2-1 5-2 5-6 7-2 23-10 15-17 1 5-2 5-6 6v-3c0-4 4-2 0 0-8-3 4-8-3-12 3 1 3-1 3-2 4-2 0-4 0 0Zm303 0c-2-2 1 1 0 0Zm-646 2c-1-1 2 2 0 0Zm260 0c-5 2 0 4 0 0-1-3 4-1 0 0Zm267 0c-12-2 0 9 0 0 1-8 12 3 0 0Zm153 3c-4 2 0 4 0 0 0-3 4-2 0 0Zm-458 3h-3c-1 2-3 5-3 9-4 2 1 3 0 0 4-1 6-4 6-9 4-2 0-3 0 0Zm294 0c-1-1 2 2 0 0Zm121 0c-1-1 2 2 0 0Zm-383 3c-4 2 0 4 0 0 0-3 4-2 0 0Zm363 0c-1-1 2 2 0 0Zm54 0c-1-1 2 2 0 0Zm-164 3c-12-3 0 9 0 0 1-9 12 3 0 0Zm164 3c4 11 4-12 0 0Zm-483 3c-2-2 1 2 0 0Zm463 3c-12-3 0 8 0 0 5 0 8-3 9-6-5 0-8 2-9 6Zm141 0c-4 1 1 3 0 0 1-12 13 0 0 0Zm-547 0c-8 0 3 12 0 0 0-4 4-2 0 0Zm435 0c-7 1-12 2-14 8 6-1 12-3 14-8 4-2 0-4 0 0Zm-469 2c-3 0-3 2-3 3-3 0-2 4-3 6-4 2 0 4 0 0 3 0 2-3 3-6 2 1 2-1 3-3 4-1-1-3 0 0Zm144 0c-5 2 0 4 0 0-1-3 4-1 0 0Zm305 0c-1-1 2 2 0 0Zm-478 3c-4 2 0 4 0 0 0-3 4-1 0 0Zm415 0c-5 2 0 4 0 0-1-3 4-1 0 0Zm-242 6c-2-1 2 2 0 0Zm276 0c-1-1 2 2 0 0Zm-455 3c-7 10 10-7 0 0Zm213 0c-1-1 2 2 0 0Zm199 0c-1-1 2 2 0 0Zm55-3c-3 1-6 0-6 3 2-1 6 0 6-3Zm14 3c-1-1 2 2 0 0Zm101 3c-9 0-11 6-15 11-2 0-2 1-2 3-3 0-3 1-3 3-3 0-3 1-3 3-3-1-3 1-3 3-3-1-3 1-3 3-2-1-3 1-3 3-2-1-3 1-3 3-2-1-2 1-3 2-2 0-2 2-2 3-5 2 0 4 0 0 2 1 2-1 2-3 3 1 3-1 3-2 3 0 3-2 3-3 3 0 3-2 3-3 2 0 3-1 3-3 2 0 3-1 3-3 2 1 3-1 3-3 2 1 2-1 3-3 2 1 2-1 2-3 9 0 11-6 15-11 5 0 7-2 8-6-4 0-7 2-8 6Zm-406 0c-3-1-3 1-3 3-5-2-10 10-3 11 2-6 9-5 3-11 2 0 3-1 3-3 4-2-1-4 0 0Zm26 3c-2 6-10 7-12 14-2 0-3 1-3 3-2-1-2 1-3 3-2-1-2 1-2 3-11 2-15 10-21 17-7 0-9 4-11 9-3-1-3 1-3 3-4 1 0 3 0 0 2 0 3-2 3-3 7 0 9-5 11-9 11-2 15-11 21-17 2 0 2-1 2-3 3 0 3-1 3-3 3 1 3-1 3-3 10-1 13-9 17-14 0-4 5-2 0 0h-5c-1-12-13 0 0 0Zm-147 0c-4 1 0 3 0 0-1-4 4-2 0 0Zm409 0c-1-2 2 2 0 0Zm8 0c-1-2 2 2 0 0Zm-452 3c-1-2 2 1 0 0Zm406 5c-1-1 2 2 0 0Zm-437 3c-2-1 1 2 0 0Zm57 0c-1-1 2 2 0 0Zm115 3c4 11 4-11 0 0Zm389 0c-4 2 0 4 0 0 0-3 4-2 0 0Zm-296 0c-3 1-6 0-6 3 2-1 5 0 6-3Zm-98 6c-2-1 1 2 0 0Zm429 0c-1-1 2 2 0 0Zm-159 3c-7 9 10-7 0 0Zm147 0c-1-1 2 2 0 0Zm-435 3c-1-2 2 2 0 0Zm461 0c3 11 3-12 0 0Zm-449 3c-1-2 2 1 0 0Zm440 2c-1-1 2 2 0 0Zm-463 3c-1-1 2 2 0 0Zm472 3c-2 1-6 0-6 3 3-1 6 0 6-3Zm-32 6c-4 2 1 3 0 0 0-4 5-2 0 0Zm21 0c-3 1-6 0-6 3 2-1 6 0 6-3Zm-476 9c-1-2 2 1 0 0Zm542 2c-2 1-6 0-6 3 2 0 6 0 6-3Zm-72 3c-2 1-6 0-6 3 2 0 6 0 6-3Zm-582 12c-1-1 2 2 0 0Zm625 0c-2 0-6 0-6 3 3-1 6 0 6-3Zm-11 6c-2-2 1 1 0 0Zm-55 2c3 12 3-11 0 0Zm29 41c-2-1 1 2 0 0ZM282 33c4 11 4-12 0 0Zm-6 6c-1-2 2 1 0 0Zm64 2c0-8 12 3 0 0Zm268 9c-2-1 2 2 0 0Zm-55 12c-1-2 2 2 0 0Zm-3 3c-3 0-2-5 0 0Zm-6 2c-3 1-1-4 0 0Zm-322 9c-1-3 4-2 0 0Zm299 0c0-2 3-3 3 0h-3Zm-299 0c-4 2 0 4 0 0Zm291 6c-4 0-2-4 0 0Zm-311 8c1-3 3-5 8-5-1 3-3 6-8 5Zm299-2c-3 0-2-5 0 0Zm-302 5c0-1 0-3 3-3-1 2-1 4-3 3Zm-3 3c0-2 0-3 3-3 0 2-1 4-3 3Zm458 0v-3c4-1 8 4 3 6 0-2-1-3-3-3Zm-464 3c1-2 2-3 6-3-1 2-3 4-6 3Zm-3 3c0-2 1-3 3-3 0 2 0 3-3 3Zm0 0c-4 2 0 3 0 0Zm-14 11c-1-3 4-1 0 0Zm688-2c2 4 4-1 0 0Zm-691 5c0-1 0-3 3-3 0 2-1 4-3 3Zm-6 3c1-2 3-3 6-3-1 3-3 4-6 3Zm-3 3c0-2 1-3 3-3 0 2 0 4-3 3Zm-3 3c1-2 1-3 3-3 0 2 0 4-3 3Zm-2 3c0-2 0-4 2-3 0 2 0 3-2 3Zm0 0c-2 3-4 6-9 6 1-4 4-6 9-6Zm-12 9c0-2 0-4 3-3 0 1-1 3-3 3Zm-3 2c0-1 1-3 3-2 0 1 0 3-3 2Zm752-2c2 4 3-1 0 0Zm-755 5c0-1 1-3 3-3 0 2 0 4-3 3Zm0 0c-1 4-3 6-8 6 1-4 3-6 8-6Zm-11 9c0-2 0-4 3-3-1 2-1 3-3 3Zm-3 3c0-2 0-4 3-3 0 2-1 3-3 3Zm-3 3c0-2 0-4 3-3 0 2-1 3-3 3Zm219-3c2 8-6 6-6 11-8-2 3-10 6-11Zm-219 3c-4 1 0 3 0 0Zm-14 11c0-4 4-5 5-8 7 1 0 11-5 8Zm216-8c1 4 3-1 0 0Zm322 0c0 1-2 3-3 0h3Zm9 0c-1 2 1 2 3 2-1 3-3 4-6 3 1-2 0-5 3-5Zm-337 8v-3c1 0 3 3 0 3Zm334-3c-4 8-15 8-23 12 4-7 12-11 23-12Zm-547 6c0-2 0-3 3-3-1 2-1 4-3 3Zm210 0c0-2 0-3 3-3 0 2-1 4-3 3Zm-213 3c0-2 0-3 3-3 0 2-1 3-3 3Zm210 0c0-2 0-3 3-3 0 2-1 3-3 3Zm317 3c-4 4-10 7-17 8 3-5 8-8 11-14 0 4 1 7 6 6Zm-530 0c0-2 0-4 3-3 0 2-1 3-3 3Zm213-3c-4 2 0 3 0 0Zm383 3c0-2 2-3 3 0h-3Zm-599 3c0-2 0-4 3-3 0 2-1 3-3 3Zm184 0v-3h3c1 2-1 3-3 3Zm-187 3c0-2 1-4 3-3 0 1 0 3-3 3Zm565 0v-3h3c-1 1-1 3-3 3Zm-571 2c1-2 3-3 6-2 0 2-2 3-6 2Zm222 0c0-3 4-1 0 0Zm357-2c3 0 6 0 6 2-2 0-6 0-6-2Zm-581 5c0-1 0-3 2-3 0 2 0 4-2 3Zm216 0c-4 1-2-4 0 0Zm5 0c0-1 1-3 3-3 0 2 0 4-3 3Zm18 0c-4 1-2-4 0 0Zm288-3c-8 7-18 12-29 15 5-10 16-12 29-15Zm-530 6c0-2 0-3 3-3-1 2-1 4-3 3Zm219-3h5c0 3-5 4-5 0Zm328 0h3c0 2-3 4-3 0Zm26 6c-14 3 3-13 0 0Zm-576 0c0-2 0-3 3-3-1 2-1 4-3 3Zm544-3c2 4 4 0 0 0Zm35 3c-1-3 4-2 0 0Zm-582 3c0-2 0-3 3-3 0 2-1 4-3 3Zm199-3c3 4 3 7-3 9 0-4-1-8 3-9Zm342 0c2 4 4 0 0 0Zm32 3c-4 4-11 7-14 3 2-5 10-8 14-3Zm6-3h3c0 2-3 3-3 0Zm-582 6c0-2 0-4 3-3 0 2-1 3-3 3Zm210 0c0-4 4-2 0 0Zm329 0v-3c1 0 3 2 0 3Zm193 0v-3c1 0 3 2 0 3Zm-735 3c0-2 1-4 3-3 0 2 0 3-3 3Zm199 0c-12 2-1-9 0 0Zm11 0c1-2 1-4 3-3 0 2 0 3-3 3Zm15 0c0-3 5-4 6 0h-6Zm317-3c-1 2-1 3-3 3 0-2 0-4 3-3Zm11 3c-3 0-2-4 0 0Zm-556 3c0-2 1-4 3-3 0 1 0 3-3 3Zm202-3h3c0 1-3 3-3 0Zm8 3c1-2 1-4 3-3 0 1 0 3-3 3Zm18-3v3c-2 0-4-3 0-3Zm308 0c2 0 3 0 3 3-2-1-4-1-3-3Zm20 3v-3c2 0 6 0 6 3h-6Zm-556 0c-7 7-11 17-23 20 7-8 12-18 23-20Zm176 0h3v3c-2-1-4-1-3-3Zm34 0c-4 1 1 3 0 0Zm6 3c0-4 4-2 0 0Zm323 0v-3c1 0 3 2 0 3Zm17-3c-4 1 0 3 0 0Zm6 0c0 8 12-3 0 0Zm-383 5v-2h3c0 1-1 3-3 2Zm34 0c1-1 1-3 3-2 0 1 0 3-3 2Zm326-2c-4 1 0 3 0 0Zm331 2c0-2 4-2 6-2 0 2-4 2-6 2Zm-694 3c0-1 0-3 3-3v3h-3Zm34 0c1-1 1-3 3-3 0 2 0 4-3 3Zm340 0c-2 5-10 8-14 3 4-7 7-4 14-3Zm0 0c0-3 5-2 0 0Zm-386 3v-3c2 0 4 3 0 3Zm12-3v3c-2 0-3-2 0-3Zm348 3c0-3 5-2 0 0Zm-362 3v-3h2c0 2 0 4-2 3Zm362-3c0 3-2 4-2 6h-6c1-4 3-6 8-6Zm6 3c-1-1 2 2 0 0Zm-360 3c-1 0-3-2 0-3v3Zm340 0h6c0 3 2 3 3 6h-6c0-3-2-4-3-6Zm12 0c1 4 3 0 0 0Zm5 3c0-3 4-2 6-3 0 3-3 2-6 3Zm-553 3c0-2 1-4 3-3 0 2 0 3-3 3Zm185-3c2 0 5 0 5 3-3 0-5 4-5-3Zm345 3c0-2 3-4 3 0h-3Zm-533 3c1-2 1-4 3-3 0 1 0 3-3 3Zm527 0v-3h6c0 2-3 2-6 3Zm9-3h6c0 2 3 2 6 3 0 3-5 2-6 5h-6c1-4 4-5 0-8Zm12 3v-3c1 0 3 2 0 3Zm-550 2c0-1 0-3 2-2 0 1 0 3-2 2Zm184 0v-2c1 0 3 2 0 2Zm340 0v-2h5c0 2-2 3-5 2Zm417 0c1-8 12 3 0 0Zm-944 3c0-1 0-3 3-3-1 2-1 4-3 3Zm282 0c2 0 3 0 3-3-3 0-3 2-3 3Zm-285 3c0-2 0-3 3-3 0 2-1 4-3 3Zm535 6c-5 0-6 3-11 3 2-6 9-7 11-12 2 4 4 5 0 9Zm9-9c0 2-2 4-3 0h3Zm320 0c-3 5-12 3-17 6 0-7 9-6 17-6Zm-867 6c0-2 0-3 3-3 0 2-1 4-3 3Zm184 0c0-2 1-3 3-3v3h-3Zm-187 3c0-2 0-3 3-3 0 2-1 3-3 3Zm516-3h5c-2 5-5 10-14 9v-3c2 0 3-1 3-3 2-1 5 0 6-3Zm331 3c0-2 2-3 6-3-1 2-3 3-6 3Zm-850 3c0-2 1-4 3-3 0 2 0 3-3 3Zm844 0c1-2 2-4 6-3-1 2-3 3-6 3Zm-847 3c0-2 1-4 3-3 0 2 0 3-3 3Zm536-3c0 3-2 3-3 6h-6c1-4 4-6 9-6Zm311 0c-15-3-3 9 0 0Zm-850 6c1-2 1-4 3-3 0 1 0 3-3 3Zm277-3c-5-1-6 3-12 3-1 6-9 6-11 11 2 0 3 1 3 3h5c3-8 14-8 15-17Zm233 0h6c-1 3-4 6-9 5 0-2 3-3 3-5Zm326 3c-1-4 4-2 0 0Zm-838 2c0-1 0-3 2-2 0 1 0 3-2 2Zm527 0c0-2 2-3 5-2 0 2-2 3-5 2Zm305 0c0-2 2-3 6-2-1 2-3 3-6 2Zm-832 0c-5 2 0 4 0 0Zm527 0c-5 2 0 4 0 0Zm299 3c1-2 2-3 6-3-1 3-3 4-6 3Zm-328 3v-3h3c-1 2-1 4-3 3Zm14 0c-3 1-2-4 0 0Zm6 3h-6v-3c4 0 4-3 9-3 0 3-3 4-3 6Zm308-6c-12-2-1 9 0 0Zm-334 3h6c0 6 2 6 6 3 0 3 2 4 2 6-3 3-10 3-11 9-3-1-5 0-6 2-3 1-5 0-6-2 3-2 5-4 9-3-1-3-3-3-3-6 3-1 2-3 0-3 0-3 2-3 3-6Zm12 3c-1-3 4-2 0 0Zm311 0c-2-1 1 2 0 0Zm17 0c0-2 2-3 6-3-1 2-3 4-6 3Zm-582 3c0-3 4-2 0 0Zm262-3c-4 2 0 4 0 0Zm320 0c-5 5-11 9-20 9 5-5 10-9 20-9Zm-585 6c0-2 1-4 3-3v3h-3Zm9 0c0-2 0-4 3-3 0 2-1 3-3 3Zm227 0v-3h6v3h-6Zm317 0c0-4 4-2 0 0Zm-553 0c0 2 1 3 3 3-17 8-41 36-55 29v-3c4 0 5-1 6-3 18-7 29-20 46-26Zm3 3v-3h6c-1 2-3 3-6 3Zm233-3c0 1-2 3-3 0h3Zm317 0c-4 2 0 3 0 0Zm-325 6v-3c1 0 3 2 0 3Zm331 0c1-3 2-4 6-3-1 2-3 3-6 3Zm17 0c0-4 4-2 0 0Zm-354 3v-3h6c-1 2-3 3-6 3Zm14 0c-3 0-1-5 0 0Zm18 0c0-2 2-4 3 0h-3Zm299 0c1-3 3-4 6-3-1 2-3 3-6 3Zm-337 2v-2h6c-1 2-2 3-6 2Zm314 0c-1-1 2 2 0 0Zm23-2c-4 4-10 7-17 8 2-6 8-9 17-8Zm9 2c-1-3 4-1 0 0Zm-349 3c0-1 1-3 3-3 0 2 0 4-3 3Zm15 6c-6 0-10 2-12 6h-3c0-12 12-12 20-15 0 4-4 5-5 9Zm334-9c-12-2-1 9 0 0Zm-354 3h5c-1 5-4 8-5 12h-6c0-3-1-3-3-3 0-2 3-3 3-6 2-1 5 0 6-3Zm311 3c-1-3 4-2 0 0Zm31 0c-1-1 2 2 0 0Zm-360 0h6c-1 2-3 3-3 6h-6c0-3 3-4 3-6Zm329 0c-12-3-1 9 0 0Zm11 3c1-2 3-3 6-3-1 2-3 3-6 3Zm15 0c-2-1 1 2 0 0Zm-38 3c-1-1 2 2 0 0Zm23-3c-8 6-17 11-29 14 7-8 16-12 29-14Zm-348 3h5c0 2-2 3-2 6h-6c0-3 2-4 3-6Zm11 0h6v3c-3 0-2 3 0 3v3h-6c1-3-1-3-3-3 0-3 3-4 3-6Zm308 3c0-4 5-2 0 0Zm32 0c-1-1 2 2 0 0Zm-334 3v-3h3v3h-3Zm9 0v-3h5c0 2-2 3-5 3Zm293-3c-12-3 0 8 0 0Zm-328 3h6c-1 2-3 3-3 5h-6v-2c2-1 4-1 3-3Zm12 3v-3h5c0 2 1 2 3 3 0 2-3 2-3 5-3 0-2-5-5-5Zm17-3h6c0 3-3 3-3 5h-6v-2c2-1 3-1 3-3Zm288 3c-1-2 2 1 0 0Zm31 0c-1-2 2 1 0 0Zm-576 0c0 2-3 2-5 2-1 4-4 6-9 6-1 4-4 6-9 6 0 3-2 3-2 6 1 0 3 0 2 3 11-7 25-8 26-23h-3Zm240 0v8c-4 1-2 3 0 3-1 2-3 3-3 6-3-1-3 1-3 3h-6c1-3 3-3 3-6 3-1 1-3 0-3-1-3-3-2-3 0h-6v-3c3 1 3-1 3-3 3 1 5 0 6-3 4 1 6-1 9-2Zm331 2c-1-1 2 2 0 0Zm-317 0c-4 2 0 4 0 0Zm297 3c0-2 2-3 5-3 0 3-2 4-5 3Zm14 0c-1-1 2 2 0 0Zm-320 3v-3c2 0 4 3 0 3Zm285 0c-1-1 2 2 0 0Zm15 0c0-2 2-3 6-3-1 3-3 4-6 3Zm-305 3v-3h5v3h-5Zm299 0c1-2 2-3 6-3-1 2-3 4-6 3Zm14 0c-1-1 2 2 0 0Zm26 0c-3 0-1-4 0 0Zm-363 0h6v3c-3 0-1 3 0 3v3h-6c0-4-2-2-2 0-3 0-3 3-3 5-3 0-3 2-3 3h-3c1 4 3 2 3 0 2 1 3-1 3-3 3 1 5 0 5-2h6c0 7-11 4-11 11-5 0-6 4-12 3v-3c0-3 4-2 0 0h-3c-1-6 2-8 3-11 7 0 9-5 12-9 2-1 5 0 5-3Zm12 0h3v3c-2 0-4 0-3-3Zm311 0c-4 2 0 4 0 0Zm-317 6v-3c2 0 4 2 0 3Zm294 0c-1-1 2 2 0 0Zm14 0c-1-1 2 2 0 0Zm35 0c0-4 4-2 0 0Zm-40 6h-6c1-4 4-6 9-6 0 3-3 3-3 6Zm14-3c-1-2 2 2 0 0Zm26-3c-4 2 0 3 0 0Zm-590 3c-1 2 1 2 2 3 0 4-6 3-8 5 0-2-1-2-3-3 1-3 4-5 9-5Zm239 0h2v3c-1-1-3-1-2-3Zm8 3v-3h6c0 3-4 2-6 3Zm331 0c1-9 12 2 0 0Zm-34 0c-1 7-12 5-15 11-3 1-3 5-2 9h-6c3-4 2-6-3-6 7-6 15-12 26-14Zm6 2v-2c5-1 7 3 0 2Zm28-2c-4 1 1 3 0 0Zm-60 5c4 10 7-11 0 0Zm32-3c-5 2 0 4 0 0Zm-334 6v-3c1 0 3 3 0 3Zm293 3c1-11 13 1 0 0Zm55-3c-1-1 2 2 0 0Zm-354 3v-3h6v3h-6Zm-3 3v-3h3c0 3-1 3-3 3Zm9-3h5c0 3 1 3 3 3 0 3-3 2-6 3 0-3-2-4-2-6Zm293 0c-12-3 0 9 0 0Zm20 0c2 4 4 0 0 0Zm12 3c-1-1 2 2 0 0Zm-29 3c1-2 3-3 6-3 0 3-4 2-6 3Zm35 0c0-9 12 3 0 0Zm-329 0c0 4-4 5-5 9h-6v-3c2 0 3-2 3-3 3 0 4-4 8-3Zm277 3c0-3 3-2 6-3 0 3-4 2-6 3Zm17-3c0 2 0 3-3 3v8c-2 2-4 3-8 3v-3c-1-3 4-1 0 0-4 0-5 1-6 3-3 0-3 1-3 3-5-2-12 6-6 6 0 2-2 3-5 3-1-3-3-2-3 0-3 0-6 0-6 3-3-1-5 0-6 3h-6c8-11 25-13 32-23 10 0 11-9 20-9Zm20 3c-1-1 2 2 0 0Zm15-3c-4 2 0 3 0 0Zm-55 9h-9c2-4 4-6 9-6v6Zm23-3c1-3 2-4 6-3v3h-6Zm12 0v-3c1 0 3 2 0 3Zm11 0c0-4 4-2 0 0Zm153 0h3v-3c-3-1-3 1-3 3Zm-176 0v3c-2 0-3-3 0-3Zm6 3v-3h6v3h-6Zm11 0c1-3 3-4 6-3-1 2-2 3-6 3Zm-331 2v-2h6c-1 2-3 3-6 2Zm280 0c0-1 0-3 2-2 1 2-1 2-2 2Zm34 0v-2h6v2h-6Zm12-2h5c-3 6-9 11-20 11v-3c5 0 8-2 9-6 2 0 6 0 6-2Zm-329 5c0-1 1-3 3-3 0 2 0 4-3 3Zm277 0c0-2 2-3 6-3-1 3-3 4-6 3Zm34-3h6c0 3-3 3-3 6-2 0-3-2-3-6Zm-316 6c0-2 2-3 5-3 0 3-2 4-5 3Zm276 0c1-2 2-3 6-3-1 3-3 4-6 3Zm26 0v-3h6v3h-6Zm-302 0c-5 2 0 4 0 0Zm276 0c1 4-8 10-9 3 4 0 4-4 9-3Zm23 3v-3h3c0 3-1 3-3 3Zm9 0v-3c2 1 5 0 5 3h-5Zm-317 3v-3c1 0 3 2 0 3Zm308-3v3c-2 0-3-2 0-3Zm6 3c0-2 0-4 3-3 0 2-1 3-3 3Zm8 0v-3h6c0 2-2 3-6 3Zm-331 0v3c-1 0-3-3 0-3Zm9 0c-4 2 0 3 0 0Zm308 3v-3h6c-1 2-3 3-6 3Zm12 0c0-2 0-4 2-3 0 2 0 3-2 3Zm-329 3v-3c2 0 4 0 3 3h-3Zm303-3h3c0 1-3 3-3 0Zm14 0c-4 2 0 3 0 0Zm9 3c0-2 0-4 3-3-1 2-1 3-3 3Zm-668 3c-2-2 1 1 0 0Zm336 0v-3h6v3h-6Zm303 0v-3c1 0 3 2 0 3Zm11 0c-1-2 2 1 0 0Zm12 0c1-3 2-4 6-3-1 2-3 3-6 3Zm-331 0h5c0 2-2 2-2 5h-6v-3c2 0 3 0 3-2Zm296 0c0 2-2 3-3 5-4 0-7 3-8 6-2 1-6 0-6 3-4 0-6 1-9 3 2 4 4 5 0 8-5-5-2-5-11-2 10-11 23-18 37-23Zm6 2v-2h6c-1 2-3 3-6 2Zm12 0c-2-1 2 2 0 0Zm11 0c1-2 3-3 6-2-1 2-3 3-6 2Zm-651 3c-1-1 2 2 0 0Zm628-3c-4 2 0 4 0 0Zm17 3c1-2 3-3 6-3 0 3-2 4-6 3Zm-325 3c0-2 0-3 3-3 0 3-1 3-3 3Zm299 0v-3c2 0 4 3 0 3Zm26-3c-4 2 1 4 0 0Zm-325 3v3c-2 0-3-2 0-3Zm299 0v3c-1 0-3-2 0-3Zm6 3c0-3 4-2 0 0Zm6 3c1-4 4-6 9-6-2 4-4 6-9 6Zm-320 0c-1-1 2 2 0 0Zm300-3c2 4 3 0 0 0Zm8 3v-3h6v3h-6Zm-14 3v-3c2 0 3 2 0 3Zm14-3c-4 2 1 3 0 0Zm6 0h6c-1 4-4 6-9 6 0-3 3-4 3-6Zm-20 3c-4 2 0 3 0 0Zm6 6c-4 0-2-5 0 0Zm6 0c0-3 2-4 5-3 0 2-2 3-5 3Zm-323 2c-1-1 2 2 0 0Zm317-2h6c-3 6-9 10-18 11 1-7 12-4 12-11Zm-23 5c-1-1 2 2 0 0Zm-303 0c2 1 4 1 3 3-1 0-3 0-3-3Zm288 6c2 4 4 0 0 0Zm21 3c0-2 2-3 5-3 0 2-2 3-5 3Zm-539 0v3c-2 0-3-2 0-3Zm513 3v-3c1 0 3 2 0 3Zm26-3c-2 4-4 6-9 6 1-4 4-6 9-6Zm-26 3c-5 2 0 3 0 0Zm-9 6v-3c2 0 3 2 0 3Zm20 0c1-3 3-4 6-3-1 2-3 3-6 3Zm-26 3v-3h6c-1 2-2 3-6 3Zm26-3c-1 3-4 6-8 5 1-3 3-6 8-5Zm-29 3h3c0 1-2 3-3 0Zm-478 5c-1-1 2 2 0 0Zm225 0v-3c2 1 3 1 3 3h-3Zm248 0v-3c1 0 3 3 0 3Zm23 0c0-1 0-3 3-3-1 2-1 4-3 3Zm-274 3v-3h3v3h-3Zm248 0c0-2 0-3 3-3-1 2-1 4-3 3Zm14 3c1-11 13 1 0 0Zm12-6c-5 2 0 4 0 0Zm-32 6v-3h6c-1 2-3 3-6 3Zm-3 0h3c0 2-2 3-3 0Zm23 0c-1 4-4 6-9 6 2-4 4-6 9-6Zm395 6c-1-4 4-2 0 0Zm-404 0c-1 3-3 6-8 6 1-4 4-6 8-6Zm-14 8c1-2 2-3 6-2-1 2-3 3-6 2Zm-3 3c0-1 1-3 3-3 0 2 0 4-3 3Zm-233 3v-3c2 0 3 3 0 3Zm227 0c1-2 3-3 6-3 0 3-2 4-6 3Zm-239 3h3v-3c-2 0-2 1-3 3Zm239-3c-12-3 0 9 0 0Zm47 0c-9 1-15 5-18 12 3 0 4 2 6 3-2-11 11-7 12-15Zm-283 3h3c0 2-2 3-3 0Zm285 3c0-2 3-3 3 0h-3Zm-60 3c0-3 3-2 6-3 0 3-4 2-6 3Zm58 0c0-2 0-4 2-3v3h-2Zm-64 3c0-4 4-2 0 0Zm-6 3c1-3 3-4 6-3 0 2-2 3-6 3Zm52-3c-1 3-3 6-8 5 1-3 3-5 8-5Zm216 3h3v-3c-2-1-3 1-3 3Zm-268 0c-4 1 1 3 0 0Zm-242 2c4 0 7 2 9 3-1 4-4 6-9 6v-9Zm286 0c-1 8-13 6-15 12h-3v-6c3 0 6 0 6-3 6 1 6-3 12-3Zm-58 6c-1-1 2 2 0 0Zm-233 3v-3c1 0 3 1 3 3h-3Zm3 3v-3h2c0 2 0 4-2 3Zm221 0c1-9 12 3 0 0Zm-3 3c1-2 1-4 3-3 0 2 0 3-3 3Zm47 0c0-2 2-3 5-3v3h-5Zm8 0v-3c2 0 3 2 0 3Zm-239 0c0 3-3 4-6 6 1-4 1-7 6-6Zm179 3c0-3 2-4 5-3 0 2-2 3-5 3Zm52-3c0 11-6 9-12 9 1-6 8-6 12-9Zm5 0h3c0 1-2 3-3 0Zm-233 6c0-2 2-4 3 0h-3Zm176-3c-4 2 0 3 0 0Zm17 3c0-2 0-4 3-3v3h-3Zm-202 0c0 3-2 3-2 5-3 0-3 2-3 3-3 0-3 1-3 3-3 1-5 3-6 6-2-1-3 1-3 3-2-1-3 1-3 3h-6c8-9 14-20 26-23Zm176 0c2 4 4-1 0 0Zm43 5c0-3 4-1 0 0Zm-3 3c1-1 1-3 3-3 0 2 0 4-3 3Zm-5 3c0-2 2-3 5-3 0 3-2 4-5 3Zm-49 3c-1-3 4-2 0 0Zm46 0c0-2 0-3 3-3-1 2-1 4-3 3Zm-49 3c0-2 0-4 3-3 0 2-1 3-3 3Zm43 0c1-2 2-3 6-3-1 2-3 3-6 3Zm-467 0c-4 2 1 3 0 0Zm251 0c2 1 3 2 3 6-3 0-2 3 0 3v5c-2 2-5 3-9 3 5-6 0-3 0-11 3 0 3-1 3-3 2 0 4-1 3-3Zm173 0c-4 2 0 3 0 0Zm40 3c0-2 1-4 3-3 0 2 0 3-3 3Zm-49 3v-3c2 0 3 2 0 3Zm43 0c1-3 3-4 6-3-1 2-2 3-6 3Zm-221 3c0-2 0-4 2-3 1 2-1 2-2 3Zm175 0c0-2 1-4 3-3 0 1 0 3-3 3Zm43 0c1-2 1-4 3-3 0 1 0 3-3 3Zm-221 2c0-1 0-3 3-2-1 1-1 3-3 2Zm178-2c-4 1 1 3 0 0Zm38 2c0-2 2-3 5-2 0 2-2 3-5 2Zm-219 3c0-1 0-3 3-3 0 2-1 4-3 3Zm219-3c-4 2 0 4 0 0Zm-222 6c0-2 0-3 3-3 0 2-1 4-3 3Zm-3 3c0-2 1-3 3-3 0 2 0 4-3 3Zm213 0c0-3 4-2 0 0Zm455-3c0 4-1 7-6 6v-6h6Zm-671 6c0-2 1-3 3-3 0 2 0 3-3 3Zm17 0c0-4 5-2 0 0Zm12 0c0-2 0-3 3-3 0 3-1 3-3 3Zm184 0c0-2 1-3 3-3 0 2 0 3-3 3Zm450-3c0 8-6 7-12 9-1-8 6-8 12-9Zm-666 6c0-2 1-4 3-3 0 2 0 3-3 3Zm18 0c0-2 0-4 2-3 0 2 0 3-2 3Zm14-3c-1 4-5 5-6 9-7 3-9 11-17 14 4-11 12-19 23-23Zm184 0c-2 4-4 9-11 9 2-5 4-10 11-9Zm6 3c-1-1 2 2 0 0Zm-412 0c-8 0 3 12 0 0Zm187 3c1-2 1-4 3-3 0 2 0 3-3 3Zm18 0c0-2 0-4 3-3-1 2-1 3-3 3Zm152 0c0-4 5-2 0 0Zm-170 0c0 3-3 4-5 5 0-3 1-6 5-5Zm18 0c-4 1 0 3 0 0Zm152 0c-4 1 1 3 0 0Zm478 3c1-9 12 2 0 0Zm-440 0c-1 3-4 5-9 5 1-3 4-6 9-5Zm438 2c-2 4-7 6-12 6 3-5 6-11 12-6Zm0 0c0-1 0-3 2-2 0 1 0 3-2 2Zm-654 3c0-1 0-3 3-3 0 2-1 4-3 3Zm17 0c0-3 4-1 0 0Zm153 0c-1-1 2 2 0 0Zm-173 3c0-2 0-3 3-3 0 2-1 4-3 3Zm17 0c0-2 1-3 3-3 0 2 0 4-3 3Zm190 0c0-2 1-3 3-3 0 2 0 4-3 3Zm38 0c0-2 0-3 3-3 0 3-2 3-3 3Zm-248 3c0-2 0-3 3-3 0 2-1 4-3 3Zm12 0c0-1 2-3 2 0h-2Zm5 0c0-2 1-3 3-3 0 2 0 4-3 3Zm193-3c-1 4-3 6-8 6 1-4 3-6 8-6Zm429 3c1-9 12 3 0 0Zm-642 3c0-2 1-3 3-3 0 2 0 4-3 3Zm12 0c0-2 0-3 3-3v3h-3Zm5 0v-3h3c0 2 0 4-3 3Zm625-3c-12 0 0 11 0 0Zm-645 6c0-2 1-4 3-3 0 2 0 3-3 3Zm12 0c0-2 0-4 3-3v3h-3Zm6 0v-3h2c0 2 0 3-2 3Zm14-3c-2 4-5 7-9 9 0-7 3-10 9-9Zm-153 6c-3 0-1-4 0 0Zm121-3c0 3-1 7-5 6 0-4 3-5 5-6Zm9 3c0-2 0-4 3-3v3h-3Zm6 0v-3h3c-1 2-1 3-3 3Zm613 0c0-3 4-2 6-3 0 3-4 2-6 3Zm-622 3c0-2 0-4 3-3 0 1-1 3-3 3Zm6-3h3c0 1-3 3-3 0Zm-17 3c-2 10-11 14-18 20-1-5 5-8 0-9 4-5 14-3 15-11h3Zm11 0c0 4 1 6 3 8-3 0-3 1-3 3h-3c0-7-5-9 3-11Zm12 3c0-3 2-4 5-3 0 2-2 3-5 3Zm601 0c1-3 4-3 6-3 0 2-3 2-6 3Zm-604 2c0-1 0-3 3-2-1 1-1 3-3 2Zm596 0c1-3 6-3 6 0-2 5-3 0-6 0Zm-729 3c-1-1 2 2 0 0Zm271-3c2 5 3 0 0 0Zm-256 6c-1-3 4-2 0 0Zm103 0c-3 1-1 3 0 3v3c-2-1-2 1-3 3-2-1-2 1-2 3h-3c-3-8 4-20 8-12Zm602 0c1-8 12 3 0 0Zm-705 0c-5 2 0 4 0 0Zm103 3v-3h3v3h-3Zm602-3c-4 2 0 4 0 0Zm29 0c0 3-2 4-3 6h-9c2-4 7-5 12-6Zm-35 3c-1 4-5 5-5 9-7-2 0-12 5-9Zm-414 6v-3c1 0 3 0 3 3h-3Zm437-3c-1 3-3 6-8 6 1-4 4-6 8-6Zm-645 6c1-2 1-4 3-3 0 2 0 3-3 3Zm12 0c0-2 2-4 3 0h-3Zm590 3c1-4 4-6 9-6-1 3-4 6-9 6Zm-602-3c-4 15-21 18-26 34-2 0-2 1-2 3-3 0-3 1-3 3-3-1-3 1-3 3-4 2-9 4-9 11-6 1-5 8-11 9 13-26 33-45 54-63Zm9 3c0-2 0-4 3-3v3h-3Zm622 0c1-3 2-4 6-3-1 2-3 3-6 3Zm-625 2c0-1 1-3 3-2v2h-3Zm593 0c1-1 1-3 3-2 0 1 0 3-3 2Zm26 0c1-2 3-3 6-2-1 2-2 3-6 2Zm15 0c0-2 2-3 5-2 0 2-2 3-5 2Zm-637 3c0-1 1-3 3-3 1 3-1 3-3 3Zm596-3c-4 5-10 8-17 9 3-6 9-9 17-9Zm21 3c0-2 2-3 5-3 0 3-2 4-5 3Zm14 0c1-2 2-3 6-3 0 4 3 4 3 9-6-3-10 9-12 0 3 1 3-1 3-3 3 0 2-3 0-3Zm17-3c-4 2 1 4 0 0Zm-651 6c1-2 1-3 3-3v3h-3Zm620-3c0 3-3 4-3 6h-6c1-4 4-6 9-6Zm14 0v3c-2 0-3 1-3 3-2 1-6 0-6 3 9 2-4 4-3 9-3-1-5 0-5 2-4 1-5 0-6-2 2 0 3-2 3-3 3-1 1-3 0-3 0-3 3-3 3-6 8 1 9-6 17-6Zm207 0h3c1 5-3 7-3 0Zm-844 6c1-2 1-3 3-3v3h-3Zm-2 3c0-2 0-3 2-3v3h-2Zm616-3c-2 4-6 5-12 6 1-5 5-7 12-6Zm219 3c0-2 0-3 3-3 0 2-1 3-3 3Zm-838 3c0-2 0-4 3-3v3h-3Zm579 0c0-9 12 3 0 0Zm242-3c-1 3-1 7-6 6 0-4 3-5 6-6Zm17 0c-4 2 0 3 0 0Zm-841 6c0-2 0-4 3-3v3h-3Zm582-3c-5 2 0 3 0 0Zm23 3c0-3 2-4 5-3 0 2-2 3-5 3Zm20-3v3c-3-1-3 1-3 3h-9c2-4 6-6 12-6Zm26 3c-3-1-6 0-6-3 2 0 6 0 6 3Zm-651 0c-4 1 0 3 0 0Zm576 0c-1 3-4 6-9 5 1-3 4-5 9-5Zm23 3c1-3 2-4 6-3-1 2-3 3-6 3Zm216 0c0-2 0-4 3-3 0 1-1 3-3 3Zm-216 0c-1 3-4 5-9 5 1-3 4-6 9-5Zm14 0v2c-2 0-2 2-3 3-7 0-4 4 0 3 0 6-9 2-8 9-4-1-5 0-6 3-8-1-9 6-17 6v-3c3-1 1-3 0-3 1-4 3-6 8-6v3c-4 2 1 3 0 0 4 0 5-1 6-3 3 0 5-1 6-3 3 0 1-3 0-3 2-5 8-7 14-8Zm20 2v-2c3 0 6 0 6 2h-6Zm153-2c2 4 4-1 0 0Zm26 2c0-1 0-3 3-2 0 1-1 3-3 2Zm-815 3c-2 0-3 1-3 3-2 0-3 1-3 3-2 0-3 1-3 3-4 2-9 4-8 12-3-1-3 1-3 2-3 0-3 2-3 3-2 1-3 3-6 3v-6c4-2 9-4 9-11 2 0 3-1 3-3 2 1 2-1 3-3 2 1 2-1 2-3 4 1 9-11 12-3Zm3 0c0-1 0-3 3-3v3h-3Zm556-3c4 1 2 7 0 9-5-1-2-6 0-9Zm57 0c3 1 6 1 6 3-4 0-4 4-9 3v-3c2 0 4 0 3-3Zm15 3v-3h5v3h-5Zm181 0c0-1 1-3 3-3 0 2 0 4-3 3Zm-225 3c1-2 3-3 6-3 0 3-2 4-6 3Zm44-3c-5 2 0 4 0 0Zm178 3c0-2 1-3 3-3 0 2 0 4-3 3Zm-227 3c0-2 2-3 5-3 0 2-2 4-5 3Zm14 0c1-2 3-3 6-3v3h-6Zm26 0c-1-1 2 2 0 0Zm187-3c-12-3 0 9 0 0Zm-227 3c-1 4-4 6-9 6 1-4 4-6 9-6Zm8 3c1-2 3-3 6-3v3h-6Zm26 0c0-3 4-2 0 0Zm-5 3c0-2 2-3 5-3 0 2-2 3-5 3Zm-386 9h-6v-3c2 0 3-2 3-3 9-6 8 0 3 6Zm342-6c1-3 3-4 6-3-1 2-2 3-6 3Zm38 0v-3h6v3h-6Zm164 0c-1-1 2 2 0 0Zm-207 3c0-3 2-4 5-3 0 2-2 3-5 3Zm14 0c1-3 2-4 6-3v3h-6Zm23 0v-3h6c-1 2-3 3-6 3Zm161 0c0-3 4-3 6-3 0 3-3 2-6 3Zm-198 0c0 3-3 3-3 5h-6c1-3 4-6 9-5Zm8 3c1-3 3-4 6-3v3h-6Zm29-3c0 1-2 3-3 0h3Zm-383 3h3c2 7-6 5-6 11h-3v-6c3 1 3-1 3-3 2 0 3 0 3-2Zm354 0v2c-1 0-3-2 0-2Zm6 0h6c0 2-3 3-3 5-6 0-7 4-12 3 0-3 3-3 3-6 2 0 6 0 6-2Zm14 2c-1-1 2 2 0 0Zm-43 3c1-2 3-3 6-3 0 3-4 3-6 3Zm12-3c13-2-5 8 8 6-3 6-11 6-14 12-6-1-6 3-12 3v-3c4-1 2-3 0-3 2-4 4-6 9-6v3c-4 2 0 3 0 0 7 0 5-4 0-3 0-5 10-2 9-9Zm26 3c-1-3 4-2 0 0Zm11 0c0-3 4-2 0 0Zm-55 3c1-2 3-3 6-3 0 3-2 4-6 3Zm38 0v-3h6c-1 3-3 4-6 3Zm-608 0v6c-2-1-3 1-3 3h-3c0-5 3-8 6-9Zm570 0c-1 4-3 6-8 6 1-4 3-6 8-6Zm38 0c-4 2 0 4 0 0Zm-619 3c-3 6-5 12-12 14 2-6 4-13 12-14Zm247 3c0-2 1-4 3-3v3h-3Zm363 0c-1-1 2 2 0 0Zm12 0c4 9 7-11 0 0Zm184 0c0-4 4-2 0 0Zm-562 3c1-2 1-4 3-3 0 2 0 3-3 3Zm323 0c1-2 2-4 6-3-1 2-3 3-6 3Zm37 0c0-4 5-2 0 0Zm199 0c0-2 1-4 3-3 0 2 0 3-3 3Zm-800 3c0-2 0-4 2-3v3h-2Zm241-3c-4 2 1 3 0 0Zm317 3c1-3 3-4 6-3-1 2-2 3-6 3Zm15 0c0-3 2-4 5-3v3h-5Zm28-3v3c-1 0-3-3 0-3Zm6 3c1-9 12 2 0 0Zm193-3c-4 2 0 3 0 0Zm-803 6c0-2 0-4 3-3v3h-3Zm558 0c1-2 1-4 3-3 0 1 0 3-3 3Zm15 0c0-2 0-4 3-3-1 1-1 3-3 3Zm20 0v-3c5-1 7 3 0 3Zm11-3h6c0 4-8 9-6 0Zm162 3c-1-2 2 1 0 0Zm29 0c-2-2 1 1 0 0Zm-237 0c-2 3-6 5-11 5 1-5 5-6 11-5Zm9 2c1-2 2-3 6-2 4 4 2 9-6 8v-3c3 0 2-3 0-3Zm14-2c-4 1 1 3 0 0Zm12 0c-4 1 0 3 0 0Zm-608 5c0-1 1-3 3-3 0 2 0 4-3 3Zm254 0c-3 0-3 1-3 3-3 0-3 1-3 3-3 0-3 1-3 3h-3c-1-6 9-16 12-9Zm302 0c-3 1-2-4 0 0Zm20 0c1-2 3-3 6-3v3h-6Zm23 0c-1-1 2 2 0 0Zm15 0c-2-1 2 2 0 0Zm164 0c-1-1 2 2 0 0Zm26 0c-1-1 2 2 0 0Zm-804 0c-3 6-5 13-11 15 1-7 2-15 11-15Zm556 0h6c-2 6-8 8-15 9 0-7 9-3 9-9Zm14 3c1-2 3-3 6-3 0 3-2 4-6 3Zm24 0c-1-3 4-2 0 0Zm175 0c-1-1 2 2 0 0Zm-763 3c0-2 0-3 3-3v3h-3Zm564-3v3c-2 0-2 1-2 3h-6c1-4 4-6 8-6Zm12 0c-4 2 0 4 0 0Zm12 0c-5 2 0 4 0 0Zm-591 6c0-2 1-3 3-3v3h-3Zm161-3c0 3 2 3 3 3 1-3-1-3-3-3Zm406 0c6 0 7 2 3 6h-5v-3c1 0 3 0 2-3Zm15 3c0-4 4-2 0 0Zm-585 3c0-2 1-4 3-3 1 2-1 3-3 3Zm236-3h6v3c-2-1-3 1-3 3h-3v-6Zm311 0c-7 7-16 13-25 17 5-9 14-14 25-17Zm15 0v3h-3c1 3 3 1 3 0h6c-1 2-3 3-3 6-4-1-5 0-6 2h-6v-2c0-4 4-2 0 0h-6c2-6 8-8 15-9Zm17 3c1-2 3-4 6-3-1 2-3 3-6 3Zm-579 0v6c-2-1-2 1-3 2-2 1-3 3-5 3-1-7 4-9 8-11Zm573 3v-3h6c-1 2-2 3-6 3Zm-426 3v-3h3c1 2-1 2-3 3Zm423 0c1-2 1-4 3-3 0 1 0 3-3 3Zm12 0c0-4 4-2 0 0Zm-438 2v-2h3c0 1 0 3-3 2Zm403-2v2c-2 0-2 2-2 3h-6c1-3 4-6 8-5Zm18 2v-2h5v2h-5Zm17-2c-12-3-1 8 0 0Zm158 0c10-3 5 5 0 5v-5Zm15 2c-1-3 4-1 0 0Zm-208 0h6c-1 4-4 6-8 6v-3c1 0 3 0 2-3Zm12 3v-3h6c-1 3-3 4-6 3Zm11-3c2 5 4 0 0 0Zm185 0v3c-3 0-3 1-3 3-4 0-3-7 3-6Zm-763 3v6c-3 1-3 3-6 3 0-5 2-7 6-9Zm155 3c0-1 2-3 3 0h-3Zm392-3v3c-3 0-3 1-3 3h-6c1-4 4-6 9-6Zm17 3c0-2 1-3 3-3 0 2 0 4-3 3Zm184-3c1 2 1 4 3 3 0 8-11 4-11 12h-3c1-5-3-5-3-9 9 2 6-8 14-6Zm15 0c10-2 3 8-3 6v-3c2 0 3 0 3-3Zm-216 6v-3h6c-1 2-3 4-6 3Zm17-3c-4 2 0 4 0 0Zm12 3c-2-1 1 2 0 0Zm-38 0v3c-3 1-1 3 0 3 0 3-2 3-3 6h-5c-1-3 1-3 2-3 0-3-3-2-5-3v-3c5 1 6-3 11-3Zm6 3v-3h3c0 2-1 4-3 3Zm23 0c4 10 7-11 0 0Zm193-3c-4 2 0 4 0 0Zm-769 6c0-2 0-4 3-3 0 2-1 3-3 3Zm547 0v-3h6c-1 2-3 3-6 3Zm12 0c-2-1 2 2 0 0Zm5 3c2-4 4-6 9-6-1 4-4 6-9 6Zm196-3c0-4 4-2 0 0Zm-760 0v6c-2-1-3 1-3 3h-3c0-5 2-8 6-9Zm550 6c0-4 4-2 0 0Zm9 0c0-3 2-4 5-3 0 2-2 3-5 3Zm-23 3c0-2 0-4 3-3v3h-3Zm8 0v-3h6c-1 2-2 3-6 3Zm15-3c-5 1 0 3 0 0Zm-582 5c-4 1-2-4 0 0Zm14 0c0-1 1-3 3-2 1 2-1 2-3 2Zm539 0v-2h6v2h-6Zm9 0v-2h5c0 2-2 3-5 2Zm-548 0v6c-2 0-2 1-3 3h-2c-1-5 2-7 5-9Zm545 3v-3h3c-1 2-1 4-3 3Zm11 0c0-3 5-3 6 0h-6Zm-17 0h6c0 3-3 4-3 6h-6v-3c2 0 3 0 3-3Zm17 0c-1 4-4 6-8 6 1-4 3-6 8-6Zm-20 6c-4 2 0 4 0 0Zm6 0h6c-2 4-4 6-9 6 0-3 2-4 3-6Zm-15 6v-3c2 0 4 2 0 3Zm-553 3c-3 0-1-5 0 0Zm553-3c-4 2 1 3 0 0Zm6 3c1-3 3-4 6-3-1 2-3 3-6 3Zm-14 3c-1-4 4-2 0 0Zm11 0c0-2 1-4 3-3 0 1 0 3-3 3Zm15 0c-2-2 2 1 0 0Zm-32 2v-2h6v2h-6Zm17-2c0 2-5 3-6 0h6Zm-564 5c-1-1 2 2 0 0Zm233 0c-3 1-2-4 0 0Zm311 0c0-1 1-3 3-3 0 3-1 3-3 3Zm9-3c2 1 3 3 3 6-4 0-4 4-9 3 1-4 5-5 6-9Zm-15 3h6c0 3-2 4-3 6-4 2 0 4 0 0h6c-1 5-5 7-12 6 0-3-3-2-5-3v-3c3 1 5-1 5-3 2 0 4 0 3-3Zm-5 15c0-2 0-4 2-3 0 2 0 3-2 3Zm400-3c2 4 3 0 0 0Zm-403 6c0-2 0-4 3-3-1 1-1 3-3 3Zm-6 0h6c0 2-5 3-6 0Zm394 2c1-1 1-3 3-2 0 1 0 3-3 2Zm0 0c-11 1 1 13 0 0Zm-31 12c-4 0-2-4 0 0Zm6 0c0-2 0-3 2-3 0 2 0 4-2 3Zm-689 3c0-2 3-3 3 0h-3Zm666-3c12-1-1 4 0 9-5-1-2-7 0-9Zm17 0h6c-5 6-8 13-18 14-2-17 10-4 12-14Zm-683 3v3c-1 0-3-3 0-3Zm651 3c4 0 3 7-3 6 0-3 3-4 3-6Zm-9 6h6v2c-3 1-4 4-8 3 0-3 2-3 2-5Zm-141 5h3v-3h-3v3Zm147-3c3 0 4 5 0 6v-6Zm12 3c1-4 6-2 8 0-3 5-6 12-14 12 0-3 2-4 3-6 2 1 3-1 3-3 3 0 1-3 0-3Zm8 0c1-1 1-3 3-3 0 2 0 4-3 3Zm-530 0c1 3-1 3-2 3-1 3 0 5 2 6 2-2 5-8 0-9Zm502 0c-5 2 0 4 0 0Zm17 3c0-2 0-3 3-3v3h-3Zm-9 0c0 4-5 5-6 9-7-1 0-11 6-9Zm9 0v3c-2 0-3-2 0-3Zm-26 6c0-4 4-2 0 0Zm-493 0c2 0 4 2 0 3v-3Zm490 3c0-2 1-4 3-3 0 2 0 3-3 3Zm-6 3v-3h6c-1 2-2 3-6 3Zm12 0c-1-2 2 2 0 0Zm17 0c0-2 1-4 3-3 0 2 0 3-3 3Zm-867 3c-1-2 2 1 0 0Zm15-3c-5 1 0 3 0 0Zm334 3c-1-2 2 1 0 0Zm8 0c0-4 5-2 0 0Zm478 0c1-2 1-4 3-3 0 1 0 3-3 3Zm32-3c-2 4-4 9-11 8 2-4 4-9 11-8Zm-513 5c1-1 1-3 3-2 0 1 0 3-3 2Zm476-2h5v2c-2 0-5 0-5-2Zm-481 5c0-2 2-3 5-3v3h-5Zm486-3c4 1 3 8-2 6 0-3 2-3 2-6Zm12 3c-1-1 2 2 0 0Zm-498 0v6h-6c1-3 3-4 6-6Zm507 0c-5 2 0 4 0 0Zm-44 6v-3c2 0 4 3 0 3Zm21-3c-5 2 0 4 0 0Zm-790 3c-4 2 1 4 0 0Zm297 3c0-2 1-3 3-3 0 2 0 3-3 3Zm533 0c-1-1 2 2 0 0Zm-818 0c-4 2 0 3 0 0Zm282 3c0-2 1-4 3-3 0 2 0 3-3 3Zm484 0c0-4 4-2 0 0Zm23 0c0-4 4-2 0 0Zm-510 3c0-2 1-4 3-3 0 2 0 3-3 3Zm568 0c-7 9 9-7 0 0Zm11 0c-1-2 2 2 0 0Zm-579 0c-4 1 1 3 0 0Zm473 3v-3c1 0 3 2 0 3Zm-386 0h3c0 1-3 3-3 0Zm383 2c0-1 0-3 3-2v2h-3Zm69 0c-1-1 2 2 0 0Zm17 0c0-2 4-2 6-2 0 2-4 2-6 2Zm-86 0v3c-2 0-4-2 0-3Zm54 3c0-3 5-1 0 0Zm6 0c-1-1 2 2 0 0Zm-544 3v-3c2 0 3 3 0 3Zm533 0c0-2 2-3 5-3 0 3-2 4-5 3Zm20 0c-1-1 2 2 0 0Zm23 0c-1-1 2 2 0 0Zm-812 3c-1-1 2 2 0 0Zm233 0v-3h3c0 2-1 4-3 3Zm121-3c-4 2 0 4 0 0Zm354 3v-3c2 0 4 3 0 3Zm61-3c-12-3-1 9 0 0Zm34 3c-1-1 2 2 0 0Zm-573 3v-3h3c0 2 0 4-3 3Zm530-3c-2 4-6 5-11 6 0-5 5-7 11-6Zm-32 6v-3c2 0 4 2 0 3Zm41-3c-1 5-5 7-12 6 2-4 6-6 12-6Zm46 3c-1-1 2 2 0 0Zm-35 3c-1-1 2 2 0 0Zm23 0c-1-1 2 2 0 0Zm35 0c-1-1 2 2 0 0Zm-89 3c0-3 3-3 5-3 0 3-3 2-5 3Zm20 0c-1-2 2 2 0 0Zm26 0c-2-2 2 2 0 0Zm-35 3c0-3 4-3 6-3 0 2-4 2-6 3Zm61 0c0-4 5-3 8-3 0 3-5 2-8 3Zm-395 0c-4 1 0 3 0 0Zm3 0h3c0 4-3 7-3 0Zm322 2c1-8 12 3 0 0Zm61 0c0-3 4-1 0 0Zm-86 3v-3c5 1 14-3 11 6-5-2-12 6-6 6 0 2-2 3-5 3v-9c3 0 1-3 0-3Zm25-3c-12-2 0 9 0 0Zm61 0c-7 7-24 15-32 12 9-6 18-11 32-12Zm-92 6c0-2 2-3 6-3v3h-6Zm46 0c0-3 4-2 0 0Zm52 3c3-4 10-5 17-6-3 5-9 7-17 6Zm-81-3c1 9 12-3 0 0Zm20 3c-1-1 2 2 0 0Zm9-3c-4 2 0 4 0 0Zm-17 6c-2-1 1 2 0 0Zm60 0c1-3 5-3 9-3-1 3-5 3-9 3Zm-363 3c0-2 2-3 3 0h-3Zm363-3c-12-3-1 9 0 0Zm-363 3c-4 2 0 3 0 0Zm3 0h3c0 1-2 3-3 0Zm268 0h9c-2 4-7 5-12 6 0-3 2-4 3-6Zm69 6c2-5 7-7 14-6-2 4-7 6-14 6Zm-55 0c-1-2 2 1 0 0Zm78 0c3 11 3-12 0 0Zm-86 2c-2-1 2 2 0 0Zm54 0c1-3 5-3 9-2 0 3-5 3-9 2Zm-60 3c-1-1 2 2 0 0Zm55 0c0-2 2-3 5-3 0 3-2 4-5 3Zm-64 3c-1-1 2 2 0 0Zm78-3c4 1 5 5 9 6-2 7-12 0-9-6Zm9 3c-2-1 2 2 0 0Zm-15 6c-3-12 9-1 0 0Zm-515-3c1 4 3 0 0 0Zm507 3c-1-4 4-2 0 0Zm46 0c-2-1 2 2 0 0Zm-124 3c-1-1 2 2 0 0Zm78-3c0 4 3 4 2 9-2 0-5 0-5 2-4 0-3-4-3-8-6 1-7 6-15 6 3-7 10-10 21-9Zm8 0c-4 2 1 3 0 0Zm26 3c0-3 4-2 6-3 0 3-4 2-6 3Zm-8 3c0-3 3-3 5-3 0 3-3 2-5 3Zm-291 0c-12-3-1 8 0 0Zm288 0c-1 5-5 6-12 5 2-3 6-5 12-5Zm-52 5c0-2 5-3 6 0h-6Zm17 0c-1-1 2 2 0 0Zm-23 3c1-2 2-3 6-3v3h-6Zm12-3c8 7-12 10-18 12v-3c4 0 2-3 0-3 1-2 3-3 6-3 1 4 6 3 6 0 2 0 5 0 6-3Zm5 3c-1-1 2 2 0 0Zm23 0c0-3 5-1 0 0Zm-216 3c-1-1 2 2 0 0Zm216-3c-12-2 0 9 0 0Zm-46 3v3c-5 1-7-3 0-3Zm35 3c-1-1 2 2 0 0Zm-628 0c-9 1 3 12 0 0Zm622 3c-1-1 2 2 0 0Zm-184 3c-1-1 2 2 0 0Zm175 0c1-3 4-2 6-3 0 3-3 2-6 3Zm-5 3c-1-4 4-2 0 0Zm-156 0h3c0 1-2 3-3 0Zm150 3c1-3 2-4 6-3-1 2-3 3-6 3Zm-9 3c1-4 5-4 9-3-1 3-5 3-9 3Zm-556 2v3c-4 0-10 1-11-3 6-4 4 1 11 0Zm32 0c-1-1 2 2 0 0Zm-32 3h12c-3 5-11 8-12 0Zm536 3c1-2 3-3 6-3-1 3-3 4-6 3Zm-104 6c-1-1 2 2 0 0Zm12 3c-1-1 2 2 0 0Z"/></svg>