<svg width="67" height="9" viewBox="0 0 67 9" fill="none" role="img" xmlns="http://www.w3.org/2000/svg">
  <path d="M38.787.489c-.24-.109-.048-.272 0-.489h-.577v.489c.096.054.529.38.577 0Zm2.595-.326c.145-.109-1.49-.272-1.201 0 .336 0 .913-.054.529.326.288-.054.816.217.672-.326ZM41.96 0v.489h.288c0-.163.097-.163.145-.326-.193 0-.337-.054-.433-.163Zm5.672.163c-.433.109-.577-.326-.673.163.192-.054.72.217.673-.163Zm-8.844.978c0-.217.24-.109.288-.326-1.201.163-3.028-.326-3.46.598.24-.87-.913-.163-1.01-.598.337-.109 1.01.163 1.106-.163-.817 0 0-.326.144-.489-.769.272-2.115-.109-2.595.49-2.115-.436-7.835.434-11.391.597-3.701.217-7.354.598-11.055.815-3.556.163-7.498-.272-10.814.489.144 2.065.433 5.162 1.826 6.412 10.19.272 20.62-1.141 28.358-2.065.048.652.096.054.288 0 0 .598 1.057.054 1.25-.163.336.706 2.403.163 2.355-.163h.384c-.144.543 2.596.435 1.827-.272.432.163 1.153.815 1.778.272.096-.815 3.605.652 4.854-.109.721.163 1.49-.163 2.355-.163.24-.434 1.058.652 1.538 0-.192 0-.384 0-.432-.163.288.055.384-.108.577-.163-.145.652.913.49.24.163 1.826.38 3.845-.326 5.72.326-.53 0 .384.38.24 0-.048 0-.144-.163 0-.163v.163c.144-.108.24-.163.432-.163-.192.272-.144.326.289.272-.048-.598.096-.054.384-.109.048-.163.529-.597.433 0 .432.055.48-.326.961-.163-.144.218-.144.38.144.435-.144-.543.577-.163.673-.435.096.326-.384.49.144.435.193 0 .048-.435.289-.435.096.218.432.218.673.272 0-.109.24-.163.288 0h-.288c0 .217-.24.109-.24.326.624.109 1.057-.054 1.345-.326.192.054.096.326.288.326 0-.163.193-.109.289-.163.096-.217.432-.217.673-.272 0 .109-.096.109-.096.272.336-.109.528-.163.817.163.144-.054.096-.326.288-.326.048.489.865.217.24.652.577.217.289-.435.577-.489 0 .163.144.163.144.326.577.109.913-.109 1.25-.326.24 0 .144.435.529.326 0-.163.048-.272.144-.326 0-.054 0-.163.144-.163a.908.908 0 0 0-.433-.272c-.192.055.048.163 0 0 .048-.217.048-.489-.144-.489.144.544-.432.272-.528.163-.097.218-.24.38-.433.49-.048-.272.192-.816-.144-.816 0 .544-.48-.38-.529.163.337.055-.24.326-.288.49-.145-.11-.192-.327-.289-.49-.096-.108-.192-.163-.384-.163.144.544-.48.163-.577 0h-.144c-.24.163-.385.435-.673.49.048-.218.144-.272 0-.49-.192 0-.144-.271-.288-.326-.048.163-.096.218-.289.163 0 .109 0 .326-.144.326v-.326c-.529-.054-.769-.271-1.105.163-.193-.054-.337-.217-.385-.489.625.163.144-.217.385-.272.24 0 .528-.054.576.163-.144 0-.384-.054-.432.11.625.162 1.442-.164 1.682 0 0-.11.24-.164.288 0h-.288c.048.38.673.108.961.162-.288-.326.048-.163.145-.435-.673.11-.721 0-1.538 0-.193.11.048.163 0 0-.289-.38-1.154-.054-1.635-.163.048.272-.144.272-.288.326-.192.327.048.653-.144.761-.144-.054-.192-.163-.289-.326.145-.108.048-.543.433-.435v-.326c-.24.055-.24-.163-.433-.163.048.218.048.435-.144.49-.192.326.048.652-.096.76-.192-.38-.625-.489-.865-.76h.961c-.144-.218-.048-.272 0-.49-.673 0-1.682.055-1.778-.163 0-.434.961.163.961-.326-.336.055-.529 0-.673-.163-.048.218-.336.163-.577.163.193-.054.049-.597.289-.597h.529c-.049-.38-.721 0-.673-.49h-.289c0 .49-.288.164-.817.327 0 .434.962-.163.962.326-.24.489-.77.217-1.106.163-.192.054 0 .163 0 0s-.144-.163-.288-.163c.048.543-.337.163-.817.434.576.326 1.922-.326 1.538.652-.24-.326-.481-.489-.289.163-.144-.163-.384-.217-.673-.163.048.326-.048.49-.288.435 0-.272.144-.326.144-.598-.144-.163-.913-.326-.961 0 .096.055.24 0 .24.163-.096-.054-.24 0-.24-.163h-.144c-.193.11 0 .163 0 0-.193-.597-1.01.218-1.25-.489.577.055.913.218 1.394-.163-.529.11.24-.543-.288-.923-.049.217-.24 0-.289-.163-.144.108-.144.38-.433.326 0-.272.193-.326.145-.598-.529 0-1.01 0-1.346-.163-.096.109-.144.272-.288.272v.326c.096.217.144 0 0 0-.24-.272-.577.271-.721-.326.24.054.432 0 .576-.11 0-.216-.048-.325-.144-.325-.336.435-.865.217-1.25.163.049.38-.047.652-.432.598 0 .108 0 .217-.096.163 0-.109 0-.163.096-.163 0-.109-.096-.163-.096-.326.24.054.432 0 .384-.272h-.528c-.24.489-.337-.326-.721-.163 0 .217.096.598-.145.598.049-.38-.288-.38-.384-.598.192.435-.72.38-.72.163-.241.054-.241-.163-.241-.326.432-.217.625.163.673-.326-.577.163-.817-.109-1.25.326.24 0 .384.109.433.326-.193.054-.24.272-.433.272-.192-.761-.913.163-1.25-.272.048-.76 1.01.217 1.106-.652-.289-.326-.817.543-1.25 0-.144.598.144.706-.24.924-.048-.163-.433-.163-.433 0 .145 0 .145.271 0 .326v-.326h-.144c-.048.163 0 .326-.144.326.048-.109 0-.326.144-.326.048-.435-.769.163-.673-.272.289-.054.48-.272.962-.163 0-.652-.721.109-.289-.652-.288-.055-.288.217-.433.326V1.25c-.24.054-.288-.163-.528-.109-.192.054 0 .163 0 0C41.19.87 42.344.924 42.392.978c0 .435-.866.163-.433.598.337-.272.48.217.673-.163-.144.054-.048-.218 0 0h.288c.048-.326-.384-.163-.384-.435.384.054.673-.435.817.163-.288-.054-.288.163-.433.272.577.272 1.058-.109 1.538-.272-.48.109-.72-.163-.432-.489H40.42c.385.598 0 .217 0 1.087.192.054.24-.054.288-.163-.144.054-.096-.218 0 0 .433-.163.53-.055.673.326-.24.054-.096.598-.384.652-.144-.217.048-1.033-.433-.49.337.055 0 .599-.288.49 0 .054 0 .163-.096.109-.24.108 0 .217 0 0v-.11c-.192-.053-.433 0-.433-.162-.288.217-.192-.054-.577 0 0 .163 0 .326-.24.272 0-.163.144-.218.24-.272.097-.163.721-.543.577 0h.433c0-.217.144-.272.24-.326-.048-.217-.144-.326-.384-.326 0 .163-.24.217-.289 0h.289c.048-.218.24-.218.24-.49-.577.218-1.01-.325-1.346 0 0 .11-.144.218-.144 0-.144 0-.192.164-.288.164 0 .108 0 .217-.145.163 0 .272.337.163.289.489-.433.109-.289.109-.577-.163 0 .38-.336.38-.385 0 0-.163.145-.217.24-.326.049.109.049.326.145.326.048-.217.048-.38.288-.326 0-.109.048-.163.145-.163 0-.163-.24-.163-.433-.163 0 .108-.096.217-.144 0-.048 0-.144 0-.096-.109.048 0 .144 0 .096.109h.144c-.048-.598.336.108.72-.109ZM33.933.49c-.048.163-.24.163-.433.163.048-.163.288-.109.433-.163Zm.288.163c-.048-.054.096.109 0 0Zm-3.076 0c0 .163-.144.109-.24.163 0-.163.144-.109.24-.163Zm.577.163c-.048-.054.096.109 0 0Zm.288 0c-.096-.054.096.109 0 0Zm-3.22.163c-.048-.054.096.109 0 0Zm.432 0c-.048-.054.096.109 0 0Zm1.394 0c-.048-.054.096.109 0 0Zm3.605 0c-.48-.489-.433.543 0 0Zm-2.788.163c-1.346-.054.673 0 0 0Zm1.682-.163c-1.49-.217-.913.49 0 0Zm.53 0c0 .163-.241.109-.385.163 0-.217.24-.163.384-.163Zm9.852.163c-.096-.109.096.054 0 0Zm-19.129.109c-.048-.055.096.108 0 0Zm.433 0c-.048-.055.096.108 0 0Zm5.239 0c.336-.435.913.217 0 0-.193.108.047.217 0 0Zm5.96 0c-.049-.055.095.108 0 0Zm-8.027.163c-.048-.055.096.108 0 0Zm.288 0c-.048-.055.096.108 0 0Zm.961-.163c-.865-.163-.288.489 0 0Zm.289.163c-.048-.055.096.108 0 0Zm5.527 0c-.048-.055.096.108 0 0Zm1.25 0c-.048-.055.096.108 0 0Zm1.25 0c-.049-.055.095.108 0 0Zm-11.2 0c-.047.163-.192.163-.288.163 0-.163.144-.109.289-.163Zm.674.163c-.049-.055.096.109 0 0Zm.528 0c-.048-.055.096.109 0 0Zm11.776.163c.096-.707.672-.054 0 0-.193.109.048.217 0 0Zm-15.62-.163c0 .163-.193.109-.29.163 0-.163.193-.109.29-.163Zm6.343.163c-.048-.054.097.109 0 0Zm5.672.489c-.144-.109-.24-.326-.24-.652.384 0 .432.435.24.652Zm.433-.652c0 .163-.145.109-.289.163 0-.163.192-.109.289-.163Zm.672.163c-.144 0-.048-.218 0 0 .193 0 .289-.218.289.163h.144c0-.163.192-.109 0 0 0 .109-.096.163-.144 0-.096-.054-.24 0-.289-.163Zm1.97 0c.145-.598.145.652 0 0Zm-16.196.163c-.048-.054.096.109 0 0Zm3.46 0c-.048-.054.096.109 0 0Zm2.211-.163c0 .163-.192.109-.288.163 0-.163.192-.109.288-.163Zm3.893.489c-.192-.87.385-.217 0 0-.625-.054-.048.598 0 0Zm.961-.326c-.096-.054.097.109 0 0Zm.53 0c-.049-.054.095.109 0 0Zm.432 0c-.048-.054.096.109 0 0Zm-2.355.163c-.048-.054.096.109 0 0Zm2.499.163c0-.163.144-.163.144-.326h.24c.097.326-.192.272-.384.326Zm2.21-.326c0 .163-.191.109-.287.163 0-.163.192-.109.288-.163Zm.145.163c-.096-.054.096.109 0 0Zm-10.814.163c-.048-.054.096.109 0 0Zm.577 0c-.096-.054.048.109 0 0Zm7.161 0c.192-.652.192.598 0 0Zm-1.778 0c-.962-.109-.385.543 0 0Zm.817.326c-.433-.49.48-.272 0 0-.385 0 .144.598 0 0Zm.432-.163c-.048-.109.096.109 0 0Zm4.566 0c-.336.489.433-.38 0 0Zm-16.197.163c-.048-.109.096.054 0 0Zm4.71 0c-.048-.109.096.054 0 0Zm1.49 0c.192-.652.192.598 0 0Zm1.827-.163c0 .109-.193.109-.289.163 0-.163.192-.163.289-.163Zm.432 0c-.048.109-.192.109-.288.163 0-.163.144-.163.288-.163Zm6.633.163c0-.217.192-.109 0 0-.192.054 0 .163 0 0Zm.384 0c.193-.652.193.598 0 0Zm1.394 0c0-.217.192-.109 0 0-.192.054.048.163 0 0Zm.433 0c0-.217.192-.109 0 0-.193.054 0 .163 0 0Zm-12.064.109c-.048-.055.096.108 0 0Zm.577 0c-.048-.055.096.108 0 0Zm.673 0c-.049-.055.096.108 0 0Zm4.998 0c-.048-.055.096.108 0 0Zm1.106 0c-.048-.055.096.108 0 0Zm1.778 0c0-.163.24-.055 0 0-.192.108.048.217 0 0Zm-10.237.326c-.433-.163.144-.435.432-.326-.048.271-.432.054-.432.326Zm6.104-.163c-.097.054-.289 0-.289.163-.529-.055.288-.652.288-.163.53.054-.048.706 0 0Zm1.922 0c0-.163.24-.055 0 0-.577-.11 0 .489 0 0Zm1.826.163c-.576-.055 0-.707 0 0-.144.652.385.054 0 0Zm2.355 0c-.144-.652.385 0 0 0-.48.271.433.489 0 0Zm2.596.326c-.385-.163.192-.435.144-.652.433.163-.144.434-.144.652Zm2.788-.652c0 .163-.145.163-.289.163 0-.163.192-.11.289-.163Zm.144.163c-.048-.055.096.108 0 0Zm1.634 0c-.144.054-.289.054-.24.326-.193 0-.145-.272-.145-.49.145.055.385 0 .385.164.384-.435.625.434 0 .326v-.326Zm.865.163c-.144-.707.625.163 0 0-.577-.163-.048.489 0 0Zm1.105-.326c-.048.217-.24.163-.432.163.048-.163.24-.11.432-.163Zm3.029.489h-.385c-.096-.49.336-.544.529-.326v.163c.096 0 .144-.109.144-.326h.432c-.048.271 0 .543-.288.489.192.543.769.054 1.105.326-.384.38-.624.326-1.393.434-.24.11.048.218 0 .49-.625-.11-.625.108-.673.325-.673.11.192-.434-.289-.489-.048-.326.481-.054.673-.163v-.271c-.528-.055-.432-.435.145-.652ZM22.59 2.989c-.048-.055.096.108 0 0Zm5.96.163c-.53-.272.432-.49 0 0 0 .489.576-.163 0 0Zm.672-.163c-.048-.055.096.108 0 0Zm2.788 0c.144-.598.144.652 0 0Zm2.355.163c0-.109.096-.163.096-.326.145.054.145.163.289.163 0 .163-.145.163-.145.326-.096-.055-.144-.163-.24-.163Zm4.806-.326c0 .163-.144.163-.24.163 0-.163.144-.109.24-.163Zm.289.163c0-.163.192-.109 0 0-.192.108 0 .217 0 0Zm.288 0c-.048-.055.096.108 0 0Zm1.538-.163c0 .163-.192.163-.288.163 0-.163.144-.109.288-.163Zm2.74.163c-.048-.055.096.108 0 0Zm4.037 0c-.048-.163.192-.109 0 0-.192.108 0 .217 0 0Zm-21.628.163c-.048-.055.096.108 0 0Zm1.25 0c-.049-.055.096.108 0 0Zm2.787 0c-.048-.055.096.108 0 0Zm.433 0c-.097-.055.048.108 0 0Zm2.883 0c0-.163.193-.109 0 0-.192.108 0 .217 0 0Zm1.923 0c-.048-.055.096.108 0 0Zm7.642 0c-.048-.055.096.108 0 0Zm-14.419.163c-.048-.055.096.108 0 0Zm8.988 0c-.048-.055.096.108 0 0Zm5.575.489c-.48-.38-.625-.109-.865-.163.144-.652 2.692-.435 3.22 0 .673-.652 2.355-.218 3.172-.326-.24.326.096.326-.144.597-.432-.054-.384-.652-1.105-.434-.192.054-.144.326-.289.434.048.218.24.218.433.163-.048.218-.144.272-.288.326-.193.11 0 .218 0 0-.24-.597-.721.652-.962 0-.865-.326-1.442.163-2.355-.163.144-.326.865-.054 1.25-.163-.192-.434-1.442-.38-.144-.434-.577-.326-1.394-.163-1.779 0 .048 0 .145.108 0 .163 0 .271-.048.489-.144.597.048 0 .144.055.144.163.145 0 .289-.054.24-.326-.144.055-.047-.217 0 0 .385-.108-.096.761.289.652-.192.544-.192-.38-.529-.163v-.163c-.096 0-.192 0-.144-.163-.144 0-.192-.108-.288-.163-.193.11 0 .218 0 0 0-.217.336-.108.288-.434Zm-12.496-.326c-.048-.055.096.108 0 0Zm.72.163v-.326h.289v.326h-.288Zm9.661 0c0 .163-.096.163-.096.271-.192-.054-.288-.326-.288-.597.24-.055.288.217.384.326v-.326h.721c-.048.543-.384.217-.144.76.24 0 .433.055.577.163-.048.435-.625.326-.577-.163-.288-.054-.384-.271-.577-.434Zm1.01.271c-.193 0-.145-.38-.145-.597.577-.055.049.326.145.597Zm-5.96.163c-.048-.434-.77-.054-.721-.597.336.434.865-.218 1.105.163.096.38-.625-.109-.384.434Zm.817-.597c0 .163-.144.108-.288.163 0-.163.192-.163.288-.163Zm.432 0c0 .163-.192.108-.288.163 0-.163.144-.163.288-.163Zm.53.597c-.337.055.095-.706-.385-.434 0-.272.336-.163.528-.163-.048.217-.192.271-.144.597.192.163.385.218.721.163-.096.38-.72.055-1.01.163.049-.217.29-.163.29-.326Zm.576-.597c0 .163-.192.108-.288.163 0-.163.192-.163.288-.163Zm.817.326c-.096.434-.192.163-.529.108-.048-.163.193-.217 0-.271.193-.598.193.326.529.163-.385-.49.337-.326.673-.326 0 .108 0 .163-.096.163 0 .108.096.163.24.163.048.271-.625.217-.384-.163-.193 0-.193.163-.433.163Zm1.105-.326c0 .163-.144.108-.288.163 0-.163.192-.163.288-.163Zm-8.315.326c0-.109.145-.218.145 0 .769.108 1.105-.218 1.826-.163v.271c.192-.271.673-.326 1.25-.271-.048.326-.625 0-.577.434-.144-.271-.384-.38-.432.163h-.673c0-.271.384-.054.432-.326-.577-.054-1.49.218-1.826-.108h-.145c-.047.271-.047.652-.384.597-.048-.217 0-.543-.288-.489-.048-.326.48-.054.672-.108Zm11.488 0c.192-.652.192.597 0 0Zm4.037.108c-.433-.163.144-.434.384-.271 0 .217-.384.054-.384.271Zm-17.447.163c-.192.055-.096-.217 0 0 .096 0 .144.055.144.163.096.218.144 0 0 0-.096 0-.192 0-.144-.163Zm.288 0c-.048-.054.096.11 0 0Zm.53 0c-.049-.054.095.11 0 0Zm4.565.163c-.432-.489.48-.271 0 0-.529.055.048.707 0 0Zm.865-.163c-.096-.054.048.11 0 0Zm.385 0c-.048-.054.096.11 0 0Zm-8.988.163c-.048-.054.096.11 0 0Zm3.46.326c.193.055 1.49.272 1.394-.489.289-.054.337.326.145.326.817.38.144.11-.145.652-.144-.815-1.25.38-1.393-.489Zm1.779-.326c.24.544.384-.597 0 0Zm2.259-.163c-.048.163-.193.163-.289.163 0-.163.145-.108.289-.163Zm4.566.163c-.962.544-.721-.38 0 0Zm.096.163c.048-.38.529-.38.72-.163 0 .326-.48.11-.72.163Zm1.01.326v-.652c.24 0 .288.218.528.163 0 .218-.24.163-.433.163.048.163.193.11.289.163 0 .163-.24.11-.385.163Zm1.49-.489c-.049-.054.095.11 0 0Zm5.286 0c-.048-.054.096.11 0 0Zm.817-.163c0 .218-.24.163-.432.163.048-.163.288-.108.432-.163Zm-17.447.326c-.048-.054.096.11 0 0Zm4.999 0c.144-.489.384.163.288.49h-.432c0-.164.576-.327.144-.49-.048.49-.577-.163 0 0Zm.529 0c-.337.544.48-.38 0 0Zm.432 0c0-.163.24-.217.288 0 .049.218.145 0 0 0h-.288c0 .218-.192.11 0 0Zm17.159-.163c-.865-.163-.289.49 0 0Zm-29.463.326c-.096-.054.096.11 0 0Zm.673 0c-.048-.054.096.11 0 0Zm3.605-.163c-.049.163-.24.163-.433.163.048-.163.288-.108.433-.163Zm4.421.163c.193-.543.337.598 0 0Zm.433.163c.192-.543.433-.054.817-.326 0 .38-.48.326-.817.326Zm.961-.163c.144-.597.144.598 0 0Zm-13.025.163c-.048-.054.096.11 0 0Zm15.909 0c.192-.652.192.598 0 0Zm.865 0c-.096-.054.096.11 0 0Zm.24 0c-.048-.054.097.11 0 0Zm.577 0c-.048-.054.096.11 0 0Zm.673 0c-.048-.054.096.11 0 0Zm3.893 0c-.048-.054.096.11 0 0Zm5.96 0c-.048-.054.096.11 0 0Zm.673 0c-.048-.054.096.11 0 0Zm1.105 0c-.048-.054.096.11 0 0Zm-21.147.163c.192.49.336-.652 0 0Zm6.344-.163c0 .163-.144.11-.288.163 0-.163.192-.163.288-.163Zm17.591.163c-.048-.054.096.11 0 0Zm1.105 0c-.048-.054.097.11 0 0Zm-28.26 0c.096.327-.962.544-.818 0 .289.327.385-.108.817 0Zm.144.272c.048-.163.192-.272.432-.272-.048.163-.192.327-.432.272Zm.865-.109c-.096-.108.048.055 0 0Zm.673 0c-.049-.108.096.055 0 0Zm.432 0c-.096-.108.048.055 0 0Zm4.566 0c-.096-.108.048.055 0 0Zm.673-.163c0 .163-.192.11-.288.163 0-.163.192-.163.288-.163Zm4.566.163c-.144 0-.096-.271 0 0 .096 0 .144.11.144.272-.144.652.433.055 0 0-.096 0-.144-.108-.144-.272Zm1.25-.163c-.048.163-.24.11-.433.163.048-.217.288-.163.433-.163Zm.288.163c-.048-.108.096.055 0 0Zm.817-.163c0 .163-.192.11-.288.163 0-.163.192-.163.288-.163Zm.673.272c-.048 0-.192-.054-.096-.109.769-1.032 1.442.544.096.11Zm1.826-.109c-.048-.108.096.055 0 0Zm1.106-.163c-.048.218-.337.11-.577.163.048-.217.385-.163.577-.163Zm.817 0c-.865-.217-.288.49 0 0Zm.72 0c-.912-.217-.336.49 0 0Zm.962 0c0 .163-.192.11-.288.163 0-.163.144-.163.288-.163Zm1.106.598c-.193.109-.337-.598-.433-.163-.096 0-.144 0-.144-.163V4.89h.72c.29.218-.576.055-.143.598.144 0 .096.218 0 0Zm1.25-.435c.047-.217 1.249-.38 1.105.11-.193-.218-.721-.11-1.106-.11 0 .164-.24.055 0 0Zm1.633 0c-.576.11 0-.489 0 0 .096.218.193-.054 0 0Zm.865.11V4.89h.24v.272h-.24Zm1.346-.11c-.096 0-.144.11-.144.272-.144 0-.192-.163-.384-.163.096-.163.288-.272.528-.272v.163h1.106c-.289.218-.913.38-1.106 0Zm-27.828.11c-.048-.055.096.108 0 0Zm5.287 0c-.048-.055.096.108 0 0Zm.288 0c-.096-.055.096.108 0 0Zm.24 0c-.048-.055.096.108 0 0Zm4.47 0c-.096-.055.048.108 0 0Zm.673 0c-.048-.055.096.108 0 0Zm.433 0c-.096-.055.048.108 0 0Zm.24 0c-.048-.055.096.108 0 0Zm.433 0c0-.164.192-.055 0 0-.193.108 0 .217 0 0Zm8.987 0c.193-.599.193.651 0 0Zm2.067 0c-.048-.055.096.108 0 0Zm-24.608 0c0 .162-.192.162-.289.162 0-.108.193-.108.289-.163Zm.529.162c.192-.598.192.652 0 0Zm8.747 0c-.048-.054.096.109 0 0Zm1.923-.163c0 .163-.145.163-.289.163 0-.108.192-.108.289-.163Zm.817.163c.24-.489.336.652 0 0Zm1.826 0c-.048-.054.096.109 0 0Zm3.028-.163c0 .163-.144.163-.288.163 0-.108.192-.108.288-.163Zm-18.408.326c-.048-.054.096.109 0 0Zm4.277 0c-.048-.054.096.109 0 0Zm4.855 0c-.048-.054.096.109 0 0Zm5.383 0c-.048-.054.096.109 0 0Zm6.392 0c.144-.598.144.652 0 0Zm1.394-.163c0 .163-.192.163-.288.163 0-.163.192-.108.288-.163Zm9.132.163c-.048-.054.096.109 0 0Zm-29.607.163c-.096-.054.048.109 0 0Zm.529 0c-.048-.054.096.109 0 0Zm.961 0c-.048-.054.096.109 0 0Zm8.027 0c-.048-.054.096.109 0 0Zm13.986 0c-.048-.054.096.109 0 0Zm1.682-.163c0 .163-.192.109-.288.163 0-.163.144-.108.288-.163Zm3.317.163c-.048-.054.096.109 0 0Zm.817 0c-.481-.489-.433.598 0 0Zm-26.723.163c-.049-.054.096.109 0 0Zm9.997 0c-.096-.054.048.109 0 0Zm-10.814.163c-.049-.054.096.109 0 0Zm8.17 0c-.048-.054.096.109 0 0Zm9.95 0c-.049-.054.095.109 0 0Zm12.352 0c-.097-.054.048.109 0 0Zm-24.801.163c-.048-.054.096.109 0 0Zm26.146 0c-.048-.054.096.109 0 0Zm1.538 0c-.144 0-.096-.217 0 0 .048.435.577-.163 0 0Zm-35.278.163c-.096-.108.096.109 0 0Zm14.66 0c-.337.49.48-.38 0 0Zm.672-.163c-.673.38.48.38 0 0Zm.288.163c.145-.652.145.598 0 0Zm2.788 0c-.096-.108.096.109 0 0Zm.673 0c-.048-.108.096.109 0 0Zm10.67 0c-.048-.108.096.109 0 0Zm7.065 0c.385-.597.433.435 0 0Zm-22.445 0c-.096 0-.289 0-.289.163.145-.054.289-.054.289-.163Zm2.355 0c-.048.218-.337.109-.529.163 0-.217.337-.163.529-.163Zm21.484 0c-.048.163-.288.109-.432.163 0-.217.24-.163.432-.163Zm-37.105.272c-.096-.054.097.109 0 0Zm9.661-.109c0 .109-.144.109-.24.109 0-.109.144-.109.24-.109Zm1.394 0c0 .109-.144.109-.288.109 0-.109.192-.109.288-.109Zm.288.109c-.048-.054.096.109 0 0Zm-13.553.163c-.097-.054.048.109 0 0Zm9.66-.163c0 .163-.144.163-.288.163.048-.163.192-.109.288-.163Zm24.368.163c-.048-.054.096.109 0 0Zm-36.816.163c-.048-.054.096.109 0 0Zm11.198-.163c0 .163-.144.163-.24.163 0-.163.144-.109.24-.163Zm29.656.163c-.097-.054.048.109 0 0Zm-34.077.163c.144-.598.144.598 0 0Zm-2.5.326c-.048-.054.097.109 0 0ZM36.144.326c.818.217-.528-.054-.288.49.289-.218.913 0 1.106-.327-.145 0-.385.054-.385-.163.096 0 .24 0 .24-.163-.192.109-.672-.163-.672.163Zm.818 0c-.048-.054.096.109 0 0Zm.432 0c0-.163.192-.109 0 0Zm5.672 0c0-.163.192-.109 0 0Zm1.105 0c.144 0 .384.054.433-.163-.193.054-.385 0-.433.163Zm.817 0c-.144.054-.048-.217 0 0Zm.144 0c0-.163.193-.109 0 0Zm.433 0c-.048-.054.096.109 0 0Zm.529 0c-.049-.054.096.109 0 0Zm.288 0c.096 0 .288 0 .288-.163-.096.054-.288 0-.288.163Zm1.826 0c-.096-.054.048.109 0 0Zm.24 0c-.047-.054.097.109 0 0Zm-11.054 0c-.432.054.144.652 0 0Zm1.394.163c0-.489.577.163 0 0Zm.529 0c-.048-.054.096.109 0 0Zm.432 0c-.048-.054.096.109 0 0Zm3.317-.163c-.193.109 0 .217 0 0Zm.672.163c-.048-.054.097.109 0 0Zm1.25-.163c.096.38-.24.217-.24.49.096 0 .096.162.096.325.096.217.192-.054 0 0-.144-.054-.24 0-.24.109.144.108.192.326.384.326.096-.163.192-.326.433-.326-.385.271.192.543.288.163-.096-.272-.432-.218-.577-.435-.096-.326.962-.054.433-.326-.288.054-.433-.054-.433-.326h-.144ZM38.21.489c-1.01-.163-.432.49 0 0Zm1.97.163c-.48.272-.72-.163-1.009.326.337-.109 1.106.272 1.01-.326Zm4.134.326c-.48-.435.721-.38 0 0Zm2.067-.326c-.865-.163-.288.49 0 0Zm.144.163c.288-.109.913.163.961-.163-.288.109-.913-.217-.96.163Zm1.106 0c.817-.543.96.38 0 0Zm3.316 0c-.433-.272-1.778-.272-2.211 0 .673.217 1.298-.109 2.21 0Zm0 0v.163c.24 0 .384-.109.432-.326-.24-.054-.24.163-.432.163Zm.817 0c-.529.163 0-.489 0 0Zm.288 0c.096-.054.289 0 .289-.163-.096.054-.289 0-.289.163Zm-.288 0c.096.217.192 0 0 0Zm1.153.163c.145-.054.385 0 .385-.163-.144 0-.385-.054-.385.163Zm.962 0c-.096-.054.096.109 0 0Zm.961 0c-.048-.054.096.109 0 0Zm.288 0c-.096-.054.048.109 0 0Zm.385 0c-.048-.054.096.109 0 0Zm.865.163c.096-.054.24 0 .24-.163-.096 0-.24 0-.24.163Zm-17.591.109h.144c0-.109-.048-.109-.144-.109v.109Zm7.882-.109c-.913-.217-.288.435 0 0Zm.145.109c-.049-.055.096.108 0 0Zm.384 0c.144 0 .288 0 .288-.109-.096 0-.24 0-.288.109Zm.577 0c.192.543.336-.598 0 0Zm.432 0c.145 0 .385.054.385-.109-.144 0-.385-.054-.385.109Zm.673-.109v.272h.289V1.14h-.289Zm.673.272c-.384-.49.961-.272 0 0Zm1.827-.163c-.53.217-.866-.38-.962.163.385.163.673.217.962-.163Zm-1.25.163c-.048-.055.096.108 0 0Zm2.355-.163c-.913-.163-.288.489 0 0Zm.529.326c-.625.163-.24-.707 0 0Zm.288-.163c.096 0 .288 0 .288-.163-.096.054-.288.054-.288.163Zm.577-.163v.326c0 .109 0 .217.144.163 0-.272.432-.109.384-.49-.384 0-.288.272-.528 0Zm-6.537.326c.192-.598.192.652 0 0Zm.865 0c-.096-.055.048.109 0 0Zm.385 0c-.048-.055.096.109 0 0Zm5.96 0c.096 0 .288 0 .288-.163-.096.054-.288 0-.288.163Zm.576 0c-.096-.055.048.109 0 0Zm.673 0c.096 0 .289 0 .289-.163-.097.054-.289 0-.289.163Zm.673 0c-.048-.055.096.109 0 0Zm-9.805.163c-.048-.054.096.109 0 0Zm10.815 0c-.097-.054.048.109 0 0Zm.384 0c-.048-.054.096.109 0 0Zm-12.304.163c.529-.544.673.435 0 0Zm1.538-.163c-.24.489.673.435.673.163-.337.054-.529 0-.673-.163Zm1.634 0v.326h.288v-.326h-.288Zm-2.355.326c.096-.054.288 0 .288-.163-.096.054-.288 0-.288.163Zm1.538 0c.096-.054.288 0 .288-.163-.144.054-.288 0-.288.163Zm1.25 0c.144-.598.144.598 0 0Zm.384 0c.192.217.721.217.721-.163-.192.109-.72-.163-.72.163Zm1.97 0c-.576-.544-.336.489 0 0Zm.241 0c-.048-.054.096.109 0 0Zm.288 0c-.048-.054.096.109 0 0Zm1.683.163c-.24-.38-1.058-.326-.721.163.048-.217.432-.217.432 0-.144 0-.48.543-.144.598.096-.272.24 0 .433 0-.048-.38-.289-.49 0-.761Zm0 0h.288v-.326c-.24-.054-.288.109-.288.326ZM40.42 2.065c.048.163.144.054.144 0h-.144Zm7.882.163c.145-.054.289 0 .289-.163-.096.054-.24 0-.289.163Zm4.182 0c-.048-.054.096.109 0 0Zm2.067 0c.096-.054.288 0 .288-.163-.096.054-.288 0-.288.163Zm.432 0c-.048-.054.096.109 0 0Zm-9.997.163c0-.217.24-.109 0 0Zm1.97 0c-.192 0-.096-.272 0 0Zm5.095.272c.096-.707-.192-.272-.288 0h.288Zm5.143-.272c-.048-.109.096.109 0 0Zm-17.014.163h.096c.048-.163-.048-.163-.096-.163v.163Zm14.227 0c-.145 0-.097-.272 0 0Zm3.748 0c-.048-.109.096.054 0 0Zm-9.132 0c-.048.109.048.109.145.109 0-.11-.048-.11-.145-.11Zm2.067.272c-.144-.652.433 0 0 0Zm.673-.163c-.096-.055-.192-.163-.385-.11-.048.436.385.381.53.599.047-.272.912-.326.432-.598 0 .109-.193.109-.289.109 0 .108 0 .217-.144.163-.048 0-.144 0-.144-.163Zm1.01 0c-.193.054-.097-.218 0 0Zm0 0c.192.597.432-.49 0 0Zm1.633-.11c-.048.164-.768.436-.144.436 0-.163.24-.163.289 0 .144-.055.24-.109.288-.326-.096-.055-.24-.163-.433-.11Zm.721.273c-.048-.163.193-.055 0 0Zm.385 0c-.337.543.48-.38 0 0Zm.865.652c.192.054.192-.163.385-.163 0 .163.048.271.144.326.048-.761.24.271.673 0 .096-.544-.865-.272-.385-.815-.529.163-.865-.38-.961.163.192 0 .529-.055.529.163-.385 0-.721 0-.385.326Zm-1.394-.49c.096.055.096-.054.144-.162-.144 0-.144.054-.144.163Zm.817 0c-.048-.054.096.11 0 0Zm2.644.164c-.144-.652-.721.108-.962-.326-.048.597.77.163.53.978.191-.109.72.163.672-.163-.336.054-.577-.055-.529-.49h.289Zm-8.603 0c0-.109.047-.163.144-.163v.163h-.144Zm3.604.163v-.163c-.336.054-.529 0-.673-.163 0 .217-.048.271-.144.326.192.217.577.054.817 0Zm.289-.326c.096.217.144 0 0 0Zm1.25 0c-.193.108 0 .217 0 0Zm3.7.163c-.048-.055.096.108 0 0Zm.288 0c-.048-.055.097.108 0 0Zm-8.987 0v.163c.144-.055.096-.163 0-.163Zm1.922 0c0 .163-.24.108-.24.326.192-.055.24.163.384.163 0-.218.048-.272.145-.326 0-.163-.145-.109-.289-.163Zm.721.163c-.096-.272-.24 0-.432 0 .096.271.24 0 .432 0Zm2.74.163c.048-.652.624 0 0 0Zm3.076-.326c.048.217.144 0 0 0Zm2.066.163c-.048-.055.097.108 0 0Zm-4.71 0v.326h.289v-.326H55.8Zm-12.304.326c-.192 0-.096-.272 0 0Zm2.5 0c.096 0 .24 0 .24.163-.096-.055-.24-.055-.24-.163h-.145c0 .108-.048.108-.144.163 0 .38.433.271.817.271.192-.054 0-.108 0-.271-.096 0-.144-.163 0-.163.096-.272-.673-.272-.529 0Zm.672 0h.145c-.049-.218-.145-.109-.145 0Zm.289 0c-.096-.109.096.108 0 0Zm.24 0c.144-.055.288 0 .288-.163-.096 0-.24 0-.288.163Zm8.026-.163c.049.163.145.054.145 0h-.145Zm1.154 0c-.24.108 0 .163 0 0Zm-12.88.326h.143V3.64h-.144v.163Zm3.027 0c.096 0 .144-.109.144-.163h-.144v.163Zm12.593 0c0-.218.192-.109 0 0Zm.432 0c-.048-.109.096.054 0 0Zm.385 0c-.145 0-.048-.272 0 0Zm-12.977.108c-.337.544.432-.38 0 0Zm8.026 0c-.192.055-.096-.217 0 0Zm1.106.163c0-.163-.048-.271-.145-.271-.048.163-.288.108-.288.271h.433Zm.384-.163c-.048-.054.096.11 0 0Zm2.644-.108c-.193.054 0 .163 0 0Zm.817 0c.192.434.769-.218 0 0Zm.72.108c.145 0 .385.055.385-.108-.144 0-.384-.055-.384.108Zm.53 0c-.049-.054.096.11 0 0Zm-9.421.163c.192 0 .24.272.288 0 0-.163-.24-.163-.288 0Zm6.248-.163c.24.598-.48.11-.432.49h.72c0-.218.049-.327.145-.49h-.433Zm4.422.163c-.048-.054.096.11 0 0Zm-6.344 0v.326h.384c.096-.326-.192-.271-.384-.326Zm.673 0c-.193.49.72.435.72.163-.192-.108-.384-.217-.72-.163Zm2.355.163c-.193-.217-.673-.217-.673.163.384-.108.336.218.673.163v-.326Zm0 0c0-.163.192-.108 0 0Zm.576-.163c0 .218-.096.38-.144.49h.289c.048 0 .144 0 .096-.164-.145 0-.096-.271-.24-.326Zm-13.025.326c0-.163.193-.108 0 0Zm5.96.163c-.048-.217.192-.108 0 0Zm.288 0c-.096-.054.049.11 0 0Zm7.883.163c-.096-.054.096.11 0 0Zm.24 0c.24-.108.817.163.865-.163-.24.11-.817-.217-.865.163Zm1.01 0c-.097-.054.048.11 0 0Zm.672.163c-.048-.054.096.11 0 0Zm-2.066.163c-.048-.108.096.055 0 0Zm.817 0c-.192-.271-.577 0-.673.272.336.055.673.055.673-.272Zm.144.11c-.288.76.288-.762 0 0Zm.433 0c-.097-.055.048.108 0 0Zm.384.162c.192-.598.192.652 0 0Zm.288 0c-.048-.054.096.109 0 0Zm-4.037.163h.144c0-.163-.144-.054-.144 0Zm1.682-.163c-.048.163-.144.163-.144.326.192 0 .385.055.433-.163-.145 0-.145-.163-.289-.163Zm1.538.163c.096 0 .24 0 .24-.163-.096.055-.24 0-.24.163Zm2.596 0c-.048-.054.096.109 0 0Zm-5.095.163h.673c.096-.271-.721-.271-.673 0Zm1.778.163c-.096-.652.433-.054 0 0Zm1.683.163c-.577.163-.048-.489 0 0Zm.96.761v.163c.626.326 1.395.272 1.923.326-.384-.598-.865-.435-.96-1.087-.337.218.24.435-.145.598a.804.804 0 0 0-.673-.163c0 .109-.048.217-.144.163Zm-18.551-.435c.047.435.576-.163 0 0Zm5.527.163v-.163c-1.154.055-1.106.544 0 .163Zm-7.883 0c.048.435.577-.163 0 0Zm5.672.109c-.048-.054.096.109 0 0Zm.288 0c-.048-.054.096.109 0 0Zm1.923-.109c.625.435 1.201-.217 0 0Zm.961.109c.24-.054.72.217.72-.109-.191.055-.72-.217-.72.109Zm2.5-.109c-.193.435.624.435.432 0-.192.163-.24.055-.433 0Zm11.342.109c-.048-.054.096.109 0 0Zm-11.727 0c.048.272.144 0 0 0Zm1.346.163c-.049-.054.096.109 0 0Zm.865 0c-.048-.054.096.109 0 0Zm3.172 0c-.192.489.817.435.817.163-.433.109-.48-.163-.817-.163Zm1.394.163c-.577-.163-.048.49 0 0Zm5.527 0c-.048.706.625.435.817.163-.192-.272-.529.217-.817-.163Zm-5.383.326c-.096-.054.096.109 0 0Zm1.105-.163c-.192.109 0 .217 0 0Z" fill="#F2208D"/>
</svg>