<svg width="54" height="9" viewBox="0 0 54 9" fill="none" role="img" xmlns="http://www.w3.org/2000/svg">
  <path d="M53.557 5.97c.69-.303-.05-.707-.295-1.162.393.202.295-.354.738-.304-.246-1.213-1.378-1.92-3.249-2.174 0-.1.099-.151.099-.303-1.33.303-3.348-1.314-4.775-.708.098-.708-.591.253-.443-.455-5.021-.556-10.19-.91-14.472-.86.049.152 0 .254-.148.304-1.477-.556-3.987-.202-6.498 0h-.984c-.64 0-.05.253.246.152.541.1 1.427-.202 1.723.151H22.79C15.998 1.37 9.845 1.623 3.544 3.19c.148 0 .246.05.246.152-.197.404-1.181-.05-1.378.303.05.202.148 0 0 0-.197.202-.541.253-.738.455.246.05.836-.202.836.152-.492-.101-.787.05-1.132.151-.049.304.296.203.296.405H.246c-.246.253.197.455-.148.758.247.405-.098.86.443 1.264a.98.98 0 0 0-.443.455C.394 7.69.591 8.5.394 8.903c10.14-.607 21.364-3.033 30.372-2.629.147-.202.59-.152.984-.152-.246-.252-.984-.05-.984-.556.147 0 .246-.05.246-.151-.739 0-.148-.607 0 0 .197 0 .148.252.148.404h.59c0-.101.148-.152.148-.253-.394-.05-.345-.505.098-.455.05.202-.049.304-.098.455.098 0 .098.152.098.253.443-.101.443-.101.886 0-.049-.152 0-.253.148-.253v-.303c-.098.101-.788.303-.886 0 .246-.05.64-.202.886 0 .148 0 .246-.05.246-.152-.148-.05-.295-.202-.246-.455.59.101-.148-.253.246-.253.64 0 .59.101 1.132 0v-.151c-1.132-.05-1.427-.203-1.673.404 0-.202-.394-.05-.443-.253.246-.1 0-.202 0-.455.443-.1 1.23.203 1.427-.151-.197-.101-.738.151-.689-.152.69-.253-.098-.253 0-.556.788-.05.246.556.69.708.442-.101.245-.304.442-.455.443-.05.64.1.985.151 0-.1 0-.252.147-.303-.049.152 0 .303-.147.303.098.506-.296.253-.443.152 0 .101-.099.152-.296.152-.098.657.394-.203.443.303-.049.202-.295.152-.443.303 0 .101.197.101.296.101.098-.353.689.354.738-.252-.295.05-.443-.05-.443-.304.69.05.246-.809.69 0 0-1.061 1.377-.606.984-.151V4.1c.689-.101.295-.556.738-.758.345.252.295-.203.837-.152-.197-.405.738-.354.738-.101-.049.152 0 .404-.147.404-.099-.1-.099-.657-.591-.303v.303c.098 0 .148.152 0 .152 0 .152.197.101.295.152-.098-.253.69-.253.542 0h-.542V4.1c.394-.05.345.101.69 0-.296-.202.689-.152 0-.455.59-.05.443-.05.984 0-.246.253.05.556.443.607-.64-.91.837-.86 1.132-1.467-.246.203-.64-.202-.984-.303h.984v.303c.197.354.985-.1.985.152-.197.101.049.708-.394.556-.148-.657-.886-.151-1.28.304h.394c0-.152.049-.253.148-.304.147.556.59 0 .738.304-.296.404-.099.707-.59.455-.148.404.344.252.59.252.05-.252.05-.606.394-.556.147.304.393.304.738-.151.099.1.394.1.394.303-.197.05-.099.354-.148.556.59.101.69-.455.295-.556.788-.202 1.625-.152 1.133.708.541.1.246-.607.59-.708.394.05.886.708 1.133.404-.296-.202.147-.404-.296-.556.394-.202 1.182.203 1.575-.303-.295.354 0 .152.148.455-.197.404-1.526-.455-1.132.303.098-.1.246-.202.246 0 0 .101-.148.101-.148.253.443.152.394-.202.739-.152-.05.203-.246.253-.296.456.247-.152.69-.051.837-.304-.049 0-.147-.101 0-.152v.152c.246-.05.296.152.296.304.197 0 .246.05.295.151-.099.101-.394.101-.443.304.345.05 1.083.353 1.132-.152-.246.05-.246-.101-.246-.303.197-.051.246.151.394.151.049-.1 0-.303.147-.303-.049.1 0 .303-.147.303v.152c.147.101.394.101.443.303.147 0 .197-.253.295 0-.05.101-.148.152-.295.101v.152c.64.253.984.354 1.28-.253-.099-.05-.197-.05-.148-.151-.099-.051-.295 0-.295-.152.098 0 .295 0 .295.152.098 0 .148 0 .148.151.197-.202.393-.1.541.101-.148 0-.246.05-.246.152.098.152.345.101.394.303.098.203.197 0 0 0h-.394c-.246.556.59.05.394.607a.55.55 0 0 0-.394-.152v.556c.443.203.098-.455.541-.303 0-.202.099-.354.296-.404 0 .1 0 .303.148.303-.05-.202.196-.101 0 0 0 .253 1.033.556.246.708v.607c.344-.051.098.505.147.707h-.246c.246.658.296-.202.69-.151-.198-.759-.395-1.315 0-1.871-.148-.101-.247-.152-.296-.303-.099 0-.148-.05-.148-.152-.246 0-.344-.101-.393-.303-.148 0-.296 0-.296-.152-.098 0-.295 0-.295-.152.098.05.295.05.295.152h.296v-.152c-.099-.202-.542 0-.591-.252.295 0 .295-.152.148-.304-.148 0-.099-.202 0 0 .492.152.689.556.984.86ZM27.615.309c-.295.303-1.181.05-1.673.152.246-.354 1.181-.05 1.673-.152Zm.591 0c-.05.152-.295.101-.443.152.05-.202.246-.152.443-.152ZM28.6.46c-.05-.05.098.1 0 0Zm1.132-.152c0 .303-.59.05-.837.152 0-.354.59-.05.837-.152Zm1.034 0c-.05.303-.64.05-.886.152.049-.354.59-.05.886-.152Zm.984 0c-.049.152-.295.101-.443.152.05-.202.246-.152.443-.152Zm.985 0c0 .303-.492.05-.739.152 0-.304.542-.101.739-.152Zm.984 0c0 .152-.197.101-.295.152 0-.152.197-.101.295-.152Zm.59 0c-.048.152-.196.101-.294.152 0-.152.147-.101.295-.152Zm1.133 0c-.05.152-.295.101-.443.152 0-.202.246-.152.443-.152Zm.985.152c.147-.607.147.556 0 0Zm.393.151c-.049-.1.099.102 0 0Zm-4.824.152c-.049-.101.099.05 0 0Zm-7.482.101c-.05-.05.099.101 0 0Zm16.441 0c-.049-.05.099.101 0 0Zm.69 0c-.05-.05.098.101 0 0Zm-19.69.152c-.05-.05.098.101 0 0Zm18.163 0c-.098-.05.05.101 0 0Zm-20.723.152c-.05-.05.098.1 0 0Zm.837-.152c0 .202-.247.152-.394.152 0-.152.246-.101.393-.152Zm.295.152c-.05-.05.098.1 0 0Zm.443 0c-.05-.05.098.1 0 0Zm20.28-.152c0 .152-.196.152-.295.152 0-.152.148-.101.296-.152Zm-22.544.152c0 .151-.197.1-.296.151 0-.151.148-.1.296-.151Zm.393.151c-.049-.05.099.101 0 0Zm4.43 0c.148-.556.148.556 0 0Zm-5.808.152c-.098-.05.05.101 0 0Zm6.94 0c-.098-.05.1.101 0 0Zm.69 0c-.05-.05.098.101 0 0Zm.295 0c-.049-.05.099.101 0 0Zm-9.352.152c-.05-.05.098.1 0 0Zm5.365 0c-.05-.05.099.1 0 0Zm1.28-.152c0 .152-.148.101-.295.152 0-.152.197-.101.295-.152Zm16.736.152c-.049-.05.099.1 0 0Zm1.428 0c-.05-.05.099.1 0 0Zm.394 0c-.05-.05.098.1 0 0Zm3.987 0c-.05-.05.099.1 0 0Zm-18.853.303c.049-.253.935-.607.837 0h-.837Zm1.575-.152c-.098.304-.69.05-.295-.151.098 0 .147.151.295.151Zm.541-.151c0 .151-.246.1-.393.151 0-.202.246-.151.393-.151Zm.591.303c0-.152-.049-.152-.148-.152-.049-.303.64-.252.394.152h-.246Zm1.822-.303c-.099.455-.394.202-.69.151-.049-.354.493-.1.69-.151Zm.59.303c.05-.101-.443-.202-.443-.152-.049-.252.788-.202.443.152Zm.69 0c-.64 0-.05-.607 0 0 .098 0 .147 0 .147.101h.837c-.148.354-.69.354-.837 0-.098 0-.148 0-.148-.101Zm.689-.303c0 .303-.345.303-.542.151.05-.202.345-.151.541-.151Zm.59.303v-.303h.59c.1.404-.344.252-.59.303Zm12.356-.152c-.099-.1.049.101 0 0Zm.689 0c.148-.606.148.556 0 0Zm-30.077 0c0 .101-.147.101-.246.152 0-.152.148-.152.246-.152Zm1.575.152c0-.101.099-.202.148 0h.148c0-.202.197-.101 0 0 0 .05-.099.152-.148 0h-.148c0 .152-.196.05 0 0Zm5.514.101c.049-.354.492-.253.886-.253.098.506-.59.203-.886.253Zm1.132 0c-.099-.505.59-.202.886-.253-.148.455-.443 0-.886.253Zm8.368-.101c-.049-.101.099.05 0 0ZM35 2.027c-.05-.101-.098-.152-.295-.101.147-.455.935 0 .295.101v.303c-.148.607.443.051 0 0-.148 0-.197-.252 0-.303Zm1.28.152c-.295-.405-.394-.101-.837-.253.148-.202 1.575-.404 1.526.101-.345-.05-.492-.152-.69.152Zm1.821 0c.05-.354-.787.151-.541-.405.344.05.541.203.984.152-.049.202-.295.152-.443.253-.098.253-.295.455-.541.606 0 .203.344.102.541.152-.246.354-1.526.05-.541-.152-.099-.303.394-.455-.148-.455-.05-.303.492-.05.69-.151Zm4.677-.253c-.148 0-.05-.253 0 0 .098.202.197-.05 0 0Zm4.676 0c-.05-.101.098.05 0 0Zm-30.47.101c-.05-.05.098.101 0 0Zm4.38 0c-1.082.101.74-.05 0 0Zm1.428 0c-.049.253-.098 0-.295 0 .05-.152.295-.101.295 0Zm.148 0c.443-.505.492.455 0 0Zm7.088.303c-.787.203.345-.707.739-.303.049.405-.788-.101-.739.303.197 0 .099.203 0 0Zm9.944-.151c-.64-.05-.69 0-.985-.152 0-.202 1.133-.303.985.152Zm-20.133.151v-.303h.295v.303h-.295Zm.541-.151c.05-.405.59.151 0 0-.197.1.05.202 0 0Zm1.428 0c-.05-.05.098.1 0 0Zm.295 0c-.05-.05.099.1 0 0Zm3.938 0c-.05-.05.099.1 0 0Zm1.723 0c0-.152.197-.05 0 0-.197.1 0 .202 0 0Zm.69-.152c0 .152-.148.152-.247.152 0-.101.148-.101.246-.152Zm1.131 0c0 .202-.246.152-.393.152 0-.152.246-.101.393-.152Zm2.708 0c0 .152-.148.152-.296.152.05-.101.197-.101.296-.152Zm1.87.303c-.197 0-.344-.05-.295-.303h.295v.303c.296.102.296.253.148.455.935-.1 1.181.152.246.304-.197.05.05.152 0 0 0-.354-.59-.101-.837-.152.05-.303.64-.05.443-.607Zm.246-.151c-.049-.05.099.1 0 0Zm5.71.151c.493-.657 1.133-.05 0 0 0 .152-.147.203-.147.304.05.556.59-.05 0 0-.197 0-.148-.354.148-.304Zm1.28 0v-.303h.246v.303h-.246Zm.837 0c-.246 0-.492.051-.443-.303.197.101.345.202.443.303h.148c-.05-.252.64-.202.394.152h-.246c-.05-.101-.05-.152-.148-.152 0 .253-.197.354-.148 0Zm6.94-.151c-.196.05-.097-.202 0 0 .1.253.149 0 0 0Zm-31.602.303c.296-.404 1.133-.253 1.822-.303-.345.455-.788.202-1.822.303Zm6.498 0V2.18h.443c-.05.202-.246.253-.295.455-.099 0-.148-.05-.148-.152ZM25.5 2.18c0 .151-.197.151-.296.151 0-.151.197-.1.296-.151Zm.147.151c-.049-.05.099.102 0 0Zm1.28.152c-.05.354-.541 0-.443-.303h.443v.151c.05 0 .148.152 0 .152Zm.296-.152c-.099-.05.049.102 0 0Zm3.79 0c.197-.556.197.607 0 0Zm4.529 0c-.148 0-.05-.202 0 0 .295.354.64-.1.886.152-.05.303-.591.05-.886.152 0 .151.147.151.147.303.197-.05.296-.202.59-.152-.097.203-.294.253-.59.304v-.152c-.492.101-.246-.505-.147-.607Zm1.132-.151c0 .151-.148.151-.246.151 0-.151.147-.1.246-.151Zm.147.151c-.049-.05.099.102 0 0Zm7.236.455v-.303c-.196.05-.246.202-.393 0 .049-.202.295-.253.541-.303 0 .404.246.303 0 .606.099.203.197 0 0 0h-.148c.05.253-.787.253-.541-.151.197.05.246.202.541.151Zm-27.369-.151V2.33h.591c.148.455-.345.253-.59.304Zm4.43-.152c-.098-.05.099.101 0 0Zm.542 0c-.148 0-.098-.202 0 0 .099.202.197 0 0 0Zm.985 0c-.05-.05.098.101 0 0Zm.295 0c-.05-.05.098.101 0 0Zm6.4 0c-.05-.05.098.101 0 0Zm2.559 0c-.099-.05.05.101 0 0Zm.394 0c-.05-.05.098.101 0 0Zm.295 0c-.05-.05.098.101 0 0Zm5.809 0c-.05-.05.098.101 0 0Zm.295.303c.098-.202.098-.556.541-.455-.197.102-.196.455-.541.455Zm.69-.303c-.05-.05.098.101 0 0Zm5.414 0c-.59.152-.05-.455 0 0 .197 0 .295.05.394.152 0 .202-.296.1-.394 0v-.152Zm3.544 0c-.098-.05.099.101 0 0Zm-31.898 0c0 .152-.197.101-.295.152 0-.152.148-.101.295-.152Zm3.938.152c-.049-.05.099.1 0 0Zm4.135 0c-.05-.05.099.1 0 0Zm.69 0c-.05-.05.098.1 0 0Zm.59-.152c0 .152-.197.101-.295.152 0-.152.147-.101.295-.152Zm.394.152c-.05-.05.098.1 0 0Zm1.575 0c-.05-.05.098.1 0 0Zm6.793 0c-.05-.05.099.1 0 0Zm11.765 1.011c-.295 0-.394-.253-.837-.152 0-.303.59-.05.837-.151 0-.304-.59 0-.69-.253.05-.202.198-.304.148-.607.345.303 1.231.202 1.428.303-.05.456-.492.102-.886.152.295.304.295.354 0 .708.197 0 .098.202 0 0Zm4.282-1.011c-.049-.05.099.1 0 0Zm-32.045 0c0 .151-.197.1-.296.151 0-.151.197-.1.296-.151Zm3.692.303c-.148-.05-.148-.152-.296-.152.099-.353.69-.1.296.152Zm.984-.303c0 .151-.197.1-.295.151 0-.151.197-.1.295-.151Zm6.35.455c-.295 0-.393-.253-.837-.152.296-.253.64-.253.985-.152 0 .152-.098.152-.148.304.591-.152.05.404 0 0Zm1.034-.304c.05.253-.64.203-.443-.151.246-.05.246.151.443.151Zm1.132.405c-.049-.152-.197-.202-.295-.253.345-.354.492-.202.984-.152 0 .203-.344.102-.541.152 0 .101.098.152.246.152 0 .152-.197.152-.394.101.05.556-1.23.404-.984-.101.197.202.689.455.984.101Zm6.498-.556c0 .151-.148.1-.295.151 0-.151.197-.1.295-.151Zm7.236.151c-.05-.05.099.102 0 0Zm-25.646.152c-.05-.05.098.101 0 0Zm.393 0c-.049-.05.099.101 0 0Zm5.415 0c0-.455.591.101 0 0-.59-.152-.049.405 0 0Zm.542 0c.443-.556.492.405 0 0Zm1.034-.152c-.05.152-.197.102-.296.152 0-.152.148-.152.296-.152Zm.689 0c0 .152-.197.102-.296.152 0-.152.197-.152.296-.152Zm.147.152c-.049-.05.099.101 0 0Zm.296 0c-.099-.05.049.101 0 0Zm2.806-.152c0 .152-.247.102-.394.152 0-.202.246-.152.394-.152Zm2.116 0c.05.304-.492.051-.689.152-.05-.354.492-.1.69-.152Zm3.397.152c-.542.101 0-.455 0 0 .246.506.443-.505 0 0Zm4.43 0c-.05-.05.099.101 0 0Zm3.692-.152c0 .152-.197.102-.296.152 0-.152.148-.152.296-.152Zm2.51.304c0-.405.886-.304.886.101-.344.05-.443-.202-.886-.101Zm-28.452-.152c0 .152-.197.101-.295.152 0-.152.148-.152.295-.152Zm.837 0c0 .152-.197.101-.295.152 0-.152.197-.152.295-.152Zm3.101.152c-.049-.101.099.05 0 0Zm1.28-.152c0 .152-.148.101-.295.152 0-.152.197-.152.295-.152Zm.443.152c-.05-.101.099.05 0 0Zm14.719 0c.196-.607.196.556 0 0Zm5.808 0c-.05-.101.099.05 0 0ZM4.529 3.19c-.05-.05.098.101 0 0Zm13.29 0c-.049-.05.099.101 0 0Zm3.545 0c-.05-.05.098.101 0 0Zm1.723 0c-.05-.05.098.101 0 0Zm5.956 0c-.05-.05.098.101 0 0Zm1.427 0c-.098.253-.147 0-.295 0 .05-.152.295-.101.295 0Zm.69 0c-.05-.05.098.101 0 0Zm2.56 0c-.05-.05.098.101 0 0Zm7.088 0c-.394.253-.591 0-1.28 0 .148-.253 1.083-.152 1.28 0Zm3.1-.101c0 .101-.147.101-.245.101 0-.101.147-.101.246-.101Zm0 .404c.1-.1.148-.202.148-.404.493 0 0 .354.296.404 0 .152-.197.101-.295.152.049-.101-.05-.152-.148-.152Zm1.28-.151c-.245 0-.689.151-.54-.253.245 0 .442.05.54.253.198 0 .1.252 0 0Zm3.397-.253c0 .101-.147.101-.246.101 0-.101.148-.101.246-.101Zm1.132.253c0 .202-.886.1-.836-.253.197.202.689.05.836.253Zm-29.88 0c-.049-.05.1.1 0 0Zm.69-.152c0 .152-.148.152-.296.152 0-.101.197-.101.296-.152Zm4.282.152c-.049-.152.197-.05 0 0-.689-.152.148.707 0 0Zm.985 0c-.788.151-.197-.405 0 0 .05 0 .148.151 0 .151 0 .101.098.203.246.152 0 .152-.098.202-.098.303.246.101.443.152.541 0 .394.203-.246.607-.443.708-.197.101.05.202 0 0v-.404c-.246.05-.837-.203-.689.252.148.456.738-.151 0 0-.197 0-.148-.252-.295-.252 0-.455.886.1.886-.304-.197.05-.493-.404-.148-.455v-.151Zm.69.455c-.592-.152.491-.405 0-.455.048-.405.442 0 .294.303-.147 0-.246.05-.295.152Zm.59-.455c-.148.86.05-.557 0 0Zm.541 0c0-.152.197-.05 0 0-.197.1 0 .202 0 0Zm.296.303c0-.708.393-.152.984-.303.05.151 0 .303.148.303-.246.404-.788-.506-1.132 0 0 .202-.197.101 0 0Zm19.296-.152c.098-.505.344 0 .837-.151.049.151-.59.556-.837.151Zm3.79-.151c-.049-.05.099.1 0 0Zm1.87 0c-.048-.05.1.1 0 0Zm-31.356.151c0-.151.247-.1 0 0 0 .101 0 .203-.147.152-.197.101.049.202 0 0 .049-.101.049-.152.147-.152Zm1.28 0c-.147.05-.098-.202 0 0 .197.05.246.203.443 0 0-.151.197-.1 0 0 .148.506-.443.253-.738.304.05-.203.295-.152.295-.304Zm6.695 0c-.197.05-.099-.202 0 0 .05 0 .148.152 0 .152-.59-.152-.05.455 0 0v-.152Zm.394 0c-.05-.05.098.101 0 0Zm2.264.152c0-.101-.098-.152-.246-.152.295-.404 1.034.05.246.152.05.202-.197.101 0 0Zm6.94-.152c-.049-.05.1.101 0 0Zm3.84 0c-.049-.05.099.101 0 0Zm.296 0c.541.405.64-.505 0 0Zm7.088.152c-.197 0-.344-.05-.295-.303h.295v.303c.345-.303.345.05.148.303.098.05.295 0 .295.152.246.05.837-.202.69.303.147 0 .196.253 0 .253-.444.05.147.607 0 0v-.253h-.296c0 .152-.05.304-.295.253v-.253h.295c0-.202-.197-.202-.394-.151V4.1c-.148-.05-.295 0-.295-.152-.099-.05-.197-.151-.148-.303Zm-30.076.152c0 .202-.345.151-.542.151v-.303c.098 0 .148 0 .148-.152.197 0 .098.405.393.304.247-.101 0-.152 0 0Zm.738 0c-.64.05-.05-.556 0 0 .098.202.148 0 0 0Zm2.117.707c-.443-.353.689-.353.59-.859.197-.455.197.86 0 .86-.147 0-.147-.152-.147-.253-.148.1-.394.05-.443.252Zm1.132-.859c-.05-.05.098.101 0 0Zm8.516 0c0-.152.197-.101 0 0s0 .202 0 0Zm11.764 0c.197.506.345-.556 0 0Zm2.413-.152c0 .152-.197.101-.296.152 0-.152.197-.101.296-.152Zm1.82 0c0 .152-.147.101-.245.152 0-.152.148-.101.246-.152Zm-29.337.304c-.05-.05.098.1 0 0Zm2.855 0c-.05-.05.098.1 0 0Zm8.22-.152c0 .152-.197.101-.295.152 0-.152.197-.101.295-.152Zm1.133.152c-.05-.05.098.1 0 0Zm13.586-.152c0 .152-.148.101-.246.152 0-.152.147-.101.246-.152Zm.443.152c.147-.556.147.556 0 0Zm5.513-.152c0 .152-.246.152-.394.152 0-.152.246-.101.394-.152Zm-4.972.152c0 .151-.148.1-.246.151 0-.151.148-.1.246-.151Zm2.708.151c-.148 0-.099-.202 0 0 .344 0 .443-.303.59.152.05.202.148-.05 0 0-.246-.05-.541.05-.59-.152Zm1.132-.151c0 .151-.246.1-.394.151 0-.151.246-.151.394-.151Zm1.575.151c-.197 0-.099-.202 0 0 0 .455.59-.151 0 0ZM18.262 4.1c-.049-.05.099.101 0 0Zm.444 0c-.05-.05.098.101 0 0Zm.393 0c-.049-.05.099.101 0 0Zm3.298.152c0-.152-.098-.152-.147-.152.197-.556.197.303.541.152-.098.455-.443.252-.541.404-.492-.152.147-.253.147-.404Zm.247-.152c-.05-.05.098.101 0 0Zm5.808.303c0-.151-.59-.404-.541-.151-.542-.405.541-.304.836-.304v.556c-.147 0-.147-.1-.295-.1.05.1.05.252.148.252 0 .202-.246.152-.246.304-.345-.051 0-.557.098-.557Zm1.132.557c-.147-.607-.197-.456-.689-1.012h1.428c.098.506-.493.253-.591.152-.05.303.197.253.443.303-.197.203-.541.152-.59.557Zm1.428-.304c0-.253.148-.303.443-.253-.099-.354-.886 0-.985-.303.197-.202 1.576-.404 1.526.152h-.246c0 .151.197.151.394.151.099.304-.394.759-.541.405h-.444c0 .152.099.202.148.303-.147.607.443 0 0 0-.295 0-.443-.1-.443-.455h.148Zm-10.337-.404c-.05-.101.098.1 0 0Zm3.248.151c.05-.455.591-.303.985-.303-.197.202-.542.303-.985.303Zm3.545-.303c-.886-.202-.296.455 0 0Zm24.957 0c0 .152-.148.101-.296.152 0-.152.197-.152.296-.152Zm-33.178.303c-.05-.1.099.05 0 0Zm29.929-.151c-.05.151-.246.1-.443.151.05-.202.295-.151.443-.151Zm-28.65.252c-.048-.05.1.102 0 0Zm.985-.1c0 .151-.246.1-.393.1 0-.151.246-.1.393-.1Zm.296.1c-.05-.05.098.102 0 0Zm5.415 0c-.099-.05.049.102 0 0Zm.836-.1c0 .1-.197.1-.295.1 0-.1.197-.1.295-.1Zm21.66.1c-.05-.05.098.102 0 0Zm2.313 0c-.099-.05.05.102 0 0Zm-32.932 0c0 .152-.147.152-.246.152 0-.152.148-.101.246-.152Zm.296.152c-.05-.05.098.101 0 0Zm.443 0c-.05-.05.098.101 0 0Zm4.528 0c-.049-.05.099.101 0 0Zm26.385 0c-.59-.505-.344.506 0 0Zm2.51-.152c0 .152-.147.152-.245.152 0-.152.147-.101.246-.152Zm-27.073.759c-.345-.152.148-.657.443-.607-.05.304-.394.304-.443.607Zm1.034-.455c-.591.152-.05-.405 0 0 .196.505.442-.455 0 0Zm.689 0c-.05.202-.148 0-.296 0 .05-.152.296-.152.296 0Zm1.132 0c-.05-.05.098.1 0 0Zm1.723-.152c-.936-.152-.345.455 0 0Zm1.526.152c.197.505.344-.556 0 0Zm-9.058.303c-.049.304-.689.05-.59-.303.393-.101.295.303.59.303Zm.542-.151c-.05-.051.098.1 0 0Zm.443 0c-.05-.051.098.1 0 0Zm.689 0c-.05-.051.098.1 0 0Zm.295 0c-.049-.051.099.1 0 0Zm.296 0c-.05-.051.098.1 0 0Zm4.38 0c-.049-.051.1.1 0 0Zm22.152 0c-.099-.051.05.1 0 0Zm-29.634 0c0 .151-.196.1-.295.151 0-.151.148-.1.295-.151Zm28.453.151c-.542.152 0-.455 0 0-.099.607.443 0 0 0Zm-30.619.152c-.049-.05.099.101 0 0Zm3.545 0c-.05-.05.098.101 0 0Zm3.84 0c-.05-.05.098.101 0 0Zm1.575 0c.196.455.344-.556 0 0Zm21.117 0c-.05-.05.099.101 0 0Zm1.821 0c-.738.152-.147-.455 0 0 .099.202.197 0 0 0Zm-26.63.152c.147-.607.147.556 0 0Zm.984 0c-.05-.102.099.1 0 0Zm1.428 0c.197.455.344-.607 0 0Zm2.116-.152c0 .152-.147.101-.295.152 0-.152.197-.152.295-.152Zm19.297.152c-.05-.102.098.1 0 0Zm-26.533.151c-.049-.1.099.05 0 0Zm.591 0c-.05-.1.098.05 0 0Zm3.84 0c.196.455.344-.606 0 0Zm-6.104 0c0 .101-.197.101-.296.101 0-.1.148-.1.296-.1Zm7.088.253c.099-.202.295-.253.541-.253a.635.635 0 0 1-.541.556c.05-.1.148-.252 0-.303Zm.837.152c.098-.152.344-.152.295-.405.148.05.148.304.394.253.05.354-.492.101-.69.152Zm1.132-.304c-.738.203-.148-.404 0 0 .443.152.541.405-.148.304 0-.152.099-.152.148-.304Zm1.132 0c-.049-.05.099.101 0 0Zm19.986 0c-.05-.05.098.101 0 0Zm-.443.152c-.05-.05.098.101 0 0Zm-24.515.152c0-.152.197-.101 0 0-.196.1.05.202 0 0Zm1.428 0c-.05-.05.098.1 0 0Zm-.542.151c-.098-.05.05.101 0 0Zm-3.839.152c-.05-.05.098.101 0 0Zm29.88.455c-.05-.101.098.05 0 0Zm.295 1.719c-.05-.05.098.101 0 0ZM22.939.46c-.05-.05.098.1 0 0ZM20.675.61c-.05-.1.098.102 0 0Zm.984 0c.099-.05.295 0 .295-.151-.098 0-.295 0-.295.151Zm1.132 0c-.147 0-.098-.252 0 0Zm-2.953.152c-.05-.101.098.05 0 0ZM17.82.864c-.05-.05.098.101 0 0Zm-1.379.152c-.098-.05.099.101 0 0Zm-1.723.152c.099 0 .296 0 .296-.152-.099.05-.296 0-.296.152Zm.443 0c-.049-.05.099.1 0 0Zm.247 0c-.05-.05.098.1 0 0Zm-1.674.151c.098-.05.295 0 .295-.151-.147.05-.295 0-.295.151Zm-1.28.152c-.05-.05.098.101 0 0Zm-1.969.152c-.05-.203.197-.101 0 0Zm.394 0c.147-.05.295 0 .295-.152-.098.05-.295 0-.295.152Zm.59 0c-.049-.05.099.1 0 0Zm-.984 0c-.59-.152-.05.404 0 0Zm16.441.707v.152c-.098 0-.197-.101 0-.152Zm19.395.607c0-.202-.394-.202-.394 0 .099.253.246 0 .394 0ZM3.249 3.19c-.05-.05.098.101 0 0Zm31.455.455c-.148 0-.099-.202 0 0Zm3.544-.152c-.69-.151-.295.96 0 .455-.148-.05-.148-.303 0-.303v-.152Zm-3.938.304h.098c0-.152-.098-.101-.098 0Zm2.264 0c-.147.1-.393.202-.443 0 .099.05.148-.05.148-.152-.295-.05-.295.202-.295.455.246-.05.738.152.59-.303Zm0 0h.099c0-.152-.099-.101-.099 0Zm.837 0c.099 0 .148 0 .148.151-.099.05-.296 0-.296.152h.444c.147-.303-.247-.708-.296-.303Zm3.397 0c-.05-.05.098.1 0 0Zm-6.498 0h-.295c0 .202.246.151.295 0Zm7.187 0c-.443.455.541.252 0 0Zm-.394.303c-.05-.05.099.101 0 0Zm-9.353.152V4.1c-.197 0-.098.152 0 .152Zm7.778 0c.148-.05.394 0 .443-.152-.197 0-.394-.05-.443.152Zm-3.544.404c.147-.303-.345-.657-.443-.253.197.05.246.253.443.253Zm.147-.253c.197-.505.345.557 0 0Zm4.677 0c.098-.05.295-.05.295-.151-.098 0-.295 0-.295.151ZM.985 4.504c.098 0 .246 0 .246-.1-.099 0-.246 0-.246.1Zm35.835 0c-.049-.05.099.102 0 0Zm.296 0c-.05-.05.098.102 0 0Zm.738 0c-.098-.05.05.102 0 0Zm.246 0c-.049-.05.099.102 0 0Zm5.12-.1c-.886-.203-.296.404 0 0Zm.295.1c-.05-.05.099.102 0 0Zm1.526 0c-.05-.05.099.102 0 0Zm2.166-.1c-.246.05 0 .151 0 0ZM0 4.655c.197.506.345-.556 0 0Zm31.75 0c-.049-.152.197-.05 0 0Zm2.954 0h.147c.05-.101-.049-.101-.147-.152v.152Zm4.529 0c-.05-.05.098.101 0 0Zm.443 0c-.05-.05.098.101 0 0Zm.984 0c-.59.152 0-.404 0 0Zm3.84 0c-.197.05-.099-.202 0 0Zm1.575 0c-.099-.05.049.101 0 0Zm-15.063 0c0 .152.05.152.148.152.049-.101-.05-.152-.148-.152Zm.59.152c.099.05.148-.05.148-.152-.147 0-.147.05-.147.152Zm2.117.152c-.147-.051-.098-.304-.295-.304-.197.202-.099.455.295.455V4.96Zm.148-.152c.148-.455.738.152 0 0Zm.837-.152c-.197.101 0 .202 0 0Zm.147 0c.148.506-.443.202-.443.607.443.101.197.202.148.556.886-.253.64.152 1.132.455.05-.253-.147-.303-.147-.607.197.05.295 0 .295-.1-.099-.051-.246-.051-.295-.152.147 0 .295 0 .295.151.148-.1.246-.151.295-.303-.098-.05-.295 0-.295-.152.098.05.295 0 .295.152a.45.45 0 0 0 .296-.303c-.345.1-.197-.253-.443-.304-.148.253-.296.556-.542.304-.05.1-.148.151-.295.151 0 .202.246.253.295.455a.747.747 0 0 0-.59.101c-.05-.303.049-.505.295-.556V4.96c-.099 0-.148-.102 0-.152 0-.152-.197-.101-.296-.152Zm.591.304c0-.354-.148-.152-.295-.152v.152h.295Zm.985-.152c-.05-.05.098.1 0 0Zm4.233-.152c.05.455.59-.101 0 0Zm.59.152c.247 0 .296.152.542.152.246-.405-.59-.405-.541-.152Zm1.527 0c-.148 0-.05-.202 0 0Zm1.722-.152c.099.202.148 0 0 0Zm2.806 0c-.541-.101 0 .455 0 0ZM33.72 4.96c.099.05.148-.051.148-.152-.148 0-.148.05-.148.152Zm3.25-.152c0 .202-.247.354 0 .455.048-.202.245-.354 0-.455Zm.59.152c-.05-.051.098.1 0 0Zm.837 0c0-.152.197-.102 0 0Zm1.821 0c-.148 0-.05-.203 0 0Zm1.87 0c-.049-.051.099.1 0 0Zm.296 0c-.099-.051.098.1 0 0Zm.394-.152c.098.202.197 0 0 0Zm.443 0c-.246.354.492.455.443.152-.197 0-.197-.203-.443-.152Zm2.855.152c.147 0 .394.05.394-.152-.148.05-.394 0-.394.152Zm.837 0c-.444.455-.246-.506 0 0Zm-8.664.151h.148V4.96c-.099 0-.148.05-.148.151Zm.59 0c-.098-.05.1.101 0 0Zm.69.152c-.148-.607.443-.05 0 0Zm.689-.303c.098.202.197 0 0 0Zm.295.151c.099-.05.296 0 .296-.151-.099.05-.296 0-.296.151Zm.739 0c-.099-.05.098.101 0 0Zm5.66-.151c.099.202.148 0 0 0Zm.394.151c-.049-.05.099.101 0 0Zm1.576-.151c-.197.1 0 .202 0 0Zm-15.162.303c.345 0 .246-.202 0-.152v.152Zm3.544-.152c-.147.202-.147.354.148.455 0-.202.05-.354.148-.455h-.296Zm.985 0c-.246 0-.345.101-.394.304.197 0 .345-.102.394-.304Zm.148 0c.049.253-.148.253-.148.455.246-.05.541.05.59-.151-.147 0-.147-.203-.147-.304h-.295Zm7.383 0c-.246.405.591.405.542.152-.246 0-.295-.152-.542-.152Zm1.822.152c-.05-.05.098.101 0 0Zm.59 0c.148-.607.148.556 0 0Zm-14.472 0c-.59-.152-.049.404 0 0Zm5.809 0c-.59-.152 0 .404 0 0Zm3.544.152c.148-.051.394 0 .443-.152-.197 0-.394-.05-.443.152Zm.59 0c.1-.051.247 0 .247-.152-.099 0-.246 0-.246.152Zm.395 0c-.05-.102.098.1 0 0Zm1.427 0c-.05-.102.099.1 0 0Zm-5.809.151c-.049-.1.099.05 0 0Zm.837 0c-.147 0-.098-.253 0 0Zm3.987 0c-.049-.1.099.05 0 0Zm.542 0c-.05-.1.099.05 0 0Zm1.575 0c.246-.05.443 0 .59.101.198-.404-.639-.404-.59-.1Zm1.28 0c-.69-.404-.345.455 0 0Zm-47.798 0c-.196.05.05.152 0 0Zm32.932 0c.05.607.788-.151 0 0Zm.69.101c-.05-.05.098.101 0 0Zm.442 0c.148-.556.148.607 0 0Zm6.35-.1c.099.201.197-.051 0 0Zm.443.1c-.049-.05.099.101 0 0Zm4.381 0c-.049-.05.099.101 0 0Zm.591 0c.148 0 .197.253.246 0 0-.1-.246-.151-.246 0Zm2.117 0c-.05-.05.098.101 0 0Zm1.821 0c-.05-.05.099.101 0 0Zm.443 0h.148v-.1c-.148-.051-.148.05-.148.1Zm-13.635.152c.197 0 .443.05.443-.152-.148.05-.394 0-.443.152Zm.59 0c-.049-.05.099.101 0 0Zm.444 0c-.099-.05.098.101 0 0Zm4.38 0c-.049-.05.099.101 0 0Zm8.221-.152c-.197.101 0 .203 0 0Zm-14.03.304c.149-.556.149.606 0 0Zm2.118 0c-.05-.05.098.1 0 0Zm.443 0c-.099-.05.098.1 0 0Zm.394 0c.147 0 .295 0 .295-.152-.099.05-.295 0-.295.152Zm.738 0c-.197 0-.099-.203 0 0Zm2.806 0c.147 0 .295 0 .295-.152-.098.05-.295 0-.295.152Zm1.132 0c.148 0 .295 0 .295-.152-.098.05-.295 0-.295.152Zm1.575 0c-.05-.05.099.1 0 0Zm1.723 0c-.099-.05.05.1 0 0Zm.69 0c-.149 0-.1-.203 0 0Zm0 0c-.1.252.688.252.59 0-.296-.253-.197 0-.59 0Zm4.134-.152c-.246 0-.394.101-.443.303.098.05.148.152.295.152-.049-.253.099-.253.148-.455Zm.985.152h.246c0-.152-.148-.101-.246-.152v.152Zm-21.266.151v.152c.345 0 .69 0 .69-.303-.345-.05-.542.05-.69.151Zm1.526 0c0-.151.246-.1 0 0Zm.739 0c-.05-.05.098.101 0 0Zm5.956-.151c.05.202.148 0 0 0Zm5.218.151c-.05-.05.098.101 0 0Zm.59 0c-.049-.05.099.101 0 0Zm3.84 0c.098-.05.246 0 .246-.151-.098.05-.246 0-.246.151Zm.837 0c-.59-.505-.345.455 0 0Zm2.806-.151c.049.151.147.151.147.303.099 0 .197 0 .148.152.197 0 .246-.05.295-.152a.45.45 0 0 1-.295-.303h-.295Zm-20.675.303c.098-.05.295 0 .295-.152-.147.05-.295 0-.295.152Zm.69-.152c-.198.101.048.203 0 0Zm1.131.152c-.049-.05.099.101 0 0Zm2.166 0c-.098-.05.05.101 0 0Zm.246 0c-.049-.05.099.101 0 0Zm5.267 0c-.049-.05.099.101 0 0Zm5.12 0c-.05-.202.197-.101 0 0Zm2.117-.152c-.936-.151-.345.455 0 0Zm1.28.152c.196-.506.344.556 0 0Zm.984-.152c-.197.101 0 .203 0 0Zm-8.368.304c-.05-.05.098.1 0 0Zm3.987-.152c-.246.101 0 .152 0 0Zm.69.152c-.05-.05.098.1 0 0Zm2.263.151c.099-.05.296 0 .296-.151-.099 0-.296 0-.296.151Zm.985 0c.246 0 .443 0 .59.152.197-.404-.64-.404-.59-.152Zm-.295.152c-.05-.101.098.05 0 0Zm-1.822.101c.099 0 .296 0 .296-.101-.099 0-.296 0-.296.101Zm.985 0c-.148.05-.099-.202 0 0Zm0 0c.246.556.443-.455 0 0Zm1.427.152c.099 0 .296 0 .296-.152-.099.05-.296.05-.296.152Zm1.133-.152v.152c.098.101.246.151.443.151-.099-.151-.197-.303-.444-.303Zm-4.382.303c-.049-.05.099.102 0 0Zm2.265 0c-.05-.05.098.102 0 0Zm.541 0c-.049-.05.099.102 0 0Zm-1.821.152c-.05-.05.098.101 0 0Zm2.117 0c.147-.556.147.556 0 0Zm1.132 0c-.05-.05.098.101 0 0Zm.59-.152c-.049.152-.147.152-.147.304.197.152.197.05.394 0 .049-.253-.099-.253-.246-.304Zm-3.15.456c-.05-.051.099.1 0 0Zm.295 0c.099-.051.296 0 .296-.152-.099.05-.296 0-.296.152Zm.591.151c-.098-.05.05.101 0 0Zm1.526 0c-.148 0-.05-.202 0 0Zm0 0c.05.405.59-.151 0 0Zm-.689.304c.148-.607.148.556 0 0Zm1.132.252c-.295-.05-.443-.303-.689-.404-.05.455.345.505.69.556v-.152Zm.296-.252c-.591.1-.05-.455 0 0Zm0 .1c.098 0 .246 0 .246-.1h-.246v.1Zm-.296.152c.099 0 .148.152 0 .152a.717.717 0 0 0 .443.303c.05-.303-.098-.404-.147-.606-.197 0-.247.05-.296.151Z" fill="#F2208D"/>
</svg>