<svg width="54" height="9" viewBox="0 0 54 9" fill="none" xmlns="http://www.w3.org/2000/svg">
<path d="M53.557 5.97066C54.2461 5.66731 53.5077 5.26285 53.2616 4.80782C53.6554 5.01006 53.557 4.45392 54 4.50447C53.7539 3.29108 52.6217 2.58326 50.7511 2.33047C50.7511 2.22935 50.8496 2.17879 50.8496 2.02712C49.5205 2.33047 47.5023 0.712606 46.0747 1.3193C46.1732 0.611489 45.484 1.57209 45.6317 0.864279C40.6108 0.308138 35.4421 -0.0457685 31.1595 0.00479058C31.2088 0.156465 31.1595 0.257581 31.0119 0.308138C29.5351 -0.248003 27.0246 0.105905 24.5141 0.308138C24.1696 0.308138 23.825 0.308138 23.5296 0.308138C22.8897 0.308138 23.4804 0.560929 23.7758 0.459814C24.3172 0.560929 25.2033 0.25758 25.4986 0.611488C24.6126 0.611488 23.6773 0.611488 22.7913 0.611488C15.9982 1.36986 9.84503 1.62265 3.54421 3.18996C3.69189 3.18996 3.79034 3.24052 3.79034 3.34163C3.59344 3.7461 2.60893 3.29108 2.41203 3.64498C2.46126 3.84722 2.55971 3.64498 2.41203 3.64498C2.21513 3.84722 1.87056 3.89777 1.67366 4.10001C1.91978 4.15057 2.51048 3.89777 2.51048 4.25168C2.01823 4.15057 1.72288 4.30224 1.3783 4.40336C1.32908 4.70671 1.67366 4.60559 1.67366 4.80782C1.23063 4.80782 0.738377 4.80782 0.246126 4.80782C6.1126e-08 5.06062 0.443026 5.26285 0.0984503 5.5662C0.344576 5.97066 -1.22252e-07 6.42569 0.541477 6.83015C0.344576 6.93127 0.196901 7.08294 0.0984503 7.28518C0.393801 7.68965 0.590702 8.49858 0.393801 8.90304C10.5342 8.29634 21.7575 5.86955 30.7657 6.27401C30.9134 6.07178 31.3564 6.12234 31.7502 6.12234C31.5041 5.86955 30.7657 6.07178 30.7657 5.5662C30.9134 5.5662 31.0119 5.51564 31.0119 5.41452C30.2735 5.41452 30.8642 4.80782 31.0119 5.41452C31.2088 5.41452 31.1595 5.66731 31.1595 5.81899C31.3564 5.81899 31.5533 5.81899 31.7502 5.81899C31.7502 5.71787 31.8979 5.66731 31.8979 5.5662C31.5041 5.51564 31.5533 5.06061 31.9964 5.11117C32.0456 5.31341 31.9471 5.41452 31.8979 5.5662C31.9964 5.5662 31.9964 5.71787 31.9964 5.81899C32.4394 5.71787 32.4394 5.71787 32.8824 5.81899C32.8332 5.66731 32.8824 5.5662 33.0301 5.5662C33.0301 5.46508 33.0301 5.36396 33.0301 5.26285C32.9316 5.36396 32.2425 5.5662 32.144 5.26285C32.3902 5.21229 32.784 5.06061 33.0301 5.26285C33.1778 5.26285 33.2762 5.21229 33.2762 5.11117C33.1285 5.06061 32.9809 4.90894 33.0301 4.65615C33.6208 4.75727 32.8824 4.40336 33.2762 4.40336C33.9161 4.40336 33.8669 4.50447 34.4084 4.40336C34.4084 4.3528 34.4084 4.30224 34.4084 4.25168C33.2762 4.20112 32.9809 4.04945 32.7347 4.65615C32.7347 4.45392 32.3409 4.60559 32.2917 4.40336C32.5378 4.30224 32.2917 4.20112 32.2917 3.94833C32.7347 3.84722 33.5223 4.15057 33.7192 3.79666C33.5223 3.69554 32.9809 3.94833 33.0301 3.64498C33.7192 3.39219 32.9316 3.39219 33.0301 3.08884C33.8177 3.03828 33.2762 3.64498 33.7192 3.79666C34.1623 3.69554 33.9654 3.49331 34.1623 3.34163C34.6053 3.29108 34.8022 3.44275 35.1468 3.49331C35.1468 3.39219 35.1468 3.24052 35.2944 3.18996C35.2452 3.34163 35.2944 3.49331 35.1468 3.49331C35.2452 3.99889 34.8514 3.7461 34.7037 3.64498C34.7037 3.7461 34.6053 3.79666 34.4084 3.79666C34.3099 4.45392 34.8022 3.59442 34.8514 4.10001C34.8022 4.30224 34.5561 4.25168 34.4084 4.40336C34.4084 4.50447 34.6053 4.50447 34.7037 4.50447C34.8022 4.15057 35.3929 4.85838 35.4421 4.25168C35.1468 4.30224 34.9991 4.20112 34.9991 3.94833C35.6882 3.99889 35.2452 3.1394 35.6882 3.94833C35.6882 2.88661 37.0665 3.34163 36.6727 3.79666C36.6727 3.89777 36.6727 3.99889 36.6727 4.10001C37.3619 3.99889 36.9681 3.54387 37.4111 3.34163C37.7557 3.59443 37.7065 3.1394 38.248 3.18996C38.051 2.78549 38.9863 2.83605 38.9863 3.08884C38.9371 3.24052 38.9863 3.49331 38.8386 3.49331C38.7402 3.39219 38.7402 2.83605 38.248 3.18996C38.248 3.29108 38.248 3.39219 38.248 3.49331C38.3464 3.49331 38.3956 3.64498 38.248 3.64498C38.248 3.79666 38.4448 3.7461 38.5433 3.79666C38.4448 3.54387 39.2325 3.54387 39.0848 3.79666C38.9371 3.79666 38.7402 3.79666 38.5433 3.79666C38.5433 3.89777 38.5433 3.99889 38.5433 4.10001C38.9371 4.04945 38.8879 4.20112 39.2325 4.10001C38.9371 3.89777 39.9216 3.94833 39.2325 3.64498C39.8232 3.59443 39.6755 3.59443 40.217 3.64498C39.9708 3.89778 40.2662 4.20112 40.66 4.25168C40.0201 3.34163 41.4968 3.39219 41.7922 2.78549C41.546 2.98773 41.1522 2.58326 40.8077 2.48214C41.1522 2.48214 41.4476 2.48214 41.7922 2.48214C41.7922 2.58326 41.7922 2.68438 41.7922 2.78549C41.9891 3.1394 42.7767 2.68438 42.7767 2.93717C42.5798 3.03828 42.8259 3.64498 42.3829 3.49331C42.2352 2.83605 41.4968 3.34163 41.103 3.79666C41.2507 3.79666 41.3984 3.79666 41.4968 3.79666C41.4968 3.64498 41.546 3.54387 41.6445 3.49331C41.7922 4.04945 42.2352 3.49331 42.3829 3.79666C42.0875 4.20113 42.2844 4.50447 41.7922 4.25168C41.6445 4.65615 42.1367 4.50447 42.3829 4.50447C42.4321 4.25168 42.4321 3.89777 42.7767 3.94833C42.9243 4.25168 43.1705 4.25168 43.515 3.79666C43.6135 3.89777 43.9088 3.89777 43.9088 4.10001C43.7119 4.15057 43.8104 4.45392 43.7612 4.65615C44.3519 4.75727 44.4503 4.20112 44.0565 4.10001C44.8441 3.89777 45.6809 3.94833 45.1887 4.80782C45.7302 4.90894 45.4348 4.20112 45.7794 4.10001C46.1732 4.15057 46.6655 4.80783 46.9116 4.50447C46.6162 4.30224 47.0593 4.10001 46.6162 3.94833C47.01 3.7461 47.7976 4.15057 48.1914 3.64498C47.8961 3.99889 48.1914 3.79666 48.3391 4.10001C48.1422 4.50447 46.8131 3.64498 47.2069 4.40336C47.3054 4.30224 47.4531 4.20113 47.4531 4.40336C47.4531 4.50447 47.3054 4.50447 47.3054 4.65615C47.7484 4.80783 47.6992 4.45392 48.0438 4.50447C47.9945 4.70671 47.7976 4.75726 47.7484 4.9595C47.9945 4.80782 48.4376 4.90894 48.5852 4.65615C48.536 4.65615 48.4376 4.55503 48.5852 4.50447C48.5852 4.55503 48.5852 4.60559 48.5852 4.65615C48.8314 4.60559 48.8806 4.80782 48.8806 4.9595C49.0775 4.9595 49.1267 5.01006 49.1759 5.11117C49.0775 5.21229 48.7821 5.21229 48.7329 5.41452C49.0775 5.46508 49.8159 5.76843 49.8651 5.26285C49.619 5.31341 49.619 5.16173 49.619 4.9595C49.8159 4.90894 49.8651 5.11117 50.0128 5.11117C50.062 5.01006 50.0128 4.80782 50.1604 4.80782C50.1112 4.90894 50.1604 5.11117 50.0128 5.11117C50.0128 5.16173 50.0128 5.21229 50.0128 5.26285C50.1604 5.36396 50.4066 5.36397 50.4558 5.5662C50.6035 5.5662 50.6527 5.31341 50.7511 5.5662C50.7019 5.66731 50.6035 5.71787 50.4558 5.66732C50.4558 5.71787 50.4558 5.76843 50.4558 5.81899C51.0957 6.07178 51.4403 6.1729 51.7356 5.5662C51.6372 5.51564 51.5387 5.51564 51.588 5.41452C51.4895 5.36396 51.2926 5.41452 51.2926 5.26285C51.3911 5.26285 51.588 5.26285 51.588 5.41452C51.6864 5.41452 51.7356 5.41452 51.7356 5.5662C51.9325 5.36397 52.1294 5.46508 52.2771 5.66732C52.1294 5.66732 52.031 5.71787 52.031 5.81899C52.1294 5.97066 52.3756 5.9201 52.4248 6.12234C52.5232 6.32457 52.6217 6.12234 52.4248 6.12234C52.2771 6.12234 52.1294 6.12234 52.031 6.12234C51.7849 6.67848 52.6217 6.1729 52.4248 6.72904C52.3263 6.62792 52.1787 6.57736 52.031 6.57736C52.031 6.7796 52.031 6.93127 52.031 7.1335C52.474 7.33574 52.1294 6.67848 52.5725 6.83015C52.5725 6.62792 52.6709 6.47625 52.8678 6.42569C52.8678 6.5268 52.8678 6.72904 53.0155 6.72904C52.9663 6.52681 53.2124 6.62792 53.0155 6.72904C53.0155 6.98183 54.0492 7.28518 53.2616 7.43685C53.2616 7.63909 53.2616 7.84132 53.2616 8.04355C53.6062 7.99299 53.3601 8.54913 53.4093 8.75137C53.3108 8.75137 53.2124 8.75137 53.1632 8.75137C53.4093 9.40862 53.4585 8.54913 53.8523 8.59969C53.6554 7.84132 53.4585 7.28518 53.8523 6.72904C53.7047 6.62792 53.6062 6.57736 53.557 6.42569C53.4585 6.42569 53.4093 6.37513 53.4093 6.27401C53.1632 6.27401 53.0647 6.1729 53.0155 5.97066C52.8678 5.97066 52.7201 5.97066 52.7201 5.81899C52.6217 5.81899 52.4248 5.81899 52.4248 5.66732C52.5232 5.71787 52.7201 5.71787 52.7201 5.81899C52.8186 5.81899 52.917 5.81899 53.0155 5.81899C53.0155 5.76843 53.0155 5.71787 53.0155 5.66732C52.917 5.46508 52.474 5.66731 52.4248 5.41452C52.7201 5.41452 52.7201 5.26285 52.5725 5.11117C52.4248 5.11117 52.474 4.90894 52.5725 5.11117C53.0647 5.26285 53.2616 5.66731 53.557 5.97066ZM27.6153 0.308138C27.32 0.611488 26.4339 0.358697 25.9417 0.459814C26.1878 0.105905 27.1231 0.409255 27.6153 0.308138ZM28.206 0.308138C28.1568 0.459814 27.9107 0.409255 27.763 0.459814C27.8122 0.257581 28.0091 0.308138 28.206 0.308138ZM28.5998 0.459814C28.5506 0.409255 28.6983 0.560929 28.5998 0.459814V0.459814ZM29.732 0.308138C29.732 0.611488 29.1413 0.358697 28.8952 0.459814C28.8952 0.105905 29.4859 0.409255 29.732 0.308138ZM30.7657 0.308138C30.7165 0.611488 30.1258 0.358697 29.8797 0.459814C29.9289 0.105905 30.4704 0.409255 30.7657 0.308138ZM31.7502 0.308138C31.701 0.459814 31.4549 0.409255 31.3072 0.459814C31.3564 0.257581 31.5533 0.308138 31.7502 0.308138ZM32.7347 0.308138C32.7347 0.611488 32.2425 0.358697 31.9964 0.459814C31.9964 0.156464 32.5378 0.358697 32.7347 0.308138ZM33.7192 0.308138C33.7192 0.459814 33.5223 0.409255 33.4239 0.459814C33.4239 0.308138 33.6208 0.358697 33.7192 0.308138ZM34.3099 0.308138C34.2607 0.459814 34.113 0.409255 34.0146 0.459814C34.0146 0.308138 34.1623 0.358697 34.3099 0.308138ZM35.4421 0.308138C35.3929 0.459814 35.1468 0.409255 34.9991 0.459814C34.9991 0.257581 35.2452 0.308138 35.4421 0.308138ZM36.4266 0.459814C36.5743 -0.146886 36.5743 1.01595 36.4266 0.459814V0.459814ZM36.8204 0.611488C36.7712 0.510371 36.9189 0.712605 36.8204 0.611488V0.611488ZM31.9964 0.763162C31.9471 0.662045 32.0948 0.813721 31.9964 0.763162V0.763162ZM24.5141 0.864279C24.4649 0.813721 24.6126 0.965396 24.5141 0.864279V0.864279ZM40.9553 0.864279C40.9061 0.813721 41.0538 0.965396 40.9553 0.864279V0.864279ZM41.6445 0.864279C41.5953 0.813721 41.7429 0.965396 41.6445 0.864279V0.864279ZM21.9544 1.01595C21.9052 0.965397 22.0529 1.11707 21.9544 1.01595V1.01595ZM40.1185 1.01595C40.0201 0.965397 40.1677 1.11707 40.1185 1.01595V1.01595ZM19.3947 1.16763C19.3455 1.11707 19.4932 1.26875 19.3947 1.16763V1.16763ZM20.2315 1.01595C20.2315 1.21819 19.9854 1.16763 19.8377 1.16763C19.8377 1.01595 20.0839 1.06651 20.2315 1.01595ZM20.5269 1.16763C20.4777 1.11707 20.6253 1.26875 20.5269 1.16763V1.16763ZM20.9699 1.16763C20.9207 1.11707 21.0684 1.26875 20.9699 1.16763V1.16763ZM41.2507 1.01595C41.2507 1.16763 41.0538 1.16763 40.9553 1.16763C40.9553 1.01595 41.103 1.06651 41.2507 1.01595ZM18.7056 1.16763C18.7056 1.3193 18.5087 1.26875 18.4102 1.3193C18.4102 1.16763 18.5579 1.21819 18.7056 1.16763ZM19.0994 1.3193C19.0501 1.26875 19.1978 1.42042 19.0994 1.3193V1.3193ZM23.5296 1.3193C23.6773 0.763163 23.6773 1.87545 23.5296 1.3193V1.3193ZM17.7211 1.47098C17.6226 1.42042 17.7703 1.5721 17.7211 1.47098V1.47098ZM24.6618 1.47098C24.5634 1.42042 24.7603 1.5721 24.6618 1.47098V1.47098ZM25.351 1.47098C25.3017 1.42042 25.4494 1.5721 25.351 1.47098V1.47098ZM25.6463 1.47098C25.5971 1.42042 25.7448 1.5721 25.6463 1.47098V1.47098ZM16.2935 1.62265C16.2443 1.57209 16.392 1.72377 16.2935 1.62265V1.62265ZM21.6591 1.62265C21.6098 1.57209 21.7575 1.72377 21.6591 1.62265V1.62265ZM22.9389 1.47098C22.9389 1.62265 22.7912 1.57209 22.6436 1.62265C22.6436 1.47098 22.8405 1.52154 22.9389 1.47098ZM39.6755 1.62265C39.6263 1.57209 39.7739 1.72377 39.6755 1.62265V1.62265ZM41.103 1.62265C41.0538 1.57209 41.2015 1.72377 41.103 1.62265V1.62265ZM41.4968 1.62265C41.4476 1.57209 41.5953 1.72377 41.4968 1.62265V1.62265ZM45.484 1.62265C45.4348 1.57209 45.5825 1.72377 45.484 1.62265V1.62265ZM26.6308 1.926C26.68 1.67321 27.5661 1.3193 27.4676 1.926C27.2215 1.926 26.9262 1.926 26.6308 1.926ZM28.206 1.77433C28.1076 2.07768 27.5169 1.82489 27.9107 1.62265C28.0091 1.62265 28.0583 1.77433 28.206 1.77433ZM28.7475 1.62265C28.7475 1.77433 28.5014 1.72377 28.3537 1.77433C28.3537 1.57209 28.5998 1.62265 28.7475 1.62265ZM29.3382 1.926C29.3382 1.77433 29.289 1.77433 29.1905 1.77433C29.1413 1.47098 29.8304 1.52154 29.5843 1.926C29.5351 1.926 29.4366 1.926 29.3382 1.926ZM31.1595 1.62265C31.0611 2.07768 30.7657 1.82489 30.4704 1.77433C30.4211 1.42042 30.9626 1.67321 31.1595 1.62265ZM31.7502 1.926C31.7995 1.82489 31.3072 1.72377 31.3072 1.77433C31.258 1.52154 32.0948 1.57209 31.7502 1.926ZM32.4394 1.926C31.7995 1.926 32.3902 1.3193 32.4394 1.926C32.5378 1.926 32.5871 1.926 32.5871 2.02712C32.8824 2.02712 33.1285 2.02712 33.4239 2.02712C33.2762 2.38103 32.7347 2.38103 32.5871 2.02712C32.4886 2.02712 32.4394 2.02712 32.4394 1.926ZM33.1285 1.62265C33.1285 1.926 32.784 1.926 32.5871 1.77433C32.6363 1.57209 32.9316 1.62265 33.1285 1.62265ZM33.7192 1.926C33.7192 1.82489 33.7192 1.72377 33.7192 1.62265C33.9161 1.62265 34.113 1.62265 34.3099 1.62265C34.4084 2.02712 33.9654 1.87544 33.7192 1.926ZM46.0747 1.77433C45.9763 1.67321 46.124 1.87544 46.0747 1.77433V1.77433ZM46.7639 1.77433C46.9116 1.16763 46.9116 2.33047 46.7639 1.77433V1.77433ZM16.6873 1.77433C16.6873 1.87544 16.5397 1.87544 16.4412 1.926C16.4412 1.77433 16.5889 1.77433 16.6873 1.77433ZM18.2625 1.926C18.2625 1.82489 18.361 1.72377 18.4102 1.926C18.4594 1.926 18.5087 1.926 18.5579 1.926C18.5579 1.72377 18.7548 1.82489 18.5579 1.926C18.5579 1.97656 18.4594 2.07768 18.4102 1.926C18.361 1.926 18.3118 1.926 18.2625 1.926C18.2625 2.07768 18.0656 1.97656 18.2625 1.926ZM23.7758 2.02712C23.825 1.67321 24.268 1.77433 24.6618 1.77433C24.7603 2.27991 24.0711 1.97656 23.7758 2.02712ZM24.9079 2.02712C24.8095 1.52154 25.4986 1.82489 25.794 1.77433C25.6463 2.22935 25.351 1.77433 24.9079 2.02712ZM33.2762 1.926C33.227 1.82489 33.3747 1.97656 33.2762 1.926V1.926ZM34.9991 2.02712C34.9499 1.926 34.9006 1.87544 34.7037 1.926C34.8514 1.47098 35.639 1.926 34.9991 2.02712C34.9991 2.12824 34.9991 2.22935 34.9991 2.33047C34.8514 2.93717 35.4421 2.38103 34.9991 2.33047C34.8514 2.33047 34.8022 2.07768 34.9991 2.02712ZM36.2789 2.17879C35.9836 1.77433 35.8851 2.07768 35.4421 1.926C35.5898 1.72377 37.0173 1.52154 36.9681 2.02712C36.6235 1.97656 36.4758 1.87545 36.2789 2.17879ZM38.1003 2.17879C38.1495 1.82489 37.3127 2.33047 37.5588 1.77433C37.9034 1.82489 38.1003 1.97656 38.5433 1.926C38.4941 2.12824 38.248 2.07768 38.1003 2.17879C38.0018 2.43159 37.8049 2.63382 37.5588 2.78549C37.5588 2.98773 37.9034 2.88661 38.1003 2.93717C37.8541 3.29108 36.5743 2.98773 37.5588 2.78549C37.4603 2.48214 37.9526 2.33047 37.4111 2.33047C37.3619 2.02712 37.9034 2.27991 38.1003 2.17879ZM42.7767 1.926C42.629 1.926 42.7274 1.67321 42.7767 1.926C42.8751 2.12824 42.9736 1.87544 42.7767 1.926ZM47.4531 1.926C47.4038 1.82489 47.5515 1.97656 47.4531 1.926V1.926ZM16.9827 2.02712C16.9335 1.97656 17.0811 2.12824 16.9827 2.02712V2.02712ZM21.3637 2.02712C20.2808 2.12824 22.1021 1.97656 21.3637 2.02712V2.02712ZM22.7913 2.02712C22.742 2.27991 22.6928 2.02712 22.4959 2.02712C22.5451 1.87544 22.7913 1.926 22.7913 2.02712ZM22.9389 2.02712C23.382 1.52154 23.4312 2.48214 22.9389 2.02712V2.02712ZM30.0273 2.33047C29.2397 2.5327 30.3719 1.62265 30.7657 2.02712C30.815 2.43158 29.9781 1.926 30.0273 2.33047C30.2242 2.33047 30.1258 2.5327 30.0273 2.33047ZM39.9708 2.17879C39.3309 2.12824 39.2817 2.17879 38.9863 2.02712C38.9863 1.82489 40.1185 1.72377 39.9708 2.17879ZM19.8377 2.33047C19.8377 2.22935 19.8377 2.12824 19.8377 2.02712C19.9362 2.02712 20.0346 2.02712 20.1331 2.02712C20.1331 2.12824 20.1331 2.22935 20.1331 2.33047C20.0346 2.33047 19.9362 2.33047 19.8377 2.33047ZM20.3792 2.17879C20.4284 1.77433 20.9699 2.33047 20.3792 2.17879C20.1823 2.27991 20.4284 2.38103 20.3792 2.17879ZM21.8067 2.17879C21.7575 2.12824 21.9052 2.27991 21.8067 2.17879V2.17879ZM22.1021 2.17879C22.0529 2.12824 22.2005 2.27991 22.1021 2.17879V2.17879ZM26.0401 2.17879C25.9909 2.12824 26.1386 2.27991 26.0401 2.17879V2.17879ZM27.763 2.17879C27.763 2.02712 27.9599 2.12824 27.763 2.17879C27.5661 2.27991 27.763 2.38103 27.763 2.17879ZM28.4521 2.02712C28.4521 2.17879 28.3045 2.17879 28.206 2.17879C28.206 2.07768 28.3537 2.07768 28.4521 2.02712ZM29.5843 2.02712C29.5843 2.22935 29.3382 2.17879 29.1905 2.17879C29.1905 2.02712 29.4366 2.07768 29.5843 2.02712ZM32.2917 2.02712C32.2917 2.17879 32.144 2.17879 31.9964 2.17879C32.0456 2.07768 32.1933 2.07768 32.2917 2.02712ZM34.1623 2.33047C33.9654 2.33047 33.8177 2.27991 33.8669 2.02712C33.9654 2.02712 34.0638 2.02712 34.1623 2.02712C34.1623 2.12824 34.1623 2.22935 34.1623 2.33047C34.4576 2.43159 34.4576 2.58326 34.3099 2.78549C35.2452 2.68438 35.4913 2.93717 34.5561 3.08884C34.3592 3.1394 34.6053 3.24052 34.5561 3.08884C34.5561 2.73493 33.9654 2.98773 33.7192 2.93717C33.7685 2.63382 34.3592 2.88661 34.1623 2.33047ZM34.4084 2.17879C34.3592 2.12824 34.5068 2.27991 34.4084 2.17879V2.17879ZM40.1185 2.33047C40.6108 1.67321 41.2507 2.27991 40.1185 2.33047C40.1185 2.48214 39.9708 2.5327 39.9708 2.63382C40.0201 3.18996 40.5615 2.58326 39.9708 2.63382C39.7739 2.63382 39.8232 2.27991 40.1185 2.33047ZM41.3984 2.33047C41.3984 2.22935 41.3984 2.12824 41.3984 2.02712C41.4476 2.02712 41.546 2.02712 41.6445 2.02712C41.6445 2.12824 41.6445 2.22935 41.6445 2.33047C41.546 2.33047 41.4476 2.33047 41.3984 2.33047ZM42.2352 2.33047C41.9891 2.33047 41.7429 2.38103 41.7922 2.02712C41.9891 2.12824 42.1367 2.22935 42.2352 2.33047C42.2844 2.33047 42.3336 2.33047 42.3829 2.33047C42.3336 2.07768 43.0228 2.12824 42.7767 2.48214C42.6782 2.48214 42.5798 2.48214 42.5305 2.48214C42.4813 2.38103 42.4813 2.33047 42.3829 2.33047C42.3829 2.58326 42.186 2.68438 42.2352 2.33047ZM49.1759 2.17879C48.979 2.22935 49.0775 1.97656 49.1759 2.17879C49.2744 2.43159 49.3236 2.17879 49.1759 2.17879ZM17.5734 2.48214C17.8687 2.07768 18.7056 2.22935 19.3947 2.17879C19.0501 2.63382 18.6071 2.38103 17.5734 2.48214ZM24.0711 2.48214C24.0711 2.38103 24.0711 2.27991 24.0711 2.17879C24.2188 2.17879 24.3665 2.17879 24.5141 2.17879C24.4649 2.38103 24.268 2.43158 24.2188 2.63382C24.1203 2.63382 24.0711 2.58326 24.0711 2.48214ZM25.4986 2.17879C25.4986 2.33047 25.3017 2.33047 25.2033 2.33047C25.2033 2.17879 25.4002 2.22935 25.4986 2.17879ZM25.6463 2.33047C25.5971 2.27991 25.7448 2.43159 25.6463 2.33047V2.33047ZM26.9262 2.48214C26.8769 2.83605 26.3847 2.48214 26.4831 2.17879C26.6308 2.17879 26.7785 2.17879 26.9262 2.17879C26.9262 2.22935 26.9262 2.27991 26.9262 2.33047C26.9754 2.33047 27.0738 2.48214 26.9262 2.48214ZM27.2215 2.33047C27.1231 2.27991 27.2707 2.43159 27.2215 2.33047V2.33047ZM31.0119 2.33047C31.2088 1.77433 31.2088 2.93717 31.0119 2.33047V2.33047ZM35.5406 2.33047C35.3929 2.33047 35.4913 2.12824 35.5406 2.33047C35.8359 2.68438 36.1805 2.22935 36.4266 2.48214C36.3774 2.78549 35.8359 2.5327 35.5406 2.63382C35.5406 2.78549 35.6882 2.78549 35.6882 2.93717C35.8851 2.88661 35.9836 2.73493 36.2789 2.78549C36.1805 2.98773 35.9836 3.03828 35.6882 3.08884C35.6882 3.03828 35.6882 2.98773 35.6882 2.93717C35.196 3.03828 35.4421 2.43159 35.5406 2.33047ZM36.6727 2.17879C36.6727 2.33047 36.5251 2.33047 36.4266 2.33047C36.4266 2.17879 36.5743 2.22935 36.6727 2.17879ZM36.8204 2.33047C36.7712 2.27991 36.9189 2.43159 36.8204 2.33047V2.33047ZM44.0565 2.78549C44.0565 2.68438 44.0565 2.58326 44.0565 2.48214C43.8596 2.5327 43.8104 2.68438 43.6627 2.48214C43.7119 2.27991 43.9581 2.22935 44.2042 2.17879C44.2042 2.58326 44.4503 2.48214 44.2042 2.78549C44.3026 2.98773 44.4011 2.78549 44.2042 2.78549C44.155 2.78549 44.1057 2.78549 44.0565 2.78549C44.1057 3.03828 43.2689 3.03829 43.515 2.63382C43.7119 2.68438 43.7612 2.83605 44.0565 2.78549ZM16.6873 2.63382C16.6873 2.5327 16.6873 2.43159 16.6873 2.33047C16.8842 2.33047 17.0811 2.33047 17.278 2.33047C17.4257 2.78549 16.9335 2.58326 16.6873 2.63382ZM21.1176 2.48214C21.0191 2.43159 21.216 2.58326 21.1176 2.48214V2.48214ZM21.6591 2.48214C21.5114 2.48214 21.5606 2.27991 21.6591 2.48214C21.7575 2.68438 21.856 2.48214 21.6591 2.48214ZM22.6436 2.48214C22.5944 2.43159 22.742 2.58326 22.6436 2.48214V2.48214ZM22.9389 2.48214C22.8897 2.43159 23.0374 2.58326 22.9389 2.48214V2.48214ZM29.3382 2.48214C29.289 2.43159 29.4366 2.58326 29.3382 2.48214V2.48214ZM31.8979 2.48214C31.7995 2.43159 31.9471 2.58326 31.8979 2.48214V2.48214ZM32.2917 2.48214C32.2425 2.43159 32.3902 2.58326 32.2917 2.48214V2.48214ZM32.5871 2.48214C32.5378 2.43159 32.6855 2.58326 32.5871 2.48214V2.48214ZM38.3956 2.48214C38.3464 2.43159 38.4941 2.58326 38.3956 2.48214V2.48214ZM38.691 2.78549C38.7894 2.58326 38.7894 2.22935 39.2325 2.33047C39.0355 2.43159 39.0356 2.78549 38.691 2.78549ZM39.3801 2.48214C39.3309 2.43159 39.4786 2.58326 39.3801 2.48214V2.48214ZM44.7949 2.48214C44.2042 2.63382 44.7457 2.02712 44.7949 2.48214C44.9918 2.48214 45.0902 2.5327 45.1887 2.63382C45.1887 2.83605 44.8933 2.73493 44.7949 2.63382C44.7949 2.58326 44.7949 2.5327 44.7949 2.48214ZM48.3391 2.48214C48.2407 2.43159 48.4376 2.58326 48.3391 2.48214V2.48214ZM16.4412 2.48214C16.4412 2.63382 16.2443 2.58326 16.1459 2.63382C16.1459 2.48214 16.2935 2.5327 16.4412 2.48214ZM20.3792 2.63382C20.33 2.58326 20.4777 2.73493 20.3792 2.63382V2.63382ZM24.5141 2.63382C24.4649 2.58326 24.6126 2.73493 24.5141 2.63382V2.63382ZM25.2033 2.63382C25.1541 2.58326 25.3017 2.73493 25.2033 2.63382V2.63382ZM25.794 2.48214C25.794 2.63382 25.5971 2.58326 25.4986 2.63382C25.4986 2.48214 25.6463 2.5327 25.794 2.48214ZM26.1878 2.63382C26.1386 2.58326 26.2862 2.73493 26.1878 2.63382V2.63382ZM27.763 2.63382C27.7138 2.58326 27.8614 2.73493 27.763 2.63382V2.63382ZM34.5561 2.63382C34.5068 2.58326 34.6545 2.73493 34.5561 2.63382V2.63382ZM46.3209 3.64498C46.0255 3.64498 45.9271 3.39219 45.484 3.49331C45.484 3.18996 46.0747 3.44275 46.3209 3.34163C46.3209 3.03829 45.7302 3.34163 45.6317 3.08884C45.6809 2.88661 45.8286 2.78549 45.7794 2.48214C46.124 2.78549 47.01 2.68438 47.2069 2.78549C47.1577 3.24052 46.7147 2.88661 46.3209 2.93717C46.6162 3.24052 46.6162 3.29108 46.3209 3.64498C46.5178 3.64498 46.4193 3.84722 46.3209 3.64498ZM50.6035 2.63382C50.5542 2.58326 50.7019 2.73493 50.6035 2.63382V2.63382ZM18.5579 2.63382C18.5579 2.78549 18.361 2.73493 18.2625 2.78549C18.2625 2.63382 18.4594 2.68438 18.5579 2.63382ZM22.2498 2.93717C22.1021 2.88661 22.1021 2.78549 21.9544 2.78549C22.0529 2.43158 22.6436 2.68438 22.2498 2.93717ZM23.2343 2.63382C23.2343 2.78549 23.0374 2.73493 22.9389 2.78549C22.9389 2.63382 23.1358 2.68438 23.2343 2.63382ZM29.5843 3.08884C29.289 3.08884 29.1905 2.83605 28.7475 2.93717C29.0428 2.68438 29.3874 2.68438 29.732 2.78549C29.732 2.93717 29.6335 2.93717 29.5843 3.08884C30.175 2.93717 29.6335 3.49331 29.5843 3.08884ZM30.618 2.78549C30.6673 3.03828 29.9781 2.98773 30.175 2.63382C30.4212 2.58326 30.4211 2.78549 30.618 2.78549ZM31.7502 3.18996C31.701 3.03828 31.5533 2.98773 31.4549 2.93717C31.7995 2.58326 31.9471 2.73493 32.4394 2.78549C32.4394 2.98773 32.0948 2.88661 31.8979 2.93717C31.8979 3.03828 31.9964 3.08884 32.144 3.08884C32.144 3.24052 31.9471 3.24052 31.7502 3.18996C31.7995 3.7461 30.5196 3.59442 30.7657 3.08884C30.9626 3.29108 31.4549 3.54387 31.7502 3.18996ZM38.248 2.63382C38.248 2.78549 38.1003 2.73493 37.9526 2.78549C37.9526 2.63382 38.1495 2.68438 38.248 2.63382ZM45.484 2.78549C45.4348 2.73493 45.5825 2.88661 45.484 2.78549V2.78549ZM19.8377 2.93717C19.7885 2.88661 19.9362 3.03828 19.8377 2.93717V2.93717ZM20.2315 2.93717C20.1823 2.88661 20.33 3.03828 20.2315 2.93717V2.93717ZM25.6463 2.93717C25.6463 2.48214 26.237 3.03828 25.6463 2.93717C25.0556 2.78549 25.5971 3.34163 25.6463 2.93717ZM26.1878 2.93717C26.6308 2.38103 26.68 3.34163 26.1878 2.93717V2.93717ZM27.2215 2.78549C27.1723 2.93717 27.0246 2.88661 26.9262 2.93717C26.9262 2.78549 27.0738 2.78549 27.2215 2.78549ZM27.9107 2.78549C27.9107 2.93717 27.7138 2.88661 27.6153 2.93717C27.6153 2.78549 27.8122 2.78549 27.9107 2.78549ZM28.0583 2.93717C28.0091 2.88661 28.1568 3.03828 28.0583 2.93717V2.93717ZM28.3537 2.93717C28.2552 2.88661 28.4029 3.03828 28.3537 2.93717V2.93717ZM31.1595 2.78549C31.1595 2.93717 30.9134 2.88661 30.7657 2.93717C30.7657 2.73493 31.0119 2.78549 31.1595 2.78549ZM33.2762 2.78549C33.3254 3.08884 32.784 2.83605 32.5871 2.93717C32.5378 2.58326 33.0793 2.83605 33.2762 2.78549ZM36.6727 2.93717C36.1313 3.03828 36.6727 2.48214 36.6727 2.93717C36.9189 3.44275 37.1158 2.43158 36.6727 2.93717ZM41.103 2.93717C41.0538 2.88661 41.2015 3.03828 41.103 2.93717V2.93717ZM44.7949 2.78549C44.7949 2.93717 44.598 2.88661 44.4995 2.93717C44.4995 2.78549 44.6472 2.78549 44.7949 2.78549ZM47.3054 3.08884C47.3054 2.68438 48.1914 2.78549 48.1914 3.18996C47.8469 3.24052 47.7484 2.98773 47.3054 3.08884ZM18.8532 2.93717C18.8532 3.08884 18.6563 3.03828 18.5579 3.08884C18.5579 2.93717 18.7056 2.93717 18.8532 2.93717ZM19.6901 2.93717C19.6901 3.08884 19.4932 3.03828 19.3947 3.08884C19.3947 2.93717 19.5916 2.93717 19.6901 2.93717ZM22.7913 3.08884C22.742 2.98773 22.8897 3.1394 22.7913 3.08884V3.08884ZM24.0711 2.93717C24.0711 3.08884 23.9234 3.03828 23.7758 3.08884C23.7758 2.93717 23.9727 2.93717 24.0711 2.93717ZM24.5141 3.08884C24.4649 2.98773 24.6126 3.1394 24.5141 3.08884V3.08884ZM39.2325 3.08884C39.4294 2.48214 39.4294 3.64498 39.2325 3.08884V3.08884ZM45.041 3.08884C44.9918 2.98773 45.1395 3.1394 45.041 3.08884V3.08884ZM4.52872 3.18996C4.47949 3.1394 4.62717 3.29108 4.52872 3.18996V3.18996ZM17.8195 3.18996C17.7703 3.1394 17.918 3.29108 17.8195 3.18996V3.18996ZM21.3637 3.18996C21.3145 3.1394 21.4622 3.29108 21.3637 3.18996V3.18996ZM23.0866 3.18996C23.0374 3.1394 23.1851 3.29108 23.0866 3.18996V3.18996ZM29.0428 3.18996C28.9936 3.1394 29.1413 3.29108 29.0428 3.18996V3.18996ZM30.4704 3.18996C30.3719 3.44275 30.3227 3.18996 30.175 3.18996C30.2242 3.03828 30.4704 3.08884 30.4704 3.18996ZM31.1595 3.18996C31.1103 3.1394 31.258 3.29108 31.1595 3.18996V3.18996ZM33.7192 3.18996C33.67 3.1394 33.8177 3.29108 33.7192 3.18996V3.18996ZM40.8077 3.18996C40.4139 3.44275 40.217 3.18996 39.5278 3.18996C39.6755 2.93717 40.6108 3.03828 40.8077 3.18996ZM43.9088 3.08884C43.9088 3.18996 43.7612 3.18996 43.6627 3.18996C43.6627 3.08884 43.8104 3.08884 43.9088 3.08884ZM43.9088 3.49331C44.0073 3.39219 44.0565 3.29108 44.0565 3.08884C44.5488 3.08884 44.0565 3.44275 44.3519 3.49331C44.3519 3.64498 44.155 3.59443 44.0565 3.64498C44.1057 3.54387 44.0073 3.49331 43.9088 3.49331ZM45.1887 3.34163C44.9426 3.34163 44.4995 3.49331 44.6472 3.08884C44.8933 3.08884 45.0902 3.1394 45.1887 3.34163C45.3856 3.34163 45.2871 3.59443 45.1887 3.34163ZM48.5852 3.08884C48.5852 3.18996 48.4376 3.18996 48.3391 3.18996C48.3391 3.08884 48.4868 3.08884 48.5852 3.08884ZM49.7174 3.34163C49.7174 3.54387 48.8314 3.44275 48.8806 3.08884C49.0775 3.29108 49.5697 3.1394 49.7174 3.34163ZM19.8377 3.34163C19.7885 3.29108 19.9362 3.44275 19.8377 3.34163V3.34163ZM20.5269 3.18996C20.5269 3.34163 20.3792 3.34163 20.2315 3.34163C20.2315 3.24052 20.4284 3.24052 20.5269 3.18996ZM24.8095 3.34163C24.7603 3.18996 25.0064 3.29108 24.8095 3.34163C24.1203 3.18996 24.9572 4.04945 24.8095 3.34163ZM25.794 3.34163C25.0064 3.49331 25.5971 2.93717 25.794 3.34163C25.8432 3.34163 25.9417 3.49331 25.794 3.49331C25.794 3.59443 25.8924 3.69554 26.0401 3.64498C26.0401 3.79666 25.9417 3.84722 25.9417 3.94833C26.1878 4.04945 26.3847 4.10001 26.4831 3.94833C26.8769 4.15057 26.237 4.55503 26.0401 4.65615C25.8432 4.75727 26.0893 4.85838 26.0401 4.65615C26.0401 4.50447 26.0401 4.40336 26.0401 4.25168C25.794 4.30224 25.2033 4.04945 25.351 4.50447C25.4986 4.9595 26.0893 4.3528 25.351 4.50447C25.1541 4.50447 25.2033 4.25168 25.0556 4.25168C25.0556 3.79666 25.9417 4.3528 25.9417 3.94833C25.7448 3.99889 25.4494 3.54387 25.794 3.49331C25.794 3.44275 25.794 3.39219 25.794 3.34163ZM26.4831 3.79666C25.8924 3.64498 26.9754 3.39219 26.4831 3.34163C26.5324 2.93717 26.9262 3.34163 26.7785 3.64498C26.6308 3.64498 26.5324 3.69554 26.4831 3.79666ZM27.0738 3.34163C26.9262 4.20113 27.1231 2.78549 27.0738 3.34163V3.34163ZM27.6153 3.34163C27.6153 3.18996 27.8122 3.29108 27.6153 3.34163C27.4184 3.44275 27.6153 3.54387 27.6153 3.34163ZM27.9107 3.64498C27.9107 2.93717 28.3045 3.49331 28.8952 3.34163C28.9444 3.49331 28.8952 3.64498 29.0428 3.64498C28.7967 4.04945 28.2552 3.1394 27.9107 3.64498C27.9107 3.84722 27.7138 3.7461 27.9107 3.64498ZM47.2069 3.49331C47.3054 2.98773 47.5515 3.49331 48.0438 3.34163C48.093 3.49331 47.4531 3.89778 47.2069 3.49331ZM50.9973 3.34163C50.948 3.29108 51.0957 3.44275 50.9973 3.34163V3.34163ZM52.8678 3.34163C52.8186 3.29108 52.9663 3.44275 52.8678 3.34163V3.34163ZM21.5114 3.49331C21.5114 3.34163 21.7575 3.39219 21.5114 3.49331C21.5114 3.59443 21.5114 3.69554 21.3637 3.64498C21.1668 3.7461 21.4129 3.84722 21.3637 3.64498C21.4129 3.54387 21.4129 3.49331 21.5114 3.49331ZM22.7913 3.49331C22.6436 3.54387 22.6928 3.29108 22.7913 3.49331C22.9881 3.54387 23.0374 3.69554 23.2343 3.49331C23.2343 3.34163 23.4312 3.39219 23.2343 3.49331C23.382 3.99889 22.7912 3.7461 22.4959 3.79666C22.5451 3.59442 22.7913 3.64498 22.7913 3.49331ZM29.4859 3.49331C29.289 3.54387 29.3874 3.29108 29.4859 3.49331C29.5351 3.49331 29.6335 3.64498 29.4859 3.64498C28.8952 3.49331 29.4366 4.10001 29.4859 3.64498C29.4859 3.59443 29.4859 3.54387 29.4859 3.49331ZM29.8797 3.49331C29.8304 3.44275 29.9781 3.59443 29.8797 3.49331V3.49331ZM32.144 3.64498C32.144 3.54387 32.0456 3.49331 31.8979 3.49331C32.1933 3.08884 32.9316 3.54387 32.144 3.64498C32.1933 3.84722 31.9471 3.7461 32.144 3.64498ZM39.0848 3.49331C39.0355 3.44275 39.1832 3.59443 39.0848 3.49331V3.49331ZM42.9243 3.49331C42.8751 3.44275 43.0228 3.59443 42.9243 3.49331V3.49331ZM43.2197 3.49331C43.7612 3.89778 43.8596 2.98773 43.2197 3.49331V3.49331ZM50.3081 3.64498C50.1112 3.64498 49.9635 3.59443 50.0128 3.34163C50.1112 3.34163 50.2097 3.34163 50.3081 3.34163C50.3081 3.44275 50.3081 3.54387 50.3081 3.64498C50.6527 3.34163 50.6527 3.69554 50.4558 3.94833C50.5542 3.99889 50.7511 3.94833 50.7511 4.10001C50.9973 4.15057 51.588 3.89778 51.4403 4.40336C51.588 4.40336 51.6372 4.65615 51.4403 4.65615C50.9973 4.70671 51.588 5.26285 51.4403 4.65615C51.4403 4.55503 51.4403 4.45392 51.4403 4.40336C51.3418 4.40336 51.2434 4.40336 51.1449 4.40336C51.1449 4.55503 51.0957 4.70671 50.8496 4.65615C50.8496 4.55503 50.8496 4.45392 50.8496 4.40336C50.948 4.40336 51.0465 4.40336 51.1449 4.40336C51.1449 4.20113 50.948 4.20112 50.7511 4.25168C50.7511 4.20112 50.7511 4.15057 50.7511 4.10001C50.6035 4.04945 50.4558 4.10001 50.4558 3.94833C50.3573 3.89777 50.2589 3.79666 50.3081 3.64498ZM20.2315 3.79666C20.2315 3.99889 19.887 3.94833 19.6901 3.94833C19.6901 3.84722 19.6901 3.7461 19.6901 3.64498C19.7885 3.64498 19.8377 3.64498 19.8377 3.49331C20.0346 3.49331 19.9362 3.89777 20.2315 3.79666C20.4777 3.69554 20.2315 3.64498 20.2315 3.79666ZM20.9699 3.79666C20.33 3.84722 20.9207 3.24052 20.9699 3.79666C21.0684 3.99889 21.1176 3.79666 20.9699 3.79666ZM23.0866 4.50447C22.6436 4.15057 23.7758 4.15057 23.6773 3.64498C23.8742 3.18996 23.8742 4.50447 23.6773 4.50447C23.5296 4.50447 23.5296 4.3528 23.5296 4.25168C23.382 4.3528 23.1358 4.30224 23.0866 4.50447ZM24.2188 3.64498C24.1696 3.59443 24.3172 3.7461 24.2188 3.64498V3.64498ZM32.7347 3.64498C32.7347 3.49331 32.9316 3.54387 32.7347 3.64498C32.5378 3.7461 32.7347 3.84722 32.7347 3.64498ZM44.4995 3.64498C44.6964 4.15057 44.8441 3.08884 44.4995 3.64498V3.64498ZM46.9116 3.49331C46.9116 3.64498 46.7147 3.59443 46.6162 3.64498C46.6162 3.49331 46.8131 3.54387 46.9116 3.49331ZM48.7329 3.49331C48.7329 3.64498 48.5852 3.59443 48.4868 3.64498C48.4868 3.49331 48.6345 3.54387 48.7329 3.49331ZM19.3947 3.79666C19.3455 3.7461 19.4932 3.89777 19.3947 3.79666V3.79666ZM22.2498 3.79666C22.2005 3.7461 22.3482 3.89777 22.2498 3.79666V3.79666ZM30.4704 3.64498C30.4704 3.79666 30.2735 3.7461 30.175 3.79666C30.175 3.64498 30.3719 3.69554 30.4704 3.64498ZM31.6026 3.79666C31.5533 3.7461 31.701 3.89777 31.6026 3.79666V3.79666ZM45.1887 3.64498C45.1887 3.79666 45.041 3.7461 44.9426 3.79666C44.9426 3.64498 45.0902 3.69554 45.1887 3.64498ZM45.6317 3.79666C45.7794 3.24052 45.7794 4.3528 45.6317 3.79666V3.79666ZM51.1449 3.64498C51.1449 3.79666 50.8988 3.79666 50.7511 3.79666C50.7511 3.64498 50.9973 3.69554 51.1449 3.64498ZM46.1732 3.79666C46.1732 3.94833 46.0255 3.89777 45.9271 3.94833C45.9271 3.79666 46.0747 3.84722 46.1732 3.79666ZM48.8806 3.94833C48.7329 3.94833 48.7821 3.7461 48.8806 3.94833C49.2252 3.94833 49.3236 3.64498 49.4713 4.10001C49.5205 4.30224 49.619 4.04945 49.4713 4.10001C49.2252 4.04945 48.9298 4.15057 48.8806 3.94833ZM50.0128 3.79666C50.0128 3.94833 49.7666 3.89777 49.619 3.94833C49.619 3.79666 49.8651 3.79666 50.0128 3.79666ZM51.588 3.94833C51.3911 3.94833 51.4895 3.7461 51.588 3.94833C51.588 4.40336 52.1787 3.79666 51.588 3.94833ZM18.2625 4.10001C18.2133 4.04945 18.361 4.20112 18.2625 4.10001V4.10001ZM18.7056 4.10001C18.6563 4.04945 18.804 4.20112 18.7056 4.10001V4.10001ZM19.0994 4.10001C19.0501 4.04945 19.1978 4.20112 19.0994 4.10001V4.10001ZM22.3974 4.25168C22.3974 4.10001 22.299 4.10001 22.2498 4.10001C22.4467 3.54387 22.4467 4.40336 22.7913 4.25168C22.6928 4.70671 22.3482 4.50447 22.2498 4.65615C21.7575 4.50447 22.3974 4.40336 22.3974 4.25168ZM22.6436 4.10001C22.5944 4.04945 22.742 4.20112 22.6436 4.10001V4.10001ZM28.4521 4.40336C28.4521 4.25168 27.8614 3.99889 27.9107 4.25168C27.3692 3.84722 28.4521 3.94833 28.7475 3.94833C28.7475 4.15057 28.7475 4.3528 28.7475 4.50447C28.5998 4.50447 28.5998 4.40336 28.4521 4.40336C28.5014 4.50447 28.5014 4.65615 28.5998 4.65615C28.5998 4.85838 28.3537 4.80782 28.3537 4.9595C28.0091 4.90894 28.3537 4.40336 28.4521 4.40336ZM29.5843 4.9595C29.4366 4.3528 29.3874 4.50447 28.8952 3.94833C29.3874 3.94833 29.8304 3.94833 30.3227 3.94833C30.4212 4.45392 29.8304 4.20112 29.732 4.10001C29.6828 4.40336 29.9289 4.3528 30.175 4.40336C29.9781 4.60559 29.6335 4.55503 29.5843 4.9595ZM31.0119 4.65615C31.0119 4.40336 31.1595 4.3528 31.4549 4.40336C31.3564 4.04945 30.5688 4.40336 30.4704 4.10001C30.6673 3.89777 32.0456 3.69554 31.9964 4.25168C31.9471 4.25168 31.8487 4.25168 31.7502 4.25168C31.7502 4.40336 31.9471 4.40336 32.144 4.40336C32.2425 4.70671 31.7502 5.16173 31.6026 4.80782C31.4549 4.80782 31.3072 4.80782 31.1595 4.80782C31.1595 4.9595 31.258 5.01006 31.3072 5.11117C31.1595 5.71787 31.7502 5.11117 31.3072 5.11117C31.0119 5.11117 30.8642 5.01006 30.8642 4.65615C30.9134 4.65615 30.9626 4.65615 31.0119 4.65615ZM20.6746 4.25168C20.6253 4.15057 20.773 4.3528 20.6746 4.25168V4.25168ZM23.9234 4.40336C23.9727 3.94833 24.5141 4.10001 24.9079 4.10001C24.711 4.30224 24.3665 4.40336 23.9234 4.40336ZM27.4676 4.10001C26.5816 3.89777 27.1723 4.55503 27.4676 4.10001V4.10001ZM52.4248 4.10001C52.4248 4.25168 52.2771 4.20112 52.1294 4.25168C52.1294 4.10001 52.3263 4.10001 52.4248 4.10001ZM19.247 4.40336C19.1978 4.30224 19.3455 4.45392 19.247 4.40336V4.40336ZM49.1759 4.25168C49.1267 4.40336 48.9298 4.3528 48.7329 4.40336C48.7821 4.20113 49.0283 4.25168 49.1759 4.25168ZM20.5269 4.50447C20.4777 4.45392 20.6253 4.60559 20.5269 4.50447V4.50447ZM21.5114 4.40336C21.5114 4.55503 21.2653 4.50447 21.1176 4.50447C21.1176 4.3528 21.3637 4.40336 21.5114 4.40336ZM21.8067 4.50447C21.7575 4.45392 21.9052 4.60559 21.8067 4.50447V4.50447ZM27.2215 4.50447C27.1231 4.45392 27.2707 4.60559 27.2215 4.50447V4.50447ZM28.0583 4.40336C28.0583 4.50447 27.8614 4.50447 27.763 4.50447C27.763 4.40336 27.9599 4.40336 28.0583 4.40336ZM49.7174 4.50447C49.6682 4.45392 49.8159 4.60559 49.7174 4.50447V4.50447ZM52.031 4.50447C51.9325 4.45392 52.0802 4.60559 52.031 4.50447V4.50447ZM19.0994 4.50447C19.0994 4.65615 18.9517 4.65615 18.8532 4.65615C18.8532 4.50447 19.0009 4.55503 19.0994 4.50447ZM19.3947 4.65615C19.3455 4.60559 19.4932 4.75727 19.3947 4.65615V4.65615ZM19.8377 4.65615C19.7885 4.60559 19.9362 4.75727 19.8377 4.65615V4.65615ZM24.3665 4.65615C24.3172 4.60559 24.4649 4.75727 24.3665 4.65615V4.65615ZM50.7511 4.65615C50.1604 4.15057 50.4066 5.16173 50.7511 4.65615V4.65615ZM53.2616 4.50447C53.2616 4.65615 53.1139 4.65615 53.0155 4.65615C53.0155 4.50447 53.1632 4.55503 53.2616 4.50447ZM26.1878 5.26285C25.8432 5.11117 26.3355 4.60559 26.6308 4.65615C26.5816 4.9595 26.237 4.9595 26.1878 5.26285ZM27.2215 4.80782C26.6308 4.9595 27.1723 4.40336 27.2215 4.80782C27.4184 5.31341 27.6645 4.3528 27.2215 4.80782ZM27.9107 4.80782C27.8614 5.01006 27.763 4.80782 27.6153 4.80782C27.6645 4.65615 27.9107 4.65615 27.9107 4.80782ZM29.0428 4.80782C28.9936 4.75727 29.1413 4.90894 29.0428 4.80782V4.80782ZM30.7657 4.65615C29.8304 4.50447 30.4211 5.11117 30.7657 4.65615V4.65615ZM32.2917 4.80782C32.4886 5.31341 32.6363 4.25168 32.2917 4.80782V4.80782ZM23.2343 5.11117C23.1851 5.41452 22.5451 5.16173 22.6436 4.80782C23.0374 4.70671 22.9389 5.11117 23.2343 5.11117ZM23.7758 4.9595C23.7265 4.90894 23.8742 5.06062 23.7758 4.9595V4.9595ZM24.2188 4.9595C24.1696 4.90894 24.3172 5.06062 24.2188 4.9595V4.9595ZM24.9079 4.9595C24.8587 4.90894 25.0064 5.06062 24.9079 4.9595V4.9595ZM25.2033 4.9595C25.1541 4.90894 25.3017 5.06062 25.2033 4.9595V4.9595ZM25.4986 4.9595C25.4494 4.90894 25.5971 5.06062 25.4986 4.9595V4.9595ZM29.8797 4.9595C29.8304 4.90894 29.9781 5.06062 29.8797 4.9595V4.9595ZM52.031 4.9595C51.9325 4.90894 52.0802 5.06062 52.031 4.9595V4.9595ZM22.3974 4.9595C22.3974 5.11117 22.2005 5.06061 22.1021 5.11117C22.1021 4.9595 22.2498 5.01006 22.3974 4.9595ZM50.8496 5.11117C50.3081 5.26285 50.8496 4.65615 50.8496 5.11117C50.7511 5.71787 51.2926 5.11117 50.8496 5.11117ZM20.2315 5.26285C20.1823 5.21229 20.33 5.36396 20.2315 5.26285V5.26285ZM23.7758 5.26285C23.7265 5.21229 23.8742 5.36396 23.7758 5.26285V5.26285ZM27.6153 5.26285C27.5661 5.21229 27.7138 5.36396 27.6153 5.26285V5.26285ZM29.1905 5.26285C29.3874 5.71787 29.5351 4.70671 29.1905 5.26285V5.26285ZM50.3081 5.26285C50.2589 5.21229 50.4066 5.36396 50.3081 5.26285V5.26285ZM52.1294 5.26285C51.3911 5.41452 51.9818 4.80782 52.1294 5.26285C52.2279 5.46508 52.3263 5.26285 52.1294 5.26285ZM25.4986 5.41452C25.6463 4.80782 25.6463 5.97066 25.4986 5.41452V5.41452ZM26.4831 5.41452C26.4339 5.31341 26.5816 5.51564 26.4831 5.41452V5.41452ZM27.9107 5.41452C28.1076 5.86955 28.2552 4.80782 27.9107 5.41452V5.41452ZM30.0273 5.26285C30.0273 5.41452 29.8797 5.36396 29.732 5.41452C29.732 5.26285 29.9289 5.26285 30.0273 5.26285ZM49.3236 5.41452C49.2744 5.31341 49.4221 5.51564 49.3236 5.41452V5.41452ZM22.7913 5.5662C22.742 5.46508 22.8897 5.61676 22.7913 5.5662V5.5662ZM23.382 5.5662C23.3327 5.46508 23.4804 5.61676 23.382 5.5662V5.5662ZM27.2215 5.5662C27.4184 6.02122 27.5661 4.9595 27.2215 5.5662V5.5662ZM21.1176 5.5662C21.1176 5.66731 20.9207 5.66732 20.8222 5.66732C20.8222 5.5662 20.9699 5.5662 21.1176 5.5662ZM28.206 5.81899C28.3045 5.61676 28.5014 5.5662 28.7475 5.5662C28.6983 5.86955 28.5014 6.07178 28.206 6.12234C28.2552 6.02122 28.3537 5.86955 28.206 5.81899ZM29.0428 5.97066C29.1413 5.81899 29.3874 5.81899 29.3382 5.5662C29.4859 5.61676 29.4859 5.86955 29.732 5.81899C29.7812 6.1729 29.2397 5.92011 29.0428 5.97066ZM30.175 5.66732C29.4366 5.86955 30.0273 5.26285 30.175 5.66732C30.6181 5.81899 30.7165 6.07178 30.0273 5.97066C30.0273 5.81899 30.1258 5.81899 30.175 5.66732ZM31.3072 5.66732C31.258 5.61676 31.4057 5.76843 31.3072 5.66732V5.66732ZM51.2926 5.66732C51.2434 5.61676 51.3911 5.76843 51.2926 5.66732V5.66732ZM50.8496 5.81899C50.8004 5.76843 50.948 5.92011 50.8496 5.81899V5.81899ZM26.3355 5.97066C26.3355 5.81899 26.5324 5.86955 26.3355 5.97066C26.1386 6.07178 26.3847 6.1729 26.3355 5.97066ZM27.763 5.97066C27.7138 5.92011 27.8614 6.07178 27.763 5.97066V5.97066ZM27.2215 6.12234C27.1231 6.07178 27.2707 6.22345 27.2215 6.12234V6.12234ZM23.382 6.27401C23.3327 6.22345 23.4804 6.37513 23.382 6.27401V6.27401ZM53.2616 6.72904C53.2124 6.62792 53.3601 6.7796 53.2616 6.72904V6.72904ZM53.557 8.44802C53.5077 8.39746 53.6554 8.54914 53.557 8.44802V8.44802ZM22.9389 0.459814C22.8897 0.409255 23.0374 0.560929 22.9389 0.459814V0.459814ZM20.6746 0.611488C20.6253 0.510371 20.773 0.712605 20.6746 0.611488V0.611488ZM21.6591 0.611488C21.7575 0.560929 21.9544 0.611488 21.9544 0.459814C21.856 0.459814 21.6591 0.459814 21.6591 0.611488ZM22.7913 0.611488C22.6436 0.611488 22.6928 0.358697 22.7913 0.611488V0.611488ZM19.8377 0.763162C19.7885 0.662045 19.9362 0.813721 19.8377 0.763162V0.763162ZM17.8195 0.864279C17.7703 0.813721 17.918 0.965396 17.8195 0.864279V0.864279ZM16.4412 1.01595C16.3428 0.965397 16.5397 1.11707 16.4412 1.01595V1.01595ZM14.7183 1.16763C14.8168 1.16763 15.0137 1.16763 15.0137 1.01595C14.9152 1.06651 14.7183 1.01595 14.7183 1.16763ZM15.1614 1.16763C15.1121 1.11707 15.2598 1.26875 15.1614 1.16763V1.16763ZM15.4075 1.16763C15.3582 1.11707 15.5059 1.26875 15.4075 1.16763V1.16763ZM13.7338 1.3193C13.8323 1.26875 14.0292 1.3193 14.0292 1.16763C13.8815 1.21819 13.7338 1.16763 13.7338 1.3193ZM12.454 1.47098C12.4047 1.42042 12.5524 1.5721 12.454 1.47098V1.47098ZM10.485 1.62265C10.4357 1.42042 10.6819 1.52154 10.485 1.62265V1.62265ZM10.8788 1.62265C11.0264 1.57209 11.1741 1.62265 11.1741 1.47098C11.0757 1.52154 10.8788 1.47098 10.8788 1.62265ZM11.4695 1.62265C11.4202 1.57209 11.5679 1.72377 11.4695 1.62265V1.62265ZM10.485 1.62265C9.89426 1.47098 10.4357 2.02712 10.485 1.62265V1.62265ZM26.9262 2.33047C26.9262 2.38103 26.9262 2.43159 26.9262 2.48214C26.8277 2.48214 26.7293 2.38103 26.9262 2.33047ZM46.3209 2.93717C46.3209 2.73493 45.9271 2.73493 45.9271 2.93717C46.0255 3.18996 46.1732 2.93717 46.3209 2.93717ZM3.24886 3.18996C3.19964 3.1394 3.34731 3.29108 3.24886 3.18996V3.18996ZM34.7037 3.64498C34.5561 3.64498 34.6053 3.44275 34.7037 3.64498V3.64498ZM38.248 3.49331C37.5588 3.34163 37.9526 4.45392 38.248 3.94833C38.1003 3.89777 38.1003 3.64498 38.248 3.64498C38.248 3.59443 38.248 3.54387 38.248 3.49331ZM34.3099 3.79666C34.3099 3.79666 34.3592 3.79666 34.4084 3.79666C34.4084 3.64498 34.3099 3.69554 34.3099 3.79666ZM36.5743 3.79666C36.4266 3.89777 36.1805 3.99889 36.1313 3.79666C36.2297 3.84722 36.2789 3.7461 36.2789 3.64498C35.9836 3.59443 35.9836 3.84722 35.9836 4.10001C36.2297 4.04945 36.722 4.25168 36.5743 3.79666ZM36.5743 3.79666C36.6235 3.79666 36.6727 3.79666 36.6727 3.79666C36.6727 3.64498 36.5743 3.69554 36.5743 3.79666ZM37.4111 3.79666C37.5096 3.79666 37.5588 3.79666 37.5588 3.94833C37.4603 3.99889 37.2634 3.94833 37.2634 4.10001C37.4111 4.10001 37.5588 4.10001 37.7065 4.10001C37.8541 3.79666 37.4603 3.39219 37.4111 3.79666ZM40.8077 3.79666C40.7584 3.7461 40.9061 3.89777 40.8077 3.79666V3.79666ZM34.3099 3.79666C34.2115 3.79666 34.113 3.79666 34.0146 3.79666C34.0146 3.99889 34.2607 3.94833 34.3099 3.79666ZM41.4968 3.79666C41.0538 4.25168 42.0383 4.04945 41.4968 3.79666V3.79666ZM41.103 4.10001C41.0538 4.04945 41.2015 4.20112 41.103 4.10001V4.10001ZM31.7502 4.25168C31.7502 4.20112 31.7502 4.15057 31.7502 4.10001C31.5533 4.10001 31.6518 4.25168 31.7502 4.25168ZM39.5278 4.25168C39.6755 4.20112 39.9216 4.25168 39.9708 4.10001C39.7739 4.10001 39.577 4.04945 39.5278 4.25168ZM35.9836 4.65615C36.1313 4.3528 35.639 3.99889 35.5406 4.40336C35.7375 4.45392 35.7867 4.65615 35.9836 4.65615ZM36.1313 4.40336C36.3282 3.89778 36.4758 4.9595 36.1313 4.40336V4.40336ZM40.8077 4.40336C40.9061 4.3528 41.103 4.3528 41.103 4.25168C41.0046 4.25168 40.8077 4.25168 40.8077 4.40336ZM0.984503 4.50447C1.08295 4.50447 1.23063 4.50447 1.23063 4.40336C1.13218 4.40336 0.984503 4.40336 0.984503 4.50447ZM36.8204 4.50447C36.7712 4.45392 36.9189 4.60559 36.8204 4.50447V4.50447ZM37.1158 4.50447C37.0665 4.45392 37.2142 4.60559 37.1158 4.50447V4.50447ZM37.8541 4.50447C37.7557 4.45392 37.9034 4.60559 37.8541 4.50447V4.50447ZM38.1003 4.50447C38.051 4.45392 38.1987 4.60559 38.1003 4.50447V4.50447ZM43.2197 4.40336C42.3336 4.20113 42.9243 4.80782 43.2197 4.40336V4.40336ZM43.515 4.50447C43.4658 4.45392 43.6135 4.60559 43.515 4.50447V4.50447ZM45.041 4.50447C44.9918 4.45392 45.1395 4.60559 45.041 4.50447V4.50447ZM47.2069 4.40336C46.9608 4.45392 47.2069 4.55503 47.2069 4.40336V4.40336ZM0 4.65615C0.196901 5.16173 0.344576 4.10001 0 4.65615V4.65615ZM31.7502 4.65615C31.701 4.50447 31.9471 4.60559 31.7502 4.65615V4.65615ZM34.7037 4.65615C34.753 4.65615 34.8022 4.65615 34.8514 4.65615C34.9006 4.55503 34.8022 4.55503 34.7037 4.50447C34.7037 4.55503 34.7037 4.60559 34.7037 4.65615ZM39.2325 4.65615C39.1832 4.60559 39.3309 4.75727 39.2325 4.65615V4.65615ZM39.6755 4.65615C39.6263 4.60559 39.7739 4.75727 39.6755 4.65615V4.65615ZM40.66 4.65615C40.0693 4.80783 40.66 4.25168 40.66 4.65615V4.65615ZM44.4995 4.65615C44.3026 4.70671 44.4011 4.45392 44.4995 4.65615V4.65615ZM46.0747 4.65615C45.9763 4.60559 46.124 4.75727 46.0747 4.65615V4.65615ZM31.0119 4.65615C31.0119 4.80783 31.0611 4.80782 31.1595 4.80782C31.2088 4.70671 31.1103 4.65615 31.0119 4.65615ZM31.6026 4.80782C31.701 4.85838 31.7502 4.75727 31.7502 4.65615C31.6026 4.65615 31.6026 4.70671 31.6026 4.80782ZM33.7192 4.9595C33.5716 4.90894 33.6208 4.65615 33.4239 4.65615C33.227 4.85838 33.3254 5.11117 33.7192 5.11117C33.7192 5.06061 33.7192 5.01006 33.7192 4.9595ZM33.8669 4.80782C34.0146 4.3528 34.6053 4.9595 33.8669 4.80782V4.80782ZM34.7037 4.65615C34.5068 4.75727 34.7037 4.85838 34.7037 4.65615V4.65615ZM34.8514 4.65615C34.9991 5.16173 34.4084 4.85838 34.4084 5.26285C34.8514 5.36396 34.6053 5.46508 34.5561 5.81899C35.4421 5.5662 35.196 5.97066 35.6882 6.27401C35.7375 6.02122 35.5406 5.97066 35.5406 5.66732C35.7375 5.71787 35.8359 5.66731 35.8359 5.5662C35.7375 5.51564 35.5898 5.51564 35.5406 5.41452C35.6882 5.41452 35.8359 5.41452 35.8359 5.5662C35.9836 5.46508 36.082 5.41452 36.1313 5.26285C36.0328 5.21229 35.8359 5.26285 35.8359 5.11117C35.9344 5.16173 36.1313 5.11117 36.1313 5.26285C36.2789 5.21229 36.3774 5.11117 36.4266 4.9595C36.082 5.06062 36.2297 4.70671 35.9836 4.65615C35.8359 4.90894 35.6882 5.21229 35.4421 4.9595C35.3929 5.06062 35.2944 5.11117 35.1468 5.11117C35.1468 5.31341 35.3929 5.36397 35.4421 5.5662C35.196 5.51564 34.9991 5.5662 34.8514 5.66732C34.8022 5.36397 34.9006 5.16173 35.1468 5.11117C35.1468 5.06061 35.1468 5.01006 35.1468 4.9595C35.0483 4.9595 34.9991 4.85838 35.1468 4.80782C35.1468 4.65615 34.9499 4.70671 34.8514 4.65615ZM35.4421 4.9595C35.4421 4.60559 35.2944 4.80782 35.1468 4.80782C35.1468 4.85838 35.1468 4.90894 35.1468 4.9595C35.2452 4.9595 35.3437 4.9595 35.4421 4.9595ZM36.4266 4.80782C36.3774 4.75727 36.5251 4.90894 36.4266 4.80782V4.80782ZM40.66 4.65615C40.7092 5.11117 41.2507 4.55503 40.66 4.65615V4.65615ZM41.2507 4.80782C41.4968 4.80782 41.546 4.9595 41.7922 4.9595C42.0383 4.55503 41.2015 4.55503 41.2507 4.80782ZM42.7767 4.80782C42.629 4.80782 42.7274 4.60559 42.7767 4.80782V4.80782ZM44.4995 4.65615C44.598 4.85838 44.6472 4.65615 44.4995 4.65615V4.65615ZM47.3054 4.65615C46.7639 4.55503 47.3054 5.11117 47.3054 4.65615V4.65615ZM33.7192 4.9595C33.8177 5.01006 33.8669 4.90894 33.8669 4.80782C33.7192 4.80782 33.7192 4.85838 33.7192 4.9595ZM36.9681 4.80782C36.9681 5.01006 36.722 5.16173 36.9681 5.26285C37.0173 5.06061 37.2142 4.90894 36.9681 4.80782ZM37.5588 4.9595C37.5096 4.90894 37.6572 5.06062 37.5588 4.9595V4.9595ZM38.3956 4.9595C38.3956 4.80782 38.5925 4.85838 38.3956 4.9595V4.9595ZM40.217 4.9595C40.0693 4.9595 40.1677 4.75726 40.217 4.9595V4.9595ZM42.0875 4.9595C42.0383 4.90894 42.186 5.06062 42.0875 4.9595V4.9595ZM42.3829 4.9595C42.2844 4.90894 42.4813 5.06062 42.3829 4.9595V4.9595ZM42.7767 4.80782C42.8751 5.01006 42.9736 4.80782 42.7767 4.80782V4.80782ZM43.2197 4.80782C42.9736 5.16173 43.7119 5.26285 43.6627 4.9595C43.4658 4.9595 43.4658 4.75727 43.2197 4.80782ZM46.0747 4.9595C46.2224 4.9595 46.4686 5.01006 46.4686 4.80782C46.3209 4.85838 46.0747 4.80782 46.0747 4.9595ZM46.9116 4.9595C46.4685 5.41452 46.6655 4.45392 46.9116 4.9595V4.9595ZM38.248 5.11117C38.2972 5.11117 38.3464 5.11117 38.3956 5.11117C38.3956 5.06061 38.3956 5.01006 38.3956 4.9595C38.2972 4.9595 38.248 5.01006 38.248 5.11117ZM38.8386 5.11117C38.7402 5.06061 38.9371 5.21229 38.8386 5.11117V5.11117ZM39.5278 5.26285C39.3801 4.65615 39.9708 5.21229 39.5278 5.26285V5.26285ZM40.217 4.9595C40.3154 5.16173 40.4139 4.9595 40.217 4.9595V4.9595ZM40.5123 5.11117C40.6108 5.06061 40.8077 5.11117 40.8077 4.9595C40.7092 5.01006 40.5123 4.9595 40.5123 5.11117ZM41.2507 5.11117C41.1522 5.06061 41.3491 5.21229 41.2507 5.11117V5.11117ZM46.9116 4.9595C47.01 5.16173 47.0593 4.9595 46.9116 4.9595V4.9595ZM47.3054 5.11117C47.2562 5.06061 47.4038 5.21229 47.3054 5.11117V5.11117ZM48.8806 4.9595C48.6837 5.06062 48.8806 5.16173 48.8806 4.9595V4.9595ZM33.7192 5.26285C34.0638 5.26285 33.9654 5.06061 33.7192 5.11117C33.7192 5.16173 33.7192 5.21229 33.7192 5.26285ZM37.2634 5.11117C37.1158 5.31341 37.1158 5.46508 37.4111 5.5662C37.4111 5.36397 37.4603 5.21229 37.5588 5.11117C37.4603 5.11117 37.3619 5.11117 37.2634 5.11117ZM38.248 5.11117C38.0018 5.11117 37.9034 5.21229 37.8541 5.41452C38.051 5.41452 38.1987 5.31341 38.248 5.11117ZM38.3956 5.11117C38.4448 5.36396 38.248 5.36397 38.248 5.5662C38.4941 5.51564 38.7894 5.61676 38.8386 5.41452C38.691 5.41452 38.691 5.21229 38.691 5.11117C38.5925 5.11117 38.4941 5.11117 38.3956 5.11117ZM45.7794 5.11117C45.5333 5.51564 46.3701 5.51564 46.3209 5.26285C46.0747 5.26285 46.0255 5.11117 45.7794 5.11117ZM47.6007 5.26285C47.5515 5.21229 47.6992 5.36396 47.6007 5.26285V5.26285ZM48.1914 5.26285C48.3391 4.65615 48.3391 5.81899 48.1914 5.26285V5.26285ZM33.7192 5.26285C33.1285 5.11117 33.67 5.66731 33.7192 5.26285V5.26285ZM39.5278 5.26285C38.9371 5.11117 39.5278 5.66731 39.5278 5.26285V5.26285ZM43.072 5.41452C43.2197 5.36396 43.4658 5.41452 43.515 5.26285C43.3181 5.26285 43.1212 5.21229 43.072 5.41452ZM43.6627 5.41452C43.7612 5.36396 43.9088 5.41452 43.9088 5.26285C43.8104 5.26285 43.6627 5.26285 43.6627 5.41452ZM44.0565 5.41452C44.0073 5.31341 44.155 5.51564 44.0565 5.41452V5.41452ZM45.484 5.41452C45.4348 5.31341 45.5825 5.51564 45.484 5.41452V5.41452ZM39.6755 5.5662C39.6263 5.46508 39.7739 5.61676 39.6755 5.5662V5.5662ZM40.5123 5.5662C40.3646 5.5662 40.4139 5.31341 40.5123 5.5662V5.5662ZM44.4995 5.5662C44.4503 5.46508 44.598 5.61676 44.4995 5.5662V5.5662ZM45.041 5.5662C44.9918 5.46508 45.1395 5.61676 45.041 5.5662V5.5662ZM46.6162 5.5662C46.8623 5.51564 47.0593 5.5662 47.2069 5.66732C47.4038 5.26285 46.567 5.26285 46.6162 5.5662ZM47.8961 5.5662C47.2069 5.16173 47.5515 6.02122 47.8961 5.5662V5.5662ZM0.0984503 5.5662C-0.0984504 5.61676 0.147675 5.71787 0.0984503 5.5662V5.5662ZM33.0301 5.5662C33.0793 6.1729 33.8177 5.41452 33.0301 5.5662V5.5662ZM33.7192 5.66732C33.67 5.61676 33.8177 5.76843 33.7192 5.66732V5.66732ZM34.1623 5.66732C34.3099 5.11117 34.3099 6.27401 34.1623 5.66732V5.66732ZM40.5123 5.5662C40.6108 5.76843 40.7092 5.51564 40.5123 5.5662V5.5662ZM40.9553 5.66732C40.9061 5.61676 41.0538 5.76843 40.9553 5.66732V5.66732ZM45.3364 5.66732C45.2871 5.61676 45.4348 5.76843 45.3364 5.66732V5.66732ZM45.9271 5.66732C46.0747 5.66732 46.124 5.92011 46.1732 5.66732C46.1732 5.5662 45.9271 5.51564 45.9271 5.66732ZM48.0438 5.66732C47.9945 5.61676 48.1422 5.76843 48.0438 5.66732V5.66732ZM49.8651 5.66732C49.8159 5.61676 49.9635 5.76843 49.8651 5.66732V5.66732ZM50.3081 5.66732C50.3573 5.66732 50.4066 5.66732 50.4558 5.66732C50.4558 5.61676 50.4558 5.61676 50.4558 5.5662C50.3081 5.51564 50.3081 5.61676 50.3081 5.66732ZM36.6727 5.81899C36.8696 5.81899 37.1158 5.86955 37.1158 5.66732C36.9681 5.71787 36.722 5.66731 36.6727 5.81899ZM37.2634 5.81899C37.2142 5.76843 37.3619 5.92011 37.2634 5.81899V5.81899ZM37.7065 5.81899C37.608 5.76843 37.8049 5.92011 37.7065 5.81899V5.81899ZM42.0875 5.81899C42.0383 5.76843 42.186 5.92011 42.0875 5.81899V5.81899ZM50.3081 5.66732C50.1112 5.76843 50.3081 5.86955 50.3081 5.66732V5.66732ZM36.2789 5.97066C36.4266 5.41452 36.4266 6.57736 36.2789 5.97066V5.97066ZM38.3956 5.97066C38.3464 5.92011 38.4941 6.07178 38.3956 5.97066V5.97066ZM38.8386 5.97066C38.7402 5.92011 38.9371 6.07178 38.8386 5.97066V5.97066ZM39.2325 5.97066C39.3801 5.97066 39.5278 5.97066 39.5278 5.81899C39.4294 5.86955 39.2325 5.81899 39.2325 5.97066ZM39.9708 5.97066C39.7739 5.97066 39.8724 5.76843 39.9708 5.97066V5.97066ZM42.7767 5.97066C42.9243 5.97066 43.072 5.97066 43.072 5.81899C42.9736 5.86955 42.7767 5.81899 42.7767 5.97066ZM43.9088 5.97066C44.0565 5.97066 44.2042 5.97066 44.2042 5.81899C44.1057 5.86955 43.9088 5.81899 43.9088 5.97066ZM45.484 5.97066C45.4348 5.92011 45.5825 6.07178 45.484 5.97066V5.97066ZM47.2069 5.97066C47.1085 5.92011 47.2562 6.07178 47.2069 5.97066V5.97066ZM47.8961 5.97066C47.7484 5.97066 47.7976 5.76843 47.8961 5.97066V5.97066ZM47.8961 5.97066C47.7976 6.22346 48.5852 6.22346 48.4868 5.97066C48.1914 5.71787 48.2899 5.97066 47.8961 5.97066ZM52.031 5.81899C51.7849 5.81899 51.6372 5.9201 51.588 6.12234C51.6864 6.1729 51.7356 6.27401 51.8833 6.27401C51.8341 6.02122 51.9818 6.02122 52.031 5.81899ZM53.0155 5.97066C53.1139 5.97066 53.2124 5.97066 53.2616 5.97066C53.2616 5.81899 53.1139 5.86955 53.0155 5.81899C53.0155 5.86955 53.0155 5.92011 53.0155 5.97066ZM31.7502 6.12234C31.7502 6.1729 31.7502 6.22345 31.7502 6.27401C32.0948 6.27401 32.4394 6.27401 32.4394 5.97066C32.0948 5.92011 31.8979 6.02122 31.7502 6.12234ZM33.2762 6.12234C33.2762 5.97066 33.5223 6.02122 33.2762 6.12234V6.12234ZM34.0146 6.12234C33.9654 6.07178 34.113 6.22345 34.0146 6.12234V6.12234ZM39.9708 5.97066C40.0201 6.1729 40.1185 5.97066 39.9708 5.97066V5.97066ZM45.1887 6.12234C45.1395 6.07178 45.2871 6.22345 45.1887 6.12234V6.12234ZM45.7794 6.12234C45.7302 6.07178 45.8778 6.22345 45.7794 6.12234V6.12234ZM49.619 6.12234C49.7174 6.07178 49.8651 6.12234 49.8651 5.97066C49.7666 6.02122 49.619 5.97066 49.619 6.12234ZM50.4558 6.12234C49.8651 5.61676 50.1112 6.57736 50.4558 6.12234V6.12234ZM53.2616 5.97066C53.3108 6.12234 53.4093 6.12234 53.4093 6.27401C53.5077 6.27401 53.6062 6.27401 53.557 6.42569C53.7539 6.42569 53.8031 6.37513 53.8523 6.27401C53.7047 6.22345 53.6062 6.12234 53.557 5.97066C53.4585 5.97066 53.3601 5.97066 53.2616 5.97066ZM32.5871 6.27401C32.6855 6.22345 32.8824 6.27401 32.8824 6.12234C32.7347 6.1729 32.5871 6.12234 32.5871 6.27401ZM33.2762 6.12234C33.0793 6.22345 33.3254 6.32457 33.2762 6.12234V6.12234ZM34.4084 6.27401C34.3592 6.22345 34.5068 6.37513 34.4084 6.27401V6.27401ZM36.5743 6.27401C36.4758 6.22345 36.6235 6.37513 36.5743 6.27401V6.27401ZM36.8204 6.27401C36.7712 6.22345 36.9189 6.37513 36.8204 6.27401V6.27401ZM42.0875 6.27401C42.0383 6.22345 42.186 6.37513 42.0875 6.27401V6.27401ZM47.2069 6.27401C47.1577 6.07178 47.4038 6.1729 47.2069 6.27401V6.27401ZM49.3236 6.12234C48.3883 5.97066 48.979 6.57736 49.3236 6.12234V6.12234ZM50.6035 6.27401C50.8004 5.76843 50.948 6.83015 50.6035 6.27401V6.27401ZM51.588 6.12234C51.3911 6.22345 51.588 6.32457 51.588 6.12234V6.12234ZM43.2197 6.42569C43.1705 6.37513 43.3181 6.5268 43.2197 6.42569V6.42569ZM47.2069 6.27401C46.9608 6.37513 47.2069 6.42569 47.2069 6.27401V6.27401ZM47.8961 6.42569C47.8469 6.37513 47.9945 6.5268 47.8961 6.42569V6.42569ZM50.1604 6.57736C50.2589 6.5268 50.4558 6.57736 50.4558 6.42569C50.3573 6.42569 50.1604 6.42569 50.1604 6.57736ZM51.1449 6.57736C51.3911 6.57736 51.588 6.57736 51.7356 6.72904C51.9325 6.32457 51.0957 6.32457 51.1449 6.57736ZM50.8496 6.72904C50.8004 6.62792 50.948 6.7796 50.8496 6.72904V6.72904ZM49.0283 6.83015C49.1267 6.83015 49.3236 6.83015 49.3236 6.72904C49.2252 6.72904 49.0283 6.72904 49.0283 6.83015ZM50.0128 6.83015C49.8651 6.88071 49.9143 6.62792 50.0128 6.83015V6.83015ZM50.0128 6.83015C50.2589 7.3863 50.4558 6.37513 50.0128 6.83015V6.83015ZM51.4403 6.98183C51.5387 6.98183 51.7356 6.98183 51.7356 6.83015C51.6372 6.88071 51.4403 6.88071 51.4403 6.98183ZM52.5725 6.83015C52.5725 6.88071 52.5725 6.93127 52.5725 6.98183C52.6709 7.08295 52.8186 7.1335 53.0155 7.1335C52.917 6.98183 52.8186 6.83015 52.5725 6.83015ZM48.1914 7.1335C48.1422 7.08295 48.2899 7.23462 48.1914 7.1335V7.1335ZM50.4558 7.1335C50.4066 7.08295 50.5542 7.23462 50.4558 7.1335V7.1335ZM50.9973 7.1335C50.948 7.08295 51.0957 7.23462 50.9973 7.1335V7.1335ZM49.1759 7.28518C49.1267 7.23462 49.2744 7.38629 49.1759 7.28518V7.28518ZM51.2926 7.28518C51.4403 6.72904 51.4403 7.84132 51.2926 7.28518V7.28518ZM52.4248 7.28518C52.3756 7.23462 52.5232 7.38629 52.4248 7.28518V7.28518ZM53.0155 7.1335C52.9663 7.28518 52.8678 7.28518 52.8678 7.43685C53.0647 7.58853 53.0647 7.48741 53.2616 7.43685C53.3108 7.18406 53.1632 7.18406 53.0155 7.1335ZM49.8651 7.58853C49.8159 7.53797 49.9635 7.68964 49.8651 7.58853V7.58853ZM50.1604 7.58853C50.2589 7.53797 50.4558 7.58853 50.4558 7.43685C50.3573 7.48741 50.1604 7.43685 50.1604 7.58853ZM50.7511 7.7402C50.6527 7.68964 50.8004 7.84132 50.7511 7.7402V7.7402ZM52.2771 7.7402C52.1294 7.7402 52.2279 7.53797 52.2771 7.7402V7.7402ZM52.2771 7.7402C52.3263 8.14467 52.8678 7.58853 52.2771 7.7402V7.7402ZM51.588 8.04355C51.7356 7.43685 51.7356 8.59969 51.588 8.04355V8.04355ZM52.7201 8.29634C52.4248 8.24579 52.2771 7.99299 52.031 7.89188C51.9818 8.3469 52.3756 8.39746 52.7201 8.44802C52.7201 8.39746 52.7201 8.3469 52.7201 8.29634ZM53.0155 8.04355C52.4248 8.14467 52.9663 7.58853 53.0155 8.04355V8.04355ZM53.0155 8.14467C53.1139 8.14467 53.2616 8.14467 53.2616 8.04355C53.2124 8.04355 53.1139 8.04355 53.0155 8.04355C53.0155 8.04355 53.0155 8.09411 53.0155 8.14467ZM52.7201 8.29634C52.8186 8.29634 52.8678 8.44802 52.7201 8.44802C52.8186 8.59969 52.9663 8.70081 53.1632 8.75137C53.2124 8.44802 53.0647 8.3469 53.0155 8.14467C52.8186 8.14467 52.7694 8.19523 52.7201 8.29634Z" fill="#F890C6"/>
</svg>
