<svg width="36" height="8" viewBox="0 0 36 8" fill="none" role="img" xmlns="http://www.w3.org/2000/svg">
  <path d="M30.757.74c-.195-.049-.244.149-.39.149.049-.593-.535-.148-.584 0V.593C20.728.049 10.067 0 .184 0-.303 1.432.33 3.358.33 4.444c.146 0 .146.149.146.247h-.39c.585.544-.194.89.682 1.284.049-.444.73-.148.974 0-.195 0-.39 0-.438.148 2.629.149 3.554-.098 4.77.149 1.023-.494 2.483-.445 3.408-.395-.146-.544.536-.247.828-.297.195-.494-.487-.099-.438-.444 1.655-.247 2.385.247 3.943-.148-.243-.05-.584-.05-.73-.297.681-.049.779 0 1.558-.098v-.297c-.536-.74 1.655-.148 1.265-.84 0 0-.632.297-.827 0 1.12-.345 2.629-.098 3.213 0 0-.098 0-.197.146-.147 0-.1.097-.198.146 0 .146 0 .097-.198.146-.297-.195 0-.097-.197 0 0 .049-.049.536-.345.536 0-.098.1-.39.1-.439.297 1.072.098 2.532.098 3.798 0V3.16c-.487-.246-.73.198-1.12-.148.146-.345.876-.049 1.266-.148.048.198.195.247 0 .445.146-.05.146.049.146.148.633.05 1.655-.198 2.093.099-.097.148-.195.395 0 .444.146-.247.098.148.292.148.341-.444-.39-.444 0-.988-.827-.049-1.363.346-1.947-.296 1.168-.148 2.288.395 2.629-.148.097.198.194.296.438.296v-.148c-.438 0-.146-.691-.584-.691 0 .247-.049.444-.244.543-.048-.593-.097 0-.292 0-.243-.148-.292-.444-.681-.395-.049.148-.049.296-.292.247.048-.642-.536.197-.585-.395H23.6c-.34.148.292.395-.097.543-.243-.543-.633-.05-.876-.543.438-.05.34-.148.73-.445.195.395 1.217-.197 1.363.445.292-.79.828-.148 1.022-.593-.097-.197-.535 0-.584-.296-.146.05-.097-.198 0 0 .146-.148.584-.099.584.296.438.099.39.642.828.741-.049-.198-.243-.346 0-.444.243.296.681.098 1.266.148-.146.592-.098.444.292.691-.682-.05.146.543-.438.593.097-.445-.146-.544-.146-.89-.536-.147-.585.1-.974-.098 0 .247-.049.395-.146.543.097 0 .146.099 0 .148-.097.494-.536.148-.974.148-.097.84.828-.148.974.544-.195 0-.39 0-.438.148.243.05.73-.148.584.296.39 0 .828 0 .828-.444-.78-.148-.195.296-.682.296v-.444c.195.098.73-.149.682.148.34.296.39.296.73 0V4c.097 0 .097.198.097.296 1.12-.148 1.363-.197 2.288 0 0-.296.049-.494.244-.592.194.247.73.148 1.12.148-.05.444.292.444.73.444 0-.247-.39-.098-.438-.296.486.05.73 0 .827.148 0 .148-.195.148-.39.148v.297c.585.098.536-.05 1.12.098 0-.098.098-.148.146-.247-.39 0-.584-.098-.73-.296.438-.099.438.247.876.148-.048-.197.195-.098 0 0 .05.494.195.692-.292.395.098.395-.681-.098-.584.297.195 0 .243.049.292.148-.243.345-.243.395-.827.592.146 0 .097.149.146.247.584.1-.146-.247.243-.247.097.198.536 0 .584.247-.633.247-1.85.198-2.24-.247.536-.098.585-.098 1.12 0 .195-.543-.486-.098-.438-.444.487-.148.73.346.828-.148-.049 0-.146 0-.097-.148-.244.049-.292-.1-.292-.297-.585.05-.633.593-.73.741-.244.099-.78-.197-.828.148.39.05-.195.198-.292.297 0-.445.146-.741.438-.89-.049-.197-.341-.098-.536-.147.438-.247-.39-.445-.438-.149.146.247.438.297.536.593-.244-.099-.828.148-.828-.148-.097-.642.39.247.292-.445-.584-.395-2.483-.197-3.505-.247-.049.149-.292.1-.292.247.243.297 1.363 0 1.704.149.292 0 .681-.05.973.296-.486.099-.681-.099-.973-.148-.438.296-1.266-.247-1.558.296.34.197.438-.05.584.148-.049.296-.633.05-.73.296 1.412.346 3.602-.049 4.77.544.147-.395.585.049.828 0 0-.05.146-.149.146 0 .585.098 1.266.049 1.558.444.049.198-.146.247-.146.395.633.296 1.169.74 1.948.889.146-.79.827-3.358.146-3.704 0 .1 0 .148-.146.148-.195.05.048.149 0 0 0-.098.048-.197.146-.148-.487-.197-.439-.494.292-.444v-.148c-.39-.1-.73-.198-.974-.395.34.148.779-.297.39-.445-.05.198-.147-.05-.39 0 0 .099-.146.148-.146 0h-.146v.296c.097 0 .146.1 0 .149V3.16h-.438c.048-.246.34-.592-.098-.592v.889c.098 0 .146.099.098.247.097 0 .194.05.146.148.34.197.438-.543.584-.148 0 .148.097.197.146.296-.39-.099-.39.198-.73.148v-.296c-.049 0-.146 0-.146-.148-.146 0-.195.197-.244 0 0-.148.098-.148.146-.247-.194-.099-.292-.198-.292-.445-.584.445-1.606.1-2.24-.148.293-.197-.145-.395.244-.543-.146 0-.243-.05-.243-.148-.146-.05-.292 0-.292-.148.097 0 .292 0 .292.148.438-.148 1.363 0 1.801.247-.195.05-.535-.05-.535.148.292-.05.146.444.39.444.34-.247.096-.543.73-.691.048-.198.145-.296.389-.296v-.148c-.584-.198-.584.69-.974.296 0-.395.536-.198.584-.593-.243-.05-.73.148-.584-.296.098.197.536.05.584.296.244 0 .438.05.536.148.049-.098.146-.148.292-.148 0 .198.049.297.146.445.146 0 .097-.198.146-.297-.097 0-.195-.098 0-.148-1.606-.642-3.116-.494-4.235-.84ZM21.799.594c-.049-.05.098.098 0 0Zm.974 0c-.049-.05.097.098 0 0Zm4.09.148c-.196 0-.098-.198 0 0 .194.296 1.021 0 1.265.296-.438.198-.682-.099-1.412 0 0-.148.097-.197.146-.296ZM24.33.889c0 .148-.195.099-.293.148 0-.148.195-.148.293-.148Zm2.239 0c0 .148-.195.099-.292.148 0-.148.195-.148.292-.148Zm3.943.691c.146-.84-1.704.05-2.142-.691 1.363.099 3.116.247 4.771.395-.146.395-.535.197-.292.74-.34-.394-.39-.296-.828-.592.487.642-1.022.494-1.509.148-.195.346.536.445.098.593.048.197.34.148.438.247-.098.444-.098.84.584.889v.148c-.049.592.536 0 0 0-.243 0-.487-.05-.438.247-.39-.148-.438-.297-.828-.148-.049-.149.195-.198 0-.247 0-.198.195-.149.39-.149-.098-.296-.39-.345-.536-.592 0 .592-.73.197-.146 0-.243.05-.34-.148 0-.148-.049-.198-.292-.148-.438-.247.39-.445.146-.247 0-.74.34 0 .681 0 .876.147Zm-8.178 0c-.39 0 .146-.592 0 0 .243-.099.243.692 0 .593 0 .148-.39.148-.39 0-.195-.05-.39 0-.438-.148-.584.148 0-.445 0 0 .195-.1.34-.148.438-.297.195.05.098.297 0 .445h.39V1.58Zm1.168-.296c-.049.148-.195.148-.292.148 0-.148.146-.099.292-.148Zm2.629.148c-.584.148 0-.395 0 0 .097.198.195 0 0 0Zm.438 0c.195.494.34-.543 0 0Zm1.12-.148c.048.395-.828.642-.585 0h.585Zm1.265.296c0-.099.147-.148.147-.296.145.099.292.197.243.444-.195.05-.195-.148-.39-.148Zm-11.1.297c-.048-.05.098.098 0 0Zm.439 0c-.049-.05.097.098 0 0Zm2.677.148c-.194 0-.34-.1-.438-.148.049-.247.293-.1.438 0v.148c.39 0-.145.592 0 0Zm7.157.148c.34 0 .34-.346.535-.445.244.1-.048.89-.146 1.136-.34-.247-.146-.296-.39-.691Zm-9.542-.148c-.049-.05.097.098 0 0Zm.974-.148c-.78-.05-.195.543 0 0Zm.535 0c0 .148-.146.098-.243.148 0-.148.146-.1.243-.148Zm9.152.543c-.194.494-.438-.099-.292-.395.147-.05.195.197.293 0 .146 0 .146.197.097.395h.146c0-.148.243-.05 0 0 0 .099-.097.197-.146 0h-.098Zm-8.714-.099c-.048-.099.098.05 0 0Zm-2.239.099c-.049-.05.097.099 0 0Zm.681 0c0-.148.244-.05 0 0-.194.099.05.197 0 0Zm2.678 0c.146-.543.146.592 0 0Zm-6.329.148c-.048-.05.098.099 0 0Zm2.386-.148c0 .148-.146.148-.244.148 0-.148.146-.099.244-.148Zm.438 0c0 .148-.146.148-.292.148 0-.148.194-.099.292-.148Zm1.266.148c-.049-.05.097.099 0 0Zm1.557-.148c-.048.197-.389.148-.584.148.049-.198.341-.099.584-.148Zm1.51.148c-.049-.05.097.099 0 0Zm4.77.148c-.048-.05.098.099 0 0Zm3.944 0c-.049-.05.097.099 0 0Zm-14.167.148c-.779-.345-.73.494 0 0Zm12.463-.148c0 .148-.146.099-.244.148 0-.148.147-.099.244-.148Zm-15.384.296c-.097-.049.049.1 0 0Zm.828 0c-.049-.049.097.1 0 0Zm.973-.148c0 .148-.194.099-.292.148 0-.148.195-.098.293-.148Zm1.266.148c-.048-.049.098.1 0 0Zm.536 0c.633.346.827-.493 0 0Zm2.385.148c-.39.1-.34-.197-.681-.148-.049-.247.925-.296.681.148Zm.438-.296c0 .148-.146.099-.292.148 0-.148.195-.098.292-.148Zm.828 0c0 .346-.34.346-.535.148.048-.197.34-.098.535-.148Zm5.89.593c-.194-.099-.243-.346-.243-.593.195-.05.195.148.39.148-.05.1-.146.247-.146.445ZM15.228 3.16c-.097-.049.049.1 0 0Zm13.29 0c-.048-.049.098.1 0 0Zm.292 0c.146-.592.146.544 0 0Zm.536.149c.146-.05.195-.149.146-.297.438 0 .292.593-.146.544v-.247c0-.445-.536.098 0 0Zm.584 0c-.049-.1.097.098 0 0Zm-16.698.148c-.049-.099.097.05 0 0Zm1.266-.148c0 .098-.146.098-.292.148.048-.148.194-.148.292-.148Zm.146.148c-.049-.099.097.05 0 0Zm17.818.247c-.195-.05-.244-.247-.439-.247.05-.395.536-.05.439.247Zm.146.148c.048-.099.146-.198.146-.395.39-.148.39.247.827.099-.292.444-.535.049-.973.296Zm-21.323 0c-.049-.05.097.099 0 0Zm.438 0c-.098-.05.049.099 0 0Zm.827 0c-.048-.05.098.099 0 0Zm.828.148c.292 0 .195-.395.584-.296-.049.543.098.05.39.148-.049.148-.146.247-.146.444-.39-.395-1.023.346-1.12-.444.195 0 .292.05.292.148Zm15.432-.296c.098.098-.535.395-.438.148.049-.05.341-.247.438-.148ZM30.221 4c-.34-.148-.292-.05-.876-.148.049-.198 1.07-.296.876.148Zm-1.12 0c-.048-.05.098.099 0 0Zm-17.136.148c-.049-.05.098.099 0 0Zm.292 0c.195.445.341-.543 0 0Zm22.15.296c-.048-.049.098.1 0 0Zm.585.149c-.049-.198.195-.1 0 0 .292.444-.097.148-.438.098.049-.148.243-.148.438-.098ZM9.726 4.84c-.049-.05.097.098 0 0Zm2.093 0c-.049-.05.097.098 0 0Zm.73 0c-.048-.05.098.098 0 0Zm22.979 0c0-.149.194-.05 0 0-.585-.1 0 .444 0 0Zm-5.891.148c-.682-.395-.487.493 0 0Zm4.09.444c0-.197.048-.296.145-.444.146 0 .146.148.244.148v.296h-.39c-.048.395-.584-.148 0 0Zm-4.772 0c-.292.395-1.557.445-1.85-.148.39.099 1.023.148 1.85.148Zm1.12.296c-.584.1-.049-.444 0 0 .098.198.146-.049 0 0Zm.682-4.987c0-.198.194-.099 0 0Zm.292.691c.097.099.681.346.681 0-.048-.05-.633-.346-.681 0Zm3.943.296h.39c0-.148-.244-.098-.39-.148v.148Zm-.584 0c.097.198.195 0 0 0Zm.974 0v.149c.146.098.389.197.438 0-.098-.1-.244-.149-.438-.149Zm-11.636.445c.146 0 .146-.05.146-.148-.097-.05-.146.05-.146.148Zm2.094 0c-.146 0-.049-.247 0 0Zm8.422-.148v.148c.195-.05.243 0 .292.148h.292v-.296h-.584Zm-5.015.395V2.32c-.194 0-.097.099 0 .099Zm3.506.148c-.244-.05-.146-.445-.584-.247v.247c.097.05.535.346.584 0Zm1.12-.247c.145.395.73-.198 0 0Zm.68 0c-.437 0 .147.543 0 0Zm.293 0c-.146.543.39 0 0 0Zm.536.099c-.05-.05.097.099 0 0Zm-5.307.148h.146c0-.099-.049-.099-.146-.148v.148Zm2.094 0c-.098 0-.147-.148-.293-.148-.194.444.39.691.293.148Zm1.411.148c-.048-.05.098.099 0 0Zm2.386 0c-.049-.05.097.099 0 0Zm-1.412.148c-.146 0-.097-.197 0 0Zm.146 0h.146c-.049-.148-.146-.099-.146 0Zm1.12 0c-.195 0-.098-.197 0 0Zm-2.094.148c-.048-.197.195-.098 0 0Zm2.094-.148c.097.198.146 0 0 0Zm0 .445a.442.442 0 0 0-.292-.297c.048.247-.146.247-.146.445.243 0 .243-.148.438-.148Zm-17.38 0c0 .098-.049.098-.146.148-.828.444-1.558-.297-2.093.247.73 0 1.898.395 2.531-.148-.146 0-.146-.149-.146-.247h-.146Zm4.187 0c.048.148.146.049.146 0h-.146Zm13.193 0c.097.197.146-.05 0 0Zm-16.406.395c-.877.197-.292-.395 0 0Zm.146 0c.292-.395.876.197 0 0Zm.973 0c.098 0 .293 0 .293-.148-.098.049-.293.049-.293.148Zm.584 0c.098 0 .244 0 .244-.148-.097.049-.244.049-.244.148Zm.682 0c-.049-.05.098.098 0 0Zm.292 0c.098 0 .244 0 .244-.148-.098.049-.244.049-.244.148Zm.536 0c.194-.544.194.592 0 0Zm.292 0c.097 0 .292 0 .292-.148-.098.049-.292.049-.292.148Zm12.9 0c0-.148.195-.05 0 0Zm-16.405 0c.048.197.146.098.146 0h-.146Zm4.186.148c-.048-.05.098.099 0 0ZM23.065 4c-.049-.05.097.099 0 0Zm12.755-.148c.097.197.146 0 0 0Zm-10.224.296c-.048-.05.098.099 0 0ZM28.128 4c-.244.099 0 .198 0 0Zm2.92.148c-.583.148-.048-.444 0 0Zm.585 0c-.438.445-.243-.494 0 0Zm-16.99.148c.048-.444.584.148 0 0Zm.973 0c-.048-.05.098.1 0 0Zm.974.148v-.296c-.292-.099-.195.247-.39.296 0-.148-.048-.148-.145-.148-.05.198.146.247.146.395h.292c-.049-.148 0-.247.097-.247Zm.73-.148c-.194 0-.097-.197 0 0Zm.39.148c-.049-.296-.195-.296-.39-.148 0 .148.244.1.39.148Zm1.704.149c.048-.445-.39-.544-.439-.149.195 0 .341.05.439.149Zm8.276-.297c-.049-.05.097.1 0 0Zm3.359-.148c-.146.593.438.05 0 0Zm.584 0c.049.198.146 0 0 0Zm-16.406.148c-.73.346.487.346 0 0Zm1.51.148c.243-.493.437.445 0 0Zm1.85 0c-.488.1-.585-.296-.877 0 0 .198.876.198.876 0Zm0 0c-.05-.197.194-.098 0 0Zm1.8 0c.098 0 .195 0 .146.149h.293c.194-.346-.487-.445-.439-.149Zm1.266 0c.097-.049.292 0 .292-.148-.097 0-.292 0-.292.148Zm.438 0c-.049-.049.098.1 0 0Zm.39 0c0-.197.243-.098 0 0Zm.876 0c.097-.049.243 0 .243-.148-.097 0-.243 0-.243.148Zm1.51 0h.145c0-.197-.146-.098-.146 0Zm.145 0c-.195.346.487.396.438.149-.194-.1 0-.149 0-.297-.243-.05-.243.148-.438.148Zm.584-.148v.297h.39c.049-.297-.146-.346-.39-.297Zm.974.148c-.195 0-.097-.197 0 0Zm3.943-.148c.049.198.146 0 0 0ZM.33 4.444c-.195.05.049.149 0 0Zm15.286.149c-.048-.1.098.049 0 0Zm.974-.149c.049.149.146.05.146 0h-.146Zm4.625.149c.146-.05.292 0 .292-.149-.097 0-.243 0-.292.149Zm1.266-.149c-.195.05.048.149 0 0Zm2.385 0c-.584-.148 0 .396 0 0Zm6.62.149c-.096-.1.098.049 0 0Zm.39 0c.146-.05.293 0 .293-.149-.098 0-.293 0-.293.149Zm-7.838.098c-.048-.049.098.1 0 0Zm7.01.297a.708.708 0 0 0 .439.296c.292-.099-.097-.84-.292-.444.195.098 0 .148-.146.148Zm.585-.148c.097 0 .243 0 .243-.149-.097.05-.243.05-.243.149Zm-17.818.148c-.048-.148.195-.1 0 0Zm1.412.148c.097-.494-1.217-.346-1.12 0 .536.148.78-.296 1.12 0Zm.828-.148c.194-.445.34.543 0 0Zm.535 0c-.049-.05.097.098 0 0Zm2.824 0c-.049-.05.097.098 0 0Zm8.568-.148c-.195.049-.098.148 0 .148V4.84Zm4.77.148c.05 0 .147.049.098.148.487 0-.146-.593-.097-.148Zm-13.777.148c.147-.05.293 0 .293-.148-.098.049-.293 0-.293.148Zm1.558 0c-.048-.05.098.099 0 0Zm1.704 0c.098-.05.244 0 .244-.148-.098.049-.244 0-.244.148Zm.39 0c-.049-.05.097.099 0 0Zm.438 0c-.049-.05.097.099 0 0Zm.438 0c.097-.05.243 0 .243-.148-.097.049-.243 0-.243.148Zm1.363-.148c-.292-.05-.535.049-.535.296.292.05.535-.05.535-.296Zm1.558.296c.049-.444-1.363-.099-1.12 0 .487-.198.974.296 1.12 0Zm-15.822.148c.195-.494.34.543 0 0Zm.974-.148c-.244.05-.73-.148-.584.296.34.05.535-.05.584-.296Zm1.947.296c-.049-.05.097.099 0 0Zm1.12 0c-.049-.05.097.099 0 0Zm5.063 0c-.049-.05.097.099 0 0Zm-7.449.148c-.048-.098.098.1 0 0Zm11.246 0c-.097-.098.049.1 0 0Zm.681 0c.244-.098.828.149.828-.148-.243.05-.828-.197-.828.148Zm.974 0c.146-.049.39 0 .438-.148-.194 0-.39-.05-.438.148Zm1.12 0c-.73.149-.146-.444 0 0Zm-16.552.149c.146-.05.292-.05.292-.149-.097 0-.292 0-.292.149Zm17.38.246c.145 0 .292 0 .292-.148-.098.05-.293 0-.293.148Zm1.022 0c-.098-.049.049.1 0 0Zm.39 0c-.05-.049.097.1 0 0ZM7.34 6.272c-.048-.05.098.098 0 0Zm22.59-.149c-.877-.148-.293.445 0 0Zm.145.149c-.049-.05.098.098 0 0Zm.438.148c-.097-.05.049.099 0 0Zm.536-.148c.097.197.195 0 0 0Zm.292.148c-.049-.05.097.099 0 0Zm.535-.148c.05.148.146.098.146 0h-.146Z" fill="#F890C6"/>
</svg>