<svg width="67" height="9" viewBox="0 0 67 9" fill="none" xmlns="http://www.w3.org/2000/svg">
<path d="M38.7869 0.48905C38.5466 0.380372 38.7389 0.217355 38.7869 0C38.5947 0 38.4024 0 38.2102 0C38.2102 0.163017 38.2102 0.326034 38.2102 0.48905C38.3063 0.54339 38.7389 0.869421 38.7869 0.48905ZM41.3824 0.163017C41.5265 0.0543397 39.8924 -0.108678 40.1808 0.163017C40.5172 0.163017 41.094 0.108679 40.7095 0.48905C40.9978 0.434712 41.5265 0.706404 41.3824 0.163017ZM41.9591 0C41.9591 0.163017 41.9591 0.326034 41.9591 0.48905C42.0552 0.48905 42.1514 0.48905 42.2475 0.48905C42.2475 0.326034 42.3436 0.326033 42.3917 0.163017C42.1994 0.163017 42.0552 0.108678 41.9591 0ZM47.6306 0.163017C47.198 0.271695 47.0538 -0.163014 46.9577 0.326035C47.1499 0.271697 47.6786 0.543388 47.6306 0.163017ZM38.7869 1.14111C38.7869 0.923759 39.0273 1.03244 39.0753 0.815082C37.8737 0.978098 36.0473 0.489049 35.6148 1.41281C35.8551 0.543388 34.7016 1.24979 34.6055 0.815082C34.9419 0.706405 35.6148 0.978099 35.7109 0.652067C34.8938 0.652067 35.7109 0.326033 35.8551 0.163017C35.0861 0.434711 33.7403 0.0543407 33.2597 0.652067C31.1449 0.217356 25.4254 1.08678 21.8687 1.24979C18.1679 1.46715 14.5151 1.84752 10.8142 2.06487C7.25753 2.22789 3.31636 1.79318 0 2.55392C0.144189 4.61879 0.432568 7.7161 1.8264 8.96589C12.0158 9.23759 22.4455 7.82478 30.1836 6.90102C30.2317 7.55309 30.2798 6.95536 30.472 6.90102C30.472 7.49875 31.5294 6.95536 31.7217 6.73801C32.0581 7.44441 34.1248 6.90102 34.0768 6.57499C34.2209 6.57499 34.3651 6.57499 34.4613 6.57499C34.3171 7.11838 37.0567 7.0097 36.2877 6.30329C36.7202 6.46631 37.4412 7.11838 38.066 6.57499C38.1621 5.75991 41.6707 7.22705 42.9204 6.46631C43.6413 6.62933 44.4103 6.30329 45.2755 6.30329C45.5158 5.86858 46.3329 6.95536 46.8135 6.30329C46.6212 6.30329 46.429 6.30329 46.3809 6.14028C46.6693 6.19462 46.7654 6.0316 46.9577 5.97726C46.8135 6.62933 47.8709 6.46631 47.198 6.14028C49.0244 6.52065 51.043 5.81425 52.9175 6.46631C52.3888 6.46631 53.302 6.84668 53.1578 6.46631C53.1098 6.46631 53.0136 6.30329 53.1578 6.30329C53.1578 6.35763 53.1578 6.41197 53.1578 6.46631C53.302 6.35763 53.3981 6.30329 53.5904 6.30329C53.3981 6.57499 53.4462 6.62933 53.8788 6.57499C53.8307 5.97726 53.9749 6.52065 54.2633 6.46631C54.3113 6.3033 54.792 5.86859 54.6958 6.46631C55.1284 6.52065 55.1765 6.14028 55.6571 6.30329C55.5129 6.52065 55.5129 6.68367 55.8013 6.73801C55.6571 6.19462 56.378 6.57499 56.4742 6.30329C56.5703 6.62933 56.0897 6.79235 56.6184 6.73801C56.8106 6.73801 56.6664 6.30329 56.9067 6.30329C57.0029 6.52065 57.3393 6.52065 57.5796 6.57499C57.5796 6.46631 57.8199 6.41197 57.868 6.57499C57.7719 6.57499 57.6758 6.57499 57.5796 6.57499C57.5796 6.79235 57.3393 6.68367 57.3393 6.90102C57.9641 7.0097 58.3967 6.84668 58.6851 6.57499C58.8773 6.62933 58.7812 6.90102 58.9735 6.90102C58.9735 6.73801 59.1657 6.79235 59.2618 6.73801C59.358 6.52065 59.6944 6.52065 59.9347 6.46631C59.9347 6.57499 59.8386 6.57499 59.8386 6.73801C60.175 6.62933 60.3673 6.57499 60.6557 6.90102C60.7999 6.84668 60.7518 6.57499 60.944 6.57499C60.9921 7.06404 61.8092 6.79234 61.1844 7.22705C61.7611 7.44441 61.4727 6.79235 61.7611 6.73801C61.7611 6.90102 61.9053 6.90102 61.9053 7.06404C62.4821 7.17272 62.8185 6.95536 63.1549 6.73801C63.3953 6.73801 63.2991 7.17272 63.6836 7.06404C63.6836 6.90102 63.7317 6.79235 63.8278 6.73801C63.8278 6.68367 63.8278 6.57499 63.972 6.57499C63.8759 6.46631 63.7317 6.35763 63.5395 6.30329C63.3472 6.35763 63.5875 6.46631 63.5395 6.30329C63.5875 6.08594 63.5875 5.81425 63.3953 5.81425C63.5394 6.35763 62.9627 6.08594 62.8666 5.97726C62.7704 6.19462 62.6263 6.35763 62.434 6.46631C62.3859 6.19462 62.6263 5.65123 62.2898 5.65123C62.2898 6.19462 61.8092 5.27086 61.7611 5.81425C62.0976 5.86859 61.5208 6.14028 61.4727 6.30329C61.3285 6.19462 61.2805 5.97726 61.1844 5.81425C61.0882 5.70557 60.9921 5.65123 60.7999 5.65123C60.944 6.19462 60.3192 5.81425 60.2231 5.65123C60.175 5.65123 60.127 5.65123 60.0789 5.65123C59.8386 5.81425 59.6944 6.08594 59.406 6.14028C59.4541 5.92292 59.5502 5.86859 59.406 5.65123C59.2138 5.65123 59.2618 5.37954 59.1176 5.3252C59.0696 5.48821 59.0215 5.54255 58.8293 5.48821C58.8293 5.59689 58.8293 5.81425 58.6851 5.81425C58.6851 5.70557 58.6851 5.59689 58.6851 5.48821C58.1564 5.43388 57.9161 5.21652 57.5796 5.65123C57.3874 5.59689 57.2432 5.43388 57.1951 5.16218C57.8199 5.3252 57.3393 4.94483 57.5796 4.89049C57.8199 4.89049 58.1083 4.83615 58.1564 5.0535C58.0122 5.0535 57.7719 4.99916 57.7238 5.16218C58.3486 5.3252 59.1657 4.99916 59.406 5.16218C59.406 5.0535 59.6463 4.99916 59.6944 5.16218C59.5983 5.16218 59.5022 5.16218 59.406 5.16218C59.4541 5.54255 60.0789 5.27086 60.3673 5.3252C60.0789 4.99917 60.4154 5.16218 60.5115 4.89049C59.8386 4.99916 59.7905 4.89049 58.9735 4.89049C58.7812 4.99916 59.0215 5.0535 58.9735 4.89049C58.6851 4.51012 57.8199 4.83615 57.3393 4.72747C57.3874 4.99916 57.1951 4.99916 57.0509 5.0535C56.8587 5.37954 57.099 5.70557 56.9067 5.81425C56.7626 5.75991 56.7145 5.65123 56.6184 5.48821C56.7626 5.37954 56.6664 4.94483 57.0509 5.0535C57.0509 4.94483 57.0509 4.83615 57.0509 4.72747C56.8106 4.78181 56.8106 4.56446 56.6184 4.56446C56.6664 4.78181 56.6664 4.99916 56.4742 5.0535C56.2819 5.37954 56.5222 5.70557 56.3781 5.81425C56.1858 5.43388 55.7532 5.3252 55.5129 5.0535C55.8494 5.0535 56.1858 5.0535 56.4742 5.0535C56.33 4.83615 56.4261 4.78181 56.4742 4.56446C55.8013 4.56446 54.792 4.61879 54.6958 4.40144C54.6958 3.96673 55.6571 4.56446 55.6571 4.07541C55.3207 4.12975 55.1284 4.07541 54.9842 3.91239C54.9362 4.12974 54.6478 4.07541 54.4075 4.07541C54.5997 4.02107 54.4555 3.47768 54.6958 3.47768C54.8881 3.47768 55.0803 3.47768 55.2245 3.47768C55.1765 3.09731 54.5036 3.47768 54.5516 2.98863C54.4555 2.98863 54.3594 2.98863 54.2633 2.98863C54.2633 3.47768 53.9749 3.15165 53.4462 3.31466C53.4462 3.74937 54.4075 3.15165 54.4075 3.6407C54.1671 4.12974 53.6385 3.85805 53.302 3.80371C53.1098 3.85805 53.302 3.96673 53.302 3.80371C53.302 3.6407 53.1578 3.6407 53.0136 3.6407C53.0617 4.18408 52.6772 3.80371 52.1966 4.07541C52.7733 4.40144 54.1191 3.74937 53.7346 4.72747C53.4943 4.40144 53.2539 4.23842 53.4462 4.89049C53.302 4.72747 53.0617 4.67313 52.7733 4.72747C52.8214 5.0535 52.7253 5.21652 52.4849 5.16218C52.4849 4.89049 52.6291 4.83615 52.6291 4.56446C52.4849 4.40144 51.7159 4.23842 51.6679 4.56446C51.764 4.61879 51.9082 4.56446 51.9082 4.72747C51.8121 4.67313 51.6679 4.72747 51.6679 4.56446C51.6198 4.56446 51.5717 4.56446 51.5237 4.56446C51.3314 4.67313 51.5237 4.72747 51.5237 4.56446C51.3314 3.96673 50.5143 4.78181 50.274 4.07541C50.8508 4.12975 51.1872 4.29276 51.6679 3.91239C51.1392 4.02107 51.9082 3.369 51.3795 2.98863C51.3314 3.20599 51.1392 2.98863 51.0911 2.82562C50.9469 2.93429 50.9469 3.20599 50.6585 3.15165C50.6585 2.87995 50.8508 2.82561 50.8027 2.55392C50.274 2.55392 49.7934 2.55392 49.457 2.3909C49.3608 2.49958 49.3128 2.6626 49.1686 2.6626C49.1686 2.77128 49.1686 2.87995 49.1686 2.98863C49.2647 3.20599 49.3128 2.98863 49.1686 2.98863C48.9283 2.71694 48.5918 3.26032 48.4476 2.6626C48.688 2.71694 48.8802 2.6626 49.0244 2.55392C49.0244 2.33657 48.9763 2.22789 48.8802 2.22789C48.5438 2.6626 48.0151 2.44524 47.6306 2.3909C47.6786 2.77128 47.5825 3.04297 47.198 2.98863C47.198 3.09731 47.198 3.20599 47.1019 3.15165C47.1019 3.04297 47.1019 2.98863 47.198 2.98863C47.198 2.87995 47.1019 2.82562 47.1019 2.6626C47.3422 2.71694 47.5344 2.6626 47.4864 2.3909C47.2941 2.3909 47.1499 2.3909 46.9577 2.3909C46.7174 2.87995 46.6212 2.06487 46.2367 2.22789C46.2367 2.44524 46.3329 2.82562 46.0925 2.82562C46.1406 2.44525 45.8042 2.44524 45.708 2.22789C45.9003 2.6626 44.9871 2.60826 44.9871 2.3909C44.7468 2.44524 44.7468 2.22789 44.7468 2.06487C45.1793 1.84752 45.3716 2.22789 45.4197 1.73884C44.8429 1.90186 44.6026 1.63016 44.17 2.06487C44.4103 2.06487 44.5545 2.17355 44.6026 2.3909C44.4103 2.44524 44.3623 2.6626 44.17 2.6626C43.9778 1.90186 43.2568 2.82561 42.9204 2.3909C42.9684 1.63016 43.9297 2.60826 44.0258 1.73884C43.7374 1.41281 43.2088 2.28223 42.7762 1.73884C42.632 2.33657 42.9204 2.44524 42.5359 2.6626C42.4878 2.49958 42.1033 2.49958 42.1033 2.6626C42.2475 2.6626 42.2475 2.93429 42.1033 2.98863C42.1033 2.87995 42.1033 2.77128 42.1033 2.6626C42.0552 2.6626 42.0072 2.6626 41.9591 2.6626C41.911 2.82562 41.9591 2.98863 41.8149 2.98863C41.863 2.87995 41.8149 2.6626 41.9591 2.6626C42.0072 2.22789 41.1901 2.82561 41.2862 2.3909C41.5746 2.33657 41.7669 2.11921 42.2475 2.22789C42.2475 1.57582 41.5265 2.33657 41.9591 1.57583C41.6707 1.52149 41.6707 1.79318 41.5265 1.90186C41.5265 1.6845 41.5265 1.46715 41.5265 1.24979C41.2862 1.30413 41.2382 1.08677 40.9978 1.14111C40.8056 1.19545 40.9978 1.30413 40.9978 1.14111C41.1901 0.869419 42.3436 0.92376 42.3917 0.978098C42.3917 1.41281 41.5265 1.14112 41.9591 1.57583C42.2956 1.30413 42.4397 1.79318 42.632 1.41281C42.4878 1.46715 42.5839 1.19545 42.632 1.41281C42.7281 1.41281 42.8242 1.41281 42.9204 1.41281C42.9684 1.08678 42.5359 1.24979 42.5359 0.978098C42.9204 1.03244 43.2088 0.543388 43.3529 1.14111C43.0646 1.08677 43.0646 1.30413 42.9204 1.41281C43.4971 1.6845 43.9778 1.30413 44.4584 1.14111C43.9778 1.24979 43.7374 0.978099 44.0258 0.652067C42.8242 0.652067 41.6227 0.652067 40.4211 0.652067C40.8056 1.24979 40.4211 0.869421 40.4211 1.73884C40.6133 1.79318 40.6614 1.6845 40.7095 1.57583C40.5653 1.63016 40.6133 1.35847 40.7095 1.57583C41.142 1.41281 41.2382 1.52149 41.3824 1.90186C41.142 1.9562 41.2862 2.49958 40.9978 2.55392C40.8537 2.33657 41.0459 1.52149 40.5653 2.06487C40.9017 2.11921 40.5653 2.6626 40.2769 2.55392C40.2769 2.60826 40.2769 2.71694 40.1808 2.6626C39.9405 2.77128 40.1808 2.87995 40.1808 2.6626C40.1808 2.60826 40.1808 2.55392 40.1808 2.55392C39.9885 2.49958 39.7482 2.55392 39.7482 2.3909C39.4598 2.60826 39.556 2.33657 39.1714 2.3909C39.1714 2.55392 39.1714 2.71694 38.9311 2.6626C38.9311 2.49958 39.0753 2.44524 39.1714 2.3909C39.2676 2.22789 39.8924 1.84752 39.7482 2.3909C39.8924 2.3909 40.0366 2.3909 40.1808 2.3909C40.1808 2.17355 40.325 2.11921 40.4211 2.06487C40.373 1.84752 40.2769 1.73884 40.0366 1.73884C40.0366 1.90186 39.7963 1.9562 39.7482 1.73884C39.8443 1.73884 39.9405 1.73884 40.0366 1.73884C40.0847 1.52149 40.2769 1.52148 40.2769 1.24979C39.7001 1.46715 39.2676 0.92376 38.9311 1.24979C38.9311 1.35847 38.7869 1.46715 38.7869 1.24979C38.6428 1.24979 38.5947 1.41281 38.4986 1.41281C38.4986 1.52148 38.4986 1.63016 38.3544 1.57583C38.3544 1.84752 38.6908 1.73884 38.6428 2.06487C38.2102 2.17355 38.3544 2.17355 38.066 1.90186C38.066 2.28223 37.7296 2.28223 37.6815 1.90186C37.6815 1.73884 37.8257 1.6845 37.9218 1.57583C37.9699 1.6845 37.9699 1.90186 38.066 1.90186C38.1141 1.6845 38.1141 1.52149 38.3544 1.57583C38.3544 1.46715 38.4024 1.41281 38.4986 1.41281C38.4986 1.24979 38.2582 1.24979 38.066 1.24979C38.066 1.35847 37.9699 1.46715 37.9218 1.24979C37.8737 1.24979 37.7776 1.24979 37.8257 1.14111C37.8737 1.14111 37.9699 1.14111 37.9218 1.24979C37.9699 1.24979 38.0179 1.24979 38.066 1.24979C38.0179 0.652066 38.4024 1.35847 38.7869 1.14111ZM33.9326 0.48905C33.8845 0.652067 33.6923 0.652067 33.5 0.652067C33.5481 0.48905 33.7884 0.54339 33.9326 0.48905ZM34.2209 0.652067C34.1729 0.597728 34.3171 0.760743 34.2209 0.652067V0.652067ZM31.1449 0.652067C31.1449 0.815083 31.0007 0.760743 30.9046 0.815082C30.9046 0.652067 31.0488 0.706405 31.1449 0.652067ZM31.7217 0.815082C31.6736 0.760743 31.8178 0.92376 31.7217 0.815082V0.815082ZM32.01 0.815082C31.9139 0.760743 32.1062 0.92376 32.01 0.815082V0.815082ZM28.7898 0.978098C28.7417 0.92376 28.8859 1.08678 28.7898 0.978098V0.978098ZM29.2224 0.978098C29.1743 0.92376 29.3185 1.08678 29.2224 0.978098V0.978098ZM30.6162 0.978098C30.5681 0.92376 30.7123 1.08678 30.6162 0.978098V0.978098ZM34.2209 0.978098C33.7403 0.489049 33.7884 1.52148 34.2209 0.978098V0.978098ZM31.4333 1.14111C30.0875 1.08677 32.1062 1.14111 31.4333 1.14111V1.14111ZM33.1155 0.978098C31.6255 0.760742 32.2023 1.46715 33.1155 0.978098V0.978098ZM33.6442 0.978098C33.6442 1.14111 33.4039 1.08677 33.2597 1.14111C33.2597 0.923759 33.5 0.978098 33.6442 0.978098ZM43.4971 1.14111C43.401 1.03244 43.5933 1.19545 43.4971 1.14111V1.14111ZM24.368 1.24979C24.3199 1.19545 24.4641 1.35847 24.368 1.24979V1.24979ZM24.8006 1.24979C24.7525 1.19545 24.8967 1.35847 24.8006 1.24979V1.24979ZM30.0395 1.24979C30.3759 0.815082 30.9527 1.46715 30.0395 1.24979C29.8472 1.35847 30.0875 1.46715 30.0395 1.24979ZM35.9993 1.24979C35.9512 1.19545 36.0954 1.35847 35.9993 1.24979V1.24979ZM27.9727 1.41281C27.9247 1.35847 28.0689 1.52148 27.9727 1.41281V1.41281ZM28.2611 1.41281C28.2131 1.35847 28.3572 1.52148 28.2611 1.41281V1.41281ZM29.2224 1.24979C28.3572 1.08678 28.934 1.73884 29.2224 1.24979V1.24979ZM29.5108 1.41281C29.4627 1.35847 29.6069 1.52148 29.5108 1.41281V1.41281ZM35.038 1.41281C34.99 1.35847 35.1341 1.52148 35.038 1.41281V1.41281ZM36.2877 1.41281C36.2396 1.35847 36.3838 1.52148 36.2877 1.41281V1.41281ZM37.5373 1.41281C37.4892 1.35847 37.6334 1.52148 37.5373 1.41281V1.41281ZM26.3386 1.41281C26.2905 1.57582 26.1463 1.57583 26.0502 1.57583C26.0502 1.41281 26.1944 1.46715 26.3386 1.41281ZM27.0115 1.57583C26.9634 1.52149 27.1076 1.6845 27.0115 1.57583V1.57583ZM27.5402 1.57583C27.4921 1.52149 27.6363 1.6845 27.5402 1.57583V1.57583ZM39.3156 1.73884C39.4118 1.03244 39.9885 1.6845 39.3156 1.73884C39.1234 1.84752 39.3637 1.9562 39.3156 1.73884ZM23.6951 1.57583C23.6951 1.73884 23.5029 1.6845 23.4067 1.73884C23.4067 1.57583 23.599 1.63016 23.6951 1.57583ZM30.0395 1.73884C29.9914 1.6845 30.1356 1.84752 30.0395 1.73884V1.73884ZM35.7109 2.22789C35.5667 2.11921 35.4706 1.90186 35.4706 1.57583C35.8551 1.57583 35.9032 2.01053 35.7109 2.22789ZM36.1435 1.57583C36.1435 1.73884 35.9993 1.6845 35.8551 1.73884C35.8551 1.57583 36.0473 1.63016 36.1435 1.57583ZM36.8164 1.73884C36.6722 1.73884 36.7683 1.52149 36.8164 1.73884C37.0086 1.73884 37.1047 1.52149 37.1047 1.90186C37.1528 1.90186 37.2009 1.90186 37.2489 1.90186C37.2489 1.73884 37.4412 1.79318 37.2489 1.90186C37.2489 2.01053 37.1528 2.06487 37.1047 1.90186C37.0086 1.84752 36.8644 1.90186 36.8164 1.73884ZM38.7869 1.73884C38.9311 1.14111 38.9311 2.39091 38.7869 1.73884V1.73884ZM22.5897 1.90186C22.5416 1.84752 22.6858 2.01053 22.5897 1.90186V1.90186ZM26.0502 1.90186C26.0021 1.84752 26.1463 2.01053 26.0502 1.90186V1.90186ZM28.2611 1.73884C28.2611 1.90186 28.0689 1.84752 27.9727 1.90186C27.9727 1.73884 28.165 1.79318 28.2611 1.73884ZM32.1542 2.22789C31.962 1.35847 32.5387 2.01053 32.1542 2.22789C31.5294 2.17355 32.1062 2.82562 32.1542 2.22789ZM33.1155 1.90186C33.0194 1.84752 33.2116 2.01053 33.1155 1.90186V1.90186ZM33.6442 1.90186C33.5961 1.84752 33.7403 2.01053 33.6442 1.90186V1.90186ZM34.0768 1.90186C34.0287 1.84752 34.1729 2.01053 34.0768 1.90186V1.90186ZM31.7217 2.06487C31.6736 2.01053 31.8178 2.17355 31.7217 2.06487V2.06487ZM34.2209 2.22789C34.2209 2.06487 34.3651 2.06487 34.3651 1.90186C34.4613 1.90186 34.5093 1.90186 34.6055 1.90186C34.7016 2.22789 34.4132 2.17355 34.2209 2.22789ZM36.4319 1.90186C36.4319 2.06487 36.2396 2.01053 36.1435 2.06487C36.1435 1.90186 36.3357 1.9562 36.4319 1.90186ZM36.576 2.06487C36.4799 2.01053 36.6722 2.17355 36.576 2.06487V2.06487ZM25.7618 2.22789C25.7138 2.17355 25.858 2.33657 25.7618 2.22789V2.22789ZM26.3386 2.22789C26.2425 2.17355 26.3867 2.33657 26.3386 2.22789V2.22789ZM33.5 2.22789C33.6923 1.57582 33.6923 2.82562 33.5 2.22789V2.22789ZM31.7217 2.22789C30.7604 2.11921 31.3372 2.77128 31.7217 2.22789V2.22789ZM32.5387 2.55392C32.1062 2.06487 33.0194 2.28223 32.5387 2.55392C32.1542 2.55392 32.6829 3.15165 32.5387 2.55392ZM32.9713 2.3909C32.9232 2.28223 33.0674 2.49958 32.9713 2.3909V2.3909ZM37.5373 2.3909C37.2009 2.87995 37.9699 2.01053 37.5373 2.3909V2.3909ZM21.34 2.55392C21.292 2.44524 21.4362 2.60826 21.34 2.55392V2.55392ZM26.0502 2.55392C26.0021 2.44524 26.1463 2.60826 26.0502 2.55392V2.55392ZM27.5402 2.55392C27.7324 1.90186 27.7324 3.15165 27.5402 2.55392V2.55392ZM29.3666 2.3909C29.3666 2.49958 29.1743 2.49958 29.0782 2.55392C29.0782 2.3909 29.2704 2.3909 29.3666 2.3909ZM29.7991 2.3909C29.7511 2.49958 29.6069 2.49958 29.5108 2.55392C29.5108 2.3909 29.655 2.3909 29.7991 2.3909ZM36.4319 2.55392C36.4319 2.33657 36.6241 2.44524 36.4319 2.55392C36.2396 2.60826 36.4319 2.71694 36.4319 2.55392ZM36.8164 2.55392C37.0086 1.90186 37.0086 3.15165 36.8164 2.55392V2.55392ZM38.2102 2.55392C38.2102 2.33657 38.4024 2.44524 38.2102 2.55392C38.0179 2.60826 38.2582 2.71694 38.2102 2.55392ZM38.6428 2.55392C38.6428 2.33657 38.835 2.44524 38.6428 2.55392C38.4505 2.60826 38.6428 2.71694 38.6428 2.55392ZM26.5789 2.6626C26.5308 2.60826 26.675 2.77128 26.5789 2.6626V2.6626ZM27.1557 2.6626C27.1076 2.60826 27.2518 2.77128 27.1557 2.6626V2.6626ZM27.8286 2.6626C27.7805 2.60826 27.9247 2.77128 27.8286 2.6626V2.6626ZM32.8271 2.6626C32.7791 2.60826 32.9232 2.77128 32.8271 2.6626V2.6626ZM33.9326 2.6626C33.8845 2.60826 34.0287 2.77128 33.9326 2.6626V2.6626ZM35.7109 2.6626C35.7109 2.49958 35.9512 2.60826 35.7109 2.6626C35.5187 2.77128 35.759 2.87995 35.7109 2.6626ZM25.4735 2.98863C25.0409 2.82562 25.6176 2.55392 25.906 2.6626C25.858 2.93429 25.4735 2.71694 25.4735 2.98863ZM31.5775 2.82562C31.4813 2.87996 31.2891 2.82562 31.2891 2.98863C30.7604 2.93429 31.5775 2.33657 31.5775 2.82562C32.1062 2.87996 31.5294 3.53202 31.5775 2.82562ZM33.5 2.82562C33.5 2.6626 33.7403 2.77128 33.5 2.82562C32.9232 2.71694 33.5 3.31467 33.5 2.82562ZM35.3264 2.98863C34.7496 2.93429 35.3264 2.28223 35.3264 2.98863C35.1822 3.6407 35.7109 3.04297 35.3264 2.98863ZM37.6815 2.98863C37.5373 2.33657 38.066 2.98863 37.6815 2.98863C37.2009 3.26033 38.1141 3.47768 37.6815 2.98863ZM40.2769 3.31466C39.8924 3.15165 40.4692 2.87995 40.4211 2.6626C40.8537 2.82562 40.2769 3.09731 40.2769 3.31466ZM43.0646 2.6626C43.0646 2.82562 42.9204 2.82562 42.7762 2.82562C42.7762 2.6626 42.9684 2.71694 43.0646 2.6626ZM43.2088 2.82562C43.1607 2.77128 43.3049 2.93429 43.2088 2.82562V2.82562ZM44.8429 2.82562C44.6987 2.87996 44.5545 2.87995 44.6026 3.15165C44.4103 3.15165 44.4584 2.87995 44.4584 2.6626C44.6026 2.71694 44.8429 2.6626 44.8429 2.82562C45.2274 2.39091 45.4677 3.26032 44.8429 3.15165C44.8429 3.04297 44.8429 2.93429 44.8429 2.82562ZM45.708 2.98863C45.5638 2.28223 46.3329 3.15165 45.708 2.98863C45.1313 2.82562 45.66 3.47768 45.708 2.98863ZM46.8135 2.6626C46.7654 2.87995 46.5732 2.82562 46.3809 2.82562C46.429 2.6626 46.6212 2.71694 46.8135 2.6626ZM49.8415 3.15165C49.6973 3.15165 49.5531 3.15165 49.457 3.15165C49.3608 2.6626 49.7934 2.60826 49.9857 2.82562C49.9857 2.87996 49.9857 2.93429 49.9857 2.98863C50.0818 2.98863 50.1298 2.87995 50.1298 2.6626C50.274 2.6626 50.4182 2.6626 50.5624 2.6626C50.5143 2.93429 50.5624 3.20599 50.274 3.15165C50.4663 3.69504 51.043 3.20599 51.3795 3.47768C50.995 3.85805 50.7547 3.80371 49.9857 3.91239C49.7453 4.02107 50.0337 4.12975 49.9857 4.40144C49.3608 4.29276 49.3608 4.51012 49.3128 4.72747C48.6399 4.83615 49.505 4.29276 49.0244 4.23842C48.9763 3.91239 49.505 4.18409 49.6973 4.07541C49.6973 3.96673 49.6973 3.85805 49.6973 3.80371C49.1686 3.74937 49.2647 3.369 49.8415 3.15165ZM22.5897 2.98863C22.5416 2.93429 22.6858 3.09731 22.5897 2.98863V2.98863ZM28.5495 3.15165C28.0208 2.87995 28.9821 2.6626 28.5495 3.15165C28.5495 3.6407 29.1263 2.98863 28.5495 3.15165ZM29.2224 2.98863C29.1743 2.93429 29.3185 3.09731 29.2224 2.98863V2.98863ZM32.01 2.98863C32.1542 2.39091 32.1542 3.6407 32.01 2.98863V2.98863ZM34.3651 3.15165C34.3651 3.04297 34.4613 2.98863 34.4613 2.82562C34.6055 2.87996 34.6055 2.98863 34.7496 2.98863C34.7496 3.15165 34.6055 3.15165 34.6055 3.31466C34.5093 3.26032 34.4613 3.15165 34.3651 3.15165ZM39.1714 2.82562C39.1714 2.98863 39.0273 2.98863 38.9311 2.98863C38.9311 2.82562 39.0753 2.87996 39.1714 2.82562ZM39.4598 2.98863C39.4598 2.82562 39.6521 2.87995 39.4598 2.98863C39.2676 3.09731 39.4598 3.20599 39.4598 2.98863ZM39.7482 2.98863C39.7001 2.93429 39.8443 3.09731 39.7482 2.98863V2.98863ZM41.2862 2.82562C41.2862 2.98863 41.094 2.98863 40.9978 2.98863C40.9978 2.82562 41.142 2.87996 41.2862 2.82562ZM44.0258 2.98863C43.9778 2.93429 44.122 3.09731 44.0258 2.98863V2.98863ZM48.0631 2.98863C48.0151 2.82562 48.2554 2.87995 48.0631 2.98863C47.8709 3.09731 48.0631 3.20599 48.0631 2.98863ZM26.4347 3.15165C26.3867 3.09731 26.5308 3.26032 26.4347 3.15165V3.15165ZM27.6844 3.15165C27.6363 3.09731 27.7805 3.26032 27.6844 3.15165V3.15165ZM30.472 3.15165C30.424 3.09731 30.5681 3.26032 30.472 3.15165V3.15165ZM30.9046 3.15165C30.8085 3.09731 30.9527 3.26032 30.9046 3.15165V3.15165ZM33.7884 3.15165C33.7884 2.98863 33.9806 3.04297 33.7884 3.15165C33.5961 3.26032 33.7884 3.369 33.7884 3.15165ZM35.7109 3.15165C35.6628 3.09731 35.807 3.26032 35.7109 3.15165V3.15165ZM43.3529 3.15165C43.3049 3.09731 43.4491 3.26032 43.3529 3.15165V3.15165ZM28.934 3.31466C28.8859 3.26032 29.0301 3.42334 28.934 3.31466V3.31466ZM37.9218 3.31466C37.8737 3.26032 38.0179 3.42334 37.9218 3.31466V3.31466ZM43.4971 3.80371C43.0165 3.42334 42.8723 3.69503 42.632 3.6407C42.7762 2.98863 45.3235 3.20599 45.8522 3.6407C46.5251 2.98863 48.2073 3.42334 49.0244 3.31466C48.7841 3.6407 49.1205 3.6407 48.8802 3.91239C48.4476 3.85805 48.4957 3.26032 47.7748 3.47768C47.5825 3.53202 47.6306 3.80371 47.4864 3.91239C47.5344 4.12974 47.7267 4.12975 47.9189 4.07541C47.8709 4.29276 47.7747 4.3471 47.6306 4.40144C47.4383 4.51012 47.6306 4.61879 47.6306 4.40144C47.3902 3.80371 46.9096 5.0535 46.6693 4.40144C45.8042 4.07541 45.2274 4.56446 44.3142 4.23842C44.4584 3.91239 45.1793 4.18409 45.5639 4.07541C45.3716 3.6407 44.1219 3.69503 45.4197 3.6407C44.8429 3.31466 44.0258 3.47768 43.6413 3.6407C43.6894 3.6407 43.7855 3.74937 43.6413 3.80371C43.6413 4.07541 43.5933 4.29276 43.4971 4.40144C43.5452 4.40144 43.6413 4.45578 43.6413 4.56446C43.7855 4.56446 43.9297 4.51012 43.8816 4.23842C43.7374 4.29276 43.8336 4.02107 43.8816 4.23842C44.2661 4.12975 43.7855 4.99916 44.17 4.89049C43.9778 5.43387 43.9778 4.51012 43.6413 4.72747C43.6413 4.67313 43.6413 4.61879 43.6413 4.56446C43.5452 4.56446 43.4491 4.56446 43.4971 4.40144C43.3529 4.40144 43.3049 4.29276 43.2088 4.23842C43.0165 4.3471 43.2088 4.45578 43.2088 4.23842C43.2088 4.02107 43.5452 4.12974 43.4971 3.80371ZM31.0007 3.47768C30.9527 3.42334 31.0968 3.58636 31.0007 3.47768V3.47768ZM31.7217 3.6407C31.7217 3.53202 31.7217 3.42334 31.7217 3.31466C31.8178 3.31466 31.9139 3.31466 32.01 3.31466C32.01 3.42334 32.01 3.53202 32.01 3.6407C31.9139 3.6407 31.8178 3.6407 31.7217 3.6407ZM41.3824 3.6407C41.3824 3.80371 41.2862 3.80371 41.2862 3.91239C41.094 3.85805 40.9978 3.58636 40.9978 3.31466C41.2382 3.26032 41.2862 3.53202 41.3824 3.6407C41.3824 3.53202 41.3824 3.42334 41.3824 3.31466C41.6227 3.31466 41.863 3.31466 42.1033 3.31466C42.0552 3.85805 41.7188 3.53202 41.9591 4.07541C42.1994 4.07541 42.3917 4.12975 42.5359 4.23842C42.4878 4.67313 41.911 4.56446 41.9591 4.07541C41.6707 4.02107 41.5746 3.80371 41.3824 3.6407ZM42.3917 3.91239C42.1994 3.91239 42.2475 3.53202 42.2475 3.31466C42.8242 3.26032 42.2956 3.6407 42.3917 3.91239ZM36.4319 4.07541C36.3838 3.6407 35.6628 4.02107 35.7109 3.47768C36.0473 3.91239 36.576 3.26032 36.8164 3.6407C36.9125 4.02107 36.1915 3.53202 36.4319 4.07541ZM37.2489 3.47768C37.2489 3.6407 37.1047 3.58636 36.9605 3.6407C36.9605 3.47768 37.1528 3.47768 37.2489 3.47768ZM37.6815 3.47768C37.6815 3.6407 37.4892 3.58636 37.3931 3.6407C37.3931 3.47768 37.5373 3.47768 37.6815 3.47768ZM38.2102 4.07541C37.8737 4.12975 38.3063 3.369 37.8257 3.6407C37.8257 3.369 38.1621 3.47768 38.3544 3.47768C38.3063 3.69504 38.1621 3.74937 38.2102 4.07541C38.4024 4.23842 38.5947 4.29276 38.9311 4.23842C38.835 4.61879 38.2102 4.29276 37.9218 4.40144C37.9699 4.18408 38.2102 4.23842 38.2102 4.07541ZM38.7869 3.47768C38.7869 3.6407 38.5947 3.58636 38.4986 3.6407C38.4986 3.47768 38.6908 3.47768 38.7869 3.47768ZM39.604 3.80371C39.5079 4.23842 39.4118 3.96673 39.0753 3.91239C39.0273 3.74937 39.2676 3.69503 39.0753 3.6407C39.2676 3.04297 39.2676 3.96673 39.604 3.80371C39.2195 3.31466 39.9405 3.47768 40.2769 3.47768C40.2769 3.58636 40.2769 3.6407 40.1808 3.6407C40.1808 3.74937 40.2769 3.80371 40.4211 3.80371C40.4692 4.07541 39.7963 4.02107 40.0366 3.6407C39.8443 3.6407 39.8443 3.80371 39.604 3.80371ZM40.7095 3.47768C40.7095 3.6407 40.5653 3.58636 40.4211 3.6407C40.4211 3.47768 40.6133 3.47768 40.7095 3.47768ZM32.3945 3.80371C32.3945 3.69503 32.5387 3.58636 32.5387 3.80371C33.3077 3.91239 33.6442 3.58636 34.3651 3.6407C34.3651 3.74937 34.3651 3.85805 34.3651 3.91239C34.5574 3.6407 35.038 3.58636 35.6148 3.6407C35.5667 3.96673 34.99 3.6407 35.038 4.07541C34.8938 3.80371 34.6535 3.69504 34.6055 4.23842C34.4132 4.23842 34.1729 4.23842 33.9326 4.23842C33.9326 3.96673 34.3171 4.18408 34.3651 3.91239C33.7884 3.85805 32.8752 4.12974 32.5387 3.80371C32.4907 3.80371 32.4426 3.80371 32.3945 3.80371C32.3465 4.07541 32.3465 4.45578 32.01 4.40144C31.962 4.18408 32.01 3.85805 31.7217 3.91239C31.6736 3.58636 32.2023 3.85805 32.3945 3.80371ZM43.8816 3.80371C44.0739 3.15165 44.0739 4.40144 43.8816 3.80371V3.80371ZM47.9189 3.91239C47.4864 3.74937 48.0631 3.47768 48.3034 3.6407C48.3034 3.85805 47.9189 3.69504 47.9189 3.91239ZM30.472 4.07541C30.2798 4.12975 30.3759 3.85805 30.472 4.07541C30.5681 4.07541 30.6162 4.12975 30.6162 4.23842C30.7123 4.45578 30.7604 4.23842 30.6162 4.23842C30.5201 4.23842 30.424 4.23842 30.472 4.07541ZM30.7604 4.07541C30.7123 4.02107 30.8565 4.18409 30.7604 4.07541V4.07541ZM31.2891 4.07541C31.241 4.02107 31.3852 4.18409 31.2891 4.07541V4.07541ZM35.8551 4.23842C35.4225 3.74937 36.3357 3.96673 35.8551 4.23842C35.3264 4.29276 35.9032 4.94483 35.8551 4.23842ZM36.7202 4.07541C36.6241 4.02107 36.7683 4.18409 36.7202 4.07541V4.07541ZM37.1047 4.07541C37.0567 4.02107 37.2009 4.18409 37.1047 4.07541V4.07541ZM28.1169 4.23842C28.0689 4.18409 28.2131 4.3471 28.1169 4.23842V4.23842ZM31.5775 4.56446C31.7697 4.61879 33.0674 4.83615 32.9713 4.07541C33.2597 4.02107 33.3077 4.40144 33.1155 4.40144C33.9326 4.78181 33.2597 4.51012 32.9713 5.0535C32.8271 4.23842 31.7217 5.43388 31.5775 4.56446ZM33.3558 4.23842C33.5961 4.78181 33.7403 3.6407 33.3558 4.23842V4.23842ZM35.6148 4.07541C35.5667 4.23842 35.4225 4.23842 35.3264 4.23842C35.3264 4.07541 35.4706 4.12975 35.6148 4.07541ZM40.1808 4.23842C39.2195 4.78181 39.4598 3.85805 40.1808 4.23842V4.23842ZM40.2769 4.40144C40.325 4.02107 40.8056 4.02107 40.9978 4.23842C40.9978 4.56446 40.5172 4.3471 40.2769 4.40144ZM41.2862 4.72747C41.2862 4.51012 41.2862 4.29276 41.2862 4.07541C41.5265 4.07541 41.5746 4.29276 41.8149 4.23842C41.8149 4.45578 41.5746 4.40144 41.3824 4.40144C41.4304 4.56446 41.5746 4.51012 41.6707 4.56446C41.6707 4.72747 41.4304 4.67313 41.2862 4.72747ZM42.7762 4.23842C42.7281 4.18409 42.8723 4.3471 42.7762 4.23842V4.23842ZM48.0631 4.23842C48.0151 4.18409 48.1593 4.3471 48.0631 4.23842V4.23842ZM48.8802 4.07541C48.8802 4.29276 48.6399 4.23842 48.4476 4.23842C48.4957 4.07541 48.736 4.12975 48.8802 4.07541ZM31.4333 4.40144C31.3852 4.3471 31.5294 4.51012 31.4333 4.40144V4.40144ZM36.4319 4.40144C36.576 3.91239 36.8164 4.56445 36.7202 4.89049C36.576 4.89049 36.4318 4.89049 36.2877 4.89049C36.2877 4.72747 36.8644 4.56446 36.4319 4.40144C36.3838 4.89049 35.8551 4.23842 36.4319 4.40144ZM36.9605 4.40144C36.6241 4.94483 37.4412 4.02107 36.9605 4.40144V4.40144ZM37.3931 4.40144C37.3931 4.23842 37.6334 4.18408 37.6815 4.40144C37.7296 4.61879 37.8257 4.40144 37.6815 4.40144C37.5854 4.40144 37.4892 4.40144 37.3931 4.40144C37.3931 4.61879 37.2009 4.51012 37.3931 4.40144ZM54.5516 4.23842C53.6865 4.07541 54.2633 4.72747 54.5516 4.23842V4.23842ZM25.089 4.56446C24.9928 4.51012 25.1851 4.67313 25.089 4.56446V4.56446ZM25.7618 4.56446C25.7138 4.51012 25.858 4.67313 25.7618 4.56446V4.56446ZM29.3666 4.40144C29.3185 4.56446 29.1263 4.56446 28.934 4.56446C28.9821 4.40144 29.2224 4.45578 29.3666 4.40144ZM33.7884 4.56446C33.9806 4.02107 34.1248 5.16218 33.7884 4.56446V4.56446ZM34.2209 4.72747C34.4132 4.18408 34.6535 4.67313 35.038 4.40144C35.038 4.78181 34.5574 4.72747 34.2209 4.72747ZM35.1822 4.56446C35.3264 3.96673 35.3264 5.16218 35.1822 4.56446V4.56446ZM22.1571 4.72747C22.109 4.67313 22.2532 4.83615 22.1571 4.72747V4.72747ZM38.066 4.72747C38.2582 4.07541 38.2582 5.3252 38.066 4.72747V4.72747ZM38.9311 4.72747C38.835 4.67313 39.0273 4.83615 38.9311 4.72747V4.72747ZM39.1714 4.72747C39.1234 4.67313 39.2676 4.83615 39.1714 4.72747V4.72747ZM39.7482 4.72747C39.7001 4.67313 39.8443 4.83615 39.7482 4.72747V4.72747ZM40.4211 4.72747C40.373 4.67313 40.5172 4.83615 40.4211 4.72747V4.72747ZM44.3142 4.72747C44.2661 4.67313 44.4103 4.83615 44.3142 4.72747V4.72747ZM50.274 4.72747C50.226 4.67313 50.3702 4.83615 50.274 4.72747V4.72747ZM50.9469 4.72747C50.8989 4.67313 51.043 4.83615 50.9469 4.72747V4.72747ZM52.0524 4.72747C52.0043 4.67313 52.1485 4.83615 52.0524 4.72747V4.72747ZM30.9046 4.89049C31.0968 5.37954 31.241 4.23842 30.9046 4.89049V4.89049ZM37.2489 4.72747C37.2489 4.89049 37.1047 4.83615 36.9605 4.89049C36.9605 4.72747 37.1528 4.72747 37.2489 4.72747ZM54.84 4.89049C54.792 4.83615 54.9362 4.99916 54.84 4.89049V4.89049ZM55.9455 4.89049C55.8974 4.83615 56.0416 4.99916 55.9455 4.89049V4.89049ZM27.6844 4.89049C27.7805 5.21652 26.7231 5.43387 26.8673 4.89049C27.1557 5.21652 27.2518 4.78181 27.6844 4.89049ZM27.8286 5.16218C27.8766 4.99916 28.0208 4.89049 28.2611 4.89049C28.2131 5.0535 28.0689 5.21652 27.8286 5.16218ZM28.6937 5.0535C28.5976 4.94483 28.7417 5.10784 28.6937 5.0535V5.0535ZM29.3666 5.0535C29.3185 4.94483 29.4627 5.10784 29.3666 5.0535V5.0535ZM29.7991 5.0535C29.703 4.94483 29.8472 5.10784 29.7991 5.0535V5.0535ZM34.3651 5.0535C34.269 4.94483 34.4132 5.10784 34.3651 5.0535V5.0535ZM35.038 4.89049C35.038 5.0535 34.8458 4.99916 34.7496 5.0535C34.7496 4.89049 34.9419 4.89049 35.038 4.89049ZM39.604 5.0535C39.4598 5.0535 39.5079 4.78181 39.604 5.0535C39.7001 5.0535 39.7482 5.16218 39.7482 5.3252C39.604 5.97726 40.1808 5.37954 39.7482 5.3252C39.6521 5.3252 39.604 5.21652 39.604 5.0535ZM40.8537 4.89049C40.8056 5.0535 40.6133 4.99916 40.4211 5.0535C40.4692 4.83615 40.7095 4.89049 40.8537 4.89049ZM41.142 5.0535C41.094 4.94483 41.2382 5.10784 41.142 5.0535V5.0535ZM41.9591 4.89049C41.9591 5.0535 41.7669 4.99916 41.6707 5.0535C41.6707 4.89049 41.863 4.89049 41.9591 4.89049ZM42.632 5.16218C42.5839 5.16218 42.4397 5.10784 42.5359 5.0535C43.3049 4.02107 43.9778 5.59689 42.632 5.16218ZM44.4584 5.0535C44.4103 4.94483 44.5545 5.10784 44.4584 5.0535V5.0535ZM45.5639 4.89049C45.5158 5.10784 45.2274 4.99916 44.9871 5.0535C45.0351 4.83615 45.3716 4.89049 45.5639 4.89049ZM46.3809 4.89049C45.5158 4.67313 46.0925 5.37954 46.3809 4.89049V4.89049ZM47.1019 4.89049C46.1887 4.67313 46.7654 5.37954 47.1019 4.89049V4.89049ZM48.0631 4.89049C48.0631 5.0535 47.8709 4.99916 47.7748 5.0535C47.7748 4.89049 47.9189 4.89049 48.0631 4.89049ZM49.1686 5.48821C48.9763 5.59689 48.8321 4.89049 48.736 5.3252C48.6399 5.3252 48.5918 5.3252 48.5918 5.16218C48.5918 5.10784 48.5918 4.99916 48.5918 4.89049C48.8321 4.89049 49.0725 4.89049 49.3128 4.89049C49.6012 5.10784 48.736 4.94483 49.1686 5.48821C49.3128 5.48821 49.2647 5.70557 49.1686 5.48821ZM50.4182 5.0535C50.4663 4.83615 51.6679 4.67313 51.5237 5.16218C51.3314 4.94483 50.8027 5.0535 50.4182 5.0535C50.4182 5.21652 50.1779 5.10784 50.4182 5.0535ZM52.0524 5.0535C51.4756 5.16218 52.0524 4.56445 52.0524 5.0535C52.1485 5.27086 52.2446 4.99916 52.0524 5.0535ZM52.9175 5.16218C52.9175 5.10784 52.9175 4.99916 52.9175 4.89049C52.9656 4.89049 53.0617 4.89049 53.1578 4.89049C53.1578 4.99916 53.1578 5.10784 53.1578 5.16218C53.0617 5.16218 52.9656 5.16218 52.9175 5.16218ZM54.2633 5.0535C54.1671 5.0535 54.1191 5.16218 54.1191 5.3252C53.9749 5.3252 53.9268 5.16218 53.7346 5.16218C53.8307 4.99916 54.023 4.89049 54.2633 4.89049C54.2633 4.94483 54.2633 4.99916 54.2633 5.0535C54.6478 5.0535 55.0323 5.0535 55.3687 5.0535C55.0803 5.27086 54.4555 5.43387 54.2633 5.0535ZM26.4347 5.16218C26.3867 5.10784 26.5308 5.27086 26.4347 5.16218V5.16218ZM31.7217 5.16218C31.6736 5.10784 31.8178 5.27086 31.7217 5.16218V5.16218ZM32.01 5.16218C31.9139 5.10784 32.1062 5.27086 32.01 5.16218V5.16218ZM32.2504 5.16218C32.2023 5.10784 32.3465 5.27086 32.2504 5.16218V5.16218ZM36.7202 5.16218C36.6241 5.10784 36.7683 5.27086 36.7202 5.16218V5.16218ZM37.3931 5.16218C37.3451 5.10784 37.4892 5.27086 37.3931 5.16218V5.16218ZM37.8257 5.16218C37.7296 5.10784 37.8737 5.27086 37.8257 5.16218V5.16218ZM38.066 5.16218C38.0179 5.10784 38.1621 5.27086 38.066 5.16218V5.16218ZM38.4986 5.16218C38.4986 4.99916 38.6908 5.10784 38.4986 5.16218C38.3063 5.27086 38.4986 5.37954 38.4986 5.16218ZM47.4864 5.16218C47.6786 4.56446 47.6786 5.81425 47.4864 5.16218V5.16218ZM49.5531 5.16218C49.505 5.10784 49.6492 5.27086 49.5531 5.16218V5.16218ZM24.9448 5.16218C24.9448 5.3252 24.7525 5.3252 24.6564 5.3252C24.6564 5.21652 24.8486 5.21652 24.9448 5.16218ZM25.4735 5.3252C25.6657 4.72747 25.6657 5.97726 25.4735 5.3252V5.3252ZM34.2209 5.3252C34.1729 5.27086 34.3171 5.43388 34.2209 5.3252V5.3252ZM36.1435 5.16218C36.1435 5.3252 35.9993 5.3252 35.8551 5.3252C35.8551 5.21652 36.0473 5.21652 36.1435 5.16218ZM36.9605 5.3252C37.2009 4.83615 37.297 5.97726 36.9605 5.3252V5.3252ZM38.7869 5.3252C38.7389 5.27086 38.8831 5.43388 38.7869 5.3252V5.3252ZM41.8149 5.16218C41.8149 5.3252 41.6707 5.3252 41.5265 5.3252C41.5265 5.21652 41.7188 5.21652 41.8149 5.16218ZM23.4067 5.48821C23.3587 5.43388 23.5029 5.59689 23.4067 5.48821V5.48821ZM27.6844 5.48821C27.6363 5.43388 27.7805 5.59689 27.6844 5.48821V5.48821ZM32.5387 5.48821C32.4907 5.43388 32.6349 5.59689 32.5387 5.48821V5.48821ZM37.9218 5.48821C37.8737 5.43388 38.0179 5.59689 37.9218 5.48821V5.48821ZM44.3142 5.48821C44.4584 4.89049 44.4584 6.14028 44.3142 5.48821V5.48821ZM45.708 5.3252C45.708 5.48821 45.5158 5.48821 45.4197 5.48821C45.4197 5.3252 45.6119 5.37954 45.708 5.3252ZM54.84 5.48821C54.792 5.43388 54.9362 5.59689 54.84 5.48821V5.48821ZM25.2331 5.65123C25.137 5.59689 25.2812 5.75991 25.2331 5.65123V5.65123ZM25.7618 5.65123C25.7138 5.59689 25.858 5.75991 25.7618 5.65123V5.65123ZM26.7231 5.65123C26.675 5.59689 26.8192 5.75991 26.7231 5.65123V5.65123ZM34.7496 5.65123C34.7016 5.59689 34.8458 5.75991 34.7496 5.65123V5.65123ZM48.736 5.65123C48.688 5.59689 48.8321 5.75991 48.736 5.65123V5.65123ZM50.4182 5.48821C50.4182 5.65123 50.226 5.59689 50.1298 5.65123C50.1298 5.48821 50.274 5.54255 50.4182 5.48821ZM53.7346 5.65123C53.6865 5.59689 53.8307 5.75991 53.7346 5.65123V5.65123ZM54.5516 5.65123C54.071 5.16218 54.1191 6.24896 54.5516 5.65123V5.65123ZM27.8286 5.81425C27.7805 5.75991 27.9247 5.92292 27.8286 5.81425V5.81425ZM37.8257 5.81425C37.7296 5.75991 37.8737 5.92292 37.8257 5.81425V5.81425ZM27.0115 5.97726C26.9634 5.92292 27.1076 6.08594 27.0115 5.97726V5.97726ZM35.1822 5.97726C35.1341 5.92292 35.2783 6.08594 35.1822 5.97726V5.97726ZM45.1313 5.97726C45.0832 5.92292 45.2274 6.08594 45.1313 5.97726V5.97726ZM57.4835 5.97726C57.3874 5.92292 57.5316 6.08594 57.4835 5.97726V5.97726ZM32.6829 6.14028C32.6349 6.08594 32.7791 6.24895 32.6829 6.14028V6.14028ZM58.8293 6.14028C58.7812 6.08594 58.9254 6.24895 58.8293 6.14028V6.14028ZM60.3673 6.14028C60.2231 6.14028 60.2712 5.92292 60.3673 6.14028C60.4154 6.57499 60.944 5.97726 60.3673 6.14028ZM25.089 6.30329C24.9928 6.19462 25.1851 6.41197 25.089 6.30329V6.30329ZM39.7482 6.30329C39.4118 6.79234 40.2288 5.92292 39.7482 6.30329V6.30329ZM40.4211 6.14028C39.7482 6.52065 40.9017 6.52065 40.4211 6.14028V6.14028ZM40.7095 6.30329C40.8537 5.65123 40.8537 6.90102 40.7095 6.30329V6.30329ZM43.4971 6.30329C43.401 6.19462 43.5933 6.41197 43.4971 6.30329V6.30329ZM44.17 6.30329C44.1219 6.19462 44.2661 6.41197 44.17 6.30329V6.30329ZM54.84 6.30329C54.792 6.19462 54.9362 6.41197 54.84 6.30329V6.30329ZM61.9053 6.30329C62.2898 5.70557 62.3379 6.738 61.9053 6.30329V6.30329ZM39.4598 6.30329C39.3637 6.30329 39.1714 6.3033 39.1714 6.46631C39.3156 6.41197 39.4598 6.41197 39.4598 6.30329ZM41.8149 6.30329C41.7669 6.52065 41.4785 6.41197 41.2862 6.46631C41.2862 6.24896 41.6227 6.30329 41.8149 6.30329ZM63.2991 6.30329C63.2511 6.46631 63.0108 6.41197 62.8666 6.46631C62.8666 6.24896 63.1069 6.30329 63.2991 6.30329ZM26.1944 6.57499C26.0983 6.52065 26.2905 6.68367 26.1944 6.57499V6.57499ZM35.8551 6.46631C35.8551 6.57499 35.7109 6.57499 35.6148 6.57499C35.6148 6.46631 35.759 6.46631 35.8551 6.46631ZM37.2489 6.46631C37.2489 6.57499 37.1047 6.57499 36.9605 6.57499C36.9605 6.46631 37.1528 6.46631 37.2489 6.46631ZM37.5373 6.57499C37.4892 6.52065 37.6334 6.68367 37.5373 6.57499V6.57499ZM23.9835 6.73801C23.8874 6.68367 24.0316 6.84668 23.9835 6.73801V6.73801ZM33.6442 6.57499C33.6442 6.73801 33.5 6.73801 33.3558 6.73801C33.4039 6.57499 33.5481 6.62933 33.6442 6.57499ZM58.0122 6.73801C57.9641 6.68367 58.1083 6.84668 58.0122 6.73801V6.73801ZM21.1958 6.90102C21.1478 6.84668 21.292 7.0097 21.1958 6.90102V6.90102ZM32.3945 6.73801C32.3945 6.90102 32.2504 6.90102 32.1542 6.90102C32.1542 6.73801 32.2984 6.79235 32.3945 6.73801ZM62.0495 6.90102C61.9534 6.84668 62.0976 7.0097 62.0495 6.90102V6.90102ZM27.9727 7.06404C28.1169 6.46631 28.1169 7.66176 27.9727 7.06404V7.06404ZM25.4735 7.39007C25.4254 7.33573 25.5696 7.49875 25.4735 7.39007V7.39007ZM36.1435 0.326035C36.9605 0.54339 35.6148 0.271696 35.8551 0.815082C36.1435 0.597727 36.7683 0.815083 36.9605 0.48905C36.8164 0.48905 36.576 0.54339 36.576 0.326035C36.6722 0.326035 36.8164 0.326033 36.8164 0.163017C36.6241 0.271695 36.1435 1.61942e-06 36.1435 0.326035ZM36.9605 0.326035C36.9125 0.271697 37.0567 0.434712 36.9605 0.326035V0.326035ZM37.3931 0.326035C37.3931 0.163019 37.5854 0.217357 37.3931 0.326035V0.326035ZM43.0646 0.326035C43.0646 0.163019 43.2568 0.217357 43.0646 0.326035V0.326035ZM44.17 0.326035C44.3142 0.326035 44.5545 0.380371 44.6026 0.163017C44.4103 0.217355 44.2181 0.163019 44.17 0.326035ZM44.9871 0.326035C44.8429 0.380373 44.939 0.108679 44.9871 0.326035V0.326035ZM45.1313 0.326035C45.1313 0.163019 45.3235 0.217357 45.1313 0.326035V0.326035ZM45.5639 0.326035C45.5158 0.271697 45.66 0.434712 45.5639 0.326035V0.326035ZM46.0925 0.326035C46.0445 0.271697 46.1887 0.434712 46.0925 0.326035V0.326035ZM46.3809 0.326035C46.477 0.326035 46.6693 0.326033 46.6693 0.163017C46.5732 0.217355 46.3809 0.163019 46.3809 0.326035ZM48.2073 0.326035C48.1112 0.271697 48.2554 0.434712 48.2073 0.326035V0.326035ZM48.4476 0.326035C48.3996 0.271697 48.5438 0.434712 48.4476 0.326035V0.326035ZM37.3931 0.326035C36.9605 0.380373 37.5373 0.978099 37.3931 0.326035V0.326035ZM38.7869 0.48905C38.7869 1.07961e-06 39.3637 0.652067 38.7869 0.48905V0.48905ZM39.3156 0.48905C39.2676 0.434712 39.4118 0.597728 39.3156 0.48905V0.48905ZM39.7482 0.48905C39.7001 0.434712 39.8443 0.597728 39.7482 0.48905V0.48905ZM43.0646 0.326035C42.8723 0.434712 43.0646 0.54339 43.0646 0.326035V0.326035ZM43.7374 0.48905C43.6894 0.434712 43.8336 0.597728 43.7374 0.48905V0.48905ZM44.9871 0.326035C45.0832 0.706406 44.7468 0.543389 44.7468 0.815082C44.8429 0.815082 44.8429 0.978097 44.8429 1.14111C44.939 1.35847 45.0351 1.08677 44.8429 1.14111C44.6987 1.08677 44.6026 1.14111 44.6026 1.24979C44.7468 1.35847 44.7948 1.57583 44.9871 1.57583C45.0832 1.41281 45.1793 1.24979 45.4197 1.24979C45.0351 1.52148 45.6119 1.79318 45.708 1.41281C45.6119 1.14111 45.2755 1.19545 45.1313 0.978098C45.0351 0.652066 46.0925 0.923761 45.5639 0.652067C45.2755 0.706405 45.1313 0.597728 45.1313 0.326035C45.0832 0.326035 45.0351 0.326035 44.9871 0.326035ZM38.2102 0.48905C37.2009 0.326034 37.7776 0.978099 38.2102 0.48905V0.48905ZM40.1808 0.652067C39.7001 0.923761 39.4598 0.489049 39.1714 0.978098C39.5079 0.86942 40.2769 1.24979 40.1808 0.652067ZM44.3142 0.978098C43.8336 0.543388 45.0352 0.597727 44.3142 0.978098V0.978098ZM46.3809 0.652067C45.5158 0.48905 46.0925 1.14111 46.3809 0.652067V0.652067ZM46.5251 0.815082C46.8135 0.706405 47.4383 0.978099 47.4864 0.652067C47.198 0.760743 46.5732 0.434711 46.5251 0.815082ZM47.6306 0.815082C48.4476 0.271696 48.5918 1.19545 47.6306 0.815082V0.815082ZM50.9469 0.815082C50.5143 0.543389 49.1686 0.543389 48.736 0.815082C49.4089 1.03244 50.0337 0.706405 50.9469 0.815082ZM50.9469 0.815082C50.9469 0.869421 50.9469 0.92376 50.9469 0.978098C51.1872 0.978098 51.3314 0.869421 51.3795 0.652067C51.1392 0.597728 51.1392 0.815082 50.9469 0.815082ZM51.764 0.815082C51.2353 0.978098 51.764 0.326034 51.764 0.815082V0.815082ZM52.0524 0.815082C52.1485 0.760743 52.3407 0.815083 52.3407 0.652067C52.2446 0.706405 52.0524 0.652067 52.0524 0.815082ZM51.764 0.815082C51.8601 1.03244 51.9562 0.815082 51.764 0.815082V0.815082ZM52.9175 0.978098C53.0617 0.92376 53.302 0.978098 53.302 0.815082C53.1578 0.815082 52.9175 0.760742 52.9175 0.978098ZM53.8788 0.978098C53.7826 0.92376 53.9749 1.08678 53.8788 0.978098V0.978098ZM54.84 0.978098C54.792 0.92376 54.9362 1.08678 54.84 0.978098V0.978098ZM55.1284 0.978098C55.0323 0.92376 55.1765 1.08678 55.1284 0.978098V0.978098ZM55.5129 0.978098C55.4648 0.92376 55.609 1.08678 55.5129 0.978098V0.978098ZM56.3781 1.14111C56.4742 1.08677 56.6184 1.14111 56.6184 0.978098C56.5222 0.978098 56.3781 0.978097 56.3781 1.14111ZM38.7869 1.24979C38.835 1.24979 38.8831 1.24979 38.9311 1.24979C38.9311 1.14111 38.8831 1.14111 38.7869 1.14111C38.7869 1.19545 38.7869 1.24979 38.7869 1.24979ZM46.6693 1.14111C45.7561 0.923759 46.3809 1.57582 46.6693 1.14111V1.14111ZM46.8135 1.24979C46.7654 1.19545 46.9096 1.35847 46.8135 1.24979V1.24979ZM47.198 1.24979C47.3422 1.24979 47.4864 1.24979 47.4864 1.14111C47.3902 1.14111 47.2461 1.14111 47.198 1.24979ZM47.7748 1.24979C47.967 1.79318 48.1112 0.652066 47.7748 1.24979V1.24979ZM48.2073 1.24979C48.3515 1.24979 48.5918 1.30413 48.5918 1.14111C48.4476 1.14111 48.2073 1.08678 48.2073 1.24979ZM48.8802 1.14111C48.8802 1.24979 48.8802 1.30413 48.8802 1.41281C48.9763 1.41281 49.0725 1.41281 49.1686 1.41281C49.1686 1.30413 49.1686 1.24979 49.1686 1.14111C49.0725 1.14111 48.9763 1.14111 48.8802 1.14111ZM49.5531 1.41281C49.1686 0.92376 50.5143 1.14111 49.5531 1.41281V1.41281ZM51.3795 1.24979C50.8508 1.46715 50.5143 0.86942 50.4182 1.41281C50.8027 1.57582 51.0911 1.63016 51.3795 1.24979ZM50.1298 1.41281C50.0818 1.35847 50.226 1.52148 50.1298 1.41281V1.41281ZM52.4849 1.24979C51.5717 1.08678 52.1966 1.73884 52.4849 1.24979V1.24979ZM53.0136 1.57583C52.3888 1.73884 52.7733 0.869422 53.0136 1.57583V1.57583ZM53.302 1.41281C53.3981 1.41281 53.5904 1.41281 53.5904 1.24979C53.4943 1.30413 53.302 1.30413 53.302 1.41281ZM53.8788 1.24979C53.8788 1.35847 53.8788 1.46715 53.8788 1.57583C53.8788 1.6845 53.8788 1.79318 54.023 1.73884C54.023 1.46715 54.4555 1.63016 54.4075 1.24979C54.023 1.24979 54.1191 1.52148 53.8788 1.24979ZM47.3422 1.57583C47.5344 0.978099 47.5344 2.22789 47.3422 1.57583V1.57583ZM48.2073 1.57583C48.1112 1.52149 48.2554 1.6845 48.2073 1.57583V1.57583ZM48.5918 1.57583C48.5438 1.52149 48.6879 1.6845 48.5918 1.57583V1.57583ZM54.5516 1.57583C54.6478 1.57583 54.84 1.57582 54.84 1.41281C54.7439 1.46715 54.5516 1.41281 54.5516 1.57583ZM55.1284 1.57583C55.0323 1.52149 55.1765 1.6845 55.1284 1.57583V1.57583ZM55.8013 1.57583C55.8974 1.57583 56.0897 1.57582 56.0897 1.41281C55.9935 1.46715 55.8013 1.41281 55.8013 1.57583ZM56.4742 1.57583C56.4261 1.52149 56.5703 1.6845 56.4742 1.57583V1.57583ZM46.6693 1.73884C46.6212 1.6845 46.7654 1.84752 46.6693 1.73884V1.73884ZM57.4835 1.73884C57.3874 1.6845 57.5316 1.84752 57.4835 1.73884V1.73884ZM57.868 1.73884C57.8199 1.6845 57.9641 1.84752 57.868 1.73884V1.73884ZM45.5639 1.90186C46.0925 1.35847 46.2367 2.33657 45.5639 1.90186V1.90186ZM47.1019 1.73884C46.8615 2.22789 47.7748 2.17355 47.7748 1.90186C47.4383 1.9562 47.2461 1.90186 47.1019 1.73884ZM48.736 1.73884C48.736 1.84752 48.736 1.9562 48.736 2.06487C48.8321 2.06487 48.9283 2.06487 49.0244 2.06487C49.0244 1.9562 49.0244 1.84752 49.0244 1.73884C48.9283 1.73884 48.8321 1.73884 48.736 1.73884ZM46.3809 2.06487C46.477 2.01053 46.6693 2.06487 46.6693 1.90186C46.5732 1.9562 46.3809 1.90186 46.3809 2.06487ZM47.9189 2.06487C48.0151 2.01053 48.2073 2.06487 48.2073 1.90186C48.0631 1.9562 47.9189 1.90186 47.9189 2.06487ZM49.1686 2.06487C49.3128 1.46715 49.3128 2.6626 49.1686 2.06487V2.06487ZM49.5531 2.06487C49.7453 2.28223 50.274 2.28223 50.274 1.90186C50.0818 2.01053 49.5531 1.73884 49.5531 2.06487ZM51.5237 2.06487C50.9469 1.52149 51.1872 2.55392 51.5237 2.06487V2.06487ZM51.764 2.06487C51.7159 2.01053 51.8601 2.17355 51.764 2.06487V2.06487ZM52.0524 2.06487C52.0043 2.01053 52.1485 2.17355 52.0524 2.06487V2.06487ZM53.7346 2.22789C53.4943 1.84752 52.6772 1.90186 53.0136 2.3909C53.0617 2.17355 53.4462 2.17355 53.4462 2.3909C53.302 2.3909 52.9656 2.93429 53.302 2.98863C53.3981 2.71694 53.5423 2.98863 53.7346 2.98863C53.6865 2.60826 53.4462 2.49958 53.7346 2.22789ZM53.7346 2.22789C53.8307 2.22789 53.9268 2.22789 54.023 2.22789C54.023 2.11921 54.023 2.01053 54.023 1.90186C53.7826 1.84752 53.7346 2.01053 53.7346 2.22789ZM40.4211 2.06487C40.4692 2.22789 40.5653 2.11921 40.5653 2.06487C40.5172 2.06487 40.4692 2.06487 40.4211 2.06487ZM48.3034 2.22789C48.4476 2.17355 48.5918 2.22789 48.5918 2.06487C48.4957 2.11921 48.3515 2.06487 48.3034 2.22789ZM52.4849 2.22789C52.4369 2.17355 52.5811 2.33657 52.4849 2.22789V2.22789ZM54.5516 2.22789C54.6478 2.17355 54.84 2.22789 54.84 2.06487C54.7439 2.11921 54.5516 2.06487 54.5516 2.22789ZM54.9842 2.22789C54.9362 2.17355 55.0803 2.33657 54.9842 2.22789V2.22789ZM44.9871 2.3909C44.9871 2.17355 45.2274 2.28223 44.9871 2.3909V2.3909ZM46.9577 2.3909C46.7654 2.3909 46.8615 2.11921 46.9577 2.3909V2.3909ZM52.0524 2.6626C52.1485 1.9562 51.8601 2.3909 51.764 2.6626C51.8601 2.6626 51.9562 2.6626 52.0524 2.6626ZM57.1951 2.3909C57.1471 2.28223 57.2912 2.49958 57.1951 2.3909V2.3909ZM40.1808 2.55392C40.2288 2.55392 40.2288 2.55392 40.2769 2.55392C40.325 2.3909 40.2288 2.3909 40.1808 2.3909C40.1808 2.44524 40.1808 2.49958 40.1808 2.55392ZM54.4075 2.55392C54.2633 2.55392 54.3113 2.28223 54.4075 2.55392V2.55392ZM58.1564 2.55392C58.1083 2.44524 58.2525 2.60826 58.1564 2.55392V2.55392ZM49.0244 2.55392C48.9763 2.6626 49.0725 2.6626 49.1686 2.6626C49.1686 2.55392 49.1205 2.55392 49.0244 2.55392ZM51.0911 2.82562C50.9469 2.17355 51.5237 2.82562 51.0911 2.82562V2.82562ZM51.764 2.6626C51.6679 2.60826 51.5717 2.49958 51.3795 2.55392C51.3314 2.98863 51.764 2.93429 51.9082 3.15165C51.9562 2.87995 52.8214 2.82561 52.3407 2.55392C52.3407 2.6626 52.1485 2.6626 52.0524 2.6626C52.0524 2.77128 52.0524 2.87996 51.9082 2.82562C51.8601 2.82562 51.764 2.82562 51.764 2.6626ZM52.7733 2.6626C52.5811 2.71694 52.6772 2.44524 52.7733 2.6626V2.6626ZM52.7733 2.6626C52.9656 3.26032 53.2059 2.17355 52.7733 2.6626V2.6626ZM54.4075 2.55392C54.3594 2.71694 53.6385 2.98863 54.2633 2.98863C54.2633 2.82562 54.5036 2.82562 54.5516 2.98863C54.6958 2.93429 54.792 2.87995 54.84 2.6626C54.7439 2.60826 54.5997 2.49958 54.4075 2.55392ZM55.1284 2.82562C55.0803 2.6626 55.3207 2.77128 55.1284 2.82562V2.82562ZM55.5129 2.82562C55.1765 3.369 55.9935 2.44525 55.5129 2.82562V2.82562ZM56.3781 3.47768C56.5703 3.53202 56.5703 3.31466 56.7626 3.31466C56.7626 3.47768 56.8106 3.58636 56.9067 3.6407C56.9548 2.87995 57.1471 3.91239 57.5796 3.6407C57.6758 3.09731 56.7145 3.369 57.1951 2.82562C56.6664 2.98863 56.33 2.44525 56.2339 2.98863C56.4261 2.98863 56.7626 2.93429 56.7626 3.15165C56.3781 3.15165 56.0416 3.15165 56.3781 3.47768ZM54.9842 2.98863C55.0803 3.04297 55.0803 2.93429 55.1284 2.82562C54.9842 2.82562 54.9842 2.87995 54.9842 2.98863ZM55.8013 2.98863C55.7532 2.93429 55.8974 3.09731 55.8013 2.98863V2.98863ZM58.4448 3.15165C58.3006 2.49958 57.7238 3.26033 57.4835 2.82562C57.4354 3.42334 58.2525 2.98863 58.0122 3.80371C58.2044 3.69503 58.7331 3.96673 58.6851 3.6407C58.3486 3.69503 58.1083 3.58636 58.1564 3.15165C58.2525 3.15165 58.3486 3.15165 58.4448 3.15165ZM49.8415 3.15165C49.8415 3.04297 49.8895 2.98863 49.9857 2.98863C49.9857 3.04297 49.9857 3.09731 49.9857 3.15165C49.9376 3.15165 49.8895 3.15165 49.8415 3.15165ZM53.4462 3.31466C53.4462 3.26032 53.4462 3.20599 53.4462 3.15165C53.1098 3.20599 52.9175 3.15165 52.7733 2.98863C52.7733 3.20599 52.7253 3.26032 52.6291 3.31466C52.8214 3.53202 53.2059 3.369 53.4462 3.31466ZM53.7346 2.98863C53.8307 3.20599 53.8788 2.98863 53.7346 2.98863V2.98863ZM54.9842 2.98863C54.792 3.09731 54.9842 3.20599 54.9842 2.98863V2.98863ZM58.6851 3.15165C58.637 3.09731 58.7812 3.26032 58.6851 3.15165V3.15165ZM58.9735 3.15165C58.9254 3.09731 59.0696 3.26032 58.9735 3.15165V3.15165ZM49.9857 3.15165C49.9857 3.20599 49.9857 3.26032 49.9857 3.31466C50.1298 3.26032 50.0818 3.15165 49.9857 3.15165ZM51.9082 3.15165C51.9082 3.31466 51.6679 3.26032 51.6679 3.47768C51.8601 3.42334 51.9082 3.6407 52.0524 3.6407C52.0524 3.42334 52.1004 3.369 52.1966 3.31466C52.1966 3.15165 52.0524 3.20599 51.9082 3.15165ZM52.6291 3.31466C52.533 3.04297 52.3888 3.31466 52.1966 3.31466C52.2927 3.58636 52.4369 3.31466 52.6291 3.31466ZM55.3687 3.47768C55.4168 2.82562 55.9935 3.47768 55.3687 3.47768V3.47768ZM58.4448 3.15165C58.4928 3.369 58.589 3.15165 58.4448 3.15165V3.15165ZM60.5115 3.31466C60.4634 3.26032 60.6076 3.42334 60.5115 3.31466V3.31466ZM55.8013 3.31466C55.8013 3.42334 55.8013 3.53202 55.8013 3.6407C55.8974 3.6407 55.9935 3.6407 56.0897 3.6407C56.0897 3.53202 56.0897 3.42334 56.0897 3.31466C55.9935 3.31466 55.8974 3.31466 55.8013 3.31466ZM43.4971 3.6407C43.3049 3.6407 43.401 3.369 43.4971 3.6407V3.6407ZM45.9964 3.6407C46.0925 3.6407 46.2367 3.6407 46.2367 3.80371C46.1406 3.74937 45.9964 3.74937 45.9964 3.6407C45.9484 3.6407 45.9003 3.6407 45.8522 3.6407C45.8522 3.74937 45.8042 3.74937 45.708 3.80371C45.708 4.18408 46.1406 4.07541 46.5251 4.07541C46.7174 4.02107 46.5251 3.96673 46.5251 3.80371C46.429 3.80371 46.3809 3.6407 46.5251 3.6407C46.6212 3.369 45.8522 3.369 45.9964 3.6407ZM46.6693 3.6407C46.7174 3.6407 46.7654 3.6407 46.8135 3.6407C46.7654 3.42334 46.6693 3.53202 46.6693 3.6407ZM46.9577 3.6407C46.8615 3.53202 47.0538 3.74937 46.9577 3.6407V3.6407ZM47.198 3.6407C47.3422 3.58636 47.4864 3.6407 47.4864 3.47768C47.3902 3.47768 47.2461 3.47768 47.198 3.6407ZM55.2245 3.47768C55.2726 3.6407 55.3687 3.53202 55.3687 3.47768C55.3207 3.47768 55.2726 3.47768 55.2245 3.47768ZM56.3781 3.47768C56.1377 3.58636 56.3781 3.6407 56.3781 3.47768V3.47768ZM43.4971 3.80371C43.5452 3.80371 43.5933 3.80371 43.6413 3.80371C43.6413 3.74937 43.6413 3.69503 43.6413 3.6407C43.5933 3.6407 43.5452 3.6407 43.4971 3.6407C43.4971 3.69503 43.4971 3.74937 43.4971 3.80371ZM46.5251 3.80371C46.6212 3.80371 46.6693 3.69503 46.6693 3.6407C46.6212 3.6407 46.5732 3.6407 46.5251 3.6407C46.5251 3.69503 46.5251 3.74937 46.5251 3.80371ZM59.1176 3.80371C59.1176 3.58636 59.3099 3.69503 59.1176 3.80371V3.80371ZM59.5502 3.80371C59.5022 3.69503 59.6463 3.85805 59.5502 3.80371V3.80371ZM59.9347 3.80371C59.7905 3.80371 59.8867 3.53202 59.9347 3.80371V3.80371ZM46.9577 3.91239C46.6212 4.45578 47.3902 3.53202 46.9577 3.91239V3.91239ZM54.9842 3.91239C54.792 3.96673 54.8881 3.69504 54.9842 3.91239V3.91239ZM56.0897 4.07541C56.0897 3.91239 56.0416 3.80371 55.9455 3.80371C55.8974 3.96673 55.6571 3.91239 55.6571 4.07541C55.8013 4.07541 55.9455 4.07541 56.0897 4.07541ZM56.4742 3.91239C56.4261 3.85805 56.5703 4.02107 56.4742 3.91239V3.91239ZM59.1176 3.80371C58.9254 3.85805 59.1176 3.96673 59.1176 3.80371V3.80371ZM59.9347 3.80371C60.127 4.23842 60.7037 3.58636 59.9347 3.80371V3.80371ZM60.6557 3.91239C60.7999 3.91239 61.0402 3.96673 61.0402 3.80371C60.896 3.80371 60.6557 3.74937 60.6557 3.91239ZM61.1844 3.91239C61.1363 3.85805 61.2805 4.02107 61.1844 3.91239V3.91239ZM51.764 4.07541C51.9562 4.07541 52.0043 4.3471 52.0524 4.07541C52.0524 3.91239 51.812 3.91239 51.764 4.07541ZM58.0122 3.91239C58.2525 4.51012 57.5316 4.02107 57.5796 4.40144C57.8199 4.40144 58.0603 4.40144 58.3006 4.40144C58.3006 4.18408 58.3486 4.07541 58.4448 3.91239C58.3006 3.91239 58.1564 3.91239 58.0122 3.91239ZM62.434 4.07541C62.3859 4.02107 62.5301 4.18409 62.434 4.07541V4.07541ZM56.0897 4.07541C56.0897 4.18409 56.0897 4.29276 56.0897 4.40144C56.2339 4.40144 56.378 4.40144 56.4742 4.40144C56.5703 4.07541 56.2819 4.12975 56.0897 4.07541ZM56.7626 4.07541C56.5703 4.56446 57.4835 4.51012 57.4835 4.23842C57.2912 4.12975 57.099 4.02107 56.7626 4.07541ZM59.1176 4.23842C58.9254 4.02107 58.4448 4.02107 58.4448 4.40144C58.8293 4.29276 58.7812 4.61879 59.1176 4.56446C59.1176 4.45578 59.1176 4.3471 59.1176 4.23842ZM59.1176 4.23842C59.1176 4.07541 59.3099 4.12975 59.1176 4.23842V4.23842ZM59.6944 4.07541C59.6944 4.29276 59.5983 4.45578 59.5502 4.56446C59.6463 4.56446 59.7425 4.56446 59.8386 4.56446C59.8867 4.56446 59.9828 4.56446 59.9347 4.40144C59.7905 4.40144 59.8386 4.12975 59.6944 4.07541ZM46.6693 4.40144C46.6693 4.23842 46.8615 4.29276 46.6693 4.40144V4.40144ZM52.6291 4.56446C52.5811 4.3471 52.8214 4.45578 52.6291 4.56446V4.56446ZM52.9175 4.56446C52.8214 4.51012 52.9656 4.67313 52.9175 4.56446V4.56446ZM60.7999 4.72747C60.7037 4.67313 60.896 4.83615 60.7999 4.72747V4.72747ZM61.0402 4.72747C61.2805 4.61879 61.8572 4.89049 61.9053 4.56446C61.665 4.67313 61.0882 4.3471 61.0402 4.72747ZM62.0495 4.72747C61.9534 4.67313 62.0976 4.83615 62.0495 4.72747V4.72747ZM62.7224 4.89049C62.6743 4.83615 62.8185 4.99916 62.7224 4.89049V4.89049ZM60.6557 5.0535C60.6076 4.94483 60.7518 5.10784 60.6557 5.0535V5.0535ZM61.4727 5.0535C61.2805 4.78181 60.896 5.05351 60.7999 5.3252C61.1363 5.37954 61.4727 5.37954 61.4727 5.0535ZM61.6169 5.16218C61.3285 5.92292 61.9053 4.40144 61.6169 5.16218V5.16218ZM62.0495 5.16218C61.9534 5.10784 62.0976 5.27086 62.0495 5.16218V5.16218ZM62.434 5.3252C62.6263 4.72747 62.6263 5.97726 62.434 5.3252V5.3252ZM62.7224 5.3252C62.6743 5.27086 62.8185 5.43388 62.7224 5.3252V5.3252ZM58.6851 5.48821C58.7331 5.48821 58.7812 5.48821 58.8293 5.48821C58.8293 5.3252 58.6851 5.43388 58.6851 5.48821ZM60.3673 5.3252C60.3192 5.48821 60.2231 5.48821 60.2231 5.65123C60.4154 5.65123 60.6076 5.70557 60.6557 5.48821C60.5115 5.48821 60.5115 5.3252 60.3673 5.3252ZM61.9053 5.48821C62.0014 5.48821 62.1456 5.48821 62.1456 5.3252C62.0495 5.37954 61.9053 5.3252 61.9053 5.48821ZM64.5007 5.48821C64.4527 5.43388 64.5968 5.59689 64.5007 5.48821V5.48821ZM59.406 5.65123C59.6463 5.65123 59.8386 5.65123 60.0789 5.65123C60.175 5.37954 59.358 5.37954 59.406 5.65123ZM61.1844 5.81425C61.0882 5.16218 61.6169 5.75991 61.1844 5.81425V5.81425ZM62.8666 5.97726C62.2898 6.14028 62.8185 5.48821 62.8666 5.97726V5.97726ZM63.8278 6.73801C63.8278 6.79235 63.8278 6.84668 63.8278 6.90102C64.4527 7.22705 65.2217 7.17272 65.7504 7.22705C65.3659 6.62933 64.8852 6.79234 64.7891 6.14028C64.4527 6.35763 65.0294 6.57499 64.6449 6.73801C64.5007 6.62933 64.3085 6.52065 63.972 6.57499C63.972 6.68367 63.924 6.79235 63.8278 6.73801ZM45.2755 6.30329C45.3235 6.738 45.8522 6.14028 45.2755 6.30329V6.30329ZM50.8027 6.46631C50.8027 6.41197 50.8027 6.35763 50.8027 6.30329C49.6492 6.35763 49.6973 6.84668 50.8027 6.46631ZM42.9204 6.46631C42.9684 6.90102 43.4971 6.3033 42.9204 6.46631V6.46631ZM48.5918 6.57499C48.5438 6.52065 48.6879 6.68367 48.5918 6.57499V6.57499ZM48.8802 6.57499C48.8321 6.52065 48.9763 6.68367 48.8802 6.57499V6.57499ZM50.8027 6.46631C51.4275 6.90102 52.0043 6.24896 50.8027 6.46631V6.46631ZM51.764 6.57499C52.0043 6.52065 52.4849 6.79235 52.4849 6.46631C52.2927 6.52065 51.764 6.24896 51.764 6.57499ZM54.2633 6.46631C54.071 6.90102 54.8881 6.90102 54.6958 6.46631C54.5036 6.62933 54.4555 6.52065 54.2633 6.46631ZM65.6062 6.57499C65.5581 6.52065 65.7023 6.68367 65.6062 6.57499V6.57499ZM53.8788 6.57499C53.9268 6.84668 54.023 6.57499 53.8788 6.57499V6.57499ZM55.2245 6.73801C55.1765 6.68367 55.3207 6.84668 55.2245 6.73801V6.73801ZM56.0897 6.73801C56.0416 6.68367 56.1858 6.84668 56.0897 6.73801V6.73801ZM59.2618 6.73801C59.0696 7.22705 60.0789 7.17272 60.0789 6.90102C59.6463 7.0097 59.5983 6.73801 59.2618 6.73801ZM60.6557 6.90102C60.0789 6.73801 60.6076 7.39007 60.6557 6.90102V6.90102ZM66.1829 6.90102C66.1349 7.60742 66.8077 7.33573 67 7.06404C66.8077 6.79234 66.4713 7.28139 66.1829 6.90102ZM60.7999 7.22705C60.7037 7.17272 60.896 7.33573 60.7999 7.22705V7.22705ZM61.9053 7.06404C61.7131 7.17272 61.9053 7.28139 61.9053 7.06404V7.06404Z" fill="#F890C6"/>
</svg>
