<svg width="36" height="8" viewBox="0 0 36 8" fill="none" xmlns="http://www.w3.org/2000/svg">
<path d="M30.7567 0.740742C30.562 0.691359 30.5133 0.888889 30.3672 0.888889C30.4159 0.296297 29.8317 0.740742 29.783 0.888889C29.783 0.790124 29.783 0.691359 29.783 0.592593C20.7281 0.0493826 10.0666 0 0.184062 0C-0.302763 1.4321 0.33011 3.35803 0.33011 4.44444C0.476157 4.44444 0.476157 4.59259 0.476157 4.69136C0.33011 4.69136 0.184062 4.69136 0.086697 4.69136C0.670887 5.23457 -0.108033 5.58025 0.768252 5.97531C0.816935 5.53087 1.49849 5.82716 1.7419 5.97531C1.54717 5.97531 1.35244 5.97531 1.30376 6.12346C3.93262 6.27161 4.85758 6.02469 6.07465 6.27161C7.09698 5.77778 8.55746 5.82716 9.48242 5.87654C9.33638 5.33333 10.0179 5.62963 10.31 5.58025C10.5048 5.08642 9.8232 5.48148 9.87188 5.1358C11.5271 4.88889 12.2573 5.38272 13.8152 4.98766C13.5718 4.93827 13.231 4.93827 13.0849 4.69136C13.7665 4.64198 13.8639 4.69136 14.6428 4.59259C14.6428 4.49383 14.6428 4.39506 14.6428 4.2963C14.1073 3.55556 16.298 4.14815 15.9085 3.45679C15.9085 3.45679 15.2756 3.75309 15.0809 3.45679C16.2006 3.11111 17.7098 3.35803 18.294 3.45679C18.294 3.35803 18.294 3.25926 18.44 3.30864C18.44 3.20988 18.5374 3.11111 18.5861 3.30864C18.7321 3.30864 18.6834 3.11111 18.7321 3.01235C18.5374 3.01235 18.6347 2.81482 18.7321 3.01235C18.7808 2.96296 19.2676 2.66667 19.2676 3.01235C19.1702 3.11111 18.8782 3.11111 18.8295 3.30864C19.9005 3.40741 21.361 3.40741 22.6267 3.30864C22.6267 3.25926 22.6267 3.20988 22.6267 3.16049C22.1399 2.91358 21.8965 3.35803 21.507 3.01235C21.6531 2.66667 22.3833 2.96296 22.7728 2.8642C22.8214 3.06173 22.9675 3.11111 22.7728 3.30864C22.9188 3.25926 22.9188 3.35803 22.9188 3.45679C23.5517 3.50617 24.574 3.25926 25.0121 3.55556C24.9148 3.7037 24.8174 3.95062 25.0121 4C25.1582 3.75309 25.1095 4.14815 25.3042 4.14815C25.645 3.70371 24.9148 3.70371 25.3042 3.16049C24.4766 3.11111 23.9411 3.50617 23.3569 2.8642C24.5253 2.71605 25.645 3.25926 25.9858 2.71605C26.0832 2.91358 26.1805 3.01235 26.4239 3.01235C26.4239 2.96296 26.4239 2.91358 26.4239 2.8642C25.9858 2.8642 26.2779 2.17284 25.8398 2.17284C25.8398 2.41975 25.7911 2.61729 25.5963 2.71605C25.5477 2.12346 25.499 2.71605 25.3042 2.71605C25.0608 2.5679 25.0121 2.2716 24.6227 2.32099C24.574 2.46914 24.574 2.61728 24.3306 2.5679C24.3793 1.92593 23.7951 2.76543 23.7464 2.17284C23.6977 2.17284 23.649 2.17284 23.6004 2.17284C23.2596 2.32099 23.8925 2.5679 23.503 2.71605C23.2596 2.17284 22.8701 2.66667 22.6267 2.17284C23.0648 2.12346 22.9675 2.02469 23.3569 1.7284C23.5517 2.12346 24.574 1.53086 24.7201 2.17284C25.0121 1.38272 25.5477 2.02469 25.7424 1.58025C25.645 1.38272 25.2069 1.58025 25.1582 1.28395C25.0121 1.33333 25.0608 1.08642 25.1582 1.28395C25.3042 1.1358 25.7424 1.18519 25.7424 1.58025C26.1805 1.67901 26.1318 2.22222 26.57 2.32099C26.5213 2.12346 26.3266 1.97531 26.57 1.87654C26.8134 2.17284 27.2515 1.97531 27.8357 2.02469C27.6897 2.61728 27.7384 2.46914 28.1278 2.71605C27.4463 2.66667 28.2739 3.25926 27.6897 3.30864C27.7871 2.8642 27.5436 2.76543 27.5436 2.41975C27.0081 2.2716 26.9594 2.51852 26.57 2.32099C26.57 2.5679 26.5213 2.71605 26.4239 2.8642C26.5213 2.8642 26.57 2.96296 26.4239 3.01235C26.3266 3.50617 25.8884 3.16049 25.4503 3.16049C25.3529 4 26.2779 3.01235 26.4239 3.7037C26.2292 3.7037 26.0345 3.70371 25.9858 3.85185C26.2292 3.90124 26.716 3.70371 26.57 4.14815C26.9594 4.14815 27.3976 4.14815 27.3976 3.7037C26.6187 3.55556 27.2029 4 26.716 4C26.716 3.85185 26.716 3.7037 26.716 3.55556C26.9108 3.65432 27.4463 3.40741 27.3976 3.7037C27.7384 4 27.7871 4 28.1278 3.7037C28.1278 3.80247 28.1278 3.90124 28.1278 4C28.2252 4 28.2252 4.19753 28.2252 4.2963C29.3449 4.14815 29.5883 4.09877 30.5133 4.2963C30.5133 4 30.562 3.80247 30.7567 3.7037C30.9514 3.95062 31.4869 3.85185 31.8764 3.85185C31.8277 4.2963 32.1685 4.2963 32.6066 4.2963C32.6066 4.04938 32.2172 4.19753 32.1685 4C32.6553 4.04938 32.8987 4 32.9961 4.14815C32.9961 4.2963 32.8014 4.2963 32.6066 4.2963C32.6066 4.39506 32.6066 4.49383 32.6066 4.59259C33.1908 4.69136 33.1421 4.54321 33.7263 4.69136C33.7263 4.59259 33.8237 4.54321 33.8724 4.44444C33.4829 4.44444 33.2882 4.34568 33.1421 4.14815C33.5803 4.04938 33.5803 4.39506 34.0184 4.2963C33.9697 4.09877 34.2131 4.19753 34.0184 4.2963C34.0671 4.79012 34.2131 4.98765 33.7263 4.69136C33.8237 5.08642 33.0448 4.59259 33.1421 4.98766C33.3369 4.98766 33.3855 5.03704 33.4342 5.1358C33.1908 5.48148 33.1908 5.53086 32.6066 5.72839C32.7527 5.72839 32.704 5.87655 32.7527 5.97531C33.3369 6.07408 32.6066 5.72839 32.9961 5.72839C33.0934 5.92593 33.5316 5.7284 33.5803 5.97531C32.9474 6.22222 31.7303 6.17284 31.3409 5.72839C31.8764 5.62963 31.9251 5.62963 32.4606 5.72839C32.6553 5.18519 31.9737 5.62963 32.0224 5.28395C32.5093 5.1358 32.7527 5.62963 32.85 5.1358C32.8013 5.1358 32.704 5.1358 32.7527 4.98766C32.5093 5.03704 32.4606 4.88889 32.4606 4.69136C31.8764 4.74074 31.8277 5.28395 31.7303 5.4321C31.4869 5.53087 30.9514 5.23457 30.9027 5.58025C31.2922 5.62963 30.708 5.77778 30.6106 5.87654C30.6106 5.4321 30.7567 5.1358 31.0488 4.98766C31.0001 4.79012 30.708 4.88889 30.5133 4.83951C30.9514 4.59259 30.1238 4.39506 30.0751 4.69136C30.2212 4.93827 30.5133 4.98766 30.6106 5.28395C30.3672 5.18519 29.783 5.4321 29.783 5.1358C29.6857 4.49383 30.1725 5.38272 30.0751 4.69136C29.4909 4.2963 27.5923 4.49383 26.57 4.44444C26.5213 4.59259 26.2779 4.54321 26.2779 4.69136C26.5213 4.98765 27.641 4.69136 27.9818 4.83951C28.2739 4.83951 28.6633 4.79012 28.9554 5.1358C28.4686 5.23457 28.2739 5.03704 27.9818 4.98766C27.5436 5.28395 26.716 4.74074 26.4239 5.28395C26.7647 5.48148 26.8621 5.23457 27.0081 5.4321C26.9594 5.7284 26.3753 5.48148 26.2779 5.72839C27.6897 6.07407 29.8804 5.67901 31.0488 6.27161C31.1948 5.87654 31.633 6.32099 31.8764 6.27161C31.8764 6.22222 32.0224 6.12346 32.0224 6.27161C32.6066 6.37037 33.2882 6.32099 33.5803 6.71605C33.629 6.91358 33.4342 6.96296 33.4342 7.11111C34.0671 7.40741 34.6026 7.85185 35.3815 8C35.5276 7.20988 36.2091 4.64198 35.5276 4.2963C35.5276 4.39506 35.5276 4.44444 35.3815 4.44444C35.1868 4.49383 35.4302 4.59259 35.3815 4.44444C35.3815 4.34568 35.4302 4.24691 35.5276 4.2963C35.0407 4.09877 35.0894 3.80247 35.8197 3.85185C35.8197 3.80247 35.8197 3.75309 35.8197 3.7037C35.4302 3.60494 35.0894 3.50617 34.846 3.30864C35.1868 3.45679 35.6249 3.01235 35.2355 2.8642C35.1868 3.06173 35.0894 2.81482 34.846 2.8642C34.846 2.96296 34.7 3.01235 34.7 2.8642C34.6513 2.8642 34.6026 2.8642 34.5539 2.8642C34.5539 2.96296 34.5539 3.06173 34.5539 3.16049C34.6513 3.16049 34.7 3.25926 34.5539 3.30864C34.5539 3.25926 34.5539 3.20988 34.5539 3.16049C34.4079 3.16049 34.2618 3.16049 34.1158 3.16049C34.1645 2.91358 34.4566 2.5679 34.0184 2.5679C34.0184 2.8642 34.0184 3.16049 34.0184 3.45679C34.1158 3.45679 34.1645 3.55556 34.1158 3.7037C34.2131 3.7037 34.3105 3.75309 34.2618 3.85185C34.6026 4.04939 34.7 3.30864 34.846 3.7037C34.846 3.85185 34.9434 3.90124 34.9921 4C34.6026 3.90124 34.6026 4.19753 34.2618 4.14815C34.2618 4.04938 34.2618 3.95062 34.2618 3.85185C34.2131 3.85185 34.1158 3.85185 34.1158 3.7037C33.9697 3.7037 33.9211 3.90123 33.8724 3.7037C33.8724 3.55556 33.9697 3.55555 34.0184 3.45679C33.8237 3.35803 33.7263 3.25926 33.7263 3.01235C33.1421 3.45679 32.1198 3.11111 31.4869 2.8642C31.779 2.66667 31.3409 2.46914 31.7303 2.32099C31.5843 2.32099 31.4869 2.2716 31.4869 2.17284C31.3409 2.12346 31.1948 2.17284 31.1948 2.02469C31.2922 2.02469 31.4869 2.02469 31.4869 2.17284C31.9251 2.02469 32.85 2.17284 33.2882 2.41975C33.0934 2.46914 32.7527 2.37037 32.7527 2.5679C33.0448 2.51852 32.8987 3.01235 33.1421 3.01235C33.4829 2.76543 33.2395 2.46914 33.8724 2.32099C33.9211 2.12346 34.0184 2.02469 34.2618 2.02469C34.2618 1.97531 34.2618 1.92593 34.2618 1.87654C33.6776 1.67901 33.6776 2.5679 33.2882 2.17284C33.2882 1.77778 33.8237 1.97531 33.8724 1.58025C33.629 1.53086 33.1421 1.72839 33.2882 1.28395C33.3855 1.48148 33.8237 1.33333 33.8724 1.58025C34.1158 1.58025 34.3105 1.62963 34.4079 1.7284C34.4566 1.62963 34.5539 1.58025 34.7 1.58025C34.7 1.77778 34.7487 1.87654 34.846 2.02469C34.9921 2.02469 34.9434 1.82716 34.9921 1.7284C34.8947 1.7284 34.7973 1.62963 34.9921 1.58025C33.3855 0.938272 31.8764 1.08642 30.7567 0.740742ZM21.7991 0.592593C21.7504 0.543211 21.8965 0.691359 21.7991 0.592593V0.592593ZM22.7728 0.592593C22.7241 0.543211 22.8701 0.691359 22.7728 0.592593V0.592593ZM26.8621 0.740742C26.6674 0.740742 26.7647 0.543211 26.8621 0.740742C27.0568 1.03704 27.8844 0.740741 28.1278 1.03704C27.6897 1.23457 27.4463 0.938271 26.716 1.03704C26.716 0.888889 26.8134 0.839506 26.8621 0.740742ZM24.3306 0.888889C24.3306 1.03704 24.1359 0.987654 24.0385 1.03704C24.0385 0.888889 24.2332 0.888889 24.3306 0.888889ZM26.57 0.888889C26.57 1.03704 26.3753 0.987654 26.2779 1.03704C26.2779 0.888889 26.4726 0.888889 26.57 0.888889ZM30.5133 1.58025C30.6593 0.740743 28.8094 1.62963 28.3712 0.888889C29.7344 0.987655 31.4869 1.1358 33.1421 1.28395C32.9961 1.67901 32.6066 1.48148 32.85 2.02469C32.5093 1.62963 32.4606 1.72839 32.0224 1.4321C32.5093 2.07407 31.0001 1.92593 30.5133 1.58025C30.3185 1.92593 31.0488 2.02469 30.6106 2.17284C30.6593 2.37037 30.9514 2.32099 31.0488 2.41975C30.9514 2.8642 30.9514 3.25926 31.633 3.30864C31.633 3.35803 31.633 3.40741 31.633 3.45679C31.5843 4.04938 32.1685 3.45679 31.633 3.45679C31.3896 3.45679 31.1461 3.40741 31.1948 3.7037C30.8054 3.55556 30.7567 3.40741 30.3672 3.55556C30.3185 3.40741 30.562 3.35803 30.3672 3.30864C30.3672 3.11111 30.562 3.16049 30.7567 3.16049C30.6593 2.8642 30.3672 2.81482 30.2212 2.5679C30.2212 3.16049 29.4909 2.76543 30.0751 2.5679C29.8317 2.61728 29.7344 2.41975 30.0751 2.41975C30.0264 2.22222 29.783 2.2716 29.637 2.17284C30.0264 1.72839 29.783 1.92593 29.637 1.4321C29.9778 1.4321 30.3185 1.4321 30.5133 1.58025ZM22.3346 1.58025C21.9452 1.58025 22.4807 0.987656 22.3346 1.58025C22.578 1.48148 22.578 2.2716 22.3346 2.17284C22.3346 2.32099 21.9451 2.32099 21.9451 2.17284C21.7504 2.12346 21.5557 2.17284 21.507 2.02469C20.9228 2.17284 21.507 1.58025 21.507 2.02469C21.7017 1.92593 21.8478 1.87654 21.9451 1.7284C22.1399 1.77778 22.0425 2.02469 21.9451 2.17284C22.0912 2.17284 22.2372 2.17284 22.3346 2.17284C22.3346 1.97531 22.3346 1.77778 22.3346 1.58025ZM23.503 1.28395C23.4543 1.4321 23.3083 1.4321 23.2109 1.4321C23.2109 1.28395 23.3569 1.33333 23.503 1.28395ZM26.1318 1.4321C25.5477 1.58025 26.1318 1.03704 26.1318 1.4321C26.2292 1.62963 26.3266 1.4321 26.1318 1.4321ZM26.57 1.4321C26.7647 1.92593 26.9108 0.888889 26.57 1.4321V1.4321ZM27.6897 1.28395C27.7384 1.67901 26.8621 1.92593 27.1055 1.28395C27.3002 1.28395 27.495 1.28395 27.6897 1.28395ZM28.9554 1.58025C28.9554 1.48148 29.1015 1.4321 29.1015 1.28395C29.2475 1.38272 29.3936 1.48148 29.3449 1.7284C29.1502 1.77778 29.1502 1.58025 28.9554 1.58025ZM17.8558 1.87654C17.8071 1.82716 17.9532 1.97531 17.8558 1.87654V1.87654ZM18.294 1.87654C18.2453 1.82716 18.3913 1.97531 18.294 1.87654V1.87654ZM20.9715 2.02469C20.7768 2.02469 20.6307 1.92593 20.5334 1.87654C20.582 1.62963 20.8255 1.77778 20.9715 1.87654C20.9715 1.92593 20.9715 1.97531 20.9715 2.02469C21.361 2.02469 20.8255 2.61728 20.9715 2.02469ZM28.1278 2.17284C28.4686 2.17284 28.4686 1.82716 28.6633 1.7284C28.9067 1.82716 28.6147 2.61728 28.5173 2.8642C28.1765 2.61728 28.3712 2.5679 28.1278 2.17284ZM18.5861 2.02469C18.5374 1.97531 18.6834 2.12346 18.5861 2.02469V2.02469ZM19.5597 1.87654C18.7808 1.82716 19.365 2.41975 19.5597 1.87654V1.87654ZM20.0952 1.87654C20.0952 2.02469 19.9492 1.97531 19.8518 2.02469C19.8518 1.87654 19.9978 1.92593 20.0952 1.87654ZM29.2475 2.41975C29.0528 2.91358 28.8094 2.32099 28.9554 2.02469C29.1015 1.97531 29.1502 2.22222 29.2475 2.02469C29.3936 2.02469 29.3936 2.22222 29.3449 2.41975C29.3936 2.41975 29.4423 2.41975 29.4909 2.41975C29.4909 2.2716 29.7344 2.37037 29.4909 2.41975C29.4909 2.51852 29.3936 2.61728 29.3449 2.41975C29.3449 2.41975 29.2962 2.41975 29.2475 2.41975ZM20.5334 2.32099C20.4847 2.22222 20.6307 2.37037 20.5334 2.32099V2.32099ZM18.294 2.41975C18.2453 2.37037 18.3913 2.51852 18.294 2.41975V2.41975ZM18.9755 2.41975C18.9755 2.2716 19.2189 2.37037 18.9755 2.41975C18.7808 2.51852 19.0242 2.61728 18.9755 2.41975ZM21.6531 2.41975C21.7991 1.87654 21.7991 3.01235 21.6531 2.41975V2.41975ZM15.3243 2.5679C15.2756 2.51852 15.4217 2.66667 15.3243 2.5679V2.5679ZM17.7098 2.41975C17.7098 2.5679 17.5637 2.5679 17.4664 2.5679C17.4664 2.41975 17.6124 2.46914 17.7098 2.41975ZM18.1479 2.41975C18.1479 2.5679 18.0019 2.5679 17.8558 2.5679C17.8558 2.41975 18.0505 2.46914 18.1479 2.41975ZM19.4137 2.5679C19.365 2.51852 19.511 2.66667 19.4137 2.5679V2.5679ZM20.9715 2.41975C20.9228 2.61728 20.582 2.5679 20.3873 2.5679C20.436 2.37037 20.7281 2.46914 20.9715 2.41975ZM22.4807 2.5679C22.432 2.51852 22.578 2.66667 22.4807 2.5679V2.5679ZM27.2515 2.71605C27.2029 2.66667 27.3489 2.81482 27.2515 2.71605V2.71605ZM31.1948 2.71605C31.1461 2.66667 31.2922 2.81482 31.1948 2.71605V2.71605ZM17.0282 2.8642C16.2493 2.51852 16.298 3.35803 17.0282 2.8642V2.8642ZM29.4909 2.71605C29.4909 2.8642 29.3449 2.81482 29.2475 2.8642C29.2475 2.71605 29.3936 2.76543 29.4909 2.71605ZM14.1073 3.01235C14.0099 2.96296 14.1559 3.11111 14.1073 3.01235V3.01235ZM14.9349 3.01235C14.8862 2.96296 15.0322 3.11111 14.9349 3.01235V3.01235ZM15.9085 2.8642C15.9085 3.01235 15.7138 2.96296 15.6164 3.01235C15.6164 2.8642 15.8112 2.91358 15.9085 2.8642ZM17.1743 3.01235C17.1256 2.96296 17.2716 3.11111 17.1743 3.01235V3.01235ZM17.7098 3.01235C18.3426 3.35803 18.5374 2.51852 17.7098 3.01235V3.01235ZM20.0952 3.16049C19.7058 3.25926 19.7544 2.96296 19.4137 3.01235C19.365 2.76543 20.3386 2.71605 20.0952 3.16049ZM20.5334 2.8642C20.5334 3.01235 20.3873 2.96296 20.2413 3.01235C20.2413 2.8642 20.436 2.91358 20.5334 2.8642ZM21.361 2.8642C21.361 3.20988 21.0202 3.20988 20.8255 3.01235C20.8741 2.81482 21.1662 2.91358 21.361 2.8642ZM27.2515 3.45679C27.0568 3.35803 27.0081 3.11111 27.0081 2.8642C27.2029 2.81482 27.2029 3.01235 27.3976 3.01235C27.3489 3.11111 27.2515 3.25926 27.2515 3.45679ZM15.227 3.16049C15.1296 3.11111 15.2756 3.25926 15.227 3.16049V3.16049ZM28.5173 3.16049C28.4686 3.11111 28.6147 3.25926 28.5173 3.16049V3.16049ZM28.8094 3.16049C28.9554 2.5679 28.9554 3.70371 28.8094 3.16049V3.16049ZM29.3449 3.30864C29.4909 3.25926 29.5396 3.16049 29.4909 3.01235C29.9291 3.01235 29.783 3.60494 29.3449 3.55556C29.3449 3.50617 29.3449 3.40741 29.3449 3.30864C29.3449 2.8642 28.8094 3.40741 29.3449 3.30864ZM29.9291 3.30864C29.8804 3.20988 30.0264 3.40741 29.9291 3.30864V3.30864ZM13.231 3.45679C13.1823 3.35803 13.3283 3.50617 13.231 3.45679V3.45679ZM14.4967 3.30864C14.4967 3.40741 14.3507 3.40741 14.2046 3.45679C14.2533 3.30864 14.3994 3.30864 14.4967 3.30864ZM14.6428 3.45679C14.5941 3.35803 14.7401 3.50617 14.6428 3.45679V3.45679ZM32.4606 3.7037C32.2658 3.65432 32.2172 3.45679 32.0224 3.45679C32.0711 3.06173 32.5579 3.40741 32.4606 3.7037ZM32.6066 3.85185C32.6553 3.75309 32.7527 3.65432 32.7527 3.45679C33.1421 3.30864 33.1421 3.7037 33.5803 3.55556C33.2882 4 33.0448 3.60494 32.6066 3.85185ZM11.2837 3.85185C11.235 3.80247 11.381 3.95062 11.2837 3.85185V3.85185ZM11.7218 3.85185C11.6245 3.80247 11.7705 3.95062 11.7218 3.85185V3.85185ZM12.5494 3.85185C12.5007 3.80247 12.6468 3.95062 12.5494 3.85185V3.85185ZM13.377 4C13.6691 4 13.5718 3.60494 13.9612 3.7037C13.9125 4.24691 14.0586 3.75309 14.3507 3.85185C14.302 4 14.2046 4.09877 14.2046 4.2963C13.8152 3.90123 13.1823 4.64198 13.0849 3.85185C13.2797 3.85185 13.377 3.90124 13.377 4ZM28.8094 3.7037C28.9067 3.80247 28.2739 4.09877 28.3712 3.85185C28.4199 3.80247 28.712 3.60494 28.8094 3.7037ZM30.2212 4C29.8804 3.85185 29.9291 3.95062 29.3449 3.85185C29.3936 3.65432 30.4159 3.55556 30.2212 4ZM29.1015 4C29.0528 3.95062 29.1988 4.09877 29.1015 4V4ZM11.9652 4.14815C11.9165 4.09877 12.0626 4.24691 11.9652 4.14815V4.14815ZM12.2573 4.14815C12.4521 4.59259 12.5981 3.60494 12.2573 4.14815V4.14815ZM34.4079 4.44444C34.3592 4.39506 34.5052 4.54321 34.4079 4.44444V4.44444ZM34.9921 4.59259C34.9434 4.39506 35.1868 4.49383 34.9921 4.59259C35.2842 5.03704 34.8947 4.74074 34.5539 4.69136C34.6026 4.54321 34.7973 4.54321 34.9921 4.59259ZM9.72584 4.83951C9.67715 4.79012 9.8232 4.93827 9.72584 4.83951V4.83951ZM11.8192 4.83951C11.7705 4.79012 11.9165 4.93827 11.8192 4.83951V4.83951ZM12.5494 4.83951C12.5007 4.79012 12.6468 4.93827 12.5494 4.83951V4.83951ZM35.5276 4.83951C35.5276 4.69136 35.7223 4.79012 35.5276 4.83951C34.9434 4.74074 35.5276 5.28395 35.5276 4.83951ZM29.637 4.98766C28.9554 4.59259 29.1502 5.48148 29.637 4.98766V4.98766ZM33.7263 5.4321C33.7263 5.23457 33.775 5.1358 33.8724 4.98766C34.0184 4.98766 34.0184 5.1358 34.1158 5.1358C34.1158 5.23457 34.1158 5.33333 34.1158 5.4321C34.0184 5.4321 33.8724 5.4321 33.7263 5.4321C33.6776 5.82716 33.1421 5.28395 33.7263 5.4321ZM28.9554 5.4321C28.6633 5.82716 27.3976 5.87654 27.1055 5.28395C27.495 5.38272 28.1278 5.4321 28.9554 5.4321ZM30.0751 5.72839C29.4909 5.82716 30.0264 5.28395 30.0751 5.72839C30.1725 5.92593 30.2212 5.67901 30.0751 5.72839ZM30.7567 0.740742C30.7567 0.543211 30.9514 0.641976 30.7567 0.740742V0.740742ZM31.0488 1.4321C31.1461 1.53086 31.7303 1.77778 31.7303 1.4321C31.6817 1.38272 31.0975 1.08642 31.0488 1.4321ZM34.9921 1.7284C35.1381 1.7284 35.2355 1.7284 35.3815 1.7284C35.3815 1.58025 35.1381 1.62963 34.9921 1.58025C34.9921 1.62963 34.9921 1.67901 34.9921 1.7284ZM34.4079 1.7284C34.5052 1.92593 34.6026 1.7284 34.4079 1.7284V1.7284ZM35.3815 1.7284C35.3815 1.77778 35.3815 1.82716 35.3815 1.87654C35.5276 1.97531 35.771 2.07407 35.8197 1.87654C35.7223 1.77778 35.5763 1.7284 35.3815 1.7284ZM23.7464 2.17284C23.8925 2.17284 23.8925 2.12346 23.8925 2.02469C23.7951 1.97531 23.7464 2.07407 23.7464 2.17284ZM25.8398 2.17284C25.6937 2.17284 25.7911 1.92593 25.8398 2.17284V2.17284ZM34.2618 2.02469C34.2618 2.07407 34.2618 2.12346 34.2618 2.17284C34.4566 2.12346 34.5052 2.17284 34.5539 2.32099C34.6513 2.32099 34.7487 2.32099 34.846 2.32099C34.846 2.22222 34.846 2.12346 34.846 2.02469C34.6513 2.02469 34.4566 2.02469 34.2618 2.02469ZM29.2475 2.41975C29.2475 2.37037 29.2475 2.32099 29.2475 2.32099C29.0528 2.32099 29.1502 2.41975 29.2475 2.41975ZM32.7527 2.5679C32.5093 2.51852 32.6066 2.12346 32.1685 2.32099C32.1685 2.37037 32.1685 2.46914 32.1685 2.5679C32.2658 2.61728 32.704 2.91358 32.7527 2.5679ZM33.8724 2.32099C34.0184 2.71605 34.6026 2.12346 33.8724 2.32099V2.32099ZM34.5539 2.32099C34.1158 2.32099 34.7 2.8642 34.5539 2.32099V2.32099ZM34.846 2.32099C34.7 2.8642 35.2355 2.32099 34.846 2.32099V2.32099ZM35.3815 2.41975C35.3328 2.37037 35.4789 2.51852 35.3815 2.41975V2.41975ZM30.0751 2.5679C30.1238 2.5679 30.1725 2.5679 30.2212 2.5679C30.2212 2.46914 30.1725 2.46914 30.0751 2.41975C30.0751 2.46914 30.0751 2.51852 30.0751 2.5679ZM32.1685 2.5679C32.0711 2.5679 32.0224 2.41975 31.8764 2.41975C31.6817 2.8642 32.2658 3.11111 32.1685 2.5679ZM33.5803 2.71605C33.5316 2.66667 33.6776 2.81482 33.5803 2.71605V2.71605ZM35.9657 2.71605C35.917 2.66667 36.0631 2.81482 35.9657 2.71605V2.71605ZM34.5539 2.8642C34.4079 2.8642 34.4566 2.66667 34.5539 2.8642V2.8642ZM34.7 2.8642C34.7487 2.8642 34.7973 2.8642 34.846 2.8642C34.7973 2.71605 34.7 2.76543 34.7 2.8642ZM35.8197 2.8642C35.6249 2.8642 35.7223 2.66667 35.8197 2.8642V2.8642ZM33.7263 3.01235C33.6776 2.81482 33.9211 2.91358 33.7263 3.01235V3.01235ZM35.8197 2.8642C35.917 3.06173 35.9657 2.8642 35.8197 2.8642V2.8642ZM35.8197 3.30864C35.771 3.16049 35.6736 3.06173 35.5276 3.01235C35.5763 3.25926 35.3815 3.25926 35.3815 3.45679C35.6249 3.45679 35.6249 3.30864 35.8197 3.30864ZM18.44 3.30864C18.44 3.40741 18.3913 3.40741 18.294 3.45679C17.4664 3.90123 16.7361 3.16049 16.2006 3.7037C16.9308 3.7037 18.0992 4.09877 18.7321 3.55556C18.5861 3.55556 18.5861 3.40741 18.5861 3.30864C18.5374 3.30864 18.4887 3.30864 18.44 3.30864ZM22.6267 3.30864C22.6754 3.45679 22.7728 3.35803 22.7728 3.30864C22.7241 3.30864 22.6754 3.30864 22.6267 3.30864ZM35.8197 3.30864C35.917 3.50617 35.9657 3.25926 35.8197 3.30864V3.30864ZM19.4137 3.7037C18.5374 3.90123 19.1216 3.30864 19.4137 3.7037V3.7037ZM19.5597 3.7037C19.8518 3.30864 20.436 3.90123 19.5597 3.7037V3.7037ZM20.5334 3.7037C20.6307 3.7037 20.8255 3.7037 20.8255 3.55556C20.7281 3.60494 20.5334 3.60494 20.5334 3.7037ZM21.1175 3.7037C21.2149 3.7037 21.361 3.7037 21.361 3.55556C21.2636 3.60494 21.1175 3.60494 21.1175 3.7037ZM21.7991 3.7037C21.7504 3.65432 21.8965 3.80247 21.7991 3.7037V3.7037ZM22.0912 3.7037C22.1886 3.7037 22.3346 3.7037 22.3346 3.55556C22.2372 3.60494 22.0912 3.60494 22.0912 3.7037ZM22.6267 3.7037C22.8214 3.16049 22.8214 4.2963 22.6267 3.7037V3.7037ZM22.9188 3.7037C23.0162 3.7037 23.2109 3.7037 23.2109 3.55556C23.1135 3.60494 22.9188 3.60494 22.9188 3.7037ZM35.8197 3.7037C35.8197 3.55556 36.0144 3.65432 35.8197 3.7037V3.7037ZM19.4137 3.7037C19.4623 3.90123 19.5597 3.80247 19.5597 3.7037C19.511 3.7037 19.4623 3.7037 19.4137 3.7037ZM23.6004 3.85185C23.5517 3.80247 23.6977 3.95062 23.6004 3.85185V3.85185ZM23.0648 4C23.0162 3.95062 23.1622 4.09877 23.0648 4V4ZM35.8197 3.85185C35.917 4.04939 35.9657 3.85185 35.8197 3.85185V3.85185ZM25.5963 4.14815C25.5477 4.09877 25.6937 4.24691 25.5963 4.14815V4.14815ZM28.1278 4C27.8844 4.09877 28.1278 4.19753 28.1278 4V4ZM31.0488 4.14815C30.4646 4.2963 31.0001 3.70371 31.0488 4.14815V4.14815ZM31.633 4.14815C31.1948 4.59259 31.3896 3.65432 31.633 4.14815V4.14815ZM14.6428 4.2963C14.6915 3.85185 15.227 4.44445 14.6428 4.2963V4.2963ZM15.6164 4.2963C15.5677 4.24691 15.7138 4.39506 15.6164 4.2963V4.2963ZM16.5901 4.44444C16.5901 4.34568 16.5901 4.24691 16.5901 4.14815C16.298 4.04938 16.3953 4.39506 16.2006 4.44444C16.2006 4.2963 16.1519 4.2963 16.0546 4.2963C16.0059 4.49383 16.2006 4.54321 16.2006 4.69136C16.298 4.69136 16.3953 4.69136 16.4927 4.69136C16.444 4.54321 16.4927 4.44444 16.5901 4.44444ZM17.3203 4.2963C17.1256 4.2963 17.2229 4.09877 17.3203 4.2963V4.2963ZM17.7098 4.44444C17.6611 4.14815 17.515 4.14815 17.3203 4.2963C17.3203 4.44445 17.5637 4.39506 17.7098 4.44444ZM19.4137 4.59259C19.4623 4.14815 19.0242 4.04938 18.9755 4.44444C19.1702 4.44444 19.3163 4.49383 19.4137 4.59259ZM27.6897 4.2963C27.641 4.24691 27.7871 4.39506 27.6897 4.2963V4.2963ZM31.0488 4.14815C30.9027 4.74074 31.4869 4.19753 31.0488 4.14815V4.14815ZM31.633 4.14815C31.6817 4.34568 31.779 4.14815 31.633 4.14815V4.14815ZM15.227 4.2963C14.4967 4.64198 15.7138 4.64198 15.227 4.2963V4.2963ZM16.7361 4.44444C16.9795 3.95062 17.1743 4.88889 16.7361 4.44444V4.44444ZM18.5861 4.44444C18.0992 4.54321 18.0019 4.14815 17.7098 4.44444C17.7098 4.64198 18.5861 4.64198 18.5861 4.44444ZM18.5861 4.44444C18.5374 4.24691 18.7808 4.34568 18.5861 4.44444V4.44444ZM20.3873 4.44444C20.4847 4.44444 20.582 4.44444 20.5334 4.59259C20.6307 4.59259 20.7281 4.59259 20.8255 4.59259C21.0202 4.24691 20.3386 4.14815 20.3873 4.44444ZM21.6531 4.44444C21.7504 4.39506 21.9451 4.44445 21.9451 4.2963C21.8478 4.2963 21.6531 4.2963 21.6531 4.44444ZM22.0912 4.44444C22.0425 4.39506 22.1886 4.54321 22.0912 4.44444V4.44444ZM22.4807 4.44444C22.4807 4.24691 22.7241 4.34568 22.4807 4.44444V4.44444ZM23.3569 4.44444C23.4543 4.39506 23.6004 4.44445 23.6004 4.2963C23.503 4.2963 23.3569 4.2963 23.3569 4.44444ZM24.8661 4.44444C24.9148 4.44444 24.9635 4.44444 25.0121 4.44444C25.0121 4.24691 24.8661 4.34568 24.8661 4.44444ZM25.0121 4.44444C24.8174 4.79012 25.499 4.83951 25.4503 4.59259C25.2556 4.49383 25.4503 4.44445 25.4503 4.2963C25.2069 4.24691 25.2069 4.44444 25.0121 4.44444ZM25.5963 4.2963C25.5963 4.39506 25.5963 4.49383 25.5963 4.59259C25.7424 4.59259 25.8398 4.59259 25.9858 4.59259C26.0345 4.2963 25.8398 4.24691 25.5963 4.2963ZM26.57 4.44444C26.3753 4.44444 26.4726 4.24691 26.57 4.44444V4.44444ZM30.5133 4.2963C30.562 4.49383 30.6593 4.2963 30.5133 4.2963V4.2963ZM0.33011 4.44444C0.13538 4.49383 0.378792 4.59259 0.33011 4.44444V4.44444ZM15.6164 4.59259C15.5677 4.49383 15.7138 4.64198 15.6164 4.59259V4.59259ZM16.5901 4.44444C16.6388 4.59259 16.7361 4.49383 16.7361 4.44444C16.6874 4.44444 16.6388 4.44444 16.5901 4.44444ZM21.2149 4.59259C21.361 4.54321 21.507 4.59259 21.507 4.44444C21.4096 4.44444 21.2636 4.44444 21.2149 4.59259ZM22.4807 4.44444C22.2859 4.49383 22.5293 4.59259 22.4807 4.44444V4.44444ZM24.8661 4.44444C24.2819 4.2963 24.8661 4.83951 24.8661 4.44444V4.44444ZM31.4869 4.59259C31.3896 4.49383 31.5843 4.64198 31.4869 4.59259V4.59259ZM31.8764 4.59259C32.0224 4.54321 32.1685 4.59259 32.1685 4.44444C32.0711 4.44444 31.8764 4.44444 31.8764 4.59259ZM24.0385 4.69136C23.9898 4.64198 24.1359 4.79012 24.0385 4.69136V4.69136ZM31.0488 4.98766C31.1461 5.1358 31.2922 5.23457 31.4869 5.28395C31.779 5.18519 31.3896 4.44444 31.1948 4.83951C31.3896 4.93827 31.1948 4.98766 31.0488 4.98766ZM31.633 4.83951C31.7303 4.83951 31.8764 4.83951 31.8764 4.69136C31.779 4.74074 31.633 4.74074 31.633 4.83951ZM13.8152 4.98766C13.7665 4.83951 14.0099 4.88889 13.8152 4.98766V4.98766ZM15.227 5.1358C15.3243 4.64198 14.0099 4.79012 14.1073 5.1358C14.6428 5.28395 14.8862 4.83951 15.227 5.1358ZM16.0546 4.98766C16.2493 4.54321 16.3953 5.53087 16.0546 4.98766V4.98766ZM16.5901 4.98766C16.5414 4.93827 16.6874 5.08642 16.5901 4.98766V4.98766ZM19.4137 4.98766C19.365 4.93827 19.511 5.08642 19.4137 4.98766V4.98766ZM27.9818 4.83951C27.7871 4.88889 27.8844 4.98766 27.9818 4.98766C27.9818 4.93827 27.9818 4.88889 27.9818 4.83951ZM32.7527 4.98766C32.8014 4.98766 32.8987 5.03704 32.85 5.1358C33.3369 5.1358 32.704 4.54321 32.7527 4.98766ZM18.9755 5.1358C19.1216 5.08642 19.2676 5.1358 19.2676 4.98766C19.1702 5.03704 18.9755 4.98766 18.9755 5.1358ZM20.5334 5.1358C20.4847 5.08642 20.6307 5.23457 20.5334 5.1358V5.1358ZM22.2372 5.1358C22.3346 5.08642 22.4807 5.1358 22.4807 4.98766C22.3833 5.03704 22.2372 4.98766 22.2372 5.1358ZM22.6267 5.1358C22.578 5.08642 22.7241 5.23457 22.6267 5.1358V5.1358ZM23.0648 5.1358C23.0162 5.08642 23.1622 5.23457 23.0648 5.1358V5.1358ZM23.503 5.1358C23.6004 5.08642 23.7464 5.1358 23.7464 4.98766C23.649 5.03704 23.503 4.98766 23.503 5.1358ZM24.8661 4.98766C24.574 4.93827 24.3306 5.03704 24.3306 5.28395C24.6227 5.33333 24.8661 5.23457 24.8661 4.98766ZM26.4239 5.28395C26.4726 4.83951 25.0608 5.18519 25.3042 5.28395C25.7911 5.08642 26.2779 5.58025 26.4239 5.28395ZM10.6021 5.4321C10.7969 4.93827 10.9429 5.97531 10.6021 5.4321V5.4321ZM11.5758 5.28395C11.3324 5.33333 10.8455 5.1358 10.9916 5.58025C11.3324 5.62963 11.5271 5.53087 11.5758 5.28395ZM13.5231 5.58025C13.4744 5.53087 13.6204 5.67901 13.5231 5.58025V5.58025ZM14.6428 5.58025C14.5941 5.53087 14.7401 5.67901 14.6428 5.58025V5.58025ZM19.7058 5.58025C19.6571 5.53087 19.8031 5.67901 19.7058 5.58025V5.58025ZM12.2573 5.72839C12.2086 5.62963 12.3547 5.82716 12.2573 5.72839V5.72839ZM23.503 5.72839C23.4056 5.62963 23.5517 5.82716 23.503 5.72839V5.72839ZM24.1845 5.72839C24.428 5.62963 25.0121 5.87654 25.0121 5.58025C24.7687 5.62963 24.1845 5.38272 24.1845 5.72839ZM25.1582 5.72839C25.3042 5.67901 25.5477 5.72839 25.5963 5.58025C25.4016 5.58025 25.2069 5.53086 25.1582 5.72839ZM26.2779 5.72839C25.5477 5.87654 26.1318 5.28395 26.2779 5.72839V5.72839ZM9.72584 5.87654C9.87188 5.82716 10.0179 5.82716 10.0179 5.72839C9.92057 5.72839 9.72584 5.72839 9.72584 5.87654ZM27.1055 6.12346C27.2515 6.12346 27.3976 6.12346 27.3976 5.97531C27.3002 6.02469 27.1055 5.97531 27.1055 6.12346ZM28.1278 6.12346C28.0305 6.07408 28.1765 6.22222 28.1278 6.12346V6.12346ZM28.5173 6.12346C28.4686 6.07408 28.6147 6.22222 28.5173 6.12346V6.12346ZM7.34039 6.27161C7.29171 6.22222 7.43776 6.37037 7.34039 6.27161V6.27161ZM29.9291 6.12346C29.0528 5.97531 29.637 6.5679 29.9291 6.12346V6.12346ZM30.0751 6.27161C30.0264 6.22222 30.1725 6.37037 30.0751 6.27161V6.27161ZM30.5133 6.41975C30.4159 6.37037 30.562 6.51852 30.5133 6.41975V6.41975ZM31.0488 6.27161C31.1461 6.46914 31.2435 6.27161 31.0488 6.27161V6.27161ZM31.3409 6.41975C31.2922 6.37037 31.4382 6.51852 31.3409 6.41975V6.41975ZM31.8764 6.27161C31.9251 6.41975 32.0224 6.37037 32.0224 6.27161C31.9737 6.27161 31.9251 6.27161 31.8764 6.27161Z" fill="#F890C6"/>
</svg>
