<svg xmlns="http://www.w3.org/2000/svg" width="48" height="48" viewBox="0 0 32 32"><path fill="#000000" d="M15.502 7.504a7.87 7.87 0 0 0-7.873 7.873a7.87 7.87 0 1 0 15.742-.001a7.868 7.868 0 0 0-7.87-7.873zm0 13.746a5.884 5.884 0 0 1-5.874-5.872a5.884 5.884 0 0 1 5.874-5.874a5.881 5.881 0 0 1 5.87 5.874a5.88 5.88 0 0 1-5.87 5.872zm0-14.273a1 1 0 0 0 1-1V1.124a1.001 1.001 0 0 0-2 .002v4.85c0 .55.447 1 1 1zm3.213.638a.995.995 0 0 0 1.307-.541l1.856-4.483a.999.999 0 0 0-.54-1.305a1.005 1.005 0 0 0-1.31.54L18.175 6.31a.999.999 0 0 0 .54 1.305zm2.725 1.82a.997.997 0 0 0 1.414 0l3.43-3.433a1 1 0 1 0-1.415-1.413l-3.43 3.43a1.003 1.003 0 0 0 0 1.416zm1.823 2.725a.996.996 0 0 0 1.306.539l4.48-1.858a1 1 0 1 0-.767-1.847l-4.48 1.857c-.51.212-.752.798-.54 1.308zm6.49 2.21l-4.852.002c-.55 0-1 .448-.997 1c0 .554.447 1 .998 1l4.853-.002a1.001 1.001 0 0 0 0-2zm-.7 5.53l-4.48-1.855a1 1 0 0 0-1.308.54c-.21.512.03 1.097.54 1.31l4.483 1.853a1.001 1.001 0 1 0 .767-1.849zm-6.193 1.41a1 1 0 0 0-1.414 1.414l3.434 3.43a.998.998 0 0 0 1.414-.001c.39-.392.39-1.025 0-1.415L22.86 21.31zm-2.83 2.363a1 1 0 0 0-1.848.767l1.86 4.48a.999.999 0 0 0 1.308.54c.51-.21.752-.797.54-1.31l-1.86-4.478zm-4.518.103a1 1 0 0 0-1 1l.004 4.85a1 1 0 0 0 1 1c.553 0 1-.448.998-1l-.003-4.852c0-.55-.448-1-.998-.998zm-3.216-.636a1 1 0 0 0-1.306.543l-1.852 4.483a1.003 1.003 0 0 0 .926 1.383a1 1 0 0 0 .924-.618l1.853-4.485a1 1 0 0 0-.544-1.305zM9.57 21.325a1 1 0 0 0-1.415.002L4.73 24.76a1 1 0 1 0 1.415 1.414l3.427-3.434a1 1 0 0 0-.002-1.415zm-1.824-2.72a1 1 0 0 0-1.307-.54l-4.48 1.86a1.001 1.001 0 0 0 .767 1.847l4.48-1.86c.508-.215.75-.8.54-1.31zM7.1 15.39a1 1 0 0 0-1-1l-4.85.007a1 1 0 1 0 0 1.998l4.852-.006c.552 0 1-.45.998-1zm-5.156-4.52l4.485 1.85a1 1 0 1 0 .761-1.849L2.71 9.02a1.002 1.002 0 0 0-.764 1.849zm6.193-1.42a.998.998 0 0 0 1.415-.003a.998.998 0 0 0-.005-1.414L6.113 4.61a.999.999 0 0 0-1.414.002a.999.999 0 0 0 0 1.414L8.138 9.45zm2.827-2.366a1 1 0 0 0 1.847-.77l-1.863-4.48a1 1 0 0 0-1.848.77l1.864 4.48z"/></svg>