<svg xmlns="http://www.w3.org/2000/svg" width="1484" height="758"> <g opacity=".7"><path fill="#FFF" fill-rule="evenodd" d="M1465.813 87.859h-65.798c-3.152 0-5.848-.524-8.077-1.576-2.235-1.047-4.272-2.758-6.107-5.122-1.317-3.676-4.599-6.957-9.85-9.85-5.257-2.888-11.955-4.334-20.094-4.334-8.933 0-15.76 1.514-20.488 4.531-4.728 3.022-7.092 7.424-7.092 13.199 0 3.94 1.441 7.356 4.334 10.244 2.887 2.893 8.009 5.454 15.366 7.683 7.351 2.234 17.595 4.666 30.732 7.289 24.951 3.681 45.113 8.932 60.479 15.76 15.366 6.833 26.595 15.76 33.687 26.792 7.092 11.032 10.638 24.822 10.638 41.37 0 18.653-5.387 34.672-16.154 48.068-10.773 13.396-25.548 23.707-44.325 30.929-18.783 7.221-40.256 10.835-64.419 10.835-27.58 0-50.5-3.879-68.753-11.623-18.259-7.745-31.914-17.86-40.976-30.338-9.062-12.473-13.858-25.672-14.381-39.597 0-2.364.788-4.334 2.364-5.91 1.576-1.576 3.546-2.364 5.91-2.364h62.646c3.675 0 6.563.591 8.668 1.773 2.099 1.182 4.334 2.825 6.698 4.925 2.364 2.893 5.122 5.583 8.274 8.077 3.152 2.499 7.221 4.469 12.214 5.91 4.987 1.446 10.767 2.167 17.336 2.167 12.079 0 21.405-1.638 27.974-4.925 6.563-3.282 9.85-7.813 9.85-13.593 0-4.464-1.773-8.139-5.319-11.032-3.546-2.888-9.524-5.516-17.927-7.88-8.409-2.364-19.835-4.858-34.278-7.486-20.229-3.411-37.695-8.471-52.402-15.169-14.713-6.698-25.942-15.76-33.687-27.186-7.751-12.326-11.623-25.543-11.623-42.355 0-17.072 4.79-32.173 14.381-45.31 9.585-13.132 22.981-23.376 40.188-30.732 17.201-7.351 37.233-11.032 60.085-11.032 18.912 0 35.657 2.499 50.235 7.486 14.578 4.992 26.854 11.493 36.839 19.503 9.979 8.015 17.595 16.615 22.852 25.807 5.251 9.197 8.009 17.994 8.274 26.398 0 2.364-.856 4.401-2.561 6.107-1.711 1.711-3.614 2.561-5.713 2.561ZM1280.33 294.452c1.503 1.41 2.256 3.15 2.256 5.217v33.276c0 1.881-.753 3.573-2.256 5.076-1.507 1.507-3.291 2.256-5.358 2.256h-87.138v27.918h80.934c2.067 0 3.851.705 5.358 2.115 1.503 1.41 2.256 3.15 2.256 5.217v30.456c0 2.071-.753 3.807-2.256 5.217-1.507 1.41-3.291 2.115-5.358 2.115h-80.934v28.482h89.394c2.067 0 3.851.753 5.358 2.256 1.503 1.507 2.256 3.291 2.256 5.358v32.994c0 2.071-.753 3.807-2.256 5.217-1.507 1.41-3.291 2.115-5.358 2.115h-140.436c-1.881 0-3.573-.705-5.076-2.115-1.507-1.41-2.256-3.146-2.256-5.217V299.669c0-2.067.749-3.807 2.256-5.217 1.503-1.41 3.195-2.115 5.076-2.115h138.18c2.067 0 3.851.705 5.358 2.115Zm-83.907 233.433c18.286 14.635 27.435 35.046 27.435 61.242 0 16.521-3.778 30.565-11.328 42.126-7.556 11.565-17.468 20.653-29.736 27.258l46.02 83.544c.708 1.416 1.062 2.715 1.062 3.894 0 2.124-.708 3.955-2.124 5.487-1.416 1.537-3.186 2.301-5.31 2.301h-59.826c-4.486 0-7.91-1.118-10.266-3.363-2.362-2.241-3.894-4.304-4.602-6.195l-35.4-72.924h-25.488v73.278c0 2.599-.885 4.779-2.655 6.549-1.77 1.77-3.955 2.655-6.549 2.655h-57.702c-2.362 0-4.486-.885-6.372-2.655-1.892-1.77-2.832-3.95-2.832-6.549V515.141c0-2.594.94-4.779 2.832-6.549 1.886-1.77 4.01-2.655 6.372-2.655h100.89c32.092 0 57.287 7.317 75.579 21.948Zm-57.348 42.834c-3.894-4.956-10.089-7.434-18.585-7.434h-33.63v49.56h33.63c8.258 0 14.392-2.301 18.408-6.903 4.01-4.602 6.018-10.322 6.018-17.169 0-7.08-1.947-13.098-5.841-18.054Zm-59.247-80.982h-37.224c-3.573 0-6.112-.798-7.614-2.397-1.507-1.595-2.538-2.772-3.102-3.525l-58.092-87.984v86.574c0 2.071-.705 3.807-2.115 5.217-1.41 1.41-3.15 2.115-5.217 2.115h-42.582c-1.882 0-3.573-.705-5.076-2.115-1.507-1.41-2.256-3.146-2.256-5.217V299.669c0-2.067.749-3.807 2.256-5.217 1.503-1.41 3.194-2.115 5.076-2.115h37.506c3.384 0 5.825.802 7.332 2.397 1.503 1.599 2.538 2.776 3.102 3.525l58.092 93.342v-91.932c0-2.067.749-3.807 2.256-5.217 1.503-1.41 3.195-2.115 5.076-2.115h42.582c2.067 0 3.807.705 5.217 2.115 1.41 1.41 2.115 3.15 2.115 5.217v182.736c0 2.071-.705 3.807-2.115 5.217-1.41 1.41-3.15 2.115-5.217 2.115Zm-69.361-210h-66.98c-2.629 0-4.993-.985-7.092-2.955-2.106-1.97-3.152-4.396-3.152-7.289V14.181c0-2.888 1.046-5.319 3.152-7.289 2.099-1.97 4.463-2.955 7.092-2.955h66.98c2.887 0 5.319.985 7.289 2.955 1.97 1.97 2.955 4.401 2.955 7.289v255.312c0 2.893-.985 5.319-2.955 7.289-1.97 1.97-4.402 2.955-7.289 2.955Zm-53.348 228.855c1.77 1.77 2.655 3.955 2.655 6.549v144.786c0 22.185-4.602 40.533-13.806 55.047-9.204 14.514-22.07 25.194-38.586 32.037-16.522 6.842-35.638 10.266-57.348 10.266-21.948 0-41.241-3.424-57.879-10.266-16.638-6.843-29.62-17.523-38.94-32.037-9.326-14.514-13.983-32.862-13.983-55.047V515.141c0-2.594.94-4.779 2.832-6.549 1.886-1.77 4.01-2.655 6.372-2.655h57.702c2.594 0 4.779.885 6.549 2.655 1.77 1.77 2.655 3.955 2.655 6.549v143.724c0 12.036 2.948 21.123 8.85 27.258 5.896 6.139 14.392 9.204 25.488 9.204 11.09 0 19.525-3.065 25.311-9.204 5.78-6.135 8.673-15.222 8.673-27.258V515.141c0-2.594.94-4.779 2.832-6.549 1.886-1.77 4.126-2.655 6.726-2.655h57.348c2.594 0 4.779.885 6.549 2.655Zm-78.357-18.855h-47.658c-3.573 0-6.301-.89-8.178-2.679-1.881-1.785-3.102-3.428-3.666-4.935l-28.2-58.092h-20.304v58.374c0 2.071-.705 3.807-2.115 5.217-1.41 1.41-3.15 2.115-5.217 2.115h-45.966c-1.881 0-3.573-.705-5.076-2.115-1.507-1.41-2.256-3.146-2.256-5.217V299.669c0-2.067.749-3.807 2.256-5.217 1.503-1.41 3.195-2.115 5.076-2.115h80.37c25.565 0 45.636 5.829 60.207 17.484 14.567 11.659 21.855 27.918 21.855 48.786 0 13.161-3.009 24.349-9.024 33.558-6.019 9.213-13.915 16.453-23.688 21.714l36.66 66.552c.564 1.128.846 2.163.846 3.102 0 1.692-.564 3.15-1.692 4.371-1.128 1.225-2.538 1.833-4.23 1.833Zm-66.411-145.794c-3.102-3.948-8.037-5.922-14.805-5.922h-26.79v39.48h26.79c6.579 0 11.465-1.833 14.664-5.499 3.195-3.666 4.794-8.222 4.794-13.677 0-5.64-1.551-10.434-4.653-14.382Zm-118.543-64.206h-64.222c-2.893 0-5.319-.985-7.289-2.955-1.97-1.97-2.955-4.396-2.955-7.289v-91.408h-80.376v91.408c0 2.893-.985 5.319-2.955 7.289-1.97 1.97-4.401 2.955-7.289 2.955H464.5c-2.628 0-4.992-.918-7.092-2.758-2.105-1.835-3.152-4.334-3.152-7.486V14.181c0-2.888 1.047-5.319 3.152-7.289 2.1-1.97 4.464-2.955 7.092-2.955h64.222c2.888 0 5.319.985 7.289 2.955 1.97 1.97 2.955 4.401 2.955 7.289v89.044h80.376V14.181c0-2.888.985-5.319 2.955-7.289 1.97-1.97 4.396-2.955 7.289-2.955h64.222c2.888 0 5.319.985 7.289 2.955 1.97 1.97 2.955 4.401 2.955 7.289v255.312c0 2.893-.985 5.319-2.955 7.289-1.97 1.97-4.401 2.955-7.289 2.955Zm-206.885 14.715c1.41 1.41 2.115 3.15 2.115 5.217v37.788c0 2.071-.705 3.807-2.115 5.217-1.41 1.41-3.15 2.115-5.217 2.115h-48.504v137.616c0 2.071-.705 3.807-2.115 5.217-1.41 1.41-3.15 2.115-5.217 2.115h-46.812c-2.071 0-3.807-.705-5.217-2.115-1.41-1.41-2.115-3.146-2.115-5.217V344.789h-48.504c-2.071 0-3.807-.705-5.217-2.115-1.41-1.41-2.115-3.146-2.115-5.217v-37.788c0-2.067.705-3.807 2.115-5.217 1.41-1.41 3.146-2.115 5.217-2.115h158.484c2.067 0 3.807.705 5.217 2.115ZM340.628 549.833c4.718 8.263 7.196 16.167 7.434 23.718 0 2.124-.769 3.954-2.301 5.487-1.538 1.537-3.247 2.301-5.133 2.301H281.51c-2.832 0-5.255-.471-7.257-1.416-2.008-.941-3.839-2.478-5.487-4.602-1.184-3.303-4.132-6.251-8.85-8.85-4.724-2.595-10.742-3.894-18.054-3.894-8.026 0-14.16 1.36-18.408 4.071-4.248 2.715-6.372 6.67-6.372 11.859 0 3.54 1.294 6.609 3.894 9.204 2.594 2.599 7.196 4.9 13.806 6.903 6.604 2.007 15.808 4.192 27.612 6.549 22.418 3.307 40.533 8.025 54.339 14.16 13.806 6.139 23.895 14.16 30.267 24.072 6.372 9.912 9.558 22.302 9.558 37.17 0 16.759-4.84 31.152-14.514 43.188-9.68 12.036-22.955 21.3-39.825 27.789-16.876 6.488-36.169 9.735-57.879 9.735-24.78 0-45.373-3.485-61.773-10.443-16.406-6.959-28.674-16.047-36.816-27.258-8.142-11.207-12.451-23.066-12.921-35.577 0-2.124.708-3.894 2.124-5.31 1.416-1.416 3.186-2.124 5.31-2.124h56.286c3.302 0 5.896.531 7.788 1.593 1.886 1.062 3.894 2.538 6.018 4.425 2.124 2.599 4.602 5.016 7.434 7.257 2.832 2.245 6.488 4.015 10.974 5.31 4.48 1.299 9.674 1.947 15.576 1.947 10.852 0 19.232-1.472 25.134-4.425 5.896-2.949 8.85-7.02 8.85-12.213 0-4.011-1.593-7.313-4.779-9.912-3.186-2.595-8.557-4.956-16.107-7.08-7.556-2.124-17.822-4.365-30.798-6.726-18.176-3.065-33.868-7.611-47.082-13.629-13.22-6.018-23.309-14.16-30.267-24.426-6.964-10.266-10.443-22.949-10.443-38.055 0-15.339 4.303-28.907 12.921-40.71 8.612-11.799 20.648-21.003 36.108-27.612 15.454-6.605 33.453-9.912 53.985-9.912 16.992 0 32.037 2.245 45.135 6.726 13.098 4.485 24.127 10.326 33.099 17.523 8.966 7.201 15.808 14.928 20.532 23.187Zm-62.244-60.096H241.16c-3.573 0-6.111-.798-7.614-2.397-1.507-1.595-2.538-2.772-3.102-3.525l-58.092-87.984v86.574c0 2.071-.705 3.807-2.115 5.217-1.41 1.41-3.15 2.115-5.217 2.115h-42.582c-1.881 0-3.573-.705-5.076-2.115-1.507-1.41-2.256-3.146-2.256-5.217V299.669c0-2.067.749-3.807 2.256-5.217 1.503-1.41 3.195-2.115 5.076-2.115h37.506c3.384 0 5.825.802 7.332 2.397 1.503 1.599 2.538 2.776 3.102 3.525l58.092 93.342v-91.932c0-2.067.749-3.807 2.256-5.217 1.503-1.41 3.195-2.115 5.076-2.115h42.582c2.067 0 3.807.705 5.217 2.115 1.41 1.41 2.115 3.15 2.115 5.217v182.736c0 2.071-.705 3.807-2.115 5.217-1.41 1.41-3.15 2.115-5.217 2.115ZM232.158 77.221H164.39v192.272c0 2.893-.985 5.319-2.955 7.289-1.97 1.97-4.402 2.955-7.289 2.955H88.742c-2.893 0-5.319-.985-7.289-2.955-1.97-1.97-2.955-4.396-2.955-7.289V77.221H10.73c-2.893 0-5.319-.985-7.289-2.955-1.97-1.97-2.955-4.396-2.955-7.289V14.181c0-2.888.985-5.319 2.955-7.289 1.97-1.97 4.396-2.955 7.289-2.955h221.428c2.887 0 5.319.985 7.289 2.955 1.97 1.97 2.955 4.401 2.955 7.289v52.796c0 2.893-.985 5.319-2.955 7.289-1.97 1.97-4.402 2.955-7.289 2.955ZM17.816 292.337h47.94c2.067 0 3.807.705 5.217 2.115 1.41 1.41 2.115 3.15 2.115 5.217v182.736c0 2.071-.705 3.807-2.115 5.217-1.41 1.41-3.15 2.115-5.217 2.115h-47.94c-1.881 0-3.573-.705-5.076-2.115-1.507-1.41-2.256-3.146-2.256-5.217V299.669c0-2.067.749-3.807 2.256-5.217 1.503-1.41 3.195-2.115 5.076-2.115Zm6.336 213.6h60.18c2.594 0 4.779.885 6.549 2.655 1.77 1.77 2.655 3.955 2.655 6.549v229.392c0 2.599-.885 4.779-2.655 6.549-1.77 1.77-3.955 2.655-6.549 2.655h-60.18c-2.362 0-4.486-.885-6.372-2.655-1.892-1.77-2.832-3.95-2.832-6.549V515.141c0-2.594.94-4.779 2.832-6.549 1.886-1.77 4.01-2.655 6.372-2.655Zm642.546-64.14c2.067 0 3.851.753 5.358 2.256 1.503 1.507 2.256 3.291 2.256 5.358v32.994c0 2.071-.753 3.807-2.256 5.217-1.507 1.41-3.291 2.115-5.358 2.115H526.262c-1.882 0-3.573-.705-5.076-2.115-1.507-1.41-2.256-3.146-2.256-5.217V299.669c0-2.067.749-3.807 2.256-5.217 1.503-1.41 3.194-2.115 5.076-2.115h138.18c2.066 0 3.851.705 5.358 2.115 1.503 1.41 2.256 3.15 2.256 5.217v33.276c0 1.881-.753 3.573-2.256 5.076-1.507 1.507-3.292 2.256-5.358 2.256h-87.138v27.918h80.934c2.067 0 3.851.705 5.358 2.115 1.503 1.41 2.256 3.15 2.256 5.217v30.456c0 2.071-.753 3.807-2.256 5.217-1.507 1.41-3.291 2.115-5.358 2.115h-80.934v28.482h89.394ZM483.821 546.293c9.558-14.393 22.711-25.311 39.471-32.745 16.754-7.434 36.34-11.151 58.764-11.151 22.18 0 41.65 3.717 58.41 11.151 16.754 7.434 29.968 18.352 39.648 32.745 9.674 14.397 14.746 32.097 15.222 53.1.47 10.387.708 20.83.708 31.329 0 10.503-.238 20.709-.708 30.621-.708 21.24-5.841 39-15.399 53.277-9.558 14.281-22.656 24.957-39.294 32.037-16.638 7.08-36.169 10.62-58.587 10.62-22.656 0-42.303-3.54-58.941-10.62-16.638-7.08-29.736-17.756-39.294-32.037-9.558-14.277-14.691-32.037-15.399-53.277-.238-9.912-.354-20.118-.354-30.621 0-10.499.116-20.942.354-31.329.708-21.003 5.841-38.703 15.399-53.1Zm63.543 112.926c.47 13.219 3.833 22.833 10.089 28.851 6.25 6.018 14.453 9.027 24.603 9.027 9.912 0 18.054-3.009 24.426-9.027 6.372-6.018 9.674-15.632 9.912-28.851.47-10.145.708-20.001.708-29.559s-.238-19.293-.708-29.205c-.238-8.729-1.831-15.93-4.779-21.594-2.954-5.664-6.964-9.791-12.036-12.39-5.078-2.595-10.919-3.894-17.523-3.894-6.61 0-12.512 1.299-17.7 3.894-5.194 2.599-9.265 6.726-12.213 12.39-2.954 5.664-4.547 12.865-4.779 21.594a1216.725 1216.725 0 0 0 0 58.764Zm716.496 17.346h56.286c3.302 0 5.896.531 7.788 1.593 1.886 1.062 3.894 2.538 6.018 4.425 2.124 2.599 4.602 5.016 7.434 7.257 2.832 2.245 6.488 4.015 10.974 5.31 4.48 1.299 9.674 1.947 15.576 1.947 10.852 0 19.232-1.472 25.134-4.425 5.896-2.949 8.85-7.02 8.85-12.213 0-4.011-1.593-7.313-4.779-9.912-3.186-2.595-8.557-4.956-16.107-7.08-7.556-2.124-17.822-4.365-30.798-6.726-18.176-3.065-33.868-7.611-47.082-13.629-13.22-6.018-23.309-14.16-30.267-24.426-6.964-10.266-10.443-22.949-10.443-38.055 0-15.339 4.303-28.907 12.921-40.71 8.612-11.799 20.648-21.003 36.108-27.612 15.454-6.605 33.453-9.912 53.985-9.912 16.992 0 32.037 2.245 45.135 6.726 13.098 4.485 24.127 10.326 33.099 17.523 8.966 7.201 15.808 14.928 20.532 23.187 4.718 8.263 7.196 16.167 7.434 23.718 0 2.124-.769 3.954-2.301 5.487-1.538 1.537-3.247 2.301-5.133 2.301h-59.118c-2.832 0-5.255-.471-7.257-1.416-2.008-.941-3.839-2.478-5.487-4.602-1.184-3.303-4.132-6.251-8.85-8.85-4.724-2.595-10.742-3.894-18.054-3.894-8.026 0-14.16 1.36-18.408 4.071-4.248 2.715-6.372 6.67-6.372 11.859 0 3.54 1.294 6.609 3.894 9.204 2.594 2.599 7.196 4.9 13.806 6.903 6.604 2.007 15.808 4.192 27.612 6.549 22.418 3.307 40.533 8.025 54.339 14.16 13.806 6.139 23.895 14.16 30.267 24.072 6.372 9.912 9.558 22.302 9.558 37.17 0 16.759-4.84 31.152-14.514 43.188-9.68 12.036-22.955 21.3-39.825 27.789-16.876 6.488-36.169 9.735-57.879 9.735-24.78 0-45.373-3.485-61.773-10.443-16.406-6.959-28.674-16.047-36.816-27.258-8.142-11.207-12.451-23.066-12.921-35.577 0-2.124.708-3.894 2.124-5.31 1.416-1.416 3.186-2.124 5.31-2.124Zm159.867-188.943c-1.41 1.41-3.15 2.115-5.217 2.115h-46.812c-2.071 0-3.807-.705-5.217-2.115-1.41-1.41-2.115-3.146-2.115-5.217V344.789h-48.504c-2.071 0-3.807-.705-5.217-2.115-1.41-1.41-2.115-3.146-2.115-5.217v-37.788c0-2.067.705-3.807 2.115-5.217 1.41-1.41 3.146-2.115 5.217-2.115h158.484c2.066 0 3.807.705 5.217 2.115 1.41 1.41 2.115 3.15 2.115 5.217v37.788c0 2.071-.705 3.807-2.115 5.217-1.41 1.41-3.151 2.115-5.217 2.115h-48.504v137.616c0 2.071-.705 3.807-2.115 5.217Z"/></g></svg>