<svg viewBox="0 0 1280 201" width="1280" height="201" role="img" fill="none" xmlns="http://www.w3.org/2000/svg">
  <g opacity=".04">
    <mask id="a" fill="#fff">
      <path d="M93.2 3.32 82.32 93.88 73.04 3.32H41.68l-8.96 90.56L21.84 3.32h-38.08l26.88 224h38.08v-.64C48.4 225.4 57.36 139 57.36 139s8.96 86.4 8.96 87.68l-.32.64h38.08l27.2-224H93.2ZM201.375 3.32v91.84h-16.64V3.32h-41.6v224h41.6v-92.16h16.64v92.16h41.92v-224h-41.92ZM296.922 227.32v-224h-41.599v224h41.599ZM406.68 3.32h-97.92V43h28.16v184.32h41.6V43h28.16V3.32ZM502.92 43V3.32h-84.16v224h84.16v-40h-42.56v-52.16H493v-40h-32.64V43h42.56ZM580.61 3.32h-65.6v224h41.6v-80.64h24c19.52 0 34.88-15.68 34.88-34.88V37.88c0-19.2-15.68-34.56-34.88-34.56Zm-6.72 95.36c0 4.48-3.52 8-8.32 8h-8.96V43h8.96c4.8 0 8.32 3.84 8.32 8.32v47.36ZM719.67 146.36V3h-40.96l-50.56 143.36v36.8h55.36V227h36.16v-43.84h13.76v-36.8h-13.76Zm-54.08 0 18.56-52.48-.64 52.48h-17.92ZM806.74 3.32v91.84l-21.44-81.6-2.88-10.24h-36.16v224h39.04v-82.88l21.44 82.88h39.36v-224h-39.36ZM955.742 3.32h-97.919V43h28.159v184.32h41.601V43h28.159V3.32ZM1026.06 3.32v91.84h-16.64V3.32h-41.597v224h41.597v-92.16h16.64v92.16h41.92v-224h-41.92ZM1167.69 114.68c5.44-5.12 9.28-11.52 11.52-18.56 1.28-3.84 1.92-7.36 1.92-9.92V42.04c0-23.04-18.88-41.92-41.92-41.92h-16.96c-23.04 0-41.6 18.88-41.6 41.92v34.24h41.6V48.44c0-4.48 3.52-8.32 8-8.32h.96c4.48 0 8 3.84 8 8.32V89.4c0 4.48-3.52 8-8 8h-8.96v35.52h8.96c4.48 0 8 3.52 8 8v40.96c0 4.48-3.52 8.32-8 8.32h-.96c-4.48 0-8-3.84-8-8.32v-27.84h-41.6v34.24c0 23.04 18.56 41.6 41.6 41.6h16.96c23.04 0 41.92-18.56 41.92-41.6v-44.16c0-2.88-.64-6.08-1.92-9.92-2.24-7.36-6.08-13.44-11.52-18.56l-.64-.64c.32 0 .32-.32.64-.32ZM1269.6 115.96h-.64c13.76 0 25.28-11.2 25.28-25.28V35.96c0-18.24-14.72-32.64-32.96-32.64h-67.52V227h41.6v-90.88h4.48c7.04 0 12.8 5.44 12.8 12.48V227h41.6v-86.08c0-13.76-11.2-24.96-24.64-24.96Zm-16.96-64.64V86.2c0 5.44-4.48 9.92-9.92 9.92h-7.36V43h8.96c4.48 0 8.32 3.84 8.32 8.32Z"/>
    </mask>
    <path d="M93.2 3.32 82.32 93.88 73.04 3.32H41.68l-8.96 90.56L21.84 3.32h-38.08l26.88 224h38.08v-.64C48.4 225.4 57.36 139 57.36 139s8.96 86.4 8.96 87.68l-.32.64h38.08l27.2-224H93.2ZM201.375 3.32v91.84h-16.64V3.32h-41.6v224h41.6v-92.16h16.64v92.16h41.92v-224h-41.92ZM296.922 227.32v-224h-41.599v224h41.599ZM406.68 3.32h-97.92V43h28.16v184.32h41.6V43h28.16V3.32ZM502.92 43V3.32h-84.16v224h84.16v-40h-42.56v-52.16H493v-40h-32.64V43h42.56ZM580.61 3.32h-65.6v224h41.6v-80.64h24c19.52 0 34.88-15.68 34.88-34.88V37.88c0-19.2-15.68-34.56-34.88-34.56Zm-6.72 95.36c0 4.48-3.52 8-8.32 8h-8.96V43h8.96c4.8 0 8.32 3.84 8.32 8.32v47.36ZM719.67 146.36V3h-40.96l-50.56 143.36v36.8h55.36V227h36.16v-43.84h13.76v-36.8h-13.76Zm-54.08 0 18.56-52.48-.64 52.48h-17.92ZM806.74 3.32v91.84l-21.44-81.6-2.88-10.24h-36.16v224h39.04v-82.88l21.44 82.88h39.36v-224h-39.36ZM955.742 3.32h-97.919V43h28.159v184.32h41.601V43h28.159V3.32ZM1026.06 3.32v91.84h-16.64V3.32h-41.597v224h41.597v-92.16h16.64v92.16h41.92v-224h-41.92ZM1167.69 114.68c5.44-5.12 9.28-11.52 11.52-18.56 1.28-3.84 1.92-7.36 1.92-9.92V42.04c0-23.04-18.88-41.92-41.92-41.92h-16.96c-23.04 0-41.6 18.88-41.6 41.92v34.24h41.6V48.44c0-4.48 3.52-8.32 8-8.32h.96c4.48 0 8 3.84 8 8.32V89.4c0 4.48-3.52 8-8 8h-8.96v35.52h8.96c4.48 0 8 3.52 8 8v40.96c0 4.48-3.52 8.32-8 8.32h-.96c-4.48 0-8-3.84-8-8.32v-27.84h-41.6v34.24c0 23.04 18.56 41.6 41.6 41.6h16.96c23.04 0 41.92-18.56 41.92-41.6v-44.16c0-2.88-.64-6.08-1.92-9.92-2.24-7.36-6.08-13.44-11.52-18.56l-.64-.64c.32 0 .32-.32.64-.32ZM1269.6 115.96h-.64c13.76 0 25.28-11.2 25.28-25.28V35.96c0-18.24-14.72-32.64-32.96-32.64h-67.52V227h41.6v-90.88h4.48c7.04 0 12.8 5.44 12.8 12.48V227h41.6v-86.08c0-13.76-11.2-24.96-24.64-24.96Zm-16.96-64.64V86.2c0 5.44-4.48 9.92-9.92 9.92h-7.36V43h8.96c4.48 0 8.32 3.84 8.32 8.32Z" stroke="#fff" stroke-width="4" mask="url(#a)"/>
  </g>
</svg>