<svg width="100%" height="100%" viewBox="0 0 1280 201" fill="none" xmlns="http://www.w3.org/2000/svg">
<g opacity="0.08">
<mask id="path-1-inside-1_2925_19344" fill="white">
<path d="M93.2 3.31999L82.32 93.88L73.04 3.31999H41.68L32.72 93.88L21.84 3.31999H-16.24L10.64 227.32H48.72V226.68C48.4 225.4 57.36 139 57.36 139C57.36 139 66.32 225.4 66.32 226.68L66 227.32H104.08L131.28 3.31999H93.2Z"/>
<path d="M201.375 3.31999V95.16H184.735V3.31999H143.135V227.32H184.735V135.16H201.375V227.32H243.295V3.31999H201.375Z"/>
<path d="M296.922 227.32V3.31999H255.323V227.32H296.922Z"/>
<path d="M406.68 3.31999H308.76V43H336.92V227.32H378.52V43H406.68V3.31999Z"/>
<path d="M502.92 43V3.31999H418.76V227.32H502.92V187.32H460.36V135.16H493V95.16H460.36V43H502.92Z"/>
<path d="M580.61 3.31999H515.01V227.32H556.61V146.68H580.61C600.13 146.68 615.49 131 615.49 111.8V37.88C615.49 18.68 599.81 3.31999 580.61 3.31999ZM573.89 98.68C573.89 103.16 570.37 106.68 565.57 106.68H556.61V43H565.57C570.37 43 573.89 46.84 573.89 51.32V98.68Z"/>
<path d="M719.67 146.36V3H687.67H678.71L628.15 146.36V183.16H683.51V227H719.67V183.16H733.43V146.36H719.67ZM665.59 146.36L684.15 93.88L683.51 146.36H665.59Z"/>
<path d="M806.74 3.31999V95.16L785.3 13.56L782.42 3.31999H746.26V227.32H785.3V144.44L806.74 227.32H846.1V3.31999H806.74Z"/>
<path d="M955.742 3.31999H857.823V43H885.982V227.32H927.583V43H955.742V3.31999Z"/>
<path d="M1026.06 3.31999V95.16H1009.42V3.31999H967.823V227.32H1009.42V135.16H1026.06V227.32H1067.98V3.31999H1026.06Z"/>
<path d="M1167.69 114.68C1173.13 109.56 1176.97 103.16 1179.21 96.12C1180.49 92.28 1181.13 88.76 1181.13 86.2V42.04C1181.13 19 1162.25 0.119995 1139.21 0.119995H1122.25C1099.21 0.119995 1080.65 19 1080.65 42.04V76.28H1122.25V48.44C1122.25 43.96 1125.77 40.12 1130.25 40.12H1131.21C1135.69 40.12 1139.21 43.96 1139.21 48.44V89.4C1139.21 93.88 1135.69 97.4 1131.21 97.4H1122.25V132.92H1131.21C1135.69 132.92 1139.21 136.44 1139.21 140.92V181.88C1139.21 186.36 1135.69 190.2 1131.21 190.2H1130.25C1125.77 190.2 1122.25 186.36 1122.25 181.88V154.04H1080.65V188.28C1080.65 211.32 1099.21 229.88 1122.25 229.88H1139.21C1162.25 229.88 1181.13 211.32 1181.13 188.28V144.12C1181.13 141.24 1180.49 138.04 1179.21 134.2C1176.97 126.84 1173.13 120.76 1167.69 115.64C1167.37 115.32 1167.37 115.32 1167.05 115C1167.37 115 1167.37 114.68 1167.69 114.68Z"/>
<path d="M1269.6 115.96H1268.96C1282.72 115.96 1294.24 104.76 1294.24 90.68V35.96C1294.24 17.72 1279.52 3.31999 1261.28 3.31999H1193.76V227H1235.36V136.12H1239.84C1246.88 136.12 1252.64 141.56 1252.64 148.6V227H1294.24V140.92C1294.24 127.16 1283.04 115.96 1269.6 115.96ZM1252.64 51.32V86.2C1252.64 91.64 1248.16 96.12 1242.72 96.12H1235.36V43H1244.32C1248.8 43 1252.64 46.84 1252.64 51.32Z"/>
</mask>
<path d="M93.2 3.31999L82.32 93.88L73.04 3.31999H41.68L32.72 93.88L21.84 3.31999H-16.24L10.64 227.32H48.72V226.68C48.4 225.4 57.36 139 57.36 139C57.36 139 66.32 225.4 66.32 226.68L66 227.32H104.08L131.28 3.31999H93.2Z" stroke="white" stroke-width="4" mask="url(#path-1-inside-1_2925_19344)"/>
<path d="M201.375 3.31999V95.16H184.735V3.31999H143.135V227.32H184.735V135.16H201.375V227.32H243.295V3.31999H201.375Z" stroke="white" stroke-width="4" mask="url(#path-1-inside-1_2925_19344)"/>
<path d="M296.922 227.32V3.31999H255.323V227.32H296.922Z" stroke="white" stroke-width="4" mask="url(#path-1-inside-1_2925_19344)"/>
<path d="M406.68 3.31999H308.76V43H336.92V227.32H378.52V43H406.68V3.31999Z" stroke="white" stroke-width="4" mask="url(#path-1-inside-1_2925_19344)"/>
<path d="M502.92 43V3.31999H418.76V227.32H502.92V187.32H460.36V135.16H493V95.16H460.36V43H502.92Z" stroke="white" stroke-width="4" mask="url(#path-1-inside-1_2925_19344)"/>
<path d="M580.61 3.31999H515.01V227.32H556.61V146.68H580.61C600.13 146.68 615.49 131 615.49 111.8V37.88C615.49 18.68 599.81 3.31999 580.61 3.31999ZM573.89 98.68C573.89 103.16 570.37 106.68 565.57 106.68H556.61V43H565.57C570.37 43 573.89 46.84 573.89 51.32V98.68Z" stroke="white" stroke-width="4" mask="url(#path-1-inside-1_2925_19344)"/>
<path d="M719.67 146.36V3H687.67H678.71L628.15 146.36V183.16H683.51V227H719.67V183.16H733.43V146.36H719.67ZM665.59 146.36L684.15 93.88L683.51 146.36H665.59Z" stroke="white" stroke-width="4" mask="url(#path-1-inside-1_2925_19344)"/>
<path d="M806.74 3.31999V95.16L785.3 13.56L782.42 3.31999H746.26V227.32H785.3V144.44L806.74 227.32H846.1V3.31999H806.74Z" stroke="white" stroke-width="4" mask="url(#path-1-inside-1_2925_19344)"/>
<path d="M955.742 3.31999H857.823V43H885.982V227.32H927.583V43H955.742V3.31999Z" stroke="white" stroke-width="4" mask="url(#path-1-inside-1_2925_19344)"/>
<path d="M1026.06 3.31999V95.16H1009.42V3.31999H967.823V227.32H1009.42V135.16H1026.06V227.32H1067.98V3.31999H1026.06Z" stroke="white" stroke-width="4" mask="url(#path-1-inside-1_2925_19344)"/>
<path d="M1167.69 114.68C1173.13 109.56 1176.97 103.16 1179.21 96.12C1180.49 92.28 1181.13 88.76 1181.13 86.2V42.04C1181.13 19 1162.25 0.119995 1139.21 0.119995H1122.25C1099.21 0.119995 1080.65 19 1080.65 42.04V76.28H1122.25V48.44C1122.25 43.96 1125.77 40.12 1130.25 40.12H1131.21C1135.69 40.12 1139.21 43.96 1139.21 48.44V89.4C1139.21 93.88 1135.69 97.4 1131.21 97.4H1122.25V132.92H1131.21C1135.69 132.92 1139.21 136.44 1139.21 140.92V181.88C1139.21 186.36 1135.69 190.2 1131.21 190.2H1130.25C1125.77 190.2 1122.25 186.36 1122.25 181.88V154.04H1080.65V188.28C1080.65 211.32 1099.21 229.88 1122.25 229.88H1139.21C1162.25 229.88 1181.13 211.32 1181.13 188.28V144.12C1181.13 141.24 1180.49 138.04 1179.21 134.2C1176.97 126.84 1173.13 120.76 1167.69 115.64C1167.37 115.32 1167.37 115.32 1167.05 115C1167.37 115 1167.37 114.68 1167.69 114.68Z" stroke="white" stroke-width="4" mask="url(#path-1-inside-1_2925_19344)"/>
<path d="M1269.6 115.96H1268.96C1282.72 115.96 1294.24 104.76 1294.24 90.68V35.96C1294.24 17.72 1279.52 3.31999 1261.28 3.31999H1193.76V227H1235.36V136.12H1239.84C1246.88 136.12 1252.64 141.56 1252.64 148.6V227H1294.24V140.92C1294.24 127.16 1283.04 115.96 1269.6 115.96ZM1252.64 51.32V86.2C1252.64 91.64 1248.16 96.12 1242.72 96.12H1235.36V43H1244.32C1248.8 43 1252.64 46.84 1252.64 51.32Z" stroke="white" stroke-width="4" mask="url(#path-1-inside-1_2925_19344)"/>
</g>
</svg>
